<?xml version="1.0" encoding="UTF-8"?>
<svg id="Layer_1" data-name="Layer 1" xmlns="http://www.w3.org/2000/svg" viewBox="0 0 292.2 183.72">
  <defs>
    <style>
      .cls-1 {
        fill: none;
        stroke: #000;
        stroke-linecap: round;
        stroke-linejoin: round;
        stroke-width: 2px;
      }
    </style>
  </defs>
  <g>
    <path class="cls-1" d="M247.35,81.79c.67,2.27-.02,4.58.2,6.85.3,3.03,2.08,5.01,4.99,5.64,1.21.26,2.42-.24,3.33-1.14,1.2-1.18,1.7-2.71,1.83-4.34.13-1.62.41-2.78,2.12-3.79,2.03-1.2,3.68-3.11,3.15-6.08-.36-1.99.29-4.03.49-5.97,1.14-.11,1.95.23,2.79.31,1.02.1,1.81-.1,2.55-.98,1.09-1.31,2.09-2.59,2.14-4.37.04-1.45-.46-2.65-1.5-3.69-.99-.99-2.28-1.58-3.2-2.65-.6-.71-1.6-.11-2.33-.51"/>
    <path class="cls-1" d="M253.04,40.35c1.46-.56,2.29-.18,3.87,1.32,1.25,1.18,1.61,2.73,1.59,4.2-.05,4.86.52,9.69.56,14.54.01,1.4-.16,2.84-.42,4.16-.54,2.78.25,5.65-.73,8.38-.25.69-.36,1.45.12,2.19.14.22.25.71.17.97-.53,1.84.13,3.72-.2,5.51-.26,1.44-.04,2.63.57,3.85"/>
    <path class="cls-1" d="M229.45,70.59c-.07,1.22-.76,2.27-1.23,3.31-1.6,3.53-2.76,7.18-3.77,10.89-.48,1.76.5,3.33,1.19,4.82,1.57,3.42,1.92,7.1,2.65,10.71.19.97.72,1.89.8,2.84.21,2.65.82,5.23,1.16,7.86.07.54.26,1.04.43,1.48.93,2.44.29,5.14,1.32,7.53.25.57-.21.9-.19,1.35.02.45-.25,1.13.66,1"/>
    <path class="cls-1" d="M185.94,45.53c1.15.16,1.46-.29,1.01-1.34-.54-1.26-1.02-2.56-1.54-3.83-.5-1.22-1.21-1.99-3.15-1.86-5.21.34-8.8,4.97-7.66,10.02.13.56-.04,1.01-.05,1.51-.02,2.62-.18,5.23-.12,7.86.07,2.88.18,5.79-.02,8.69-.11,1.67-.02,3.35.18,5.01.12,1.04.24,2.01-.18,3.02-.44,1.05.29,2.01.52,2.99.42,1.85.31,3.68.13,5.52"/>
    <path class="cls-1" d="M205.35,127.74c-1.92-.84-3.86-1.89-5.75-2.49-2.58-.81-5.02-2-7.63-2.72-1.44-.4-2.83-.99-4.2-1.62-1.68-.77-3.46-.99-5.34-1.13-1.91-.14-3.83.04-5.69-.15-3.04-.31-5.59.63-8.02,2.12-1.34.83-2.67,1.68-4,2.54-.73.47-2.03.69-1.92,2.11.03.38-.58.35-.96.33"/>
    <path class="cls-1" d="M231.79,122.56c-.01,1.9-.56,3.74-.37,5.68.26,2.61-.86,5.12-.9,7.68-.06,3.18-1.5,6.04-1.65,9.19-.06,1.25-.37,2.57-.62,3.84-.46,2.37-1.96,3.31-4.47,4.08-2.98.91-6.07.89-9.06,1.58-.43.1-1.04.21-1.25-.48"/>
    <path class="cls-1" d="M153.81,154.31c2.88.56,5.78,1.15,8.7,1.29,4.18.21,8.35.91,12.55.39.96-.12,1.89.26,2.84.32,3.51.24,7.03.16,10.54.17,4.25,0,8.49.33,12.72.69,1.56.13,3.06-.23,4.51-.58,2.58-.61,5.23-.96,7.71-1.95"/>
    <path class="cls-1" d="M168.2,62.74c-1.96-.51-2.83,1.3-4.15,2.06-1.57.9-2.46,2.55-2.85,4.3-.49,2.23.73,4.95,4.32,4.8,1.02-.04,2.01-.1,3.01.04"/>
    <path class="cls-1" d="M126.03,147.12c1.81,1.45,4.13,1.67,6.2,2.49,2.54,1,5.2,1.88,7.87,2.09,2.86.22,5.47,1.47,8.36,1.53,1.01.02,2.21.19,3.2.89.71.5,1.58.25,1.9-.31"/>
    <path class="cls-1" d="M169.2,58.56h-1.2c.28,1.51.33,3.02.55,4.51.24,1.61.6,3.37.48,4.83-.17,2.11.24,4.26-.45,6.38-1.03,3.2,2.33,8.44,5.65,8.97,1.1.17,1.03.7,1.21,1.53.65,2.93.33,5.96.98,8.86.9,4.04,3.16,4.62,5.67,4.16,2.38-.43,4.43-2.81,5.08-5.15.35-1.24.5-2.57,1.37-3.75.63-.86.13-2.29.18-3.45.05-1.46.18-2.9.41-4.34.18-1.08.42-2.16-.19-3.17-.28-.46-.24-.96-.12-1.33.26-.74.33-1.6.08-2.16-1.07-2.42-.72-5.06-.41-7.35.32-2.43-.34-4.71-.04-7.05.16-1.26-.36-2.45-.49-3.68-.06-.58-.19-1.24.66-1.42"/>
    <path class="cls-1" d="M223.09,60.73c2.21-1.65,5.01-.74,5.88,1.83.39,1.15-.12,1.93-.89,2.48-.69.5-1.46.97-2.22,1.23-2.13-1.01-2.66-2.83-2.97-4.87-.28-1.85-3.06-3.55-4.99-3.36-1.98.19-3.59,1.05-5.02,2.36"/>
    <path class="cls-1" d="M253.04,40.01c-3.92-1.19-5.46-.04-6.25,4-.73,3.75-.33,7.47-.28,11.21"/>
    <path class="cls-1" d="M188.95,73.77c2.28-.76,4.72-.61,7.03-1.18.75-.19,1.45.03,2.18.02.59-.01,1.05.27,1.16.83.92,4.7,3.29,8.81,5.38,13.02.14.28.46.56.3.83-.68,1.22.13,2.24.32,3.36.6,3.54,1.13,7.09.38,10.69-.35,1.7-.23,3.45-.36,5.18-.14,1.85.23,3.76.03,5.5-.29,2.45.18,4.93-.73,7.42-.59,1.61-.59,3.62-.63,5.47-.02.63.14,1.29-.33,1.84"/>
    <path class="cls-1" d="M229.62,71.76c2.97-.41,5.85.08,8.7.83.45.12.86.34,1.38-.12.28-.25,1.08-.23,1.45-.01,1.47.9,3.02.44,4.54.47"/>
    <path class="cls-1" d="M210.04,72.6c-1.16.81-1.33,2.09-1.72,3.33-.56,1.77-1.63,3.38-1.29,5.36"/>
    <path class="cls-1" d="M148.62,117.21c0-.11-.03-.31,0-.32.16-.06.2-.22.49-.23,2.15-.08,3.8,1.07,5.52,2.06,3.13,1.8,5.7,4.3,8.37,6.68"/>
    <path class="cls-1" d="M174.06,53.05c-.39,0-.78.02-1.17,0-3.91-.23-5.58,1.67-4.85,5.52"/>
    <path class="cls-1" d="M148.62,116.71c-3.95-.56-7.84-.04-11.72.66-.71.13-1.03.83-1.67,1.01-2.88.82-5.71,1.76-8.2,3.51-.31.22-.67.2-1,0"/>
    <path class="cls-1" d="M247.52,55.22c-.39.05-.81-.12-1.17.17,0,3.73-.39,7.52.13,11.18.36,2.5-.74,4.66-.52,7.04.2,2.12.45,4.18,1.19,6.19.24.65.88,1.69-.64,1.83"/>
    <path class="cls-1" d="M223.26,64.41c-1.87,2.14-2.57,1.81-5.08.44-2.83-1.55-4.7-4.09-7.31-5.78-.57-.37-1.34-.34-1.81-.12-.89.41-1.69.23-2.53.08-.55.6-.81,1.35-1.17,2.04"/>
    <path class="cls-1" d="M202,63.07c.39-.34.76-.74.98-1.18.46-.91,1.43-1.11,1.99-.77,1.66,1.01,3.61,1.64,4.75,3.44.5.78.43,1.5.11,2.18-.47,1.01-.72,2.15-1.48,3.02"/>
    <path class="cls-1" d="M258.9,49.04c.84-.09,1.66-.3,2.51,0,1.39.48,2.2,1.54,1.77,2.83-.37,1.13-.29,2.08-.15,3.2.24,1.95-.46,4,.72,5.84-1.17,2.18.49,4.42-.24,6.71-.5,1.59.03,3.44.41,5.15"/>
    <path class="cls-1" d="M187.11,45.69c.81,2.4.68,4.88.67,7.35,0,.68-.12,1.39.33,2.01"/>
    <path class="cls-1" d="M207.36,70.09c-1.11.79-2.23,1.54-2.86,2.83-.26.54-.88.84-1.3.32-1.28-1.59-2.56-.83-3.87-.15"/>
    <path class="cls-1" d="M246.02,62.07c-1.69.81-3.69.12-5.38,1.13-.61.37-1.25-.47-1.99-.48-2.32-.06-4.57.52-6.86.71-.8.07-1.56.21-2.35-.03"/>
    <path class="cls-1" d="M216.73,64.41c-.61,1.75-1.91,2.42-3.68,2.34"/>
    <path class="cls-1" d="M228.78,71.76c-1.73-.01-3.45.27-5.19.04-.5-.06-1.03.32-1.51-.2-.26-.28-.71-.29-.99-.16-2.35,1.08-4.96.58-7.38,1.29-1.73.51-3.25.23-4.22-1.62-.29-.56-.65-1.44-1.63-1.36"/>
  </g>
  <g>
    <g>
      <path d="M65.62,127.21c-.34-.36-.46.7-.59,1.05.19.04.3-.05.45-.16.02-.3-.06-.62.15-.89Z"/>
      <path d="M103.55,91.41c-.96,1.41-2.34,3.59-2.51,4.2-.12.42.53.18.74.24.14.13-.74,1.39.07,1.44.19-.46.64-.64.89-.97.8-1.04,1.28-2.7,2.03-3.76.28-.4.62-.76.96-1.12-.21-.08-.43-.16-.64-.24-.52.11-1.03.18-1.55.22Z"/>
      <path d="M87.98,75.96c-.32.18-.86.78-.91.78-.13,0-.28-.99-1.24-1.1-.18-.02-.86.4-.91.49-.09.17.15.68.13,1.01-.18,3.51-4.02,8.51-3.26,11.21.09.32.53.43.51.77-.02.27-.48,1.53-.81,2.41.1,0,.21,0,.31,0,.4,0,.72.14.96.35.22-.83.41-1.68.64-2.45.06-.07,1.01.34,1.25.29.85-.18,1.95-4.76,1.43-5.74-.05-.04-.67.7-.6.08.06-.51.64-1.89.87-2.44.64-1.55,1.67-3.92,3.11-4.69.42-.22,1.18-.17,1.26-.74.22-1.56-2.09-.59-2.75-.22Z"/>
      <path d="M153.75,65.95c-.65-2.94-3.13-6.91-6.39-6.06.6-.36.19-1.56.75-1.12-.04-.66.54-1.2.7-1.73.72-2.32-.38-4.47-2.06-5.88-.25-.21-1.46-.89-1.48-.98-.18-.61.36-.26.46-.5.18-.45-.05-.99.02-1.38.08-.43.49-.63.57-.85.04-.12-.72-.73-.14-1.36l.15.32c.38-.12.3-.61.3-.96-.95.36.17-.53.24-.79.95-3.57.74-10.94-.53-14.39-.75-2.04-2.57-3.87-4.49-4.57.65-1.22,2.71-2.79,1.5-4.25-1.68-2.03-7.74-.97-10.01-.4.26-2.15,2.32-4.37,2.4-6.5.04-1.17-1.38-1.2-1.91-.51-.47.62-.59,3.13-1.39,3.81-.44-1.85-1.14-4.56-3.08-5.12-1.07-.31-1.74-.13-2.8-.84-.21-.14-.27-.46-.48-.6-.87-.59-1.84-.87-2.83-1.13-1.76-.46-3.42-.75-5.19-1.33-.48-.16-1.64-.34-2.04-.53-.28-.14-1.05-1.06-1.45-1.33-1.08-.73-2.75-.98-3.63-1.72-.26-.22-.36-.73-.7-1.01-1.93-1.63-5.74-.09-7.63,1.07-.4.25-1.96,1.58-2.09,1.61-.15.03-1.63-.84-2.24-.92-.72-.09-1.21.14-1.78.14-.95,0-1.9-.47-3.14-.32-1.37.16-2.76,1.07-4.02,1.61-.46-.03-1.17-.84-1.69-.94-.26-.05-.59.14-.62.12-.05-.04-.04-.35-.26-.44-.64-.25-2.13.19-2.73.56-.42.26-.94,1.04-1.21,1.12-.53.16-1.37-.78-2.54-.17-.51.27-.74,1.36-1.13,1.36-.33,0-.43-.61-.67-.9-.13-.16-1.41-1.38-1.51-1.43-.71-.37-1.23-.09-1.84-.1-.38,0-.69-.22-1.2-.14-.41.07-1.71,1.19-1.88,1.55-.15.31-.15.68-.23,1.01-.04.17-.01.62-.29.48-.86-.44.26-2.89.36-3.62.14-1.02.02-1.71-.99-1.96-.51-.13-1.16.16-1.45-.53-.28-.65-.12-.81-.68-1.52-1.97-2.5-6.54-2.29-8.93-.6-.56.4-2.51,2.54-2.68,2.59-.27.07-2.23-1.05-2.79-.95-.05,0-.6,1-.7.38-.15-.92-.32-.06-.36-.06-.3,0-.65-.19-1.19-.13-1.35.16-2.71.82-4,1.64-.03.43-.19.84-.49,1.13l.06.02c-.02.08-.1.18-.2.28-.06.55-.35,1.06-.85,1.29,0,0,0,0,0,0-.04.18-.33.21-.44.38-.88,1.26-2.43,1.64-3.43,2.95-.07.28-.21.54-.41.74-.09.29-.17.64-.21.67-.24.16-.92.12-.93-.26-.11,0-.21-.02-.3-.05-.02,0-.04,0-.06-.02-.23-.07-.42-.2-.57-.35-.86.49-3.03-.24-4.02-.26-1.63-.03-3.32.21-4.68,1.24-.26.2-.5.64-.75.85-.53.46-1.25.74-1.68,1.53.7.02,1.3-1.02,1.87-1.52.11-.03.1.17.07.24-.1.24-1.43,1.67-1.65,1.77-.69.28-.69.25-1.44.69-2.38,1.41-6.92,4.48-7.48,7.53-.09.5.06,1.01-.12,1.48-.48,1.28-2.96,3.06-3.87,4.35-.6.86-.92,2.52-1.36,3.03-.26.29-1.1.52-1.51.78-.58.36-1.1.82-1.69,1.15-.07.27.46.04.3.4-.13.29-.86.52-1.12.72-1.31,1.06-.23,1.03-.23,1.2-.42.84-1.14.85-1.52,1.74-.07.17-.39,1.23-.39,1.34,0,.29.34.37.27.69-.11.02-.39-.05-.43,0-.05.06-.17,1.35-.17,1.52,0,.72.26,1.53.3,2.24.09,1.46-.09,3.34.57,4.68.36.74,1.04.65.64,1.75-.06.16-.07.46-.31.22-.29-.29.13-1.55-.45-1.44.16,2.76,1.83,4.89,4.56,4.65.22-.02,1.05-.2,1.18-.3.26-.18-.17-.79.38-.66l-.61,2.96c0,.17.39-.02.31.25-.61.03-.41.77-.56,1.24-.17.55-.93,1.52-.92.46,0-.57.26-.96-.16-1.63-.12-.19-1.71-1.38-2-1.55-1.38-.82-3.39-1.34-4.85-.57l-2.21,4.29c-.24,3.08-1.63,5.86-2.53,8.68C.93,70.76-.16,79.73.02,83.4c.17,3.35,1.16,6.56,1.75,9.83.39,2.14,0,4.09,1.84,5.56,1.47,1.17,3.24,1.75,4.59.15,1.35-1.6,2.26-3.99,3.65-5.64l.57-.03c.07.06-.23.25-.24.4-.01.13.39,2.15.46,2.5.32,1.6,1.65,4.65,1.72,5.87.02.27-.03.62-.08.99.6.29.87.97.84,1.63.84.33,1.12,1.41.83,2.23.07-.01.15.04.22.1.11.1,1.05,2.3,1.22,2.7.26.59,1.43,3.2,1.47,3.56.02.13.03.28.04.44,1.08,2,2.16,4,3.27,5.99.02.02.03.05.05.07,1.31,1.89,2.69,3.93,3.8,6.09.09.06.17.12.22.2.14.24.59,1.24.65,1.53.29.44.59.88.89,1.32.2,0,.2.13.22.31.58.83,1.18,1.65,1.81,2.46.01,0,.02-.01.04-.01,1.11,1.23,2.02,2.78,3.36,3.69.04.06-.29.33-.56.57.73.68,1.36,1.45,1.89,2.29-.04-.41-.05-.71.02-.78.47-.12.44.2.66.41,1.88,1.84,3.79,3.69,5.93,5.27.83.62,1.9,1.22,2.8,1.72.02.09.03.23.04.4.69.52,1.39,1.03,2.09,1.53.07-.21.16-.35.34-.34.15.02,2.2,1.3,2.64,1.51,3.14,1.48,6.5,2.31,9.75,3.45.14.12.22.22.27.3.34.04.68.09,1.01.17.06-.03.15-.03.26,0,.04.02.07.04.09.08.26.07.51.15.76.23,4.15-.24,8.41,1.08,12.58,1.94.83-.03,1.94-.12,2.56,0,.06.01.12.05.18.1.18-.09.4-.14.64-.15,1.21-.03,2.41-.22,3.6-.33.11-.04.3-.07.58-.1,0,0,0,.03,0,.06.43-.03.86-.04,1.3-.02.01-.04.02-.08.03-.13,1.71-.24,3.42-.45,5.12-.75.23-.21.53-.35.88-.4,1.38-.19,2.69-.59,3.99-.96.15-.08.36-.14.64-.18.34-.09.67-.18,1.01-.25.53-.72,4.62-2.41,5.34-3.14.12.08.16.16.17.24.67-.39,1.33-.79,1.98-1.19.77-1.4,2-1.84,3.23-2.91,1.83-1.59,3.56-3.38,5.38-4.97.03.11.05.23.06.34.95-1.42,1.85-2.83,3.26-3.8.13-.09.27-.16.4-.2,3.62-4.41,6.47-9.59,8.99-14.79,3.56-7.35,6.46-15.05,8.29-23.11.52-.13.45.26.74.57,1.13,1.19,1.81,1.6,2.24,3.37.25,1.05-.07,1.88.95,2.51.56.35,3.79.78,4.51.78.36,0,2.19-.29,2.46-.42.14-.06.35-.34.45-.48.86-1.16,1.56-2.71,2.44-3.88.72-.96.77-.46,1-2.06.25-1.69.43-1.43,1.03-2.91,1.1-2.69,3.18-6.22,3.16-9.12,0-1.03-.27-1.94-.31-2.89-.21-5.3,4.91-11.54,3.7-16.97ZM146.17,43.84c.21-.05.4.09.45.32h-.45s0-.32,0-.32ZM145.94,60.2c-.6.56-1.42.74-2.16.97-.11-.66.16-.97.6-1.36-.93-.62.01-.65.11-.75.38-.37-.08-1.09-.11-1.34,0-.07.27,0,.31-.3.17-1.43-.26-2.87.09-4.38.09-.38.33-.77.42-1.16,3.42,2.19,1.89,5.21.74,8.33ZM139.91,36.4c.2-.44.42-.05.67.13.13.1.72.53.74.57.39.66-.93,2.42-1.13,3.14-.01.04.81.36-.07.56-.65.15.01-.44-.67-.49v-.15c.16-.02.32-.05.39-.24.21-.55.02-2.74.07-3.52ZM143.02,43.3c.32,2.44.15,3.89-1.15,5.96-.25.4-1.01,1.22-1.38.57-.19-.34-.55-2.98-.58-3.52-.02-.38.02-.94,0-1.4,0-.35.38-.5-.16-.66.72-.31.42-.64.56-.99.28-.68.71-1.8,1.08-2.3,0-.22-.02-.43.07-.64l.68-1.45c.12,1.46.69,2.95.88,4.43ZM142.92,38.94c0-.11.09-.2.19-.2s.19.09.19.2-.09.2-.19.2-.19-.09-.19-.2ZM140.86,53.48c.19.13.42.13.62.22.04.02.06.18.17.24.64.33,1.3.05.81,1.42-.05.13-.78,1.32-.86,1.34-.38.07-1.49-1.5-1.51-1.86-.02-.42.5-.53.62-.73.1-.17-.15-.48.14-.63ZM140.2,42.24c.05-.23.24-.37.45-.32v.32s-.45,0-.45,0ZM140.5,57.56c0,.38-1.29,1.41-1.57,1.37-.4-.06.04-.66.06-.89.04-.5-.01-1.01,0-1.52.25-.26,1.5.75,1.5,1.04ZM139.24,50.84c-.08.15-.53.56-.69.38-.08-.09,0-2.16.22-2.41.12.7.82,1.32.47,2.03ZM138.7,36.46c-.36-.24-.28-1.05-.3-1.44.5.24.25.99.3,1.44ZM138.63,54.92c.43,0,.06,1.34.07,1.6-.78.13-.24-1.6-.07-1.6ZM139.9,60.37l-.15-.48c.62-.08,1.11-.56,1.58-.97.14-.12.18-.4.25-.45.18-.11,1.01-.07,1.31-.19.03.28-.02.54-.07.81-.06.3-.78,2.58-.87,2.68-.2.23-2.41.96-2.95,1.24-.21.11-1.1.84-1.2.72.23-1.8-.22-3.58,2.09-3.37ZM142.81,52.18s-.65-.61-.52-.8c.19-.03.79-.27.9-.16.15.15-.18.97-.37.96ZM143.19,39.35c.09,0,.27-.03.3,0,.02.02.19.6.15.64-.18.19-.59-.32-.45-.64ZM143.63,40.63c.14.16.06,1.39-.3.96-.03-.04.08-.95.3-.96ZM143.86,42.91c.1,0,.19.09.19.2s-.09.2-.19.2-.19-.09-.19-.2.09-.2.19-.2ZM145.23,40.11s-.22.03-.25.15c-.16.7,0,2.57-1.05,2.3-.17-.43.28-.24.3-.4.05-.4-.25-.18-.3-.24-.25-.31.28-.33.28-.39.01-.77-.64-2.5-.74-3.38l.84-.23c.4-.75-.47-.89-.53-.98-.16-.24,1.56-2.85,1.79-.4.06.59-.14,3.08-.35,3.57ZM143.58,28.33c1.27,1.46,1.76,3.62,1.99,5.56-.72-.22-1.62-.32-2.23.25-.24.23-.53,1.11-.83,1.03-.36-.69-.62-1.73-1.12-2.33-.32-.37-1.39-.78-1.57-1.2-.32-.71,0-3.44.39-4.08.79-1.29,2.66-.06,3.37.76ZM132.44,27.25c.08-.69.41-1.11.54-1.67.22-.94.24-2.44,1.01-3.09.91-.76,5.47-.96,6.66-.73,1.41.28,1.18.79.5,1.84-.12.18-.48.75-.61.8-.41.15-1.12-.53-1.38-.29-.1.1-.59,2.2-.78,2.61-.1.21-.76,1.22-.88,1.3-.35.22-1.33.17-1.73.55-.31.3-.16.83-.38,1.2-.44.76-1.94.59-2.66.55-.38-.92-.41-2.09-.3-3.09ZM136.46,34.38c-.79,1.05-.89-.7-1.2-1.04-.24-.25-.81-.3-1.04-.65.7-.07,1.14-.69,1.79-.88l-.15,2.73.6-.16ZM133.25,34.05c.09.02.5.32.5.4.01.19-1.61,2.93-1.86,3.28-.5.68-1.53,1.77-2.15,2.34-.16.14-1.19,1.05-1.27,1.05-.22,0-.75-.16-.9-.34-.65-.74-.75-4.28-.26-5.09.5-.83.36,1.21.78,1.49.75.51,1.2-1.45,1.18-1.94-.02-.46-.51-.69-.43-1.19,1.27.19,3.23-.26,4.41,0ZM110.82,37.75c-.36,0-2.22-.24-1.71-.81.2-.23,1.74.11,2.14,0,.12-.03.1-.32.19-.32.2,0,.48.19.87.16.51-.05,1.62-.85,2.01-.61.06.04.73,1.15.63,1.25-.62-.3-1.04.62-1.12.64-.15.04-.37-.18-.37-.24,0-.14.58-.3.59-.56-.99.04-2.27.48-3.22.49ZM95.81,29.56c.51-.75,1.22-1.31,1.79-2.01.66-.81,3.19-4.63,3.71-4.88.29-.14.89-.16,1.23-.34l-.3-.32.6-.16c-.07.94.07,1.91-.29,2.82-1.53,1.23-3.45,4.07-5.24,4.64-.49.16-.98.29-1.49.24ZM97.01,30.36h-.45c.05-.23.24-.37.45-.32v.32ZM96.75,21.01c.09.13.7.42.7.61,0,.44-2.23,2.18-2.83,2l.89-5.06c.47-.58.94-1.12,1.28-.06.13.41-.59,1.66-.03,2.51ZM94.91,16.72c-.22-.05-.86-.99-.74-1.12.21-.23.98.74.74,1.12ZM95.67,26.44c.38-.38.67-.77.84-1.05.18-.29.42-.56.8-.48.03.29-.15.5-.3.72-.44.65-1.56,1.94-2.12,2.54-.38.41-.59.27-.56-.3.02-.37,1.03-1.11,1.34-1.43ZM98.43,18.02c.38-1.17,2.46-.8,2.61.08.24,1.39-.76,2.28-1.94,2.48.02-.86-.92-1.81-.67-2.56ZM103.73,26.51c-.2.42-.01.88-.19,1.32-.45,1.12-3.18,2.34-4.3,2.53.5-.79,1.76-1.19,2.32-1.76.19-.19.89-.96,1.03-1.14.28-.35.28-1.08,1.13-.95ZM98.36,32.06c.06-.04,1.22-.51,1.29-.52.69-.1,1.67-.24,2.4-.74.16-.11.17-.5.61-.72.35-.17.71-.09,1.08-.04-1.54,1.45-3.28,2.85-3.29,5.29-1.27.33-3.28-2.35-2.09-3.28ZM101.97,35.13c.03-.19.51-1.44.62-1.67.1-.2.65-.71.77-1.02.34.57,1.18.47,1.56.73.08.06.91,1.18.9,1.26-.06.39-1.93.98-2.32,1.05-.46.08-1.63.32-1.53-.35ZM105.64,21.78c.02-.05-.06-.28.05-.46.39-.63.84.04.29.54.54.03,1.79-.24,1.42.64-.27.66-.8.28-.97.4-.09.06-.08.31-.27.4-.12.06-1.02.21-1.08.16.22-.46.17-1.01.31-1.48.04-.12.21-.12.25-.2ZM105.07,10.14c-.29.22-.89-.38-.74-.79.69.43.35-.17.64-.44.08-.07.68-.23.71-.2-.06.22-.54,1.39-.6,1.44ZM111.23,23.32c.25-.21,1.47-.27,1.74.02.12.13.52,1.39.48,1.63-.02.18-.69,1.38-.83,1.53-.19.19-2.39,1-2.53.97-.26-.05-.26-1.27-.19-1.49.1-.33.78-1.13.99-1.51.2-.38.3-1.12.34-1.16ZM111.05,13.75c.03-.22.08-.47.3-.24.1.11.78,2.72.76,2.97-.01.25-.62,1.2-.69,1.2-.25,0-.33-.17-.37-.4-.11-.69-.08-2.82,0-3.53ZM111.34,31.55c-.76.17-1.34.96-1.98,1.24-.7.31-.23-1.01-.07-1.12.19-.13.94-.05,1.27-.24.36-.21,1.22-1.11,1.54-1.47.53-.6.91-1.73,1.79-1.69-.32,1.62-1.48,2.29-2.55,3.28ZM113.43,34.84c-.15.25-2.12.87-2.52.66.25-.52.94-.82,1.27-1.12.18-.16.27-.57.46-.64.42-.14,1.01.71.78,1.1ZM110.46,29.24c.06.05-.57.81-.75.64.1-.39.34-.67.75-.64ZM106.61,17.96c.19-.46.15-1.04.35-1.55.19-.48.82-1.23,1.18-1.62.23,1.53.88,2.78,1.72,4.01-1.09-.3-2.43.35-3.36.33-1.33-.02-.12-.64.11-1.18ZM105.67,24.11v.32h-.45v-.32h.45ZM105.61,25.08c.07-.11-.14-.44-.09-.49.05-.05,1.13-.16,1.35-.32l-.18.53-1.76,2.52c-.12-.48-.29-1.31-.08-1.77.15-.31.64-.29.76-.47ZM103.85,36.83c.32-.06.68,0,.97-.08.31-.09,1.89-.94,2.05-.77.4.43-.81.84-1.01.92-.84.31-1.7.49-2.57.2-.03-.23.41-.25.56-.27ZM106,32.08c.06-.39.57-.67.77-.93.26-.33.28-1.07.99-.94.35.37-.5,3.53-.67,3.53-.29-.27-1.15-1.27-1.09-1.65ZM107.68,27.14c-.03.06-.62,1-.66,1.06-.09.12-.92.72-.98.72-.23,0-.19-.18-.07-.39.19-.34.52-.76.75-1.12.08-.12.03-.35.08-.41.29-.32.98-.16.66-.96l.3.16.3-.48c-.07.41-.22,1.08-.38,1.43ZM107.92,20.33c0-.25,1.25-.46,1.49-.4l-.45,1.12c-.5.09-.72-.42-1.04-.72ZM109.11,34.7c.21.21-.27.59-.6.32,0-.27.49-.43.6-.32ZM114.64,33.73c-.23-.44.27-1.38.26-1.53-.01-.17-.45-.31-.41-.79.02-.26.37-.63.48-.94.3-.83.58-1.67.89-2.5.47.16,2.39-.48,2.52.07.09.39-.58,1.02-.66,1.35-.06.28.14.59.05.87-.09.28-.43.18-.55.31-.05.05-.47.62-.64.83-.64.77-1.11,1.75-1.93,2.34ZM115.43,35.06c.29-.35.94-.79,1.31-1.25.24-.3.78-.97.84-1.31.02-.12-.11-.35-.1-.37.04-.03.29.01.43-.1.34-.28.76-.81.78-1.28,0-.12-.24-1.12.14-.8.23.2-.03.69.45.56.02-.44.13-.9.45-1.2l-.3-.24c.56-.08.52-1,1.13-.5.23.19,1,2.47,1.43,3.12.45.69.97.3.12,1.46-1.19,1.64-3.17,3.33-5.17,3.45-.63.04-2.04-.88-1.5-1.55ZM124.15,33.43l2.14.63c-.38,1.21-.64.64-1.53.84-.17.04-1.26.41-1.36.47-.2.12-.23.45-.34.46-.03,0-.49-.15-.5-.17-.12-.17,1.42-1.93,1.59-2.23ZM125.79,32.43c-2.08-.27-1.37-1.06-2.06-2.6-.17-.38-.52-.77-.72-1.15l-1.19-1.37c2.08.04,4.16-.1,6.21-.46.41.05-.04,1.05-.07,1.37-.02.22.01,1.55-.03,1.63-.04.07-.31.1-.46.39-.61,1.22.26,2.44-1.67,2.19ZM126,24.99c.54-.17,1.29-.3,1.78-.5.23-.1,1.4-.98,1.51-.87-.43,1.46-1.87,1.77-3.14,1.85-.22.01-.45.16-.59-.17-.13-.31.29-.26.45-.31ZM130.33,25.39l-.15-.48c.42-.02.6.32.15.48ZM130.04,28.52c-.07,1.41.4,2.83,1.19,3.93l-3.14.16,1.87-6.1c.62-.15.09,1.65.08,2.01ZM129.59,21.22c-.09-.07-.17-1.35-.45-1.6.87-.34,1.04,2.06.45,1.6ZM129.1,17.41c.03-.15-.02-1.27.33-.85.05.06.27,1.29.31,1.51-1.24.51-.8.08-.64-.66ZM126.75,21.62c1.01-.85,1.65.2,1.33.7-.07.11-2.05.6-2.38.65l1.05-1.36ZM126.43,19.59l-1.03.82.45-1.92c.26.12.72.85.58,1.1ZM125.55,12.87c-.73.37-1.14-.28-1.34-.96l1.34.96ZM124.06,18.57c.02-.41.1-1.48.45-1.69l-.15,2.09c-.38.06-.31-.06-.3-.4ZM124.05,25.63c0,.4-1.78.2-2.09.24-.43-1.43,2.08-.56,2.09-.24ZM122.11,23.46c.09-.36.47-.33.75-.32-.09.36-.47.33-.75.32ZM122.34,16.72c-.44.04.12-1.46.67-1.12.05.04-.45,1.1-.67,1.12ZM122.63,13.35c-.43.1-.55-1.33-.82-1.6.4-.33,1.73,1.38.82,1.6ZM121.21,18.01c-.11.79-.56,1.5-.82,2.25-.07.2-.06.61-.08.64-.24.32-.26-.13-.31-.23-.64-1.29.35-1.95,1.21-2.66ZM119.79,12.87c.93.24-.09,3.09-1.12,2.89-.37-.61.54-3.03,1.12-2.89ZM118.82,11.43l-1.19,1.48-.45.28c-.16-1,.6-2.29,1.64-1.76ZM116.88,15.44c.46.2.27.87.3,1.28-.78.19-.4-.7-.3-1.28ZM115.84,18.49c.51.12.51.62,1.09.84.28.11.83.09.86.12.08.08-.04,1.93,0,2.32.05.56.4,1.69.68,2.15.2.33,1.52,1.4.43,1.62-.29.06-2.46.06-2.67-.02-.5-.18-.48-2.17-.3-2.71.07-.21.39-.37.47-.75.27-1.25-.31-2.41-.57-3.58ZM114.48,10.05c1.03-.4,1.18.67,1.2,1.53-.73.09-1.69-.73-1.2-1.53ZM114.79,12.87c.03,1.02.01,1.96-.15,2.97-.03.16.11.55-.22.4-.94-.42.06-2.53-.08-3.37h.45ZM113.45,8.06s.58.14.6.16c.02.03,0,.22,0,.32h-.6s0-.48,0-.48ZM114.79,20.58c.03,2.13-.46,2.37-1.79.88l1.79-.88ZM112.92,12.23l.07.64h-.15c-.05-.34-.25-.41.07-.64ZM112.7,8.7c0,.6-.36.83-.9.8.35-.47.24-1.14.9-.8ZM110.79,7.61c.11-.13.53-.21.71-.36.18.27-.61,1.84-.97,1.76-.4-.09.15-1.29.26-1.41ZM110.75,20.58c.08.74-.45,1.02-1.05,1.12.61-.53.16-1.35,1.05-1.12ZM110.01,12.23s-.42,1.02-.41,1.24l-.18,1.48c-.18-.96-.34-1.59.21-2.42.06-.1.15-.57.39-.3ZM109.26,6.29c.13.15-.72,2.32-.88,2.66-.08.17.08.3-.31.23-.06-1.26-.5-3.01,1.19-2.89ZM102.31,7.26c1.24-.97,2.08-1.27,3.42-1.64.17-.05.39-.79.8-.56.03.02.04.28.11.29.25.03.59-.31,1.04-.35.28-.02,1.03-.02,1.13.33-.76.51-1.85-.25-2.39.48.08.05,1.3-.35.9.16-.02.03-.54.11-.74.26-.35.26-.55.68-.95.9-1.07.59-2.86.21-3.99.93-.05-.31.47-.64.67-.8ZM103.21,11.27c.97.03.57,1.78.18,2.2-1.03,1.14-1.63-2.25-.18-2.2ZM102.57,9.38l.94-.62.24.41-.94.62-.24-.41ZM102.03,14.62c.45.25,1.55.27,2.04.15.47-.11.63-.7,1.15-.61-.21.5-.36,1.25-.59,1.69-.27.52-.72.63-.91.94-.16.26-.12.8-.38.89-.5.17-2.88-2.44-2.9-2.98-.02-.48.42-.6.45-1.03.24-.18.87.79,1.14.94ZM100.89,8.86c.21.21-.06,2.68-.19,3.08-.11.35-1.18,1.83-1.53,1.73-.5-.14.25-1.54.33-1.89.26-1.13.04-2.43,1.39-2.92ZM97.31,6.94c.95-.41,3.1.5,1.72,1.6-.07,0-.16.02-.21,0-.01,0,0-.24-.11-.31-.5-.3-1.48-.41-1.39-1.28ZM96.93,8.87c.89.44.92,1.14.67,2.08-.1.11-1-.81-1.02-.91-.11-.4.05-.9.35-1.16ZM95.74,11.27c.37-.1,1.19,1.47.97,1.93-.84-.77-1.07,1.33-1.2,1.44-.18.17-.82-.41-.87-.59-.16-.51.78-2.7,1.1-2.78ZM94.91,9.5l-.9,1.12c.09-.46.3-1.24.9-1.12ZM91.49,9.61c.11-.39,1.57-.8,1.93-1.07.09.1-.94,1.56-1.08,1.82-.1.19-.1.57-.12.59-.25.28-.8-1.11-.73-1.34ZM91.76,16.94c.12-.18.19-1.1.62-.7.09.08-.28,2.18-.98,2.06-.74-.13.24-1.18.36-1.36ZM92.07,18.81h-.6s0-.32,0-.32c.03-.04.57.14.6.16.02.02,0,.11,0,.16ZM90.43,10.79c-.03.25.59,1.79.08,1.76-.25-.02-1.25-1.77-.08-1.76ZM90.63,21.54c.2-.5.09-1.63.99-1.77-.06-.28-.61-.11-.08-.49.61-.44,1.37.62,2.17.33.16.15-1.03,4.17-1.23,4.3-.39.23-2.67-.22-2.89-.6-.2-.35.87-1.36,1.04-1.77ZM92.97,28.76s.55.21.74,0c-.03.5-.38,1.06-.89.96.02-.17.12-.93.15-.96ZM92.22,27.15c.18-.17.52-1.34.9-.96.19.19-.55,1.13-.9.96ZM89.83,25.55c.07-.31.33-.36.6-.32.15.08-.4.38-.6.32ZM89.62,25.72c.23.6.44.03.67-.07.44-.21,1.49-.21,1.04-.89.36-.07.35.06.29.39-.12.73-1.72,3.06-2.45,2.99-.42-.04-2.05-2.13-2.03-2.48,0-.09,1.23-1.17,1.31-1.2.24-.07.89.16,1.05.34.28.32.05.72.13.93ZM91.92,27.64v.48h-.3v-.48h.3ZM91.18,28.76c-.09.68-.46.65-.6,0h.6ZM87.44,15.6c2.16.28.82,1.5.9,1.6.02.03.24-.04.3.08-.32.82-.38.23-.76.01-.19-.11-.56-.08-.68-.24-.22-.29.31-1.04.24-1.45ZM87.89,11.27c.16.32-.42,1-.6.8-.14-.16.38-.73.6-.8ZM88.19,22.02c-.81-.2-.64-.89-.07-1.28l.07,1.28ZM87.29,19.05c-.09.14-.31.34-.44.24-.03-.02-.17-.66-.15-.8l.59.56ZM86.97,23.09c.1.43-.38.9-.65,1.17-.69-.66-.51-1.67-.67-2.56.15-.18,1.3,1.29,1.32,1.4ZM85.65,9.82v-.32c.21-.05.4.09.45.32h-.45ZM85.8,27.47s-.25-.88.52-.96c.22.31-.6.54-.37.8.03.03.23-.14.44-.08.05.02.82.56.86.6.2.22.2.87.79,1-.14.2-.3.31-.51.41-.34.15-3.05.95-3.3.95h-2.62c-.09-.44.13-.27.3-.4.97-.69,1.93-1.13,2.87-1.74.27-.18.4-.51.46-.55.18-.11.51,0,.56-.04ZM88.49,13.68c.15-.01.27-.02.42.05.51.24.69,1.64-.12,1.72l.15-.64c-.23.11-.94.16-1.04-.16.39.08.28-.44.44-.58.11-.1.4.15.46.09.33-.31-.38-.27-.3-.48ZM86.45,7.43c.3.02,2.2.67,1.89,1.11-.03.05-.95.42-1.06.41-.62-.06-1.57-1.07-2.37-.97.4-.41,1-.59,1.55-.55ZM83.86,26.03c.22-.93.48-1.75.45-2.73.23-.07.09.19.2.26.11.08.29.06.34.11,1.01,1.11.18,2.04-.99,2.35ZM84.75,12.07c.15.15-.32,1.58-.9,1.28-.43-.65.51-1.67.9-1.28ZM83.11,9.98c.32-.23.97.52.75.8-.02.03-.6.1-.75.16.18-.24-.04-.93,0-.96ZM82.66,21.22h.3v.48h-.3v-.48ZM81.76,9.82c.02.27.03.69-.22.8-.66.28-.36-.87.22-.8ZM80.57,13.67h.45c.09.09-.04,1.39-.22,1.6-.4-.41-.18-1.09-.22-1.6ZM78.82,20.61c.21.02.54.31.85.37,1.19.21,2.17-.06,2.72,1.41.07.17.17.98.11,1.06-.02.03-.38.05-.59.25-.43.39-1,1.44-1.07,1.5-.11.1-.42-.01-.57.11-.15.12-.09.45-.17.53-.08.08-.43.04-.65.18-.33.21-.92,1.06-1.18.65-.12-.18-.31-1.39-.35-1.7-.06-.47-.16-1.66-.12-2.1.05-.59.54-1.43.25-2.13.34.24.6-.14.79-.13ZM78.92,27.64c-.26-.03-.4-.47-.29-.64.03-.04.79-.44.89-.09-.1.25-.49.17-.57.28-.07.1-.02.31-.03.45ZM78.33,10.47v.64s-.6-.56-.6-.56l.6-.08ZM76.01,15.44c-.12.18-.85.34-.94.51-.09.17,0,.5-.11.76-.19.46-2.3,1.81-2.62,1.54l-.74-2.98c.73.1,1.14-.64,1.71-.97.33-.19,2.29-1.1,2.46-.96.13.52.54,1.61.23,2.09ZM76.68,18.97c.18.2-.25.63-.6.32-.1-.18.54-.38.6-.32ZM73.1,23.14c.09.57-.5.48-.3,1.12l.6-.4c-.35.6-.65.44-1.19.56-.17-.81-.04-1.48.89-1.28ZM72.5,21.61c-.14-.67,3.02-.83,3.29-.56.28.29-.14.28-.22.33-.32.22-.79.66-1.12.72-.28.05-1.91-.27-1.95-.49ZM76.54,26.03c.09,0,.21-.04.28.02.02.02,0,.2.07.25.15.11.37.03.4.05.03.03-.18.35-.16.55.03.24.31.42.28.62-.03.23-1.01,1.45-1.24,1.39-.69-.18.04-2.44.37-2.88ZM77.58,28.76c-.05.23-.24.37-.45.32v-.32s.45,0,.45,0ZM77.58,9.1c-1.3.99-2.39.52-3.81.55-.45,0-.83.17-1.26.17,1.04-2.48,3.61-3.37,5.08-.72ZM71.62,11.53c.52-.78,2.98-1.17,3.76-.71.39.23.33,1.29.07,1.53-.24.22-1.1.15-1.46.27-.28.09-1.74,1.06-2.08,1.3-.34.25-.21.66-.9.55-.22-.28.36-2.57.61-2.95ZM71.67,27.15c.93-.64,1.97-1.15,2.85-1.92.16-.14.81-1.28,1.12-.97.12.13-.84,2.18-.94,2.6-.24.98-.41,1.9.22,2.75.35.48,1,.42.88,1.07-.91-.06-3.65,1.17-4.34.72-.15-.1-.72-1.55-.74-1.78-.06-.65.43-2.11.96-2.48ZM70.26,21.54v-.32s.45,0,.45,0c-.05.23-.24.37-.45.32ZM69.21,18.01c.04.06-.02.35,0,.48l.45-.48c-.07.33.22.54.29.73.11.31-.59.21-.29.55.04.05,1.08-.26,1.19.32-.37-.04-1.11.42-1.39.18-.19-.16-.39-1.01-.45-1.11-.07-.11-.32-.12-.4-.28-.02-.03.52-.52.6-.4ZM69.14,29.88c.29-.07.33.38.44.58.08.15.39.17.23.71-.12.14-1.15-.37-1.2-.56-.04-.17.44-.7.53-.72ZM67.87,28.68c-.07-.33.61-.71.75-.56.15.16-.58,1.31-.75.56ZM68.68,24.1c-.31.89-.78.45-.82.49.37,1.01-.16.5-.3.64-.06.06.36.76-.07.96-.04.02-.18-.64-.42-.75-.37-.17-.89.08-1-.61-.05-.3.58-.27.59-.24.1.16-.19.6.31.48.01-.41-.12-.61.29-.33-.12-.87,1.85-1.86,1.42-.64ZM38.58,24.27c.17,0,1,.12,1.05.16.49.5-1.08.17-1.05-.16ZM39.11,29.49c.03-.18.19-.87.51-.73.36,1.31-.87,2.63-.51.73ZM30.65,18.81l-.15,2.25c-.56-.02-1.12,0-1.68.04-.11,0-.35.31-.26-.12.11-.55,1.62-1.78,2.09-2.16ZM30.21,17.84c.05-.3.27-.96.6-.64.14.14-.32.75-.6.64ZM30.2,22.18l-1.01.76c-.59.17-2.54,1.37-2.05-.11.37-1.13,2.2-.88,3.06-.65ZM27.71,27.12c-.99.16-.16-.41-.04-.57.14-.2.29-.66.45-.76.25-.16.63-.04.94-.12.14-.03.43-.43.56-.28.39.45-1.58,1.68-1.9,1.73ZM28.7,28.02c.27-.13.74-.67.85-.7.19-.04.52.32.49.53-.01.07-.75.94-.83,1.22-.47-.06-.68-.16-1.11.1l-1.19-.49c0-.25,1.52-.53,1.78-.65ZM27.81,30.36c-.48.25-.67.85-1.21.09-.63-.91.89-.65,1.21-.09ZM27.52,31.16s.29.13.45.07c.27-.11.53-.65,1.08-.52.35.08,1.5,1.28,1.44,1.63-.02.14-1.22,1.41-1.38,1.38-.38-.36-1.98-2.04-1.59-2.56ZM30.95,33.73l-.59.96c-.03-.38.33-.76.59-.96ZM32.63,28.28c.12-.07.5-.83.86-.48.17.17-.57,1.01.3.8-.21.81-.31.29-.65.36-.38.07-1.13,1.71-1.51,2.05-1.54-1.91-.17-1.96,1.01-2.72ZM35.78,22.82c-.36-.27-1.24-.36-1.68-.32.02-.69,1.13-1.67,1.6-1.08.14.18.37.95.54,1.18.08.11.81.54.7.69-1.12.54-.85-.26-1.15-.48ZM36.33,25.71h-.45c.05-.23.24-.37.45-.32v.32ZM35.88,23.95c-.51.69-2.02.95-2.74.61-.23-.11-.22-.39-.27-.42-.03-.02-.76.28-.12-.26.57-.48,2.46-.3,3.13.07ZM32.45,20.02c-.09.22-.43,1.06-.75.72-.21-.22.37-2.5.52-2.89.06-.16.62-1.21.82-.96.09,1.03-.2,2.19-.59,3.13ZM31.85,25.46s.75-.2.79-.19c.25.04.6.36,1.1.38.39.02,1.61-.31,1.77-.1.02.03.09.62.07.64-.07.06-.45-.14-.6-.06l-3.28,1.67c-.05-.04-.16-.94-.12-1.05.01-.04.77-.38-.03-.32.08-.25.13-.82.3-.97ZM34.69,28.92c.07.09-.99,1.83-1.08,1.89-.16.1-.57.04-.79.03-.18,0-.56.12-.52-.16,1.42.27,1.4-1.1,2.39-1.77ZM32.6,30.36c-.03-.72.51-.71,1.04-.8l-1.04.8ZM33.98,28.51c0-.11.09-.2.19-.2s.19.09.19.2-.09.2-.19.2-.19-.09-.19-.2ZM33.04,34.13c.33-.49.9-.73,1.06-1.59.4-.17,2.62-1.67,2.81-1.52.03.03.09.34.23.48.35.34.88.41.54.88-.15.21-2.32,1.77-2.66,1.96-.74.42-1.93.79-2.73,1.16.34-.37.51-1.03.74-1.37ZM37.08,21.62c0-.34,1.03-.38.89.24-.22.05-.89,0-.89-.24ZM36.33,19.53c.17-.78,2.82-2.31,3.29-1.84-.03.53-.33,1.54-.75,1.84-.35.25-2.45.41-2.53,0ZM39.17,23.06l.82-.88.22.64c-.47-.44-.43.98-1.04.24ZM40.37,24.33c.13-.1.34.09.42.06.03-.01.03-.26.21-.33.58-.23,1.31-.21,1.84-.75.2.11-.03.47-.13.59-.27.34-.76.52-1.1.75-.11.07-.13.37-.28.41-.43.11-.39-.55-.51.27-.12.85-.65.36-.84-.08-.03-.07.32-.85.38-.9ZM40.74,21.06l.07.48h-.3c-.05-.24.07-.33.22-.48ZM40.97,27.96c1.25.34,2.53,1.74,2.54,3.21-.39.03-2.83.18-2.84-.24.78-.94.59-1.87.3-2.97ZM43.36,27.47c-.54-.15-1.03-.34-1.49-.65-.11-.21,2.54-2.7,1.49.65ZM43.43,21.69l-.52-.71c.37-.47.94-.32,1.4-.4.19-.03.05-.47.09-.64.28-.02.16.84.12.93-.05.09-.93.67-1.09.83ZM46.64,21.38c.06-.05.39.07.57-.03.17-.1.38-1.06,1.08-.77-.11.57,0,.91-.46,1.36-.32.32-1.52.92-1.78.33-.17-.39.5-.13.68-.4.11-.16-.12-.46-.09-.48ZM47.39,23.94c.14-.02.4.2.45.16.28-.29-.3-.33-.3-.4.01-.51.38-.23.5-.3.34-.17.51-.42.99-.43-.1,1.2.1,2.34-1.26,1.34-.31-.23-.21.15-.39-.38-.18.02-.4.44-.79.44-.19,0-1.5-.47-1.15-.76.46.14,1.62-.37,1.92.03.06.09,0,.23.02.29ZM45.6,17.77l.52-.56.07.96-.59-.4ZM45.6,15.6l-1.05.32c-.54-1.72,1.32-.64,1.05-.32ZM45.3,19.13c-1.37.58-.8-.91-.18-.45.03.02.12.34.18.45ZM44.84,25.46c.13-.1,1.21-.13,1.33-.05.09.06.24.62.03.7l-1.65.88c.1-.32.09-1.38.29-1.53ZM46.94,27.07c.36-.54,1.44-.42,1.05-1.2.22.09,1.44.58,1.49.64.06.08-.44.44-.3.64.04.05,1.05.17.61.89-.11.18-2.73,2-3.07,2.17-.18.09-.31.21-.53.15.34-.82.29-2.63.74-3.3ZM50.16,29.65c.32-.1,1.33.42,1.4.66.14.43-.6,1.9-.98,2.13-.87.52-3.18.26-3.94-.54,1.02-.52,2.49-1.94,3.51-2.24ZM50.68,15.76c.2-.25.91-1.34.75-1.61l-.3.16c-.45-1.31.82-1.09.59-.81-.08.1-.41-.25-.15.64l.37-.48c.13-.05.34.14.36.25.02.09-.22,1.83-.27,1.9-.13.18-.57.06-.8.13-.2.06-.29.37-.56.29-.02-.16.02-.33,0-.48-.09.11-.35.47-.38.48-.21.12-.37-.37-.37-.4,0-.2.62-.16.67-.4.14,0,.06.21.07.32ZM54.86,12.23c-1.49-.58-.02-2,.6-2.73.28,1.15-.72,1.66-.6,2.73ZM55.16,18.41c.07-.21.5-.34.6-.24.3.3-.79.8-.6.24ZM55.76,14.24c0-.28,2.81-1.68,2.53-.25-.63.35-1.27.35-1.97.38-.11,0-.57.2-.56-.13ZM54.56,16.08c.21-.49.77-.51,1.19-.48-.06,1.04-.48.41-1.19.48ZM54.27,20.49c.21.14.12.22.08.41-.26,1.15-.61,3.12-1.15,4.06-.15.26-.99,1.41-1.22,1.37-.22-.04-1.05-.89-1.37-1.11-.19-.13-.51-.13-.53-.15-.29-.32.47-.38.64-.48.09-.05.08-.29.21-.32.38-.09.96,0,1.39-.17-.38-.73-.78-.22-1.13-.17-.2.03-.4-.11-.63-.04-.16.05-.26.67-.41.22-.27-.83-.03-1.88.45-2.57.17-.25,1.19-1.31,1.42-1.37.17-.04,2.13.25,2.25.33ZM53.07,14.96h-.6s0-.48,0-.48c.03-.04.58.14.6.16.02.03,0,.22,0,.32ZM52.7,19.29l.07.64h-.6s.52-.64.52-.64ZM48.08,34.36c.26.04,1.31-.19,1.41-.14-.06.19-.31.36.07.32,1.24-.14,2.17-1.17,3.37-1.28.08.43-.1.28-.29.4-1.21.76-3.13,1.48-4.53,1.17-.2-.04-1.08-.53-1.15-.69-.22-.49.94.2,1.13.22ZM52.77,31.97c.08-1.24.47-.68,1.34-.64-.04.35-1.24.74-1.34.64ZM53.29,29.88c-.12-.19.09-.73.07-1.02-.04-.52-.5-1.14.04-1.66.03-.03.21.11.34-.04.09-.11.68-1.1.83-.97.05.88,1.04,2.03,1.01,2.84,0,.22-.38,1.06-.4,1.42-.18.15-1.74-.35-1.88-.58ZM55.74,22.76c.22-.34,2.19-.02,1.14-.9-.35.89-.38.04-1.12.16.2-1.2-.11-1.53,1.21-1.21,1.56.38,1.2,1.79.67,2.91-.1.22-.4.63-.51.84-.3.56-.62,1.36-.91,1.96-.28.24-1.08-2.78-.46-3.75ZM57.85,27.96l-.15.48c1.78-.35,0,.6-.75.48-.14-.99.13-.79.9-.96ZM57.55,17.76l.83-.88c.17,0,.6.94.76,1.11.16.18.63.55.86.77.16.14.51-.14.4.36l-.6-.16c.31.47-.28.64-.3,1.28.75.22.86-1.16,1.23-1.42.08-.06.31.1.52.01.4-.17.98-.43,1.35-.65.41-.24.58-.77,1.09-.67-.28.85.55,1.84.14,2.48-.16.24-.42.23-.43.26-.03.04.3.32.29.69,0,.12-.15,1.14-.18,1.2-.06.1-.46.13-.55.47-.08.29.16.66.14.69-.03.03-.51.11-.8.35-.19.15-.66.88-.71.9-.07.04-.29-.15-.47-.11-.25.06-.67.93-.97.18-.21-.52-.36-2.93.12-3.16.12-.06.29.08.3.06.44-.83-.74.02-.75-.72,0-.21.86.2.6-.56-1.13.96-1.39-.36-1.88-1.11-.32-.5-.71-.87-.97-1.38ZM61.08,15.92c.21.37-.69,1.14-.16,1.29.46.13.51-.14.74-.41.2-.25.38-.09.08-.71l.9.16c-.08.81-1.82,1.58-2.39,1.21-.28-.18-.55-1.48-.28-1.83.2-.14.98.06,1.11.3ZM60.25,7.91c.61.01,1.1-.71,1.71-.65,1.38.14-.44,2.81-.74,2.73-.18-.37-1.2-1.78-.97-2.08ZM59.95,11.59c-.35-.16-.93.35-1.11.31-.85-.21-.53-3.47.21-2.88.1.08,1.01,2.45.9,2.57ZM64.64,9.17c.33-.21.9-.31.71.27-.2.6-.45,1.09-.61,1.75-.13.52-.37,2.7-.46,2.8-.16.17-.57.04-.67-.31-.33-1.12,0-3.86,1.04-4.51ZM65.16,6.31c.07.09.22.74-.06.78-.27.08-.28-.31-.36-.37-.22-.16-.44-.09-.46-.11-.43-.37.85-.35.88-.3ZM65.77,23.3s.71-.04.6.48c-.55.04-1.05-.65-.9-1.28.17.13.71-.02.74,0,.02.01.15.38.15.4,0,.36-1-.09-.59.4ZM65.87,21.73c-.34.22-.57.76-.7.05-.16-.87.24-.66.38-.88.1-.17-.08-.4-.05-.46.12-.24.77-.3,1.02-.19-.12-.17-.1-.51-.19-.61-.09-.1-.63.12-.41-.43.12-.3,1.14-.34,1.32-.22.06.04.04.31.18.38-.31.13-.35.16-.3.56.59-.17.81.42.9.96-.6-.29-1.57.45-2.14.83ZM66.97,13.51c.17.19-.7,1.03-.89,1.12.04-.53.49-.91.89-1.12ZM66.47,10.33c.1-.27.22-.57.5-.67l-.45,1.44c-.3.01-.1-.63-.05-.78ZM67.94,6.45c-.08.14-2.28,1.63-2.62,1.12l.66-.8c.83-.27,1.03-1.22,2.03-.96,0,.22.04.44-.07.64ZM60.09,26.51v-.32s.75,0,.75,0v.32s-.75,0-.75,0ZM60.13,27.44c-.1.21.1.45-.34.35.04-.1.27-1.52.6-1.12.07.09-.19.61-.26.77ZM60.99,26.67l-.45.48c-.05-.3.17-.53.45-.48ZM59.93,29.16c.48-.25.79-1.2.99-.4.3-.18.05-.52.22-.72.05-.06.99-.94,1.05-.97.14-.08.37.07.45,0,.09-.07.29-.65.44-.88-.57.09-.25.55-.75.48v-.8s.6.16.6.16c.07-.29-.24-.7-.12-.93.12-.22,1.37-1.26,1.62-.99.18,1.09-.71,1.18-1.15,1.66-.11.12-.12.32-.19.43.58-.09.42.36.52.32.11-.04.34-.95.55-1.09.82-.52,1.66,1.55,2.21,1.97-1.1,1.29-2.97,1.9-4.52,2.37-.91.28-2.05.75-2.95.44.32-.46,1.08-.48,1.03-1.04ZM64.35,30.19c.22-.08.45,0,.57-.04.42-.16.91-.77,1.59-.75.12.87.26,1.01-.29,1.69-.81,1-2.9,2.01-4.11,2.01-.79,0-2.67-.52-2.91-1.46,1.87-.01,3.46-.8,5.16-1.46ZM58.94,3.89c2.13-2.11,4.88-4.35,7.72-2.16.42.32,1.68,1.94,1.34,2.46-.05.08-1.47.66-1.67.71-.49.14-3.78.92-4.08.91-.38,0-1.01-.37-1.53-.44-.84-.11-1.8.32-2.57-.45.23-.19.21-.7.33-.85.09-.12.35-.1.45-.2ZM57.85,4.03s-.16-1.03.3-.63c.37.33-.17,1.61-.89.96-.03-.3.53-.23.59-.33ZM57.1,10.46c-.05.66.2,1.26.43,1.85-.25.09-1.55.94-1.62.88-.3-.27.16-.74.23-.96.08-.24.01-.51.07-.69.02-.07.75-.94.89-1.09ZM56.66,9.18c-.13,1.25-.83,2.35-1.2,3.53-.68.09,0-1.04,0-1.2,0-.15-.36-.01-.3-.16.08-.21.44-.18.61-.35.35-.37.36-1.49.89-1.81ZM56.21,6.29c.2,1.63-1.22,1.52-1.88,2.24-.28.31-.88,1.35-.96,1.78-.16.16-1.04-.59-1.04-.72,0-.21,2.16-2.58,2.49-2.63.21-.03.38.34.57.3.21-.05.3-1.1.82-.96ZM49.2,6.07c.91-.74,2.48-1.47,3.63-1.52.31-.01,2.11.37,2.18.46.01.02.01.46,0,.48-.05.06-1.11.39-1.45.61-.3.19-.77.57-1.02.83-.33.34-1.36,2.03-1.5,2.07-.24.06-1.21-.42-1.63-.46-.37-.03-1.47.22-1.55.15-.63-.48.92-2.27,1.35-2.61ZM47.54,7.25c.18.35-.58,1.16-.74.96-.28-.34.57-.82.74-.96ZM45.3,12.39c.06-.6.97-2.76,1.38-2.94.97-.43,2.91,0,3.83.56-.21.88.65,2.18.47,2.91-.01.06-.58.57-.74.84-.55.91-1.32,2.1-1.21,3.21.03.3.3.6.25.72-.1.21-1.25.98-1.43.8.35-1.1.71-1.48.12-2.62-.69-1.34-2.16-1.91-3.31-2.67-.34-.65.67.1.2-.97l.45.16ZM43.44,12.08c.15-.26,1.11-1.7,1.41-1.45-.32.29-.29,1.31-.34,1.41-.01.03-.22.03-.31.23-.14.32,0,.92-.47.92-.74.01-.6-.58-.3-1.11ZM43.65,15.6c.11.48.24,1.04.15,1.53-.06.36-.29.31-.39.46-.23.33-.49.77-.74,1.06-.21.25-.17.13-.36-.07l1.34-2.97ZM41.94,21.7c.18-.04.41.32.45.32.17,0,.12-.65.52-.48-.22.78-.85,1.42-1.64,1.28.18-.19.53-1.09.68-1.12ZM38.8,13.67c.49,0,1.91-.11,2.24,0,.52.17-.19,2.09-.24,2.55-1.37-.03-2.46-.26-3.8.26-.24.09-.52.64-.82.33.3-.44,2.42-3.13,2.61-3.13ZM37.83,14c-.06.27-.44.26-.68.48-.4.37-1.99,2.46-2.19,2.93-.19.43-.19.96-.35,1.4-.1.26.01.39-.37.32.08-.67.46-1.46.44-2.15-.03-.69-.6-.9-.59-1.53,1.32-.25,2.35-1.57,3.73-1.44ZM31.22,14.15c1.69-1.44,3.98-2.54,6.16-2.08.06.44-.05.25-.22.32-1.07.46-2.5.94-3.47,1.57-1.05.68-1.34,1.68-2.81,1.49-1.02-.13-.08-.93.35-1.29ZM29.68,16.4c.43-.19,1.5-.58,1.72,0-.2,0-.41-.02-.59.09-1.32.74-2.13,2.4-3.3,3.19l-.89,1.05c-.04-.28.03-.5.12-.76.29-.87,2.18-3.24,2.94-3.58ZM26.77,19.13s-.22.73-.45.48c-.14-.15.26-.64.45-.48ZM26.4,24.43l.07.48h-.3c-.05-.24.07-.33.22-.48ZM26.4,32.61c.24-.08.37.08.52.24.09.09,1.31,1.83,1.33,1.95.14.85-1.33.8-1.84-.12-.22-.39-.45-1.93,0-2.07ZM28.11,37.43c-.12.25-.6.5-.84.62-1.44.75-3.11,1.05-4.69.66-.13-.16.7-1.86.97-1.92.27-.06.46.59.76.78,1.09.71,2.67.22,3.79-.14ZM26.03,36.71c-.81.55-1.65-.66-.98-1.37.1.34,1.48,1.02.98,1.37ZM25.28,31.33s.58.13.6.16c.26.4-.61.67-.6-.16ZM24.9,18.65c.14,0,.09.43.06.47-.03.04-.73.26-.88.34l.82-.8ZM23.55,21.21c.69-.81.61-.6,1.21-1.59.14-.22.89-.69,1.11-.97-.02.49-.47,1.21-.56,1.56-.1.4.07,1.09-.1,1.34-.06.1-1.24.44-1.53.6-.23.13-1.13.94-1.24.83-.1-.1.96-1.59,1.11-1.77ZM24,23.3c.41-.31.91-.51,1.42-.48l-.31.55-2.98,2.34c-.21-.23,1.61-2.21,1.87-2.41ZM21.87,31.28c.25-.83,1.76-1.36,2.51-1.4-.44,1.03-.52,2.27-.88,3.31-.04.11.01.34-.24.22-.35-.17-.71-.76-.97-1.05-.29-.33-.7-.17-.42-1.08ZM18.12,35.1c.14-.23-.19-.87.5.01.05.06.24.06.24.17.01.22-.17.44-.17.61,0,.11.31.01.32.32,0,.18-.27,1.47-.33,1.52-.31.21-2.2-.05-2.67.66-.08-1.64,1.35-2.05,2.11-3.29ZM17.35,39.99c-.23.58-.88.7-.9,0h.9ZM15.32,44.43c.23-1.16.5-.53,1.32-.78.71-.22,1.13-.81,1.76-1.09.23.99-1.91,2.97-2.61,2.89-.5-.05-.55-.59-.47-1.02ZM14.96,43.52l-.12.94c-.02-.41-.39-1.05.12-.94ZM10.03,41.44c0-.39-.04-.77.04-1.16.21-1.05,2.13-4.37,2.99-4.9.15-.09.36,0,.51-.09.22-.13.26-.65.94-.27-.28.28-.3.83-.49,1.08-.18.24-.84.27-.85.44-.01.19.71,1.12,0,1.05v.16c.58-.13.37.24.54.47.1.13.29.16.32.21.55.96-1.88,1.33-2.32,1.53-.51.24-1.24,1.08-1.68,1.48ZM13.77,43.52c-.17.94.25,1.56.45,2.41-1.46.05-1.71-1.91-.45-2.41ZM12.19,42.39l-1.19,2.09c-.33-.24-.13-.3-.08-.55.3-1.42,1.58-2.89,2.99-2.98.4.38-1.66,1.18-1.72,1.44ZM10.48,51.06c-.05-.24.07-.33.22-.48l.07.48h-.3ZM11.98,46.01c.76.87,2.22,1.17,3.29,1.05.06.36-.01.26-.19.36-2.25,1.31-3.96-.41-4.29-2.77.76-.1.76.86,1.2,1.36ZM14.41,52.64c-2.6,1.34-3.8-2.23-3.48-4.46,1.13.55,2.24.99,3.52.81.6-.08.4-.37.54-.47.09-.07.33.13.48.11.07-.01.97-.64,1.22-.77.21-.1.12-.25.37.09-.55,2.03-.68,3.69-2.64,4.7ZM13.56,72.46c-.14,4.6-1.29,9.09-1.6,13.66-.09,1.4.28,3.09-.19,4.45-.19.54-1.67,2.1-2.11,2.71-.59.82-2.82,4.44-3.38,4.72-.36.18-.51.09-.83-.07-1.82-.86-1.84-4.62-2.22-6.44-1.09-5.19-2.11-8.3-1.23-13.83.36-2.29.77-4.63,1.17-6.93.43-2.45,1.4-4.56,2.12-6.87.71-2.28,1.33-5.9,2.65-7.75.19-.27.54-.61.85-.69.76-.19,2.2.6,2.72,1.18.72.79,1.29,1.7,1.95,2.56.18.23.66.38.71.66-.25,1.64-.63,3.45-.72,5.11-.14,2.49.18,5.05.1,7.52ZM17.65,99.21c-.08-.36.46-2.24.67-2.24.68-.02-.2,2.12-.67,2.24ZM18.85,108.35c-.25.32-.51-.83-.54-.96-.11-.63.56-.63.67-.22.03.1-.1,1.13-.14,1.18ZM21.09,110.6c.16-.67-.47-2.05.45-2.24-.01.43-.17.83-.21,1.26-.04.35.32,1.12-.23.99ZM21.69,113.65l.07-.64c.33.25.29.49-.07.64ZM22.88,112.85c.04-.49-.06-1.05,0-1.53.03-.23.11-.5.3-.24-.08.54.25,1.45-.3,1.76ZM23.51,117.91l-.21-.78.33-.1.21.78-.33.1ZM23.71,114.93l.07,1.76c-.42.07-.25-.09-.32-.38-.12-.53-.15-.96.25-1.39ZM24.71,120.11c-.26-1.12.06-2.46-.02-3.5-.03-.38-.45-1.52-.16-1.83.04-.05.96,0,1.19-.16-.12.79.12,1.58.16,2.32.06,1.39-.26,3.15.25,4.29.02.05-.14.7.04.93-.31.36-1.42-1.86-1.46-2.04ZM25.43,111.24c.19,0,.48.62.45.64-.21.18-.58-.33-.45-.64ZM26.7,103.06c-.57-.13.38-2.26.67-1.92-.16.31-.21,2.03-.67,1.92ZM30.8,128.82c-.03.29.05.26-.3.24l-.07-2.75c.2-1.07.6-2.27.37-3.34h.45c-.09,1.2-.35,2.42-.45,3.61-.06.72.08,1.55,0,2.25ZM30.89,119.44c-.72,1.1-1.53,2.99-1.72,4.25-.15,1.01-.04,2.11-.23,3.12-.32-.2-.26-.69-.42-.91-.11-.17-.42-.18-.59-.57-.98-2.3-.65-9.13.03-11.6.21-.76,1.29-2.62,1.31-2.91.04-.46-.94-1.1-.03-1.33.24-.06,1.62-.25,1.71-.17-.94,2.76-1.9,5.54-2.35,8.46-.23,1.48-.66,4.7-.5,6.07.02.2.58.55.31,1.19.22.04.19-.3.23-.48.08-.41.17-.99.21-1.39.05-.5-.41-1.93.6-1.5.57-3.85,1.45-7.57,2.7-11.23.32-.03.46.28.74.41.24.1.7.02.84.22.06.09-.06,1.94-.1,2.17-.1.63-1.23,4.04-1.52,4.62-.28.55-.9,1.07-1.22,1.57ZM32.6,134.1c-.02-.14.19-.36.15-.55,1,.54-.05,1.12-.15.55ZM33.57,133.23c-.25-.26-1.33-1.36-1.27-1.67.44-.36,1.05-.76,1.42-1.21.08-.1.28-.96.52-.64.09.12-.39,2.66-.45,3.12-.03.23.14.47-.22.4ZM32.38,130.66c-.26-.06-.44-1-.46-1.28-.07-1.04.15-1.57.31-2.41.54-2.86.54-8.2,2.76-10.03.15-.12.19-.31.45-.24l-1.11,10.92c.03.58-1.52,3.14-1.95,3.04ZM34.68,110.67c.13-.23.57-.46.68-.72.16-.38.12-1.04.24-1.5.39-1.41.79-2.96,1.63-4.11-.8,3.23-1.77,6.49-1.95,9.86-.03.6.29,1.56-.14,1.85.31-.73-.9-2.06-.9-2.33,0-.18.21-.33.22-.49.07-.74-.13-1.93.22-2.57ZM38.76,121.14c.1-.39.94-1.06,1-1.51.07-.57-.55-.84-.57-.96-.2-.95.52-3.49.91-4.44.1-.23.87-1.79.95-1.87.4-.38.87.16,1.31-.31.28-.3.33-1.63.71-1.29.04.04.58.95.58,1.01-.02.28-.68,1.25-.85,1.66-1.63,3.87-2.89,8.58-3.31,12.8-.08.82-.91-.97-1.01-1.04-.38-.27-.41.2-.79.17.02-.5-.04-1.02,0-1.51.03-.34.25-.49.29-.65.03-.11-.38.07-.28-.44.14-.67.28-.52.62-.41.63.22.31-.74.43-1.2ZM39.92,106.35c0-.53,1.92-5.91,2.27-6.39.13-.18.15-.33.42-.27,0,.35.18.64.13,1-.11.77-.92,2.66-1.21,3.53-.41,1.2-.46,2.41-1.45,3.33.08-.41-.15-.83-.15-1.21ZM42.01,128.57l-.28-1.38-.02-1.02c.76.59.35,1.61.3,2.41ZM40.45,123.59c-.21-.25-.79-.19.14-.79.82.54-.33,1.98-.52,1.76-.36-.42.69-.59.38-.97ZM40.97,134.03c.36,0,.26.69.15.8-.39.35-.29-.51-.15-.8ZM36.86,113.33c-.31.02-.11-.45-.09-.57.1-.56.4-2.33.61-2.69.12-.22.27-.09.45-.11-.05.43-.79,3.36-.97,3.37ZM36.18,113.65c-.05.23-.24.37-.45.32v-.32s.45,0,.45,0ZM35.05,133.86c-.65.74-.76-.19-.66-.31.02-.02.32.03.52-.16.54-.53.28-1.63.41-2.29.18-.95.54-2.76.8-3.66.52-1.75.75-.51,1.18-.52.15,0,.25-.37.52-.27.09.1-.45,2.18-.57,2.52-.25.73-1.82,4.25-2.21,4.69ZM40,139.8c-1.61-1.42-3.41-2.66-4.56-4.58-.04-.22.7-1.21.88-1.61.26-.56,1.01-3.41,1.29-3.43.21-.01.22.55.23.71.08,1.2-.16,6.29.51,6.99.26.27.85.1,1.09.35.21.23.26,1.26.78,1.49l-.22.08ZM40.5,128.61c-.04.25-.64,1.37-.87,1.08.05-.57-.09-1.26.03-1.81.07-.34,1.3-1.74.05-1.23-.33-.44.3-.25.52-.57.09-.43-.37-.16-.45-.24-.04-.04.22-1.13.37-1.12.11,0,.21.54.67,0,.09.42-.45,1.1-.45,1.36,0,.1.3.07.31.18.05.36-.36,1.13-.39,1.5-.02.25.29.39.21.85ZM44.27,141.51c-.04.28.07,1.34-.24,1.34-.22,0-3.12-2.33-3.51-2.72.47,0,1.49.93,1.88.33.45-.69-.33-.63-.39-.75-.04-.08-.31-1.65-.29-1.74.08-.46.52.02.71.05.38.05,1.3-.03,1.55-.36.48-.63-.96-3.63,1.03-3.46.04.57-.12,1.31.15,1.81.05.1.28.09.3.22.04.27-1.05,4.37-1.18,5.29ZM42.61,127.77v-.48h.3v.48h-.3ZM44.4,126.49c.24.85-.28,1.42-.41,2.05-.19.92-.24,1.94-.48,2.86-.06.22-.02.5-.3.55,0-1.67.38-3.5.88-5.08.08-.25-.13-.46.31-.38ZM45.45,123.12l.22-.96c.44.15-.13,1.09-.22.96ZM42.8,125.81c-.08.2-.08.47-.34.52l.31-4.56c.51-1.79.45-3.56,1.34-5.23.38.11.16.98.54,1.11.25.08.56-.16.84-.12.21.03.4.25.78.29.16.02,1.08-.2,1.12-.16.27.28-.12.28-.21.34-2.54,1.6-3.31,5.14-4.38,7.81ZM45.6,105.15c-.36,1.45-.46,3.21-.85,4.63-.08.28.05.42-.34.35.05-1.63-.77-4.34,1.19-4.97ZM47.53,113.74c.09-.14.25-.14.31-.09.04.04.56,1.02.57,1.08.1.53-1.05,1.88-1.62,1.97-.11-.13.57-2.68.74-2.95ZM47.24,143.5h-.3v-.48h.3v.48ZM49.26,122.32c.29.75-.09,1.59-.08,2.32,0,.35.39,2.25.31,2.33-.03.03-.4-.08-.67.16-.68.6-.75,1.98-1.42,2.57.5-2.49.94-5.03,1.87-7.38ZM47.99,139.48h-.15v-.8h.15v.8ZM47.54,136.76c-.11-.98.41-1.94.56-2.85.14-.84.13-2.81.53-3.53.05-.09.28-.15.38-.31.14-.23.74-1.32.85-1.35.64.41.89.87,1.71.48l-.61,1.27c-.56.2-.37-.4-.81-.47-.59.13-1.84,4.81-2.1,5.61-.1.31-.27.95-.52,1.13ZM50.68,113.33c-.16-.24,1.19-3.46,1.44-3.99.81-1.71,1.96-3.63,3.19-4.99-.97,2.2-2.01,4.37-2.61,6.74-.17.65-.45,1.71-.51,2.34-.11,1.11.23,2.29-.33,3.26-.63-.08-1.14-.9-1.7-.15-.88-1.23.81-2.16.82-3.37l-.3.16ZM53.22,111.56v-.48s.3,0,.3,0c.05.22-.08.43-.3.48ZM52.47,128.57v-.32h.45v.32h-.45ZM52.92,132.75v.23c-1.51,1.68-1.39,3.96-1.69,6.06-.16,1.1-.6.5-.7-.13-.34-2.28.69-4.8,1.19-6.97l1.19.8ZM51.89,126.11c-.02.14-.12,2.44-.62,1.83-.1-.12-.31-2.76-.31-3.13,0-1.15.5-5.68.9-6.59.37-.86.45-.13.78.16.1.09.36.06.41.11.09.1.02.5,0,.68-.21,2.14-.82,4.73-1.16,6.94ZM49.78,113.65c-.06-.46.16-.84.44-.4l-.44.4ZM54.71,147.74c-.26.84-1.12-.22-1.79-.07-.11-.11.54-1.73.68-1.76,1.03.52,1.53.47,1.11,1.84ZM54.72,145.26c-.18-1.24.43-2.49,1.34-3.21-.04.82-.5,2.08-.89,2.81-.12.22-.12.47-.45.39ZM56.21,145.91v.48h-.3v-.48h.3ZM56.88,146.54c-.18.63-.7,1.77-1.41,1.77,0-.7.81-.67.45-1.28.52.34.18-.07.33-.37.11-.23.41-.28.49-.59.23.11.21.25.15.47ZM56.81,145.74v-.96s.45,0,.45,0c-.14.27.03,1.08-.45.96ZM57.41,148.47l.45.48c-.49.05-.5.04-.45-.48ZM58.57,146.12c.06-.1.11-.49.33-.21.02.03,0,.51.11.76.27.58.82.57.19,1.41-.95,1.25-1.47-.7-.63-1.96ZM59.94,149.76l-1.34-.4c.29-.64,1.65.1,1.34.4ZM60.12,132.46s-.44.83-.45.88c-.12.62.68,1.3-.63,1.33l.6.32c-.32.5-.77.09-.6.96l.45-.48c.72.34-.34,1.61-.42,2.04-.05.26.15.8.12,1.24-.03.55-.55,2.34-.44,2.72.12.43,1.12.04.81.89-.31.84-1.22,1.72-1.45,2.69-.25.16-.37.27-.56-.03l.74-5.7.29.16c.4-.92,0-.78-.19-1.16-.35-.69.14-.25.27-.43.05-.07.54-1.46.52-1.54-.04-.28-.42-.22-.6-.08-.07-.1.37-.84-.07-.64-.74.32-.75.93-.97,1.05-.21.11-.54-.16-.6-.09-.04.05-.12,1.08-.15,1.28l.44-.64c.16.22.05,1.55,0,1.6-.06.07-.42-.19-.68-.02-.55.38-.86,1.74-1.26,2.15-.16.17-.42.14-.54.27-1.29,1.45-2.31,3.84-3.22,5.61-.25.2-3.43-1.42-3.42-1.67,0-.05.3-.25.36-.41.52-1.31.48-3.69.54-5.12.63.49.98.85,1.79.48-.12.71-1.13,4.21-.88,4.63.03.05.84.32.97.34,1.46.14.7-1.46,1.03-2.24.18-.43,1.12-.11,1.35-.47.18-.27.14-2.28.22-2.81.05-.29.32-.48.3-.8-.04-.52-.79-.61-.85-.96-.11-.67.54-2.91,1.06-3.46l-.52,2.89c.23.07,1.29.12,1.35.16.33.28-.58.33-.3.64.04.04.42-.25.6-.16-.17.66-1.01.11-1.04.16-.25.37.3.52.29.55-.02.42-1.09,1.3,0,.89l-.15,1.93c1.29-.57.53-1.35.59-2.15,0-.11.31-.14.43-.36.04-.08.43-1.61.45-1.78.05-.36-.14-.62-.12-.91.02-.39.41-.75.45-1.14.03-.3-.31-.2-.31-.32-.01-.29.29-1.15.38-1.51.89-3.53,2.35-7.92,3.99-11.28.27-.55,1.11-1.55,1.24-2.04.19-.67-.44-1.35-.17-1.78.2-.3,1.11.04,1.46-.02.93-.17,1.19-1.61,1.61-2.37-.9.24-1.17,1.7-2.24,1.44-.02-.18,0-.35.03-.52.12-.57,1.75-2.86,2.2-2.52.03.02.08.43.24.63.19.23.74.44.78.52.28.52-1.2,3.57-1.42,4.43-.9,3.56-1.61,7.2-2.73,10.71-.09.3-.67,2-.76,2.07-.06.05-.24-.06-.27-.03ZM61.03,112.17c-.16.54-.4,1.64-.48,2.22-.1.74.19,2.1-.38,2.64-.06.06-1.11.78-1.18.77-.58-.05-.93-1.07-.84-1.65.16-1.04,1.81-3.55,2.44-4.53.4-.63.85-1.46,1.36-1.99.06-.07.18-.22.23-.16-.17.98-.85,1.69-1.15,2.69ZM65.02,108.03c-.23,1.58-.88,3.05-.96,4.66l-1.87,1.12c-.22-.26,2.04-5.42,2.84-5.78ZM59.35,118.79c-.34,1.08-.98,2.07-1.34,3.13-.14.41.6-.09.3.32-.17.23-.44.26-.63.61-.26.47-.36,1.35-.57,1.88-.37-.08-.03-.81-.51-.8-.57.01-1.24,1.43-1.11,1.97.05.18.66.79.57.91-.01.02-.27.02-.43.26-.47.7-.52,1.85-1.21,2.31-.21-.68.72-2.13.71-2.46,0-.26-.26-.61-.27-1-.02-.77.28-1.63.15-2.55-.08-.57-.74-1.23-.72-1.43.02-.21.31-.47.38-.72.17-.59.78-3.01,1.34-3.21,1.12-.41,2.06,1.22,3.34.78ZM64.58,132.42c-.39.19-.34-.46-.52-.48-.09,0-.15.86-.67.64.49-2.11.21-3.8,1.71-5.47.33-.36.74-.23.91-.95.31-.06.25.13.19.37-.11.4-.44,1.35-.72,1.56-.02.34,0,.61-.07.97-.21,1.02-1.05,2.31-.83,3.36ZM62.4,135.63l.98-.47c.14.45-1.27,2.16-1.49,1.92.4-.48.56-.8.52-1.45ZM63.83,122.31c-.05-.24.07-.33.22-.48l.07.48h-.3ZM61.74,136.92c.13.16-.59,1.3-.7,1.57-.15.38-.02,1.11-.49,1.32l.45-2.73c.06-.07.28.14.38.15.05,0,.12-.62.36-.31ZM61.44,136.44l.07-.64c.33.25.29.49-.07.64ZM61.43,150.22c-.17.16-1.04-.06-1.16-.41-.26-.8.24-.86.27-.97.09-.38-.02-.73.19-1.21.15-.33,1.23-1.33,1.46-1.08-.09.48-.62,3.55-.76,3.68ZM61.77,145.22c-.73,1.19-.24-.42-.18-.91-.27.04-.09.35-.39.62-.15.14-.62.36-.51-.06.47-.76.5-1.64.84-2.47.53-1.29,1.54-3.09,2.24-4.33.34-.6,1.73-2.45,1.82-2.86.22-1.03-.61-1.64-1.46-1.33-.19-.4.29-.29.31-.4.04-.36-.35-.66-.31-.72.72.07.55-.59.6-.64.06-.06,1.05.17,1.54-.15.27-.17.22-.88.55-.97-.17,1.1-.26,2.33-.49,3.4-.12.56-1.26,3.96-1.12,4.11.03.03.5.01.27.34-.02.03-.28,0-.48.36-.36.64-1.39,3.9-1.61,4.13-.4.41-.33-1.03-.3-1.21.03-.3.43-1.07.24-1.36-.48-.7-.89,1.38-.38,1.6-.12.01-.35-.05-.43.02-.1.1-.36,2.2-.74,2.82ZM67.55,126.71c0-.08-.3-.06-.29-.14.09-.48.48-.31.61-.5.1-.15.25-.79.29-1.03-.34.03-.25.58-.3.64-.06.06-.37.08-.29-.23.1-.39.58-.68.66-.89.06-.15-.11-.43-.07-.48.04-.04.32,0,.44-.09.21-.17.26-.9.3-1.2l-.29.09.3-.89.3.32,1.96-4.32c.1-.08,1.49.4,1.94.08.29-.21.49-1.86.66-2.19.09-.18.57.08.83-.22.28-.32.32-1.54.97-1.85l-.52,1.6.45-.48c.18,1.2-.39.74-1.04,1.2.98.49.52,1.22.07,2.01.02-.11,0-2.47-.52-1.93-.21.22-.42,3.96-.31,4.41.06.24.5-.13.46.33-.02.3-1.19,2.4-1.42,2.97-.27.67-.49,1.53-.68,2.24-.35.1-.56-.28-.83-.32-.43-.07-.71.28-.88.27-.14,0-.38-.35-.63-.4-1.38-.31-2.15,2.85-2.5,3.83-.4-.64-.47-2.07.07-2.57l.15.64c-.11-.31.13-.7.14-.89ZM67.12,122.96v-.48s.3,0,.3,0c.05.22-.08.43-.3.48ZM74.04,114.42c.03-.07.22-1.31.55-.93.1.11-.34,1.92-.9,1.44-.25-.22.28-.36.35-.51ZM75.69,128.88c.16-.4.18-.88.4-1.27l.45.32c-1-.18-.24,1.16-.31,1.27-.02.03-.32.07-.45.24-.15.2-.12.55-.14.57-.29.35-.25-.41-.44-.32-.04.5-.32,1-.54,1.44-.11.21.05.41-.36.32.21-1.08.42-2.28.7-3.33.17-.62.33-1.58.79-1.96.18,1.16-.44,2.08-.6,3.21.32.1.41-.25.5-.5ZM77.73,123.6c.72.22.68.5,1.17-.27.76-1.19.41-1.81.74-2.9.23-.77.71-.65,1.13-1.03.72-.66.17-1.42.37-1.67.3-.37,1.36-.35,1.81-.23l-2.99,10.17c-.28.57-2.39-.36-2.5-.66-.45-1.26.56-2.3.27-3.42ZM82.4,111.78c.12-.14.99-.68.85-.14-.05.21-.74,1.32-.89,1.21-.2-.59-.56-.45-.61-1.21-.1-1.79.93-4.82,2.03-6.16.15-.18.23-.4.51-.33l-2.24,6.98c.4.35.24-.23.34-.35ZM79.67,108.67c.53-1.16.9-2.66,1.52-3.74.35-.61.73-1.07,1.47-1.07l-2.99,4.81ZM80.27,109.32l-.45.48c-.05-.29.16-.53.45-.48ZM79.97,111.72c.39-.42.3.98.34,1.16.09.47.55,1.56.55,1.81,0,.34-.93,1.51-1.15,1.97-.26.55-.2,1.35-.79,1.16.07-.83-.1-1.84,0-2.65.13-1.03.93-2.35,1.05-3.45ZM81.83,134.66c-.17.55-.42,1.44-.72.3-.15-.59.65-1.71.95-1.41.08.08-.17.92-.23,1.11ZM77.36,128.08c.15,0,1.94.26,2.01.33.03.03.03.64-.03.76-.04.07-.3.11-.39.29-.67,1.31-1.34,2.79-1.96,4.04-.64,1.29-1.14,2.91-2.1,3.89.08-.75.32-1.66.55-2.38.29-.9.98-2.13,1.08-3.01.07-.64-.17-1.09-.15-1.59.02-.38.28-.66.27-.94-.01-.41-.41-.67-.41-1.07.41.02.72-.31,1.12-.33ZM76.61,117.34c.1-.24-.02-.4.37-.32,0,1.77-1.41,2.7-.37.32ZM73.84,125.85c.1-.23-.18-.78-.15-.8.29-.23.76.63.15.8ZM73.99,133.55l-.3,1.6c-.29-.03-.15-.82-.11-1.01.05-.22.18-.54.41-.6ZM74.59,142.7c.09.5-.07.47-.45.64-.06-.39.07-.68.45-.64ZM75.04,113.33c.09-.36.47-.33.75-.32-.09.36-.47.33-.75.32ZM71.66,136.03c-.1.26,0,1.39-.06,1.77-.13,1-.41,1.44-1.19,2.01-.11-.3.08-.49.12-.63.33-1.16.58-2.79.97-4.05.05-.16.21-.62.4-.61-.12.27.19,1.18.13,1.26-.06.08-.29.04-.37.26ZM70.85,149.11c-.07-.69-.13-1.82.75-1.21.47.33-.46,1.52-.75,1.21ZM70.29,132.38c-.44,1.32-1.71,2.83-2.2,4.22-.32-.22-.2-.37-.18-.67.14-3.02,1.6-5.97,3.47-8.15-.04.66-.18,2.21-.41,2.78-.09.22-.32.22-.37.31-.15.27-.17,1.08-.31,1.51ZM71.98,134.35c-.16-.15-.27-.24-.22-.48h.3s-.07.48-.07.48ZM67.4,138.38c.39.48-1.43,3.95-1.84,4.5-.06.08-.14.57-.39.3-.09-.1.94-2.05,1.01-2.52.1-.63-.35-2.2.43-2.43.1-.03.76.13.78.16ZM66.67,144.38c-.11-.34.39-.29.45-.24.16.16-.28.73-.45.24ZM62.84,149.57c.03-.11.16-1.71.55-1.26.06.07-.21,1.5-.16,2.02.04.39.34.1.31.39-1.54.2-.91-.33-.7-1.15ZM63.98,148.95c-.25.24-.67-.2-.45-.48.14-.17.61.33.45.48ZM64.32,148.44c.1-1.53.65-3.1,1.54-4.29.14-.19.24-.39.51-.33.25.27-1.47,4.7-1.87,5.29-.31-.22-.21-.37-.19-.68ZM66.27,149.08c-.06.18-.28.15-.34.32-.35,1.01.31,3.07-1.35,1.56.75-.69.93-1.64,1.04-2.65l.45.16c.12-.09-.02-.98.45-.8-.07.44-.11.99-.25,1.41ZM66.37,147.35c-.07-.8.63-1.37.8-1.95.08-.3.08-1.05.11-1.09.1-.12.6.25.43-.49l-.3-.16c.11,0,.36.05.42-.02.1-.11.52-2.52.63-2.94l.59-1.21c-.36,1.59-.3,3.76-1.12,5.13-.34.56-.72,1.05-1.03,1.78-.15.35.03,1-.53.95ZM71.23,152.33c-.43-.02-3.66-.45-3.82-.56-.27-.18.17-1.73,0-2.17.52.13,0,1.29.15,1.44.64.24.86-.36,1.19-.16.15-1.03.05-2.1.16-3.12.09-.8.48-1.63.36-2.49l1.65-2.74c-.06.72.44.7.52.81.11.15-.27.48-.29.72-.03.29.18.69.16,1.11,0,.17-.42,1.9-.49,1.98-.06.07-.42.07-.57.19.19-.86.36-1.63.38-2.52,0-.26.09-.77-.23-.85.07.43-.26,1.08-.28,1.36-.02.22.18,1.32.13,1.37-.03.03-.3-.05-.41.03-.29.22-.13,2.4.11,2.79,1.09,1.77,2.37-1.28,2.69-.89l-.82,3.53c-.15.21-.38.17-.59.16ZM76.38,152.32c.03-.41-.08-.81-.15-1.21-.04-.22.13-.66-.22-.56-.16.05.26,1.51.22,1.77-1.22.21-2.51,0-3.74-.16-.06-.06.48-.65.52-.81.02-.06.2-1.09.22-1.2.08-.59-.09-1.23.15-1.84l-.6.4c.47-.45.44-2.64.85-2.78.31-.11,1.09-.02,1.36-.39.07-.1.43-1.48.45-1.69.06-.59-.1-.88-.13-1.4-.01-.25.17-.67.15-.7-.04-.06-.38-.07-.42-.27-.02-.1.38-1.71.43-2.1.02-.2-.14-.43-.11-.52,0-.02.21-.04.27-.14.89-1.58,1.48-3.39,2.33-5,.21-.4.77-.67.66-1.3l-.3-.08c.87-.5.61-.92.86-1.68.2-.64.47-1.27.64-1.93l.15,1.52c.07.7-.5,1.7-.52,2.24-.02.52.55,1.34-.22,1.37v-.48c-.21-.28-.47,1.93-.75,2.08.92.47.39-.98.97-1.28.37-.06.17.15.18.35.08,1.08-.06.66-.38,1.13-.04.06.18.98-.4,1.25-.48.22.25-1.08-.37-1.12,0,.86-.42,1.73-.57,2.53-.74,3.78-.58,7.79-.92,11.67-.07.78.36,2.46-.6,2.33ZM78.03,143.34v-.32s.45,0,.45,0c-.05.23-.24.37-.45.32ZM78.03,142.05l-.3.32c-.06-.71-.05-.69.6-.64-.27-.63.2-1.11.15-1.76.75.32-.36,1.13.3,1.44l1.5-6.9c1.15.27-.11,1.29-.15,1.69-.04.38.28.81.3,1.2l.36-1.13.61-.63c.65.72-.2.31-.39.57-.25.34.29.99.15,1.41-.07.23-.38.22-.42.28-.03.04.18.55.1.99-.02.11-.79,2-.86,2.1-.09.14-1.37.83-1.43.9-.25.31-.42,1.77-.53.17ZM81.17,146.87c-.02-.29.17-.69.45-.8.05.36-.13.67-.45.8ZM79.07,151.84v-.24c.16-.25.32-.28.6-.24v.48s-.6,0-.6,0ZM82.32,146.58c-.16.7-.59,2.32-1.23,2.53-.3.1-.15-.2-.29-.32-.07.26-1.15.75-1.27.64-.31-.68.07-.94.14-1.38.26-1.77.75-3.28,1.16-5.01l.64-1.31-1.49,6.9c.25-.46.86-.12.89-.16.13-.14-.34-.73.6-.32-.03-.5.5-2.72.83-2.89.43-.22.06,1.16.03,1.31ZM82.51,126.81c-.25-.85.11-2.27.56-3.01.6-.97,2.79-2.03,2.26-3.47-.1-.28-.6-1.09-.9-.65-.03.04-.31,1.03-.58.7-.09-.1.46-1.51.57-1.72.35-.68,1.02-.66,1.67-.69-.3.82-.4,1.68-.45,2.57.96.07.24-.99,1.04-.8.08.08-.49,1.59-.65,1.72-.1.08-.34.01-.38.06-.1.11.09.66-.16,1.04-.15.22-.77.51-1,.77-.29.31-.34.74-.46.9-.12.16-.78.68-.8.73-.13.5.42.31.3.63l-1.04,1.21ZM86.7,108.75c-.19-1.63-1.06.76-1.2.89-.11.11-.35.05-.3-.24.06-.37.45-.64.56-1.01.17-.55.24-2.14.52-2.57.11-.16.71-.18.98-.8.21-.49.2-1.48-.41-1-.2-.25,1.06-3.05,1.28-3.53.05-.11.12-.61.37-.32.1.12-.62,2.7-.7,3.18-.12.73-.15,2.8-.5,3.16-.3.3-.79.1-.75.97.03.84.78.94.88,1.31.22.8.11,2.1.4,3.1.08.29.44.48.36.84-.04.18-1.41,3.09-1.55,3.32-.25.41-.74.71-1.11.97.12-.75.58-1.43-.07-2.09-.27-.28-.9-.21-.82-.54.12-.47,1.12-1.73,1.41-2.33.62-1.25.84-1.86.67-3.3ZM89.99,108.43c-.08-1-.99.31-1.05.24,0-.35-.18-.64-.13-1,.13-.87,2.27-4.44,2.79-5.68.2-.47.28-1.01.46-1.44.05-.13.09-.54.31-.23.07.1.21,1.74.68,2.4.44.62,1.36.59,1.42.65.09.1-.15,1.36-.22,1.6-.17.57-1.89,3.88-2.25,4.32-.54.67-1.23.47-1.51.7-.09.07-1.38,1.77-1.54,1.56.04-.46-.28-1.06-.13-1.5.07-.22,1.27-.57,1.19-1.63ZM92.9,98.89c.21.1.12.91.07.96-.34.4-.44-.81-.07-.96ZM87.59,130.82c.6.22.09.85.14,1.18,0,.05.91.63.38.75-.4.09-.07-.37-.37-.32-.25.59.28.85.29.91.08.38-.05.92,0,1.33-1.03-.62-.37.65-.07.97.23.24.63-.01.52.48-.85-.46-.71,1.38-.94,1.96l-2.13,4.13c-.19-.22-.38-.49-.48-.77-.75-2.22.34-7.17,1.24-9.33.42-1,1.18-2.17,1.7-3.31.08-.18.84-1.44,1.06-1.19.1.11-.63,2.66-.78,2.93-.41.77-.48-.18-.64-.2l-.23,1.04.3-.56ZM87.14,126.01c.17-.6.48-.58,1.05-.64.11.11-.52,1.06-.67,1.12-.36.15-.07-.33-.37-.48-.42,1.44-1.24,3.5-1.98,4.85-.1.18-.2.4-.41.44l.4-2.52c.38-.64.89-1.44,1.2-2.09.29-.59-.06-1.12.78-.69ZM86.55,119.1v-.48h.3v.48h-.3ZM88.26,124.24c-.31.19-.6.36-.97.32-.19-.22.65-2.33.84-2.71.17-.35,1.21-1.77,1.22-1.89.07-.44-.21-.68-.57-.38-.21-.74.3-.89.51-1.3.58-1.2,1.85-4.03,3-6.11-.33,0-.61,0-.66,0-.02,0-1.75,0-1.75-.02s1.62-.02,1.75-.02c0,0,.32,0,.68,0,.58-1.05,1.13-1.9,1.55-2.26.13-.11.23-.38.38-.08.23.45.14,2.32.53,2.98l-1.21,2.8c-.41.36-.76-1.2-1.49-.24-1.95,2.6-.7,7.03-3.82,8.9ZM94.69,112.01l.36-.78.37.2-.36.78-.37-.2ZM94.76,110.12c-.71-.49-.37-1.76.15-2.25-.13.77-.28,1.45-.15,2.25ZM89.53,113.81c.06.31-.04.47-.15.72-.13.3-1.11,2.39-1.22,2.46-.06.04-.41.09-.43-.06.73-.85.85-2.44,1.79-3.13ZM83.41,138.04h-.3c-.05-.24.07-.33.22-.48l.07.48ZM83.71,141.41c-.23.74,1.05,1.59,1.03,1.82-.04.52-1.58,2.09-1.9.96-.14-.5.4-3.25.87-2.77ZM86.77,149.6c-.15.37-.34,1.45-.45,1.6-.19.27-2.96.58-3.22.4-.64-.45.83-.85.92-.99.24-.41.32-1.99.51-2.62.25-.84,1.07-1.78.97-2.63-.06-.51-.58-.95-.44-1.53.92-.18,1.71-.91,2.68-.81-.31.84-.03,1.56,0,2.41.26.04.14-.37.15-.56,0-.32-.12-1.71,0-1.85.22-.24.26.06.32.23.04.13.13,1.72.12,1.91-.07,1.18-1.11,3.3-1.56,4.44ZM91.28,148.27c-.09.18-.38.01-.1.84l-.3-.16c-.05.37.14,1.14-.15,1.37-.19.15-2.51.7-2.69.56.24-.26.55-1.51.69-1.62.34-.26,1.02-.03,1.4-.22.48-.24.41-1.32,1.12-1.36.15.08.09.46.02.6ZM89.98,146.71l-.6,1.28c-.18-.5,0-1.25.6-1.28ZM91.04,144.23l-.46.39c-.25-.33.64-2.85.84-3.35.3-.79.85-1.89,1.22-2.71.1-.22-.1-.44.34-.35l-1.93,6.03ZM92.59,134.84c-.28,1.22-1.13,2.49-1.69,3.62-.65,1.33-1.08,2.16-1.5,3.68-.19.69-.1,2.04-.9,2.16.17-.63-.06-1.55.03-2.12.07-.46.5-2.31,1.02-1.73v-1.77s-.9.88-.9.88c-.39.54-1.04,1.98-1.41,2.33-.15.14-1.49.76-1.27.24.09-.22.59-.7.77-1.1.15-.32.38-.89.5-1.23.06-.2.18-1.09.23-1.12.04-.02.26.17.36.16.11-.01.08-.25.13-.29.08-.06.51.2.56-.12.07-.41-.44-.6-.45-.64-.02-.09.3-.81.33-.84.13-.13.47.11.42-.19l-.45-.41.75-.24c-.15.43.09,2,.29,2.3.03.05,1.02.63,1.06.58,0-.38-.03-.85-.14-1.21-.09-.33-.4-.16-.33-.8.04-.31.29-.22.31-.35.09-.45-.25-1.02-.15-1.57.06-.36.4-.53.53-.89.1-.29,0-.95.07-1.28-.53-.07-.35,1.03-.67,1.28-.35-.31-.6-2.1-.53-2.48.03-.16.33-.02.42-.11.08-.08.09-.46.21-.67.83-1.41,1.78-2.75,2.45-4.27.34-.76,1.66-4.11,1.71-4.74.02-.24.09-.47-.23-.4-.63,1.02-1.3,2.05-1.9,3.1-.17.29-.79,1.81-.87,1.88-.11.09-.4-.09-.43-.26-.02-.09.4-1.49.47-1.71.7-1.97,1.84-4.57,2.69-6.42.57-1.24,1.08-2.54,1.84-3.64.51.56,1.51,0,1.82.18.97.61-.5,2.91-.79,3.66-1.93,4.98-3.45,10.35-4.41,15.64l.6.16c-.87.4-.43.26-.53.73ZM98.05,106.43c.04.85.04,1.94.19,2.77.1.54.57,1.34.56,1.63-.01.45-.92,2.35-1.24,2.62-.21.18-1.09.44-1.01-.03.2-1.14,2.54-2.63.68-4.09-.48.6-.95,1.1-1.35,1.76-.35.07-.18-.17-.23-.4-.25-1.24.08-.77.53-1.2.8-.77,1.12-2.23,1.87-3.05ZM96.86,100.17c.02-.31-.04-1.07.45-.96.06.42-.06.8-.45.96ZM101.19,106.11s.15-.09.3-.05c.11.03.17.18.23.21.15.07-.04-.4.22-.32l-.07.96c.2-.21.54-.94.53-1.19,0-.13-.3-.08-.31-.09-.26-.36.3-.29.43-.41.22-.19.5-.72.72-.99.09-.11,0-.31.34-.2-.04.82.05,1.66,0,2.48-.03.39-.26,2.27-.37,2.49-.18.38-.44-.34-.62-.47-.46-.32-1.21.01-1.55.39-.5.56-.59,2.15-1.2,2.64-.03-.52.34-.92.42-1.41.06-.4-.06-.7-.04-1.03.02-.24.31-1,.22-1.1-.31-.32-.52.56-.75.32-.23-.23-.36-3.49-.15-4.01.23.43,1.63.94,1.72,1.11.08.15-.14.52-.08.65ZM107.04,106.13s1.75,0,1.75.02-1.62.02-1.75.02c0,0-.35,0-.73,0l-1.68,4.11c.4-2.14.47-4.37,1.2-6.42.7.7.85.07,1.49-.16l-.99,2.43c.35,0,.66,0,.72,0ZM110.64,109.6c.35-.75,1.49-1.62,1.68-2.21.22-.73-.12-1.67.98-1.92.11.13-.31,1.2-.31,1.53.01.49.44.7.44,1.11,0,.48-.49,1.17-.41,1.82.04.32.27.61.26.73-.02.17-2.11,1.95-2.45,2.35-.69.79-1.18,1.78-1.86,2.57.65-1.79.9-4.31,1.68-5.98ZM109.78,100.33l.3-.32.38.4-.3.32-.38-.4ZM109.45,118.75c.44-1.1,1.01-2.39,1.68-3.34.11-.03.1.15.07.24-.41,1.4-1.29,2.94-1.79,4.33-.7,1.94-1.31,3.94-1.99,5.89-.07.21-.08.71-.12.76-.08.08-.45-.06-.66.17-.06.06-.13,1.3-.19,1.55-.06.22-.27.24-.28.26-.06.19-.09,1.03-.23,1.21-.03.04-.69.22-.72.19-.3-.29.62-.36.3-.64-.02-.02-.42-.02-.45,0-.08.05-.18,1.79-.16,2.01.04.37.29.7.27.93-.02.31-.49.9-.57,1.27l-.74.76c-.06-.27.4-1.31.3-1.44-.27-.35-1.12,1.84-1.21,1.91-.54.38-.38-.43-.51-.78-.09-.25-.47-.58-.52-.73-.12-.41.36-.16.43-.25.07-.09-.03-.49.02-.7.31-1.16,1.07-2.27,1.34-3.22.06-.2.23-.43-.08-.56-.06-.02-.55,1.04-.67,1.17-.09.11-.62.26-.7.48-.36.92-.72,1.64-1.39,2.45-1.7,2.03-2.89-.71-2.13-2.28.98-2.01,2.42-4.78,4.05-6.24.17-.15.23-.39.39-.54.5-.05-.02.62-.03.9-.03.55.35.75-.21,1.26l.17,1.69c.31-1.19.45-2.57.79-3.73.1-.33.4-1.23.52-1.52.24-.58,1.37-1.38,1.51-2.09.11-.58-.22-.98-.23-1.43-.03-1.17,2.25-4.43,2.5-5.83.26-.03.16.55.15.72-.06.56-.51,1.97-.42,2.38.1.46.69.4.73.43.15.17-1.39,3.81-1.57,4.33-.33.99-.93,2.69-1.09,3.65-.03.17-.16.56.11.52-.06-.54.25-.13.53-.3.5-.31.18-.77.22-.82,1.02.55-.32.85-.25,1.53.02.15.3.43.47.4.34-.08,1.99-5.99,2.36-6.93ZM106.64,133.53c.28-.36.75-.12,1.25-.89.52-.8.38-1.35.58-2.11.07-.26.7-1.73.64-1.8-.24-.27-.32.22-.39.3-.41.56-.72,1.36-1.11,1.87-.23.3-.8.52-.98,1.04-.25-.82-.58-2.59.67-2.25.1.1-.37.87.15.96l3.36-9.63c.41.45-.19,1.25-.3,1.76-.63,2.91-.96,5.9-.99,8.89-.66.51-1.13,1.19-1.7,1.78-.57.58-1.35,1.67-2.16,1.61.58-.35.62-1.1.96-1.54ZM105.52,131.14c-.42.38-.44-.93.3-.96.07.1-.26.93-.3.96ZM108.06,127.45s-.43.01-.44,0c-.36-.32.24-2.16.59-1.76.14.16-.23.43-.26.58-.04.21.24,1.04.11,1.18ZM107.62,127.77c.21.27-.52,1.08-.37,1.45-1.22.82,0-1.91.37-1.45ZM108.81,124.24c.1.11-.27.8-.37.8-.36,0-.06-.92.37-.8ZM102.83,137.64l-.45.4v-.64c.12.02.41-.03.45,0,.02.02-.02.15,0,.24ZM102.08,137.32c-.4.26-.05-.28-.65.5-1.06,1.38-3.57,5.48-4.83,6.12-.29.15-.61.22-.94.2.19-.66.59-.92.61-1.68.03-.86-.6-1.85-.58-2.36.01-.32,1.4-5.48,1.55-5.73.03-.05.68-.8.74-.81.02,0,.24.17.32.23,1.34,1.04,2.03.35,3.42-.23.06.01.47,1.12.5,1.25.13.7-.6.58.74.88.07.02.28-.18.18.19-.02.09-.98,1.4-1.05,1.45ZM94.32,127.29c.8.41.43-.2,1.04-.32.23.27-.92,1.39-1.12,1.6-.66-.64.56-.37.08-1.28ZM94.17,129.54v.32s-.6,0-.6,0v-.32s.6,0,.6,0ZM95.96,127.13s.4-.87.6-.64c.21.25-.29.88-.6.64ZM96.11,128.25c-.09-.09.12-.48.22-.48.41,0,0,.72-.22.48ZM95.96,123.12h-.3v-.48h.3v.48ZM95.81,128.57c.07.09-.33.81-.37.8-.43-.14.19-1.03.37-.8ZM95.49,130.48c-.56.51-1.08-.83.17-.78.03.03-.14.75-.17.78ZM94.92,125.53c.16-.16.6.32.45.48-.16.16-.6-.32-.45-.48ZM94.76,128.73v.48h-.3v-.48h.3ZM95.51,130.82c-.35.07-.6,1.88-.15,1.28.01-.02-.05-.24.11-.48.27-.41.41-.45.6-1.09.19-.66.04-1.74.79-1.8-.16,1.68-.5,4.59-2.54,4.49-.08-.49.46-2.96,1.19-2.4ZM97.2,126.91l1-1.87-.72,2.68-.47.85c-.13-.64.36-1.07.19-1.66ZM97.01,122.64c.12-.59.24-1.41.74-1.77.04.6-.35,1.34-.74,1.77ZM98.81,124.75c.05-.08.5-.12.56-.45.08-.41-.52-.83-.39-1.38.03-.13.38-.85.57-.61-.1.54.15.4.6.64,0-.12.03-.25,0-.37-.02-.09-.59-.18-.3-.43.28-.24.88.48.6.96-.1-.01-.19-.1-.3-.16.02.31-.07.75.42.45.14-.09.57-1.29.84-1.58.29-.32.77-.35.99-.7.49-.77.67-2.93,1.33-3.99.14-.23.99-.88,1.2-1.24,0,.33-.09.69-.19.99-.99,2.84-1.9,4.57-3.91,6.72-.35.38-.65.68-.98,1.03-.18.2-.58.21-.75.49l.6.16c-.36.18-.78,1.67-.97,1.68-.44.04.15-1.57.18-1.71.03-.16-.15-.42-.09-.51ZM100.67,120.24c-.07.15-.03.42-.3.31-1.21-.51.1-3.46.32-4.3.44-1.64.78-3.31,1.43-4.89.06-.14.59-1.57.86-1.24-.71,2.87-1.13,5.99-1.87,8.83-.11.43-.26.9-.45,1.29ZM100.88,121.19c0,.17-.13.31-.29.31s-.29-.14-.29-.31.13-.31.29-.31.29.14.29.31ZM103.43,114.93c.09.09-.12.48-.22.48-.41,0,0-.72.22-.48ZM105.37,116.86h-.15c-.15-.34.19-1.02.45-.8.03.03-.4.56-.3.8ZM105.08,115.41c-.1-.13.4-.91.59-.96.07.44-.26.78-.59.96ZM105.08,118.3c0,.54-.48.71-.89.64.04-.83.32-.53.89-.64ZM106.72,122.96c.07-.44.7-.55.9-.32.33.4-.76.45-.9.32ZM104.63,98.4c-.36-.3.82-.56.9-.48.14.49-.74.6-.9.48ZM104.63,99.53c.09.11-.03.56-.23.64-.52.21-.06-.97.23-.64ZM104.18,102.58v.64s-.3,0-.3,0c-.08-.09.22-.83.3-.64ZM104.54,111.56c.12-.17-.02-.52.23-.47.25.52-.97,3.32-1.2,3.53-.64.6.09-.99.12-1.08.32-1.06.21-1.1.84-1.98ZM99.4,96.16v-.48c.15.14.58-.03.6,0,.17.32-.31.47-.6.48ZM99.7,95.19c-.2.11-.36-.73-.3-.8h.3s0,.8,0,.8ZM99.99,112.05c.12.4-.55,2.2-1.05,1.6-.09-.1.25-.7.33-.85.11-.2.43-.83.72-.75ZM98.65,98.08c-.35.12-1.03-.25-.98-.65.02-.13,1.01-2.15,1.12-2.3.11-.15.42-.14.46-.1.18.16-.78,2.56-.6,3.05ZM93.33,131.2s.21-.06.24-.17c.06-.29-.19-.91.23-.85.4.64.35,1.7-.44,1.92-.33-.05-.07-.75-.02-.91ZM93.87,132.26c0,.1.03.27,0,.32-.01.02-.4.08-.37.32-.54-.54-.08-.44.37-.64ZM100.64,145.4c-1.66,1.24-3.96,2.33-5.79,3.26-.26.13-1.46,1.22-1.56.55-.05-.37.57-2.36.68-2.93.05-.28.11-1.73.19-1.81.47-.11.73.39,1.13.47.56.12,1.31-.2,1.61-.13.17.04.58.53.87.68,1.15.59,2.37-.2,3.42-.7-.09.26-.34.46-.55.61ZM110.35,136.87l-5.42,4.86c.17-.44.13-1.28-.5-1.11-.35.1-2.24,3.28-2.87,3.68-.32-.24.87-1.43.3-1.44-.14,0-1.74,1.31-2.4,1.43-.22.04-.43.1-.36-.23l5.54-7.94c1.69.65,2.21.21,3.37-1.03.34-.37,1.8-2.57,2.07-2.51.54.87-.18,2.07-.08,3.13.05.53.48.85.35,1.15ZM110.01,128.09c.05-.54-.26-1.13.45-.96l-.45.96ZM110.75,134.83c-.5.5-.14-1.29.15-1.28-.7,0-.03-.55.3-.65.06.08-.35,1.82-.45,1.92ZM113.08,130.01c.12-.14.78-.11.67-.8l-.45.24c.13-.45.21-1.22.48-1.57.23-.31.47-.23.54-.3.2-.25.11-1.52,1.08-1.25-.53-.71-.16-1.75.45-2.25-.16.77.08,2.9-.33,3.5-.12.17-.54.15-.71.04l-1.43,4.01c-1.34.66-.82-1.01-.3-1.61ZM113.74,133.71h-.3v-.48h.3v.48ZM114.28,131.3c.1-.23-.04-.41.36-.32.08,1.05-1.02,1.75-.36.32ZM114.49,129.7l.3-.64c.24-.03.33.61.3.64-.05.04-.45-.02-.6,0ZM116.71,129.1c-.04.18-.95,1.46-1.14,1.68-.15.17-.16.45-.48.37.08-.39.77-2.88.97-2.88.24.32.76.35.65.84ZM116.57,118.53l-3.44,6.91c.52.22.4.53-.07.73l-.22-.32c-.02.16.02.33,0,.48.09-.02.31-.05.3.08,0,.12-.13.69-.15.72-.39.35-.19-.5-.15-.8-.27.06-1.23,2.57-1.34,2.97-.05.19.03.33.22.24.32-.16-.01-.93.45-.8.1.03.4.6.38.64-.02.02-.32.03-.46.23-.14.2-.11.86-.43.57-.03-.03-.02-.31-.14-.4-.11-.08-.47.17-.6-.16.39-1.27.4-2.65.63-3.97.53-2.97,1.85-8.18,3.34-10.7.22-.38.59-.64,1.01-.48.35.13.18,1.24,1.14.63,0,1.16-.33,2.29-.46,3.44ZM112.55,128.09l-.07.64c-.23-.17-.26-.34-.22-.64h.3ZM114.49,109.96c.25-1.74,1.03-3.68,1.69-5.33.1-.25.21-.87.55-.77.14.8-.49,1.29-.7,1.89-.42,1.17-.69,2.46-1.2,3.69-.08.19-.07.47-.34.52ZM116.58,101.29c-.16-.15.31-.65.45-.48.23.27-.19.72-.45.48ZM117.34,107.71l-.13-1c1.45-3.09,2.61-6.58,5.05-8.95-.44,2.57-1.9,5.43-2.2,7.98-.11.98.06,1.96-.11,2.94-.11.65-.59,2.19-1.28,2.4-.11-.92.87-2.85.1-3.48-.55-.44-.88.2-1.44.1ZM122.6,110.32c.07.39.36,1.07.37,1.35.02.67-.66.74-.96,1.07-.28.31-.75.89-1.01,1.24-.22.3-.88,1.6-.98,1.67-.25.16-.74.03-1,.38-.58-.1-.18-.33-.12-.62.05-.25.29-1.54.37-1.61.04-.03.68.42.97,0,.42-.6.69-4.84,1.41-5.39,1.14.22.78,1.07.94,1.89ZM126.67,108.05c-.68,1.81-1.43,3.58-2.17,5.35-1.41,3.36-3.03,7.56-4.87,10.66-.11.19-.91,1.39-.98,1.43-.13.08-.28.02-.42.03.32-.16.39-1.2,0-.8-.21.21-.01.83-.05,1.02-.04.2-.61,1.41-.7.67-.2-1.63.79-4.4,1.7-5.72.56-.83,2.64-2.41,2.76-3.3.05-.34-.22-.69-.11-1.07.04-.13,1.34-1.42,1.55-1.71.87-1.17.29-1.05.37-1.98,0-.05.54-.35.55-.67,0-.22-.42-.79-.24-1.2h.6c-.06-.77-.19-1.33-.11-2.12.05-.5.99-4.28,1.16-4.46.01-.01.32-.06.3.08-.01.15-.15.27-.15.32,0,.6-.11,2.13,0,2.57.1.4.95.26.82.9ZM127.21,98.15c-.13.18-.43.07-.6.18-.27.18-.39.6-.76.56-.17-.19.73-1.45.92-1.65.13-.14.12-.35.42-.27-.04.33.22.9.02,1.18ZM131.98,89.42l-.67,3.36c-.16.23-.92.53-.97.74-.03.15.25.39.29.64.14.83-1.96,7.86-2.38,9.14-.14.42-.21.89-.53,1.2l.72-3.88c.17-.74,1.26-4.01,1.04-4.41-.49-.93-1.11-.46-1.75-.51-.87-.07-1.09-.84-2.1.14l-1.26,1.61c-.21-.78.34-.93.58-1.39.23-.46.45-.94.63-1.43-.14-.03-.29-.06-.43-.1-.19.38-.52.64-1.02.68-.02.02-.04.05-.06.07-.11.12-.3.42-.45.16.04-.08.08-.17.12-.25-.88-.09-1.75-.19-2.63-.3-.14.68-.2,1.39-.18,2.08-.69.03-.66-.75-1.46-.37-.14.07-.26.64-.48.37-.28-.35,1.34-1.14,1.79-2.12-.71-.09-1.41-.18-2.12-.28-.15.17-.31.32-.36.38-.53.69-3.12,5.24-3.42,5.23-.05,0-.37-.35-.35-.53.01-.08.56-1.42.64-1.57.45-.81,2.35-1.24.68-2.48.43-.65,1.16-.8,1.77-1.14.02-.01.04-.03.07-.05-1.05-.16-2.11-.34-3.15-.54-.26.05-.52.09-.78.13-.73,2.06-1.02,4.03-3.3,5.12-.28.14-.6.04-.89.17-.25.11-2.41,2.81-2.69,2.48.23-.79.63-1.99,1.01-2.68.3-.54.86-1.03,1.2-1.6.67-1.14.97-2.39,1.75-3.57.08-.11.15-.22.23-.33-.1-.16-.16-.35-.2-.54-.43-.1-.86-.22-1.29-.35-.93-.26-1.86-.55-2.78-.87-.29,1.22-.68,2.64-.91,3.37-.29.92-.97,1.92-1.39,2.83-.13.28-.55,1.58-.62,1.66-.43.45-.21-1.31-.48-1.56-.04-.04-.84-.34-.93-.34-1.99-.07-.07,3.19.32,4.07-.27.71-.94,2.9-1.81,2.82-.68-.06-.16-.59-.09-.91.07-.33.52-2.05.45-2.14-.01-.02-.4-.18-.42-.16-.24.17-.22,1.35-.76,1.27-.23-.62.27-1.27.3-1.7.03-.54-.48-.73-.15-1.59.25-.66.91-.39.91-1.12,0-.66-.47-.56-.62-.83-.39-.69.25-3.36.31-4.31.04-.61.06-1.23.08-1.85-.5-.06-1.01-.14-1.51-.25-.01.58-.04,1.05-.09,1.28-.03.1-1.28,1.06-1.52,1.4-.6.85-.82,2.3-2.04,2.23.24-1.45.13-3.01.83-4.32.03-.06.08-.13.14-.21-.57.13-1.16-.13-1.53-.59-.62,1.17-.82,2.32-.94,4.24-.09,1.41-.21,2.92,1.49,2.97-.26.66-.89,3.96-1.19,4.26-.28.28-.47-.29-.55-.54-.88-2.49-.21-7.45.8-11.69-.47-.01-.94-.23-1.24-.66-.17.78-.34,1.48-.54,1.93-.23.51-.82.7-.93.92-.12.24-.04.55-.16.79-.94,1.86-1.97,2.81-2.83,5.15-.08.2-.05.62-.07.64-.02.02-.44.02-.45,0-.18-.33.32-.5-.67-.96-.2.31-.37.82-.82.8.28-1.08.5-2.22.71-3.32.17-.86.03-1.96.78-2.61-.17,1.37.2,1.76,1.48,1.59.47-1.15-.22-3.84.46-4.72.33-.42,1.06-.36,1.13-1.18.09-.97-1.08-.91-1.12-1.53-.02-.31.26-.87.29-1.3.12-1.87.02-3.77,0-5.62,0-.37.2-.72.13-1.08-.09-.54-1.06-1.76-1.55-1.72-.3.02,0,.97-.67.48-.31.88.12,1.33.23,2.08.1.69.4,5.12.22,5.31-.08.08-.89-.2-1.21.23-.13.17-.86,2.85-.97,3.3-1.07,4.54-1.42,9.3-2.45,13.86-.8.86-.62-.03-.83-.05-.07,0-.57.58-.53.8-.66-.85-.67-.94-1.71-.63-2.91.88-3.36,7.03-4.2,9.61-.35,1.1-1.14,2.47-1.64,3.53-.06-.94.3-1.91.52-2.81.55-2.26,1.12-5.05,2.12-7.2.43-.92,1.4-1.52.58-2.6-1.77.36-2.33,2.37-2.85,4.02-.27.87-.73,3.46-1.07,3.99-.08.12-1.11.81-1.27.88-.18.07-.37.16-.32-.18.25-1.53,1.88-5.96,2.82-7.09.49-.59,1.49-.8,1.32-1.73-.31-1.74-2.22.2-2.74.84-.29.35-.78,1.52-.85,1.57-.33.25-1.3.28-1.84.83-1.32,1.34-2.22,7.84-2.72,10.08-.53,2.4-1.69,4.01-2.5,6.3-.15.41-.3.85-.38,1.28l.45-.8c.05-.04.29.2.29.24,0,.08-.49,1.27-.67,1.36.03-.49-.43-.54-.5-.74-.11-.34.06-.87-.16-1.24-.19-.32-.87-.23-.91-.27-.13-.14.75-3.63.97-3.85.33-.33,1.18.38,2.07-.5.78-.77.86-2.06.96-3.11.06-.58.1-1.17.17-1.78.03-.31.15-1.9-.28-1.75-.12.04-.69.25-.72.27-.07.05-.78,1.34-.93,1.57-.4.1-.32-.18-.29-.56.3-3.72,1.15-5.2,2.81-8.22.33-.59,1.21-2.4,1.05-2.98-.3-1.06-1.14.05-1.48.28-.78.52-1.57.85-2.16,1.69-.2,0-.3-1.13-1.35-.49-.94,1.17-2.15,1.93-3.13,3.06-1.68,1.93-2.99,4.44-4.63,6.42-.22-.13,0-.41.07-.56.78-1.54,2.98-5.83,4.26-6.66.37-.24,1.97-.52.97-1.35-1.37-1.13-3.58,2.07-4.24,3.13-1.09,1.75-1.66,3.86-3.14,5.3l-2.03,3.36c-.08-1.63,1.23-3.22,1.56-4.64.04-.16-.11-.45-.07-.49.03-.03.28.07.46-.11.42-.43,1.35-2.54,1.87-3.25.83-1.13,1.98-1.95,2.91-2.97.4-.96,0-1.88-1.05-1.37.42-.25.09-.98-.25-1.1-.55-.2-1.69.53-2.21.47-.18-.02-.08-1.55-1.42-.56-2.19,1.62-4.26,5.15-5.37,7.71l-1.22,3.11c.03-.6-.05-1.23.01-1.83.19-1.66,2.36-5.11,3.36-6.5.37-.52,1.95-2.08,2.05-2.3.29-.62.33-1.54-.46-1.7-.8-.16-.79.5-1.09.69-.34.22-1.29.4-1.84.75-2.39,1.54-2.47,5.19-3.46,7.68-.29.72-.82,1.53-1.15,2.3-.22.51-.24,1.25-.72,1.55.39-2.67.98-5.3,1.61-7.92-.25-.74-.7-1.28-1.5-1.07-.2.05-.16.6-.55.49.02-.29-.18-.61-.15-.88.04-.45,2.27-3.14,2.58-3.81.41-.79-.05-1.92-.93-1.49-.34.17-1.2,1.54-1.47,1.96-.33.51-.72,1.45-1,1.81-.18.23-.37.04-.37-.08,0-.05.24-.31.27-.52.07-.58-.06-1.18.17-1.74,1.09-2.4,2.23-4.79,3.67-6.97.07,1.55.5,2.53,2.13,1.96,1.35-.48.86-1.7,1.4-2.35.27-.33.55-.21.81-.41.45-.34.92-1,.97-1.61.28-.03.19.53.32.62.09.06.91.06,1.01,0,.25-.38-.02-.78.03-1.16.12-.99.53-1.97.44-2.99.46-.08.23.13.3.39.28,1.11,1.09,3.94,1.87,4.58,1.32,1.08,2.29.55,3.52-.22.16-.1.41-.07.57-.19.6-.42.63-1.9.89-2.25.31-.41,1.59-.24,1.21-1.67-1.45.57-.51-1.61-.3-2.41-.72-.18-.24.32-.6.48-.39-1.61-.1-3.12.62-4.54.73-1.45,2.11-2.34,3.04-3.64l-.78,1.89c-.54,2.52-1.03,5.38-.79,7.98.08.82.33,1.37,1.13,1.51,1.68.3,1.22-2.4,1.63-2.39.17.4,1.02.6,1.11.91.11.38-.23.87-.27,1.27-.15,1.49.24,3.67,2,3.61.16,0,2.01-.42,2.11-.47.5-.24.79-2.07.8-2.67,0-.24-.27-1.08-.15-1.2.04-.05,1.02.04,1.21-.26.28-.44.48-2.03.7-2.59.27-.69.37.23.53.47.2.31.58.49.66.89.14.64-.09,1.45.07,2.01.08.3.48.44.54.71.11.49-.52,1.31-.2,2.13.16.4.41.52.7.52.3-.51.84-.84,1.54-.65.1-.02.2-.03.31-.03.36,0,.66.11.89.29.21.02.43.03.65.04,0-.19,0-.38.02-.56.2-1.69.3-3.54.63-5.26.37-1.88,1.97-5.05,1.53-6.72-.26-1-1.51-.08-1.58-.15.15-.85.33-2.2-.17-2.95-.17-.26-.56-.3-.59-.66-.02-.22.08-.55.24-.93-.49-.07-.99-.1-1.48-.12-.21.67-.39,1.3-.55,1.78-.23.24-.68-1.17-1.35-.41-.74.84-.29,2.24-.29,3.21.02,1.98.09,3.95-.46,5.86-.28-.05-.25-.34-.32-.54-.13-.39-.54-1.48-.57-1.8-.07-.57.22-1.06.11-1.55-.1-.46-.67-.74-.71-.89-.13-.47-.22-2.02-.14-2.52.16-1.06,1.3-1.71.36-2.99-.88-.24-1.62,1.96-1.7,2.67-.15,1.37.6,3.16.57,4.46,0,.22-.49,2.58-.58,2.66-.33.29-.44-.41-.67-.32l-.67.64c.08-.83-.21-1.82-.14-2.63.04-.5.31-.81.29-1.45-.05-1.15-.84-1.53-.74-2.56.08-.79.81-2.06,1.27-2.65.23-.29,1.12-.79,1.08-1.19-.08-.94-1.07-.63-1.33-.82-.3-.21-.02-2.26-1.71-.89-.54.44-.78,1.17-1.17,1.55-.3.29-.66.48-1.07.85-.69.63-1.45,1.01-1.95,1.93-.23,0-.17-1.01-1.02-.91-.75.08-.66.61-.99,1-.48.56-1.04,1.02-1.42,1.68-1.2-1.14,1.4-2.81.12-3.7-.82-.57-1.27.5-1.62,1.13-1.57,2.77-3.56,8.57-3.19,11.78.13,1.14.86,1.34.95,1.84.05.25-.11.66-.06,1.05.09.8,1.18,1.86-.67,1.53-1.93-.34-2.53-5.48-2.33-7.14.12-1.03.56-.49.95-.58.98-.23-.11-1.75-.15-2.16-.07-.68.68-1.73.82-2.42.38-1.8.59-2.34,1.55-3.95.52-.87,1.93-1.85.95-3-.81-.94-2.18,2.07-2.54,2.57-.01-.65.4-.76.04-1.49-.91-1.85-2.85,2.56-3.48,3.09-.8-3.12-2.38.19-3.14,1.44-.06.03-.08-.68-1.04-.48-.43.09-3.48,3.43-3.88,4.02-.61.9-1.19,2.22-1.61,3.25-.27.65-1.23,3.93-1.39,4.12-.26.31-.77-.07-1.09.59-.11.22-.35,1.19-.33,1.4.03.31.37.55.44.98.12.79-.21,1.8-.15,2.72.05.73.51.72-.22,1.52-.18-.08-.37-1.96-1.47-1.59-.35.12-1.02,2.5-1,3.03-.4.12-.44-.56-.69-.63-.57-.15-1.89,2.4-2.18,2.93-1.61,3.02-2.43,6.06-3.28,9.4-2.23-.31.32-1.69.32-2.31,0-.27-.33-.43-.42-.68-.2-.6,0-1.72-.75-1.29-.07.04-.82,1.24-.96,1.46-.21.34-.51,1.56-.56.2,1.06-2.41,2.96-4.39,4.3-6.63.16-.57-.49-1.5-.54-1.92-.03-.28.29-.49.24-.89-.06-.46-.42-1.05-.92-.9-1.09.33-3.96,7.79-5.34,8.8-.15-1.94.44-3.84,1.43-5.44.44-.71,2.54-2.36,1.62-3.05-.87-.66-1.41.42-1.77.3-.2-.07-.24-.46-.39-.55-.27-.17-.63.01-.9-.16-.15-.09-.17-.46-.4-.55-.42-.15-.83.38-1.15.32-.03,0-.05-.04-.08-.1-.45.14-.91.27-1.36.37-.17.27-.34.57-.5.78-.12.15-.38.23-.55.45-1.27,1.73-.07,4.28-1.64,5.7-.03-1.65.15-3.51.76-5.04.18-.45.62-1.12.94-1.71-1.41.21-2.8.19-4.17-.02-.03.03-.05.06-.08.1-.34.49-.63,2.63-.59,3.3-.62.1-.15-1.11-.14-1.52.01-.5.06-1.25-.07-1.7,0-.03-.11-.19-.23-.39-.83-.19-1.66-.45-2.48-.76-.19-.07-.34-.16-.48-.27-.23.52-.43,1.06-.63,1.58-.72-.75-.9-.93-1.94-.64.07-1.05-.4-1.96-.56-3.01-.41-2.82.82-6.87,1.79-9.55.33-.91,1.24-1.63.05-2.37-.87-.54-1.09.4-1.73.81l.15-1.76.3.32c-.02-2.41.77-4.77.9-7.14.16-2.99-.3-6.37-.16-9.47.15-3.22,1.64-11.26,2.92-14.02.18-.4.73-.45.93-1.25.14-.54-.14-.28-.26-.36-.16-.1.42-.31.54-.46.48-.64.36-1.46.64-2.04.15-.31,1.06-1.96,1.06-2.08,0-1.07.02-.45.31-1.26.15-.41.71-2.74.83-2.83.27-.21.85-.12,1.14.03.13.06.1.32.19.32.19-.01.35-.26.61-.32.77-.16,1.76.03,2.23-.65,0,.46.72.26,1.02.13.21-.1.21-.35.29-.41.35-.23,1.23-.4,1.9-.93.46-.36-.42-.09,0-.48.66.05,1.58-.73,2.21-.84.33-.06.91.1,1.38-.15.34-.18.75-.71.89-.76.19-.07.41.15.61,0,.1-.07.11-.34.17-.39.14-.11.41.17.58.06.07-.05.1-.31.17-.35.49-.3,1.76-.81,2.12-1.17.12-.12-.09-.35.17-.49l.52.16c-.3-.77-.02-.32.25-.53.32-.24.17-.52.95-.36,1.8.37,2.51.43,4.39.23.28-.03.74-.33.9-.3.39.1.27,1.57,1.13.95-.13.69-.82.29-.07,1.12,1.78,1.98,5.01,1.24,7.26-.03.08-.91.76-1.75,1.77-1.46.11-.14.25-.25.45-.28.03.03-.02.17-.12.38.6.2,1.22.35,1.84.45.05-.11.08-.2.08-.28,0-.27-.42-.67-.64-.76-.39-.16-.84.26-1-.11.59.02,1.23-1.02,1.68-.95.06,0,.96.51,1.01.55.07.06.46.62.89.93,1.96,1.4,4.54,1.25,6.64-.06.35-.22,1.63-1.43,1.79-1.44.19,0,.37.14.52.25.46.32,1.27,1.14,1.71,1.37.77.41,1.55.08,2.22.17.69.1,1.27.51,2.13.46,1.41-.09,3.3-1.13,4.49-1.92.31-.21,1.2-1.06,1.37-1.1.36-.09,1.19.37,1.62.44,2.28.37,4.63-.29,6.75-1.07.26-.1.59-.47.74-.49.06-.01,1.16.45,1.21.5.08.09.08.4.25.61.68.82,1.35.98,2.37.76.48-.11,1.12-.8,1.52-.77.24.02.8.46,1.11.59.3.13.9.15,1.07.29.33.26-.02.86-.01,1.28.03,1.57,1.84,2.91,3.04,3.49.34.16.75.09,1.06.3.29.19.52.79,1.03,1.14,2.57,1.73,3.72.03,5.77.05.44,0,.83.61.98-.08.05.59.09.65.37.71.98-.03,1.97-.04,2.94,0,.87-.19,1.71-.48,2.54-.65.28-.06.78.37.95-.21l-.3-.32c.43-.07.69.5.99.59,1.67.52,3.33-.51,4.8-1.03,1.28-.45,2.58-.5,3.82-.88.71-.22.84-1.6,1.3.91l-.45.08.45.32c.05.25-.28.15-.38.31-.17.27.03,2.34.15,2.74.38,1.23,1.68,2.14,2.88,1.81,1.78-.5,4.84-4.48,5.92-6.15.28-.44.26-1.12.82-.94.13,1.72.54,3.49.46,5.21-.03.73-.47,2.4-.22,2.97.07.15.37.34.37.4,0,.13-.81.35-.68,1.29.04.25.48.35.39.71-.05.05-.42-.1-.46.09-.28,1.56.21,3.73.93,5.1.14.26.47.45.54.7.44,1.57-.48,3.7-.56,5.11-.05.82.4,1.5-.3,1.76.61.18.1.38.01.81-.15.74-.38,2.49-.32,3.21.05.61.39.88.41,1.4.05,1.48-.77,5.16-1,6.92-.08.63-.45,1.65-.45,2.43,0,.31.32.22.31.3-.32,2.56-.58,5.19-1.09,7.82-.39,2-1.44,5.07-1.6,6.97-.03.4.09.65.14,1.02l-.3-.16ZM65.77,114.13v-.32s.6,0,.6,0c-.08.32-.32.36-.6.32ZM66.82,117.34c.03-.36.18-.7.33-1.01.12-.24.24-.69.57-.59-.14.41-.33.91-.52,1.29-.11.23.01.39-.37.31ZM55.46,108.03c.04-.53.32-1.11.54-1.59.68-1.48,1.82-3.38,3.49-3.39l-4.03,4.97ZM46.64,91.34c.04.3,0,.56-.3.64-.04-.3,0-.56.3-.64ZM49.33,86.12c.06-.21,0-.5.3-.56l-1.2,6.26c-.27-.06-.28-.32-.3-.56-.1-1.04.85-3.99,1.2-5.14ZM50.48,90.68c.07.59.65,1.32.65,1.55,0,.22-1.09,2.15-1.34,1.84-.2-.25.29-3.85.44-4.42.06-.22.02-.5.3-.55.08.52-.11,1.09-.05,1.58ZM54.49,81.23c.09-.18-.01-.39.29-.32.18.2.46.43.56.68.41,1.03-1.22,4.6-1.42,5.86-.15.08-.36.05-.48.2-.3.36-.82,2.36-1.12,2.65-.11.1-.17.09-.3.08.34-3.03,1.08-6.46,2.47-9.15ZM54.86,77.22l-.9,1.12c-.1-.33.68-1.33.9-1.12ZM56.21,78.51c.08.11-.35,1.08-.6,1.12-.15-.21.35-1.45.6-1.12ZM68.76,85.41c-.2.04-.23-.29-.26-.44-.42-2.31.2-3.85.82-5.94.29-.97.3-2.21,1.09-2.92l-1.64,9.31ZM70.7,91.18c-.46.1-.93-.24-1.09-.69-.05-.14-.01-1.65.04-1.72.62-.68.75,2.14,1.05,2.4ZM72.05,87.97c0,.35.09.84-.3.96,0-.35-.09-.84.3-.96ZM79.82,81.63c-.08.43-.73,1.11-.6,1.69-.43.1-.3-.22-.3-.57,0-.67.36-2.09.52-2.81.05-.23.17-.88.38-.96-.1.79.13,1.9,0,2.65ZM79.52,86.69c-.17,1.05-.04,2.29-.14,3.3-.03.24-.03.5-.3.56-.17-1.24-.39-2.85.45-3.85ZM133.92,82.52c-.09-.09.12-.48.22-.48.41,0,0,.72-.22.48ZM148.51,85.67c-.09,3.02-2.47,6.72-3.6,9.52-.84,2.07-1.84,5.98-3.67,7.29-.85.61-3.23.54-4.18.18-.88-.34-1.26-2.69-1.81-3.67-.39-.7-.8-.86-1.12-1.29-.84-1.12-1.66-3.06-1.55-4.52.05-.59,1.03-3.56.87-3.75-.04-.05-.19-.02-.27-.02v-.16c.45,0,.59-.81.7-1.25,1-3.78,1.44-7.75,2.4-11.54.05-.12.16-.24.31-.37.2-.77.4-1.54.61-2.3-.29.24-.54.43-.59.37.23-1.58.43-3.19.8-4.74-.28-.7-.18-1.57.58-2.09.02-.01.03-.02.05-.03.12-.32.25-.65.4-.96.3-.05.62-.06.93-.08,1.06-.9,2.26-1.77,3.52-2.42.06-.09.12-.18.22-.27.36-.32.96-.49,1.42-.48-.01.02-.02.05-.04.07.55-.18,1.11-.3,1.68-.35,0-.13-.02-.26.02-.34.06-.09,1.61-.62,1.86-.65,1.12-.14,1.68-.02,2.36.96,3.83,5.49-.63,11.07-1.82,16.64-.53,2.5-.03,3.93-.1,6.24Z"/>
      <path d="M79.66,94.77c.08.17.18.32.31.43-.93-.28-1.65.53-2.36.76-1.91.61-4.97.58-6.99.68-2.89.15-8.61.5-11.29-.22-.42-.11-.61-.46-.84-.54-1.73-.55-2.78,1.85-.57,2.34,2.29.51,5.82-.21,8.22.36,3.16.3,6.19-.35,9.27-.65.82-.08,1.86.22,2.5.13.43-.06,2.69-1.06,2.88-1.41.34-.65-.34-1.34-.22-1.44.55.12.88-.04,1.11-.34-.67,0-1.35-.01-2.02-.09Z"/>
      <path d="M73.95,45.89c-.28-.15-.41-.42-.63-.61-.16-.13-.41-.1-.53-.26-.07-.09-.06-.22-.01-.37-.62-.38-1.23-.76-1.85-1.15-.04,0-.07,0-.1,0-.07-.02-.92-.56-.95-.61,0-.01-.01-.03-.02-.05-.59-.37-1.18-.75-1.77-1.12-.06.14-.14.24-.29.2-.2-.05-.41-.54-.52-.71-.06-.04-.12-.08-.19-.12-.43-.14-1.12-.05-.99-.62-.43-.27-.86-.53-1.3-.79-.09.12-.22.19-.37.15v-.32s.09,0,.09,0c-.21-.13-.42-.25-.63-.38-.21-.12-.37-.3-.49-.51-.15-.03-.29-.06-.44-.08-.37.29-.75.49-1.1.46-.73-.07-1.69-.65-2.51-.61.05-.07.07-.18.08-.3-.39-.08-.78-.18-1.16-.33-.04.14-.08.24-.14.28-.47.31-1.03-.27-1.15-.8-.91-.12-1.81-.3-2.68-.61-.21-.08-.38-.18-.52-.31-.16.29-.29.52-.33.62-.34.05-.21-.35-.55-.52-1.02-.51-1.35.34-2.01.82-.91.67-1.54.37-2.51.51-.9.13-2.13.5-2.99.49-.56,0-.94-.42-1.34-.43-.49,0-.87.54-1.2.57-.39.04-1.17-.28-1.64-.32-2.45-.18-4.84.71-7.17.8-.79.03-1.57-.39-2.3.09-.44.29-.38.69-.61.94-.2.22-.61.25-.85.46-.34.29-.78,1.18-1.16,1.56-1,1.01-2.35,1.79-3.37,2.96-.85.97-1.46,2.2-2.24,3.21-.59.77-1.72,1-.81,2.32.03.04.07.07.11.09,3.98-1.31,8.09-2.55,12.28-2.45,1.83.04,3.61.49,5.39.94.76.01,2.31.1,2.54.13.23.03.37.01.51.25-.02.02-.03.04-.05.05.11-.03.23-.04.36-.04.41,0,.73.14.97.36.07-.12.15-.24.21-.37.4-.21,3.72.08,3.74.34v.03c5.6.08,11.21.51,16.82.37.33-.04.77-.04,1.24-.04.12,0,.24,0,.37-.01.13,0,.26,0,.38.03.61.02,1.16.03,1.44.01,1.08-.09,1.4-.59,2.46.04.72-.23,1.44-.44,2.16-.69.07-.02.13-.04.2-.05.09-.18-.03-.48.13-.61.43-.34,2.05-.21,2.02-1.51-.03-1.2-1.34-1.05-2-1.4ZM27.36,46.57c-.65.09-.19-.91.15-.96l-.15.96ZM29.31,46.25c-.56.53-.05-1.09.23-1.12.48-.05-.18,1.08-.23,1.12ZM48.88,39.59l-.82.88-.52-.96c.46.06,1-.43,1.34.08ZM46.57,40.96c1.44,1.71-.14,1.92-1.42,2.4.08-.98.79-1.77,1.42-2.4ZM37.02,43.7c-.38.54-1.44,2.97-1.73,3.12-1.6.19-3.19-.1-4.78.24.12-1,1.5-1.02,1.8-1.35.22-.23.24-.69.44-.98.29-.44.88-.74,1.12-1.05.21-.28.87-2.6,1.34-1.11.21.68-.1.35-.34.73-.65,1.02-1.3,2.02-1.97,3.03.65.49,1.32.57,2,.06.97-1.25,1.8-2.85,2.79-4.07.16-.2.93-1.15,1.19-.89.2.19-1.66,1.99-1.85,2.26ZM37.98,45.45c-.29-.39,1.05-1.47,1.34-1.6.17.47-1.25,1.73-1.34,1.6ZM39.77,47.37c-.16-.18.57-.97.75-.8-.05.14-.55,1.02-.75.8ZM39.77,41.36c0-.18,1.86-.96,1.94-.88l-1.12,1.92-.82-1.04ZM41.56,45.37c.28-.05,1.31-1.4,1.5-1.2.12.13-.16.47-.31.55l-1.93,1.54.75-.88ZM44.4,47.61c-.49.26-2.07-.18-2.69-.24-.08-.11.91-.95,1.06-1.03.22-.12.5-.06.72-.18.89-.49,1.45-1.48,2.55-1.67.13.14-1.42,3.01-1.64,3.13ZM49.02,47.84l-2.97-.14c-.03-.18,0-.31.08-.48.16-.37,1.82-2.86,2.09-3.05.57-.42,1.47-.42,2.17-.64l-1.36,4.32ZM49.48,42.08c-.19-.27,1.37-1.58,1.56-1.94.48-.91-.15-1.11,1.43-.95-.24.77-.72,1.87-.7,2.68.02.55.5.83.55,1.33-.54-.31-1.23-.21-1.69-.35-.31-.1-.64-.84-1.15-.77ZM52.6,48.64l-1.33-.14c-.09-.37.23-.64.27-.92.07-.5-.44-.4.4-.68,1-1.77,1.9-3.76,3-5.45.23-.36,1.51-2.37,2.01-1.93-.13.26-.22.55-.38.79-1.51,2.29-1.67,2.02-2.69,4.82-.43,1.17-.94,2.31-1.28,3.52ZM57,46.37c-.05.39-.53,3.13-.66,3.23-.2.15-1.52-.02-1.48-.69.01-.18.79-2.05.92-2.24.25-.34,1.33-1.21,1.22-.3ZM56.36,44.16c-.07-.37.34-.46.42-.75.08-.28-.11-.83.18-.85l.3,1.35-.89.25ZM60.69,40.96c.04.14-.35,1.26-.6.96-.11-.14.17-1.07.6-.96ZM59.5,43.04c-.12.29-.35,1.18-.75,1.12-.04-.6.11-1.13.75-1.12ZM57.63,42.08c-.27-.05-.22-.31-.08-.56.35-.58.72-1.21,1.19-1.69.01.38-.81,2.31-1.12,2.25ZM61.56,46.45c-.02.19-1.13,2.9-1.24,3.02-.29.32-1.43.11-1.87.31-.32-.39,1.88-4.55,2.27-5.18.5-.82,1.52-2.32,2.14-3,.1-.11.39-.47.52-.32.21.23-2.33,3.46-2.25,4.23.01.1.53.12.43.94ZM64.06,47.7c-.1.28-.16.95-.26,1.08-.08.1-.92.33-1.1.34-.8.07-.02-.56.19-.93.86-1.53,1.75-3.59,3.2-4.59.42-.29,1.12-.47,1.02.28-.1.7-.88.7-1.32,1.01-.92.64-1.33,1.77-1.72,2.81ZM65.47,48.66c0-.32-.1-.56.22-.48l.38.48h-.6ZM69.65,47.46c-.07.52.28.61.3,1.03l-3.59.16c.19-.32.71-.27.96-.65.22-.34.42-1.48.66-2.02.2-.47.63-1,.86-1.49.23-.06,1.64.98,1.68,1.22.12.66-.82,1.35-.88,1.76ZM72.65,47.53l-1.05.32c.18-.32.51-.53.45-.96.25-.1.73.45.6.64Z"/>
      <path d="M62.89,120.75c.87.98-.76,2.11-1.2,2.73-1.51,2.14-2.02,6.66-2.54,9.31l-.71,2.53v-.96c-.24.25-.48.08-.3-.16.08-.1.65-.05.45-.8-.39-.14-.41.45-.45.48-.11.07-.46-.74-.6.16-.24.04-.16-.22-.15-.4.14-2.15,1.37-7.89,2.21-9.82.38-.87,2.26-4.21,3.28-3.06ZM59.2,128.9c-.21-.05-.4.09-.45.32h.45s0-.32,0-.32ZM58.6,131.62c-.21-.23-.64.61-.6.64.38.29.71-.51.6-.64ZM57.8,132.54l-.1.85.4.05.1-.85-.4-.05Z"/>
      <path d="M58.15,135.31s-.32.06-.3-.08c.26-.3.11-.51-.24-.56-.38-.05-.07.35-.36.31v-.8c.3.19,1.39.63.89,1.12Z"/>
      <path d="M105.67,127.13h.3c.13.54-.37.24-.45.32-.27.3.3.34.31.4.01.4-.6.65,0,1.2-.2-.03-.68.28-.74-.09-.05-.26.55-2.94.67-3.44.04-.18,0-.52.22-.48-.11.86.4,1.47-.3,2.08Z"/>
      <path d="M102.83,129.22c-.54.61-.05-.83-.06-.89-.02-.18-.33-.27-.24-.56.48.32.13-.1.45-.16.03.26-.05,1.49-.15,1.6Z"/>
      <path d="M101.79,135.31c-.07.17-.36-.43-.3-.64.29.08.34.35.3.64Z"/>
      <path d="M38.13,124.72c.19-.64-.19-1.51.45-1.92-.11.56.34,1.86-.45,1.92Z"/>
      <rect x="87.14" y="133.07" width=".15" height=".8"/>
      <path d="M63.23,140.29h-.3c-.05-.24.07-.33.22-.48l.07.48Z"/>
      <path d="M101.49,107.87c-.26.24-.67-.21-.45-.48.14-.17.61.33.45.48Z"/>
      <path d="M64.87,129.86c-.4.4-.34-.68.15-.8-.03.15-.12.77-.15.8Z"/>
    </g>
    <g>
      <g>
        <g>
          <path d="M123.61,56.2c0-.6.31-1.39.12-1.98-.1-.3-.64-.37-.67-.66,0-.07.15-.96.27-1.55-.41-.69-.86-1.35-1.35-2-.18-.13-.36-.4-.53-.68-.42-.53-.85-1.04-1.3-1.54-.06-.05-.11-.11-.15-.17-.46-.52-.93-1.03-1.4-1.53-.03,0-.06,0-.09-.01l-.03-.11c-.79-.84-1.58-1.64-2.31-2.42-.29-.31-.43-.66-.45-1-.81-.23-1.65-.37-2.51-.46.19.29.33.57.22.79h-2.09c.23-.38.71-.48.75-.88-.7-.04-1.41-.04-2.12-.03-.1.22-.38.5-.58.42-.07-.07.01-.26.14-.41-.86.03-1.71.08-2.56.14-.54.44-1.12.69-1.77.43-.06-.06-.03-.17.04-.31-.65.04-1.29.08-1.91.1-.1.16-.21.29-.33.34-.08.03-.96.3-1.03.31-.24.03-.52-.16-.85-.1-.69.11-1.35.39-2.04.47.19-.54.27-.98.25-1.32-.66.14-1.32.22-1.99.27-.1.26-.18.55-.22.89-.84-.04-.91-.3-.69-.84-.53.02-1.05.02-1.58.02-.29,0-.53-.07-.74-.18-.09.02-.2.05-.31.09-.44.14-1.15.69-1.41.74-.37.06-1.61-.16-2.22-.14-1.12.04-1.39.27-2.57.04-.86-.16-1.31.54-2.09.89-1.07.48-2.3.8-3.41,1.15-.27.26-.28.78-.47,1.09-.46.76-1.69,1.49-1.15,2.42.61-.2,1.3-.03,1.7.74.46.9,1.02,1.66,1.65,2.3.04-.33.11-.59.22-.61.25-.06.32.2.36.41.03.17.15.63.23.94.66.53,1.38.97,2.14,1.35.13-.28.24-.58.26-.93,2.01,1.33,4.2,2.31,6.5,2.89.01.01.01.04.01.06,1.23.26,2.44.52,3.58.85.15.04.28.1.39.17.66.15,1.31.3,1.93.35,1.35.12,2.72-.17,4.02-.17,2.31,0,6.35.33,8.49,1.17.9.36.35,1.24,1.17,1.64.72.35,1.21-.43,1.64-.33,1.32.89,2.5,2.03,4.03,2.52-.04.17-.11.43-.2.73.55.27,1.07.58,1.6.89.19-.23.41-.35.66-.22.8.4.57.98,2,.62,1.42-.36.28-1.53.15-2.26-.25-1.38.33-2.05,1.04-3.04.13-.19.59-.68,1.07-1.25-.14-.78-.33-1.54-.56-2.3-.29.29-.56.72-.96,1.21ZM86.73,48.93c-.07.11-.1.46-.33.21-.08-.09-.47-2.19-.41-2.45.03-.15.21-.43.31-.55.12-.13,2.04-1.38,2.18-1.43.49-.16,1.26-.08,1.8-.23-1.39,1.29-2.51,2.82-3.55,4.44ZM90.88,52.6c-.38.26-2.7-1.57-3.29-1.7-.12-.17,1.56-2.73,1.72-2.72,1.19.84-1.7,2.88.07,3.46.94.31.99-.72,1.32-1.33.66-1.2,2.78-4.35,3.76-5.11.2-.16.31-.3.6-.23-1.17,2.68-2.47,5.3-4.18,7.63ZM95.48,53.2c-.05.36-.85,1.23-1.17.91-.1-.1.46-2.58.89-2.73.23.43,0,.81.03,1.17.02.21.28.41.24.65ZM97.76,53.71c-.11.24-.29.83-.32.86-.04.04-1.03.17-.88-.22.2-.21.9-1.05,1.12-1.04.28,0,.16.21.08.4ZM98.65,55.08l.9-1.2c.18-.08.62-1.73.89-1.37-.08,2.3,1.25,3.16-1.79,2.57ZM100.74,45.85c-.81,1.31-2.14,3.41-3.07,4.56-.15.18-.23.4-.51.33l.97-5.78c.09-.14,2.76-.4,3.22-.47.13.13-.49,1.18-.6,1.36ZM117.25,47.21c.61.5.33,1.41-.37,1.6l.37-1.6ZM104.93,44.16c.18.17-.88,1.31-1.04,1.12-.12-.49.67-1.47,1.04-1.12ZM102.53,49.85c.31-.79,2.6-3.44,3.29-4.17.17-.19.32-.45.6-.4-.88,1.99-2.3,3.55-3.51,5.3l-.67.64c.05-.43.14-.98.29-1.37ZM105.15,54.12c-.47.42-.85.11-.67,1.12-.37-.25-1.76.01-1.91-.19-.04-.06-.44-1.35-.41-1.41.06-.15,1.08-.97,1.35-1.28.42-.49,1.93-2.82,2.17-2.97.35-.22.94.04,1.17-.11.2-.13.32-1.23.44-1.53.11-.26.66-1.13.85-1.33.46-.51,3.24-2.42,3.82-1.76l-5.68,8.1c-.44.39-.68.98-1.12,1.37ZM108.89,55.55c-.51-.37.08-.76.37-.96l-.37.96ZM112.09,55.64c0,.21.09.37.16.56-.05.04-1.29-.19-1.35-.23-.26-.18.23-1.82.35-2.21.42-1.44,2.95-7.69,3.89-8.42.11-.08.66-.25.7-.21.02.02,0,.36.15.56.23.35.85.66.68,1.19-.07.21-.89,1.54-1.05,1.61-.32.15-.27-.54-.42-.75-.02-.04-.61-.51-.65-.51-.57-.11-.34.75-.38.98-.16.83-.28,1.8-.46,2.57-.32,1.37-1.64,3.69-1.61,4.86ZM116.28,50.26c-.2.9-.74,1.91-1.34,2.57.1-.96.66-1.96,1.34-2.57ZM120.05,57.44c-.08.45.11.77.07,1.06-.11,1.01-.41,2.15-1.45,1.38l.45-.56c-.48.13-.59-.06-.58-.65.02-.8,1.54-2.04,2.07-2.64,0,.5-.49.95-.57,1.4ZM121.05,52.07c-.12.81-.91,1-1.26,1.39-1.18,1.3-2.54,3.17-2.76,4.99-.16.03-.3-.02-.45-.07-.14-.04-2.28-1.2-2.38-1.29-.18-.15-.19-.16,0-.32,2.1-2.16,3.43-4.82,4.64-7.62.03-.02.47.3.54.38.33.34.53.92.8,1.31.27.38.95.75.88,1.25ZM121.51,57.8c-.6,0-.44-.49-.3-.96.38.12.3.61.3.96Z"/>
          <path d="M105.2,60.57c.24.37-.29,1.49-.42,1.89,2.1-2.3,2.94-.04,2.77,2.25-.13,1.71-1.57,6.39-2.5,7.91-.49.8-.87,1.15-1.83,1.06-2.96-.27-2.41-4.78-1.99-6.93.29-1.5.88-2.73,1.38-4.14.39-1.11.25-2.87,1.79-2.56.1.02.77.47.8.52Z"/>
        </g>
        <path d="M38.23,55.78c.06.04.03.25.05.26.31.22.31-.3.53-.46.43-.32,1.41-.21,1.64.3.06.14.22,1.71.23,2,.04,1.99-.28,4.72-.68,6.67-.24,1.19-.7,2.32-.9,3.53-.58.53-1.48,1.01-2.23.97-2.22-.14-2.08-1.91-2.03-3.78.09-3.13.83-5.08,1.55-7.96.28-1.1-.2-1.95,1.36-1.73.22.03.31.09.49.2Z"/>
      </g>
      <g>
        <path d="M61.62,21.01c.22.15.59-.12.57.2h-.9c.15-.91.29-.23.33-.2Z"/>
        <path d="M63.08,20.42c-.1.59-.92.08-.75,0h.75Z"/>
        <path d="M52.92,23.78c-.23.25-.48-.45-.45-.48.18-.16.59.33.45.48Z"/>
        <ellipse cx="11.75" cy="38.78" rx=".19" ry=".2"/>
        <path d="M89.09,25.87s-.24-.04-.28.01.19.4.13.47c-.27.3-.43-.28-.6-.32l-.3.48c-.3-.84.2-1.56.67-.64.32-.44-.18-.77.67-.8-.15.14-.27.77-.3.8.21-.05.4.09.45.32h-.45s0-.32,0-.32Z"/>
        <path d="M106.27,5.81c-.01.26-.81.55-.9.48.14-.6.36-.52.9-.48Z"/>
        <path d="M105.08,5.97v.32c-.22.05-.31-.07-.45-.24l.45-.08Z"/>
        <path d="M55.16,7.42c.14.15-.26.64-.45.48-.03-.03.22-.73.45-.48Z"/>
      </g>
    </g>
  </g>
</svg>