<?xml version="1.0" encoding="UTF-8"?>
<svg id="Layer_1" data-name="Layer 1" xmlns="http://www.w3.org/2000/svg" viewBox="0 0 194.41 188.41">
  <defs>
    <style>
      .cls-1 {
        stroke: #000;
        stroke-miterlimit: 10;
        stroke-width: 2.5px;
      }
    </style>
  </defs>
  <g>
    <path d="M82.87,155.44c-.43-.44-.58.85-.75,1.28.24.05.38-.06.57-.2.03-.37-.08-.76.19-1.08Z"/>
    <path d="M130.78,111.69c-1.21,1.72-2.95,4.38-3.17,5.13-.15.51.67.22.94.29.18.16-.94,1.69.09,1.76.24-.56.81-.79,1.13-1.18,1.01-1.27,1.62-3.3,2.56-4.6.36-.49.78-.93,1.21-1.37-.27-.1-.54-.2-.8-.3-.65.14-1.31.22-1.96.27Z"/>
    <path d="M111.11,92.82c-.4.22-1.08.95-1.16.95-.17,0-.35-1.22-1.56-1.34-.23-.02-1.09.49-1.15.59-.12.21.19.84.17,1.23-.22,4.29-5.07,10.4-4.12,13.7.11.39.67.52.64.94-.03.33-.61,1.87-1.02,2.95.13,0,.26,0,.4,0,.51,0,.91.17,1.22.43.27-1.01.52-2.05.81-3,.08-.09,1.28.41,1.58.35,1.07-.22,2.46-5.82,1.81-7.02-.06-.05-.84.86-.75.1.07-.62.81-2.31,1.1-2.98.81-1.9,2.1-4.79,3.92-5.73.53-.27,1.49-.2,1.59-.91.28-1.91-2.64-.72-3.48-.26Z"/>
    <path d="M194.18,80.59c-.82-3.6-3.96-8.44-8.06-7.41.75-.44.24-1.9.94-1.37-.05-.81.68-1.46.89-2.12.91-2.84-.48-5.46-2.6-7.18-.32-.26-1.84-1.08-1.88-1.19-.22-.75.45-.32.58-.62.23-.55-.06-1.21.02-1.69.1-.53.62-.77.72-1.04.05-.14-.91-.9-.18-1.66l.19.39c.48-.15.38-.75.37-1.18-1.2.43.21-.65.3-.96,1.2-4.36.94-13.36-.66-17.58-.95-2.5-3.24-4.72-5.67-5.58.81-1.49,3.43-3.4,1.89-5.2-2.12-2.48-9.78-1.18-12.65-.49.33-2.62,2.93-5.34,3.03-7.95.05-1.43-1.75-1.47-2.41-.62-.59.76-.75,3.83-1.75,4.65-.56-2.27-1.44-5.57-3.89-6.25-1.35-.38-2.2-.16-3.54-1.03-.27-.17-.34-.56-.61-.74-1.1-.72-2.33-1.06-3.58-1.38-2.23-.56-4.32-.92-6.56-1.63-.6-.19-2.08-.41-2.58-.65-.35-.17-1.32-1.3-1.83-1.63-1.36-.89-3.48-1.2-4.59-2.1-.33-.27-.46-.89-.88-1.24-2.44-1.99-7.25-.11-9.63,1.31-.5.3-2.48,1.93-2.64,1.96-.19.04-2.06-1.03-2.82-1.12-.91-.11-1.53.18-2.24.17-1.2,0-2.4-.57-3.96-.39-1.73.2-3.49,1.31-5.08,1.96-.58-.04-1.48-1.03-2.14-1.15-.32-.06-.75.17-.78.14-.06-.05-.05-.43-.33-.54-.81-.3-2.69.23-3.45.68-.54.32-1.18,1.27-1.52,1.37-.67.2-1.72-.95-3.21-.2-.65.33-.93,1.66-1.42,1.66-.41,0-.54-.74-.84-1.1-.16-.19-1.79-1.68-1.91-1.75-.9-.45-1.55-.12-2.33-.13-.48,0-.87-.27-1.52-.17-.52.08-2.16,1.46-2.37,1.89-.19.38-.19.83-.29,1.23-.05.21-.01.76-.37.59-1.09-.54.33-3.53.46-4.42.18-1.24.02-2.09-1.26-2.4-.64-.16-1.47.19-1.84-.64-.35-.79-.15-.99-.85-1.86-2.49-3.06-8.26-2.8-11.28-.73-.71.48-3.17,3.1-3.39,3.16-.34.09-2.82-1.29-3.52-1.17-.06.01-.76,1.22-.88.46-.18-1.13-.4-.07-.45-.07-.38,0-.83-.24-1.5-.16-1.71.2-3.43,1-5.05,2.01-.04.52-.24,1.02-.61,1.38l.07.02c-.03.1-.13.22-.26.35-.08.67-.44,1.29-1.07,1.58,0,0,0,0,0,0-.06.22-.41.26-.56.46-1.12,1.54-3.07,2.01-4.33,3.6-.09.34-.26.66-.51.9-.12.36-.22.78-.27.82-.3.2-1.17.15-1.17-.32-.14,0-.26-.03-.38-.06-.03,0-.05,0-.07-.02-.29-.09-.53-.24-.72-.43-1.09.6-3.83-.3-5.08-.32-2.06-.04-4.19.26-5.91,1.51-.33.24-.64.78-.95,1.04-.67.57-1.57.91-2.12,1.87.89.03,1.65-1.25,2.36-1.86.14-.03.13.21.09.29-.13.29-1.8,2.05-2.09,2.16-.87.34-.88.3-1.82.85-3,1.72-8.73,5.48-9.45,9.2-.12.61.08,1.23-.15,1.81-.6,1.57-3.74,3.74-4.88,5.32-.76,1.05-1.16,3.08-1.72,3.7-.32.36-1.38.64-1.91.96-.73.44-1.39,1-2.14,1.41-.09.33.58.05.37.49-.17.35-1.09.63-1.41.89-1.66,1.29-.29,1.26-.29,1.47-.54,1.03-1.44,1.04-1.92,2.12-.09.21-.49,1.5-.49,1.64,0,.36.43.45.34.84-.14.02-.49-.06-.55.01-.06.07-.21,1.65-.21,1.86,0,.88.32,1.87.38,2.74.12,1.79-.12,4.08.72,5.72.46.9,1.32.8.81,2.14-.08.2-.09.57-.39.27-.36-.36.16-1.9-.57-1.76.21,3.37,2.31,5.97,5.75,5.68.27-.02,1.33-.25,1.5-.36.32-.23-.21-.97.49-.81l-.77,3.62c0,.21.49-.02.39.3-.77.04-.52.95-.71,1.52-.22.67-1.17,1.85-1.16.56,0-.7.33-1.17-.2-1.99-.15-.23-2.16-1.68-2.52-1.89-1.74-1-4.28-1.64-6.12-.7l-2.79,5.24c-.3,3.76-2.06,7.16-3.2,10.6C1.17,86.46-.2,97.42.03,101.91c.21,4.09,1.46,8.02,2.21,12.02.49,2.61,0,5,2.33,6.8,1.85,1.43,4.09,2.14,5.8.18,1.71-1.96,2.85-4.87,4.6-6.89l.72-.04c.09.08-.29.31-.31.48-.02.15.49,2.63.58,3.05.41,1.96,2.08,5.68,2.17,7.17.02.33-.03.76-.11,1.21.75.35,1.1,1.19,1.06,2,1.06.41,1.41,1.72,1.04,2.72.08-.02.19.05.28.12.13.12,1.32,2.81,1.55,3.3.33.72,1.8,3.91,1.86,4.35.02.15.04.34.05.53,1.37,2.45,2.73,4.89,4.13,7.31.02.03.04.06.06.08,1.66,2.31,3.4,4.8,4.81,7.45.11.08.22.15.28.24.18.29.74,1.51.82,1.86.37.54.74,1.08,1.12,1.61.26,0,.25.16.28.38.74,1.02,1.5,2.02,2.28,3.01.02,0,.03-.01.05-.01,1.4,1.51,2.55,3.39,4.25,4.51.05.07-.37.41-.7.7.92.84,1.71,1.78,2.38,2.8-.05-.5-.06-.87.02-.95.59-.15.56.25.83.5,2.38,2.25,4.79,4.51,7.49,6.44,1.05.75,2.4,1.49,3.54,2.11.03.11.04.28.05.49.87.64,1.75,1.26,2.64,1.87.09-.25.21-.43.43-.41.19.02,2.78,1.59,3.33,1.84,3.96,1.81,8.21,2.82,12.31,4.22.18.15.28.27.34.37.43.04.85.11,1.27.2.08-.04.19-.04.33.01.05.02.09.05.12.09.32.08.65.18.96.28,5.24-.29,10.62,1.32,15.89,2.37,1.05-.04,2.45-.15,3.23,0,.08.01.15.06.23.12.23-.11.5-.18.81-.18,1.53-.03,3.04-.27,4.55-.4.14-.05.37-.09.73-.12,0,0,.01.03,0,.07.54-.03,1.09-.05,1.64-.03.01-.05.03-.1.04-.16,2.15-.29,4.32-.55,6.47-.92.29-.25.66-.43,1.11-.49,1.75-.23,3.4-.72,5.03-1.18.2-.1.46-.17.81-.22.42-.11.85-.22,1.28-.31.67-.88,5.83-2.94,6.74-3.83.15.1.21.19.21.29.85-.48,1.68-.96,2.5-1.45.97-1.71,2.53-2.25,4.08-3.55,2.31-1.95,4.5-4.13,6.8-6.08.04.14.06.28.07.41,1.19-1.73,2.34-3.46,4.12-4.65.17-.11.34-.19.5-.24,4.57-5.39,8.17-11.72,11.35-18.07,4.5-8.98,8.16-18.39,10.47-28.24.66-.16.56.32.93.69,1.42,1.46,2.29,1.95,2.83,4.12.32,1.29-.09,2.3,1.2,3.07.71.42,4.78.95,5.7.95.45,0,2.76-.35,3.11-.51.17-.08.44-.41.57-.58,1.08-1.42,1.97-3.31,3.08-4.74.91-1.17.97-.56,1.26-2.51.31-2.06.54-1.75,1.3-3.55,1.39-3.29,4.01-7.61,3.99-11.14,0-1.26-.34-2.37-.39-3.53-.26-6.47,6.2-14.11,4.67-20.74ZM184.6,53.58c.26-.06.5.11.57.39h-.57s0-.39,0-.39ZM184.31,73.56c-.75.69-1.79.9-2.72,1.19-.14-.81.21-1.19.75-1.67-1.17-.76.02-.8.14-.92.49-.45-.1-1.33-.14-1.64-.01-.09.34,0,.39-.37.22-1.74-.33-3.51.11-5.36.11-.47.41-.94.53-1.42,4.32,2.67,2.39,6.37.93,10.18ZM176.69,44.47c.25-.53.53-.06.84.16.16.12.91.64.94.7.49.81-1.17,2.96-1.42,3.83-.02.05,1.02.44-.09.68-.82.18.02-.53-.85-.59v-.19c.21-.02.41-.06.5-.29.27-.68.03-3.34.09-4.31ZM180.62,52.91c.4,2.98.18,4.76-1.45,7.28-.32.49-1.28,1.49-1.75.7-.24-.41-.69-3.64-.74-4.31-.03-.47.02-1.15,0-1.72-.01-.43.48-.61-.21-.8.91-.38.53-.78.71-1.22.35-.83.89-2.2,1.36-2.81,0-.27-.02-.53.09-.78l.85-1.77c.15,1.79.87,3.6,1.11,5.41ZM180.49,47.59c0-.14.11-.25.24-.25s.24.11.24.25-.11.25-.24.25-.24-.11-.24-.25ZM177.9,65.35c.24.15.52.16.78.26.05.02.08.22.22.29.8.41,1.64.06,1.02,1.73-.06.16-.99,1.62-1.09,1.63-.48.09-1.89-1.84-1.9-2.27-.02-.51.63-.64.78-.89.13-.21-.19-.59.18-.77ZM177.05,51.61c.06-.28.3-.45.57-.39v.39s-.57,0-.57,0ZM177.44,70.34c0,.46-1.63,1.72-1.99,1.67-.5-.08.06-.81.08-1.09.05-.61-.02-1.24.01-1.85.32-.32,1.9.91,1.9,1.27ZM175.85,62.13c-.1.19-.67.68-.87.47-.1-.11.01-2.64.28-2.94.15.86,1.04,1.62.59,2.47ZM175.16,44.55c-.46-.3-.35-1.28-.37-1.76.63.29.32,1.21.37,1.76ZM175.07,67.11c.55,0,.07,1.63.09,1.96-.99.16-.3-1.95-.09-1.96ZM176.67,73.77l-.19-.58c.79-.09,1.4-.68,1.99-1.18.17-.15.23-.49.32-.54.23-.14,1.28-.08,1.66-.24.04.34-.02.66-.09.99-.07.37-.98,3.15-1.09,3.28-.25.28-3.04,1.17-3.72,1.52-.26.13-1.39,1.02-1.51.88.3-2.19-.27-4.37,2.64-4.12ZM180.36,63.77c-.06,0-.82-.75-.66-.97.24-.03,1-.33,1.13-.2.19.19-.22,1.18-.47,1.17ZM180.83,48.09c.12.01.34-.03.37,0,.03.03.24.74.19.78-.23.23-.75-.39-.56-.78ZM181.39,49.65c.18.2.08,1.69-.38,1.17-.04-.05.1-1.16.38-1.17ZM181.68,52.44c.13,0,.24.11.24.25s-.11.25-.24.25-.24-.11-.24-.25.11-.25.24-.25ZM183.41,49.01c-.02.05-.28.04-.31.19-.2.86,0,3.14-1.32,2.81-.22-.53.35-.3.38-.49.07-.49-.31-.22-.37-.3-.31-.38.36-.4.36-.47.02-.95-.81-3.06-.93-4.13l1.05-.28c.5-.92-.6-1.08-.67-1.2-.2-.3,1.96-3.48,2.26-.48.07.72-.18,3.76-.44,4.36ZM181.33,34.62c1.6,1.79,2.22,4.43,2.52,6.79-.91-.27-2.04-.39-2.82.31-.31.28-.66,1.35-1.05,1.26-.45-.85-.78-2.12-1.42-2.84-.4-.46-1.75-.95-1.99-1.46-.4-.87,0-4.2.49-4.99,1-1.58,3.36-.07,4.26.93ZM167.26,33.3c.1-.84.51-1.36.68-2.04.28-1.14.3-2.99,1.28-3.77,1.15-.93,6.91-1.17,8.41-.89,1.78.34,1.49.96.63,2.25-.15.22-.6.92-.77.98-.51.18-1.41-.65-1.74-.35-.13.12-.75,2.69-.99,3.19-.12.26-.96,1.49-1.11,1.59-.44.27-1.68.21-2.18.68-.39.37-.2,1.01-.48,1.47-.56.93-2.45.72-3.35.68-.47-1.12-.52-2.56-.38-3.77ZM172.33,42.01c-1,1.29-1.12-.86-1.51-1.27-.3-.31-1.03-.37-1.32-.79.88-.09,1.44-.84,2.26-1.08l-.19,3.33.75-.19ZM168.28,41.61c.11.02.63.39.64.49.02.23-2.03,3.59-2.35,4.01-.64.83-1.93,2.16-2.72,2.86-.2.18-1.5,1.29-1.6,1.29-.28,0-.94-.2-1.14-.41-.82-.9-.95-5.23-.33-6.22.64-1.02.46,1.47.98,1.82.95.62,1.52-1.77,1.49-2.38-.02-.56-.65-.85-.54-1.46,1.61.24,4.08-.32,5.57,0ZM139.96,46.13c-.46,0-2.8-.3-2.16-.99.26-.28,2.2.13,2.71,0,.15-.04.12-.39.23-.39.25-.01.6.24,1.1.19.64-.06,2.04-1.04,2.54-.74.07.04.92,1.41.79,1.53-.78-.37-1.32.76-1.42.79-.18.05-.47-.23-.47-.29,0-.17.74-.37.75-.68-1.25.05-2.87.59-4.07.59ZM121,36.12c.65-.91,1.55-1.6,2.26-2.45.83-.99,4.03-5.65,4.68-5.96.37-.17,1.12-.19,1.55-.41l-.37-.39.75-.2c-.09,1.15.09,2.33-.37,3.44-1.94,1.5-4.36,4.97-6.62,5.68-.62.19-1.24.36-1.89.29ZM122.51,37.1h-.57c.06-.28.3-.45.57-.39v.39ZM122.19,25.67c.11.16.88.52.88.75,0,.53-2.81,2.66-3.58,2.45l1.12-6.19c.6-.71,1.19-1.36,1.62-.08.17.51-.75,2.03-.04,3.07ZM119.87,20.43c-.28-.06-1.09-1.21-.94-1.37.27-.28,1.23.9.94,1.37ZM120.82,32.31c.47-.47.85-.94,1.06-1.28.23-.36.54-.68,1.01-.59.04.36-.2.61-.38.88-.56.8-1.97,2.38-2.67,3.11-.49.5-.74.34-.71-.37.02-.45,1.31-1.36,1.69-1.75ZM124.31,22.02c.48-1.43,3.11-.97,3.3.09.31,1.7-.97,2.79-2.45,3.03.03-1.05-1.16-2.21-.85-3.13ZM131,32.4c-.26.52-.01,1.08-.23,1.61-.57,1.37-4.02,2.85-5.43,3.09.63-.96,2.23-1.46,2.93-2.15.24-.24,1.13-1.18,1.31-1.39.36-.42.35-1.31,1.42-1.17ZM124.22,39.17c.07-.05,1.54-.62,1.63-.64.88-.12,2.11-.29,3.03-.9.2-.13.21-.61.77-.88.45-.21.9-.11,1.36-.05-1.95,1.77-4.14,3.48-4.15,6.47-1.6.41-4.14-2.87-2.63-4.01ZM128.77,42.93c.04-.24.64-1.76.79-2.03.13-.24.82-.86.97-1.24.42.69,1.49.57,1.97.89.1.07,1.15,1.44,1.14,1.54-.08.48-2.43,1.2-2.93,1.28-.58.1-2.06.4-1.93-.43ZM133.41,26.61c.03-.07-.08-.34.06-.56.5-.77,1.06.05.37.66.68.03,2.26-.29,1.79.78-.34.8-1.01.34-1.23.49-.11.07-.11.38-.34.49-.15.07-1.29.25-1.36.2.28-.56.22-1.23.4-1.81.05-.15.26-.14.31-.25ZM132.69,12.39c-.37.27-1.12-.46-.93-.97.87.52.44-.21.8-.54.1-.09.85-.29.89-.24-.08.27-.69,1.7-.76,1.76ZM140.47,28.5c.32-.26,1.86-.33,2.19.02.16.16.65,1.7.61,2-.03.22-.88,1.69-1.05,1.87-.24.24-3.02,1.22-3.19,1.19-.33-.07-.33-1.56-.25-1.82.13-.41.99-1.38,1.25-1.84.26-.46.38-1.37.44-1.41ZM140.25,16.8c.03-.27.11-.57.38-.29.13.13.98,3.33.96,3.63-.02.31-.78,1.47-.87,1.47-.32,0-.42-.21-.47-.49-.14-.84-.11-3.45,0-4.32ZM140.61,38.56c-.95.2-1.69,1.17-2.5,1.52-.88.38-.29-1.24-.09-1.37.24-.16,1.18-.06,1.6-.3.45-.26,1.54-1.35,1.95-1.8.67-.74,1.15-2.11,2.26-2.06-.41,1.98-1.87,2.8-3.22,4ZM143.25,42.57c-.19.31-2.67,1.07-3.18.81.32-.64,1.18-1,1.61-1.37.23-.2.34-.7.58-.78.53-.17,1.28.86.99,1.34ZM139.5,35.73c.07.06-.72.99-.94.78.13-.47.42-.82.94-.78ZM134.63,21.95c.24-.56.18-1.27.45-1.89.25-.58,1.03-1.51,1.49-1.98.29,1.87,1.11,3.4,2.17,4.9-1.38-.37-3.07.42-4.25.41-1.68-.02-.15-.78.14-1.44ZM133.45,29.46v.39h-.56v-.39h.56ZM133.38,30.64c.09-.13-.17-.54-.11-.6.06-.06,1.43-.2,1.7-.39l-.23.65-2.23,3.08c-.16-.59-.37-1.6-.1-2.16.19-.38.81-.36.96-.57ZM131.15,45c.41-.07.86,0,1.23-.1.4-.11,2.39-1.15,2.59-.94.51.53-1.02,1.02-1.28,1.12-1.06.38-2.15.6-3.25.25-.04-.28.52-.3.71-.33ZM133.87,39.2c.08-.47.72-.82.98-1.14.33-.41.36-1.31,1.25-1.15.44.45-.63,4.32-.85,4.31-.36-.33-1.45-1.55-1.38-2.02ZM135.99,33.17c-.03.07-.78,1.23-.83,1.29-.12.14-1.16.87-1.23.87-.29,0-.24-.22-.09-.48.24-.42.66-.93.95-1.37.1-.15.04-.43.1-.5.36-.4,1.24-.19.83-1.17l.38.2.38-.59c-.08.5-.27,1.32-.48,1.75ZM136.29,24.85c0-.3,1.57-.56,1.88-.49l-.57,1.37c-.63.11-.91-.51-1.31-.88ZM137.8,42.4c.27.26-.35.72-.75.39,0-.33.62-.52.75-.39ZM144.78,41.22c-.3-.54.34-1.69.33-1.87-.02-.21-.57-.37-.52-.96.03-.32.47-.77.61-1.15.38-1.01.73-2.05,1.12-3.05.59.19,3.01-.58,3.18.08.12.47-.74,1.25-.83,1.65-.08.34.18.72.06,1.06-.11.34-.55.22-.7.38-.06.06-.59.76-.81,1.01-.81.94-1.4,2.14-2.44,2.86ZM145.78,42.85c.36-.43,1.18-.97,1.65-1.52.31-.37.98-1.19,1.07-1.61.03-.14-.14-.43-.12-.45.05-.04.37.01.54-.12.43-.34.96-.99.98-1.56,0-.15-.3-1.37.18-.98.3.25-.04.84.56.69.02-.54.17-1.1.57-1.47l-.38-.29c.71-.1.66-1.22,1.43-.6.29.24,1.27,3.02,1.81,3.81.57.84,1.22.37.16,1.79-1.5,2-4,4.07-6.53,4.21-.79.04-2.58-1.08-1.9-1.89ZM156.79,40.84l2.71.77c-.48,1.48-.81.78-1.94,1.02-.22.05-1.59.5-1.72.58-.26.15-.29.55-.43.57-.03,0-.62-.18-.64-.21-.16-.21,1.79-2.36,2.01-2.73ZM158.86,39.63c-2.62-.33-1.72-1.29-2.6-3.18-.21-.46-.66-.94-.91-1.4l-1.5-1.67c2.62.05,5.25-.12,7.84-.56.51.06-.05,1.29-.09,1.67-.03.27.01,1.89-.04,1.99-.05.08-.4.12-.58.48-.77,1.48.33,2.99-2.1,2.68ZM159.13,30.54c.69-.21,1.63-.36,2.24-.61.29-.12,1.77-1.2,1.9-1.06-.54,1.78-2.36,2.17-3.97,2.27-.28.02-.57.2-.75-.21-.17-.38.37-.32.57-.38ZM164.6,31.02l-.19-.59c.53-.02.76.39.19.59ZM164.22,34.85c-.09,1.72.5,3.46,1.51,4.8l-3.96.2,2.36-7.45c.78-.18.12,2.02.09,2.45ZM163.65,25.92c-.11-.09-.21-1.66-.57-1.96,1.09-.41,1.31,2.52.57,1.96ZM163.05,21.28c.04-.18-.03-1.55.42-1.04.06.07.34,1.57.39,1.85-1.57.62-1.01.09-.81-.81ZM160.08,26.43c1.28-1.04,2.09.25,1.67.86-.09.13-2.59.73-3,.8l1.33-1.66ZM159.66,23.94l-1.3,1,.57-2.35c.33.15.91,1.03.73,1.35ZM158.56,15.73c-.92.45-1.44-.35-1.7-1.17l1.7,1.17ZM156.67,22.69c.03-.5.13-1.81.56-2.06l-.19,2.55c-.49.07-.4-.08-.38-.49ZM156.67,31.32c.01.49-2.25.24-2.64.29-.55-1.75,2.63-.69,2.64-.29ZM154.22,28.67c.11-.45.59-.41.94-.39-.11.45-.59.41-.94.39ZM154.5,20.43c-.56.04.15-1.78.85-1.37.06.05-.56,1.34-.85,1.37ZM154.87,16.32c-.54.13-.7-1.62-1.04-1.96.5-.4,2.18,1.68,1.04,1.96ZM153.08,22c-.14.97-.7,1.83-1.04,2.75-.09.25-.07.75-.09.78-.3.39-.33-.15-.39-.28-.81-1.57.45-2.38,1.52-3.25ZM151.29,15.73c1.17.29-.11,3.78-1.41,3.53-.47-.75.68-3.71,1.41-3.53ZM150.06,13.97l-1.5,1.81-.57.35c-.2-1.22.76-2.79,2.07-2.16ZM147.61,18.87c.59.25.34,1.06.37,1.57-.98.24-.51-.86-.37-1.57ZM146.29,22.59c.64.14.65.76,1.37,1.02.36.13,1.04.11,1.08.15.1.1-.04,2.35,0,2.84.07.68.51,2.06.86,2.63.25.41,1.92,1.71.55,1.98-.36.07-3.11.07-3.37-.02-.64-.23-.61-2.65-.38-3.31.09-.26.49-.45.6-.92.35-1.53-.39-2.94-.71-4.37ZM144.58,12.29c1.3-.49,1.48.82,1.52,1.87-.92.11-2.13-.9-1.52-1.87ZM144.97,15.73c.04,1.25.02,2.4-.19,3.62-.03.19.13.67-.27.49-1.19-.51.08-3.09-.1-4.12h.56ZM143.27,9.85s.73.17.75.2c.03.04-.01.27,0,.39h-.75s0-.59,0-.59ZM144.97,25.14c.04,2.61-.58,2.89-2.26,1.08l2.26-1.08ZM142.61,14.95l.09.78h-.18c-.06-.41-.32-.5.09-.78ZM142.33,10.63c0,.73-.46,1.02-1.13.98.44-.57.3-1.39,1.13-.98ZM139.92,9.3c.14-.16.67-.26.9-.44.23.33-.77,2.25-1.22,2.16-.5-.11.2-1.57.33-1.72ZM139.87,25.14c.1.91-.56,1.24-1.32,1.37.77-.64.21-1.64,1.32-1.37ZM138.93,14.95c.05.06-.53,1.25-.52,1.52l-.23,1.81c-.23-1.17-.43-1.94.26-2.96.08-.12.19-.69.49-.37ZM137.98,7.69c.16.18-.91,2.83-1.11,3.25-.1.21.1.37-.39.28-.07-1.54-.63-3.68,1.51-3.53ZM129.21,8.87c1.57-1.18,2.63-1.56,4.32-2.01.22-.06.5-.96,1.01-.69.04.02.05.34.14.35.31.04.75-.38,1.31-.42.35-.02,1.3-.03,1.42.41-.96.62-2.34-.31-3.02.59.1.06,1.64-.43,1.13.2-.03.04-.69.14-.93.31-.44.32-.7.83-1.2,1.1-1.35.72-3.61.26-5.04,1.14-.06-.38.59-.78.85-.98ZM130.35,13.77c1.22.03.72,2.17.23,2.69-1.3,1.4-2.05-2.74-.23-2.69ZM129.54,11.47l1.18-.76.3.5-1.18.76-.3-.5ZM128.86,17.86c.56.3,1.95.33,2.58.18.59-.14.8-.86,1.45-.74-.26.61-.46,1.53-.74,2.07-.34.64-.91.77-1.15,1.15-.2.32-.15.97-.48,1.08-.63.21-3.64-2.98-3.67-3.64-.03-.58.53-.73.57-1.25.3-.22,1.09.97,1.44,1.15ZM127.42,10.83c.27.26-.08,3.28-.24,3.77-.14.43-1.49,2.23-1.93,2.11-.63-.18.31-1.88.41-2.31.32-1.38.05-2.96,1.75-3.57ZM122.89,8.48c1.2-.5,3.91.61,2.17,1.96-.09,0-.21.03-.27-.01-.02-.01.01-.29-.14-.38-.63-.37-1.86-.5-1.76-1.56ZM122.41,10.84c1.13.53,1.17,1.39.85,2.54-.13.13-1.26-.99-1.29-1.12-.14-.49.06-1.1.44-1.42ZM120.91,13.77c.47-.12,1.5,1.79,1.22,2.35-1.05-.94-1.35,1.62-1.51,1.77-.23.2-1.03-.5-1.1-.72-.21-.62.99-3.3,1.39-3.4ZM119.87,11.61l-1.13,1.37c.11-.57.38-1.52,1.13-1.37ZM115.54,11.74c.13-.47,1.98-.98,2.44-1.3.12.13-1.19,1.9-1.36,2.22-.13.23-.13.7-.15.72-.31.34-1-1.36-.93-1.64ZM115.88,20.7c.15-.22.24-1.34.78-.85.11.1-.36,2.67-1.23,2.52-.94-.16.31-1.44.46-1.66ZM116.28,22.98h-.75s0-.39,0-.39c.04-.04.72.17.75.2.03.03,0,.13,0,.19ZM114.2,13.18c-.04.31.75,2.19.1,2.15-.32-.02-1.58-2.17-.1-2.15ZM114.46,26.32c.25-.61.11-1.99,1.25-2.16-.08-.34-.77-.13-.1-.59.78-.54,1.73.76,2.75.4.2.19-1.3,5.1-1.55,5.25-.49.29-3.38-.27-3.65-.74-.26-.43,1.1-1.67,1.31-2.16ZM117.42,35.14s.69.25.94,0c-.04.61-.48,1.29-1.13,1.18.03-.21.15-1.14.19-1.18ZM116.47,33.18c.22-.21.65-1.63,1.13-1.17.24.24-.69,1.38-1.13,1.17ZM113.45,31.22c.09-.38.42-.44.75-.39.19.09-.51.47-.75.39ZM113.18,31.42c.29.74.56.04.85-.09.56-.26,1.88-.25,1.31-1.09.45-.08.44.08.37.48-.15.89-2.17,3.74-3.1,3.65-.54-.05-2.58-2.6-2.57-3.03,0-.11,1.55-1.43,1.66-1.46.31-.09,1.12.19,1.32.41.35.39.06.89.16,1.13ZM116.09,33.77v.59h-.38v-.59h.38ZM115.15,35.14c-.12.83-.58.79-.75,0h.75ZM110.43,19.06c2.73.34,1.04,1.83,1.13,1.96.02.03.31-.04.38.1-.4,1-.48.28-.96.02-.24-.13-.7-.1-.85-.3-.28-.36.39-1.27.3-1.78ZM110.99,13.77c.2.39-.53,1.23-.75.98-.18-.2.49-.89.75-.98ZM111.37,26.91c-1.02-.25-.81-1.09-.09-1.57l.09,1.57ZM110.24,23.28c-.12.18-.39.41-.56.29-.04-.03-.22-.81-.19-.98l.75.69ZM109.84,28.22c.13.53-.49,1.1-.82,1.43-.87-.81-.64-2.04-.85-3.13.2-.23,1.64,1.57,1.67,1.71ZM108.17,12v-.39c.26-.06.5.11.57.39h-.57ZM108.36,33.57c.06-.05-.32-1.07.66-1.18.28.37-.76.66-.47.98.03.04.3-.17.55-.1.06.02,1.04.69,1.08.74.25.27.26,1.07,1,1.22-.18.24-.38.38-.65.5-.43.19-3.85,1.16-4.16,1.16h-3.3c-.11-.54.16-.33.38-.48,1.22-.85,2.43-1.38,3.62-2.13.34-.22.5-.63.58-.67.23-.14.65,0,.71-.05ZM111.75,16.71c.19-.02.34-.03.52.06.64.29.87,2-.15,2.1l.19-.78c-.29.14-1.18.2-1.32-.19.49.1.36-.54.55-.71.14-.12.5.18.58.11.41-.38-.48-.33-.38-.59ZM109.18,9.07c.38.03,2.77.82,2.39,1.36-.04.06-1.2.51-1.34.5-.78-.07-1.99-1.31-3-1.18.51-.5,1.26-.72,1.95-.67ZM105.9,31.81c.28-1.13.61-2.14.57-3.33.29-.08.12.23.25.32.13.09.36.07.43.14,1.28,1.35.22,2.5-1.25,2.88ZM107.03,14.75c.19.19-.4,1.93-1.13,1.57-.54-.79.64-2.04,1.13-1.57ZM104.96,12.2c.41-.28,1.22.64.94.98-.03.04-.76.12-.94.2.23-.3-.05-1.14,0-1.17ZM104.39,25.93h.38v.59h-.38v-.59ZM103.26,12c.03.32.04.85-.28.98-.84.34-.45-1.07.28-.98ZM101.75,16.71h.56c.11.11-.05,1.69-.28,1.96-.51-.5-.22-1.33-.28-1.96ZM99.54,25.18c.26.02.68.38,1.07.45,1.5.25,2.73-.07,3.44,1.73.08.21.21,1.19.14,1.29-.03.03-.48.06-.75.3-.55.48-1.26,1.76-1.35,1.84-.14.12-.53-.01-.73.13-.19.14-.12.56-.22.65-.1.09-.55.05-.82.22-.42.26-1.16,1.3-1.5.8-.15-.22-.4-1.69-.45-2.08-.07-.57-.2-2.03-.16-2.56.06-.72.68-1.75.32-2.6.42.29.76-.18,1-.16ZM99.67,33.77c-.32-.04-.5-.58-.37-.78.03-.05.99-.54,1.12-.11-.13.3-.62.21-.72.34-.09.12-.02.38-.04.54ZM98.92,12.79v.78s-.75-.69-.75-.69l.75-.1ZM96,18.87c-.15.22-1.08.42-1.19.63-.11.21,0,.61-.14.93-.24.56-2.91,2.21-3.31,1.89l-.94-3.64c.93.12,1.44-.79,2.17-1.18.41-.23,2.89-1.34,3.11-1.17.17.64.68,1.97.3,2.55ZM96.84,23.18c.23.24-.32.77-.75.39-.12-.22.68-.47.75-.39ZM92.31,28.28c.11.7-.63.59-.37,1.37l.75-.49c-.45.73-.82.54-1.51.69-.22-.99-.05-1.8,1.13-1.57ZM91.56,26.41c-.17-.82,3.81-1.02,4.15-.68.35.35-.18.34-.28.41-.4.27-1,.81-1.41.88-.35.06-2.41-.33-2.46-.6ZM96.66,31.81c.12,0,.27-.04.35.02.03.02,0,.25.08.3.19.13.47.04.5.06.04.03-.22.43-.2.67.03.3.39.51.36.76-.04.28-1.27,1.78-1.57,1.7-.87-.22.05-2.98.47-3.52ZM97.97,35.14c-.06.28-.3.45-.57.39v-.39s.57,0,.57,0ZM97.97,11.12c-1.64,1.21-3.01.64-4.82.68-.57.01-1.04.2-1.59.2,1.31-3.03,4.56-4.12,6.41-.88ZM90.45,14.08c.66-.96,3.76-1.42,4.75-.87.49.28.42,1.58.08,1.88-.3.27-1.38.18-1.85.33-.36.12-2.2,1.29-2.63,1.59-.43.3-.27.8-1.14.68-.27-.35.46-3.14.78-3.61ZM90.51,33.17c1.18-.78,2.49-1.41,3.6-2.34.2-.17,1.03-1.56,1.41-1.18.16.16-1.06,2.66-1.19,3.18-.31,1.19-.52,2.32.27,3.36.44.58,1.26.51,1.11,1.3-1.15-.07-4.61,1.43-5.48.88-.19-.12-.91-1.89-.94-2.18-.08-.8.54-2.58,1.22-3.03ZM88.73,26.32v-.39s.57,0,.57,0c-.06.28-.3.45-.57.39ZM87.4,22c.05.07-.03.43,0,.59l.56-.59c-.09.41.28.66.37.9.14.38-.74.26-.36.67.06.06,1.37-.32,1.51.39-.47-.05-1.4.51-1.76.22-.24-.19-.49-1.24-.56-1.35-.08-.13-.4-.15-.51-.34-.02-.04.65-.64.75-.49ZM87.31,36.52c.36-.09.42.46.55.7.1.18.5.21.29.86-.15.17-1.46-.45-1.51-.69-.05-.21.56-.85.66-.88ZM85.71,35.04c-.09-.41.77-.87.94-.68.19.2-.73,1.61-.94.68ZM86.74,29.45c-.39,1.08-.98.55-1.03.6.47,1.24-.2.61-.38.78-.07.07.46.93-.09,1.17-.05.02-.22-.78-.53-.91-.47-.21-1.13.09-1.27-.75-.06-.37.73-.33.75-.29.12.2-.24.74.39.58.01-.5-.15-.74.37-.4-.16-1.07,2.34-2.27,1.8-.79ZM48.72,29.65c.21,0,1.27.14,1.32.2.62.61-1.36.21-1.32-.2ZM49.39,36.03c.04-.22.24-1.06.65-.89.45,1.6-1.09,3.21-.65.89ZM38.71,22.98l-.19,2.75c-.71-.02-1.41,0-2.13.05-.14,0-.45.38-.33-.15.15-.67,2.05-2.18,2.64-2.65ZM38.15,21.81c.06-.37.34-1.17.75-.78.17.17-.4.92-.75.78ZM38.15,27.1l-1.27.93c-.74.21-3.21,1.68-2.59-.14.47-1.38,2.78-1.07,3.86-.79ZM34.99,33.14c-1.25.19-.2-.5-.05-.7.18-.24.36-.81.56-.93.32-.19.8-.05,1.18-.14.17-.04.54-.53.7-.35.49.55-1.99,2.06-2.4,2.12ZM36.25,34.25c.35-.16.93-.82,1.08-.85.25-.04.66.39.62.64-.02.09-.95,1.15-1.05,1.49-.59-.08-.86-.2-1.4.12l-1.5-.6c0-.31,1.92-.65,2.25-.8ZM35.13,37.1c-.6.31-.85,1.04-1.52.12-.8-1.11,1.12-.79,1.52-.12ZM34.75,38.08c.04-.06.37.16.57.09.34-.13.67-.79,1.37-.64.44.1,1.89,1.56,1.82,1.99-.03.17-1.53,1.72-1.75,1.68-.48-.44-2.5-2.49-2.01-3.12ZM39.09,41.22l-.75,1.18c-.04-.46.42-.93.75-1.18ZM41.21,34.56c.15-.09.63-1.02,1.08-.59.21.21-.72,1.23.38.98-.27.98-.39.36-.83.43-.48.09-1.43,2.09-1.91,2.5-1.95-2.33-.21-2.39,1.27-3.33ZM45.18,27.88c-.46-.32-1.57-.44-2.13-.39.02-.85,1.42-2.03,2.02-1.31.18.22.47,1.16.68,1.44.1.13,1.02.65.88.85-1.41.65-1.08-.32-1.46-.59ZM45.88,31.42h-.57c.06-.28.3-.45.57-.39v.39ZM45.32,29.26c-.65.85-2.55,1.16-3.46.74-.29-.14-.28-.47-.35-.52-.04-.02-.96.34-.15-.31.72-.58,3.11-.36,3.95.09ZM40.98,24.46c-.12.27-.55,1.3-.95.88-.26-.27.47-3.06.66-3.53.07-.19.79-1.48,1.04-1.17.11,1.26-.26,2.68-.75,3.83ZM40.22,31.11s.95-.25,1-.24c.32.05.76.44,1.39.47.49.02,2.04-.38,2.24-.13.02.03.12.76.09.79-.09.08-.56-.18-.76-.08l-4.14,2.04c-.07-.05-.2-1.15-.15-1.28.02-.05.98-.47-.04-.39.11-.31.16-1,.38-1.19ZM43.81,35.34c.09.11-1.25,2.24-1.36,2.31-.2.12-.72.05-1,.04-.23,0-.7.15-.66-.19,1.79.33,1.76-1.34,3.02-2.16ZM41.17,37.1c-.04-.88.65-.86,1.32-.98l-1.32.98ZM42.91,34.84c0-.14.11-.25.24-.25s.24.11.24.25-.11.25-.24.25-.24-.11-.24-.25ZM41.73,41.7c.42-.59,1.14-.89,1.34-1.94.51-.21,3.31-2.04,3.55-1.86.04.03.11.42.29.58.44.41,1.11.49.68,1.07-.18.25-2.93,2.17-3.35,2.4-.93.51-2.43.96-3.45,1.42.44-.46.64-1.26.94-1.67ZM46.83,26.42c0-.42,1.3-.46,1.13.29-.27.06-1.13,0-1.13-.29ZM45.89,23.86c.21-.96,3.57-2.82,4.15-2.25-.04.65-.42,1.88-.95,2.24-.44.3-3.1.5-3.2,0ZM49.47,28.18l1.04-1.08.28.78c-.6-.54-.54,1.2-1.32.29ZM50.98,29.73c.17-.12.44.11.54.07.03-.01.04-.32.26-.41.74-.28,1.65-.26,2.32-.92.26.13-.04.58-.16.72-.35.42-.95.63-1.38.91-.13.09-.17.45-.36.5-.55.13-.49-.67-.64.32-.16,1.04-.82.44-1.06-.1-.04-.09.4-1.04.48-1.1ZM51.45,25.73l.09.59h-.38c-.06-.29.08-.41.28-.59ZM51.74,34.16c1.58.41,3.2,2.13,3.21,3.92-.5.03-3.58.22-3.58-.29.99-1.15.75-2.28.37-3.63ZM54.75,33.57c-.68-.18-1.3-.42-1.88-.79-.14-.26,3.21-3.3,1.88.79ZM54.85,26.5l-.65-.87c.47-.57,1.19-.39,1.77-.49.24-.04.07-.57.12-.79.35-.02.21,1.03.15,1.14-.06.1-1.18.82-1.38,1.01ZM58.91,26.12c.08-.06.49.09.72-.04.21-.13.48-1.29,1.36-.94-.14.7,0,1.11-.58,1.66-.4.39-1.92,1.13-2.25.4-.22-.47.64-.16.86-.48.14-.2-.15-.57-.11-.59ZM59.85,29.26c.18-.02.51.25.56.2.36-.35-.38-.4-.38-.49.02-.62.48-.29.63-.36.43-.21.65-.52,1.26-.52-.13,1.47.12,2.86-1.59,1.64-.39-.28-.26.18-.49-.47-.23.03-.51.53-1,.53-.24,0-1.89-.58-1.45-.93.58.17,2.05-.46,2.43.03.08.11,0,.28.03.36ZM57.59,21.71l.66-.68.09,1.17-.75-.49ZM57.59,19.06l-1.32.39c-.68-2.1,1.67-.78,1.32-.39ZM57.21,23.37c-1.73.7-1.02-1.11-.22-.55.04.03.15.42.22.55ZM56.63,31.11c.17-.13,1.53-.15,1.68-.06.12.08.31.75.04.86l-2.08,1.08c.12-.4.12-1.69.36-1.88ZM59.28,33.07c.46-.66,1.82-.51,1.33-1.46.28.11,1.82.7,1.89.79.07.1-.56.54-.38.78.05.06,1.32.21.77,1.09-.14.22-3.45,2.44-3.88,2.65-.23.11-.39.25-.67.18.43-1.01.37-3.21.93-4.03ZM63.35,36.23c.41-.12,1.68.52,1.77.8.17.52-.75,2.32-1.23,2.6-1.1.64-4.01.32-4.98-.67,1.29-.63,3.14-2.36,4.44-2.74ZM64,19.26c.25-.3,1.15-1.64.94-1.96l-.37.2c-.57-1.6,1.03-1.33.75-.98-.1.13-.52-.31-.18.79l.47-.59c.17-.06.43.18.46.3.02.12-.28,2.23-.35,2.33-.16.22-.72.08-1.02.16-.26.07-.36.45-.7.35-.02-.19.03-.4,0-.59-.11.14-.44.57-.47.59-.26.15-.47-.46-.47-.49,0-.24.78-.19.85-.49.18,0,.07.26.09.39ZM69.29,14.94c-1.88-.71-.02-2.44.75-3.33.36,1.41-.91,2.03-.75,3.33ZM69.67,22.5c.09-.25.63-.42.75-.3.38.37-1,.98-.75.3ZM70.42,17.4c.01-.34,3.55-2.06,3.19-.31-.79.43-1.61.43-2.48.46-.14,0-.72.25-.71-.16ZM68.91,19.65c.26-.59.97-.62,1.51-.59-.07,1.27-.61.5-1.51.59ZM68.54,25.04c.27.17.15.27.1.5-.33,1.4-.77,3.81-1.45,4.96-.19.32-1.25,1.72-1.54,1.67-.28-.05-1.32-1.09-1.73-1.36-.24-.16-.64-.16-.67-.19-.37-.39.6-.47.81-.59.11-.06.1-.35.26-.39.48-.11,1.21,0,1.76-.2-.48-.9-.98-.27-1.43-.21-.25.03-.51-.14-.79-.05-.21.06-.33.82-.52.26-.35-1.01-.04-2.3.56-3.15.22-.31,1.5-1.6,1.79-1.68.21-.05,2.68.3,2.84.4ZM67.02,18.28h-.75s0-.59,0-.59c.04-.05.73.17.75.2.03.04-.01.27,0,.39ZM66.55,23.57l.09.78h-.75s.66-.78.66-.78ZM60.72,41.98c.33.04,1.65-.24,1.78-.17-.07.23-.39.44.09.39,1.57-.17,2.74-1.42,4.25-1.56.1.52-.13.34-.37.49-1.52.93-3.95,1.8-5.72,1.43-.25-.05-1.36-.64-1.46-.84-.28-.6,1.18.24,1.43.27ZM66.65,39.06c.11-1.51.59-.84,1.7-.78-.05.43-1.57.91-1.7.78ZM67.3,36.51c-.15-.23.11-.9.08-1.24-.05-.64-.63-1.39.05-2.03.04-.04.27.13.43-.04.12-.13.85-1.34,1.05-1.18.06,1.07,1.31,2.48,1.28,3.47,0,.27-.48,1.3-.51,1.74-.23.18-2.19-.43-2.38-.71ZM70.4,27.81c.27-.42,2.77-.02,1.44-1.1-.45,1.08-.48.05-1.42.19.25-1.47-.13-1.87,1.52-1.48,1.97.46,1.52,2.18.84,3.55-.13.27-.51.77-.65,1.03-.38.68-.78,1.67-1.15,2.39-.36.29-1.36-3.39-.58-4.59ZM73.06,34.16l-.19.59c2.25-.43,0,.74-.94.59-.18-1.2.17-.96,1.13-1.17ZM72.68,21.7l1.05-1.07c.22,0,.75,1.14.96,1.36.2.22.79.67,1.09.94.2.17.64-.17.5.45l-.75-.19c.39.57-.35.78-.38,1.57.94.27,1.08-1.42,1.55-1.73.1-.07.39.13.66.02.51-.21,1.23-.53,1.7-.79.52-.29.73-.94,1.37-.82-.36,1.04.69,2.25.17,3.03-.2.29-.53.29-.55.31-.04.05.37.4.37.85,0,.15-.19,1.4-.22,1.46-.07.13-.59.16-.7.57-.1.36.2.81.17.84-.04.04-.64.14-1.02.43-.24.19-.84,1.07-.9,1.11-.09.04-.37-.19-.59-.13-.31.07-.84,1.13-1.23.23-.27-.64-.46-3.58.15-3.86.15-.07.37.09.38.07.55-1.01-.94.03-.94-.88,0-.26,1.08.24.75-.69-1.43,1.18-1.76-.44-2.37-1.36-.4-.61-.89-1.06-1.23-1.68ZM77.13,19.45c.27.45-.87,1.39-.2,1.57.59.16.65-.17.93-.5.26-.3.48-.11.1-.87l1.13.2c-.1,1-2.3,1.93-3.02,1.48-.36-.22-.7-1.81-.35-2.24.26-.17,1.24.08,1.41.36ZM76.09,9.66c.77.02,1.39-.87,2.16-.8,1.74.18-.55,3.43-.94,3.33-.23-.45-1.52-2.17-1.22-2.54ZM75.71,14.16c-.44-.19-1.17.43-1.4.38-1.08-.25-.67-4.24.26-3.52.13.1,1.27,3,1.14,3.14ZM81.64,11.21c.42-.25,1.14-.38.89.33-.25.73-.57,1.34-.77,2.14-.16.64-.46,3.3-.58,3.42-.2.2-.72.05-.85-.38-.42-1.37,0-4.72,1.32-5.51ZM82.29,7.71c.08.12.28.9-.07.96-.34.1-.35-.38-.46-.45-.28-.19-.56-.12-.58-.13-.55-.45,1.07-.42,1.11-.37ZM83.06,28.47c.05.06.9-.05.75.59-.7.05-1.32-.8-1.13-1.57.21.16.9-.03.94,0,.02.02.19.46.19.49.01.44-1.27-.11-.75.49ZM83.19,26.55c-.43.27-.71.93-.88.06-.21-1.06.31-.8.48-1.07.13-.21-.11-.48-.07-.56.15-.29.98-.37,1.29-.23-.15-.21-.13-.63-.24-.75-.12-.13-.79.14-.52-.53.15-.37,1.45-.42,1.67-.26.07.05.06.38.22.46-.39.16-.44.19-.38.68.75-.2,1.02.52,1.13,1.18-.76-.36-1.98.55-2.7,1.02ZM84.57,16.51c.21.24-.88,1.26-1.13,1.37.05-.65.61-1.11,1.13-1.37ZM83.94,12.62c.12-.33.27-.7.63-.82l-.57,1.76c-.38.02-.12-.77-.06-.95ZM85.8,7.89c-.1.17-2.88,1.99-3.3,1.37l.84-.98c1.04-.34,1.3-1.49,2.56-1.17,0,.27.05.54-.09.79ZM75.89,32.4v-.39s.95,0,.95,0v.39s-.95,0-.95,0ZM75.94,33.53c-.12.26.13.55-.42.43.05-.12.34-1.85.75-1.37.09.11-.24.75-.33.94ZM77.03,32.59l-.56.59c-.06-.37.22-.65.56-.59ZM75.69,35.63c.61-.31,1-1.46,1.24-.49.38-.22.06-.64.28-.88.06-.07,1.25-1.14,1.33-1.19.18-.09.47.08.57,0,.12-.09.37-.8.56-1.08-.72.1-.32.68-.94.59v-.98s.75.19.75.19c.09-.35-.31-.86-.15-1.14.15-.27,1.73-1.54,2.04-1.22.23,1.33-.89,1.44-1.45,2.02-.14.15-.15.39-.24.53.74-.11.53.44.66.39.14-.05.43-1.17.7-1.33,1.04-.63,2.1,1.89,2.79,2.41-1.39,1.57-3.75,2.32-5.7,2.9-1.16.34-2.59.92-3.73.53.4-.56,1.36-.59,1.3-1.28ZM81.27,36.89c.28-.1.57.01.72-.05.53-.2,1.15-.95,2.01-.92.15,1.06.33,1.23-.37,2.06-1.02,1.22-3.66,2.46-5.19,2.46-1,0-3.37-.64-3.68-1.78,2.36-.02,4.37-.98,6.51-1.78ZM74.43,4.75c2.69-2.58,6.16-5.31,9.75-2.64.52.39,2.13,2.37,1.69,3.01-.07.1-1.86.8-2.1.87-.62.18-4.77,1.12-5.15,1.12-.48,0-1.28-.45-1.94-.53-1.06-.13-2.27.4-3.24-.55.29-.23.27-.85.41-1.03.12-.15.44-.12.57-.24ZM73.06,4.93s-.21-1.26.38-.76c.47.4-.21,1.97-1.13,1.17-.04-.36.67-.29.75-.41ZM72.12,12.79c-.06.8.26,1.54.54,2.26-.31.11-1.96,1.15-2.05,1.07-.38-.33.2-.91.29-1.17.1-.29.02-.62.09-.84.03-.08.94-1.15,1.13-1.33ZM71.55,11.22c-.16,1.53-1.04,2.88-1.51,4.31-.86.11,0-1.27,0-1.47,0-.18-.45-.02-.38-.2.1-.26.56-.22.77-.43.44-.45.45-1.82,1.12-2.22ZM70.98,7.69c.25,1.99-1.54,1.86-2.37,2.73-.36.38-1.11,1.65-1.22,2.17-.2.19-1.31-.72-1.31-.88,0-.26,2.72-3.15,3.14-3.21.26-.04.48.42.72.37.27-.06.38-1.35,1.04-1.18ZM62.14,7.42c1.15-.91,3.14-1.8,4.59-1.86.39-.02,2.66.45,2.75.56.02.02.02.56,0,.58-.06.08-1.4.48-1.83.75-.38.23-.97.7-1.29,1.01-.42.42-1.72,2.48-1.9,2.52-.3.08-1.53-.52-2.06-.56-.46-.04-1.85.26-1.96.18-.8-.59,1.16-2.77,1.7-3.2ZM60.04,8.87c.23.43-.73,1.41-.94,1.18-.36-.41.72-1,.94-1.18ZM57.21,15.14c.07-.73,1.22-3.37,1.74-3.6,1.23-.53,3.67,0,4.83.68-.26,1.08.82,2.67.6,3.55-.02.07-.73.69-.94,1.03-.7,1.11-1.67,2.57-1.53,3.92.04.37.38.73.31.87-.12.26-1.58,1.2-1.81.98.45-1.35.9-1.81.15-3.2-.88-1.63-2.73-2.34-4.19-3.26-.44-.79.85.12.26-1.19l.56.2ZM54.86,14.76c.18-.32,1.41-2.08,1.78-1.77-.4.35-.37,1.6-.43,1.73-.02.04-.28.04-.39.28-.18.39,0,1.12-.59,1.13-.94.02-.76-.71-.38-1.36ZM55.13,19.06c.14.58.3,1.27.19,1.87-.08.44-.37.38-.5.56-.29.4-.63.94-.93,1.29-.27.31-.21.16-.46-.09l1.69-3.63ZM52.97,26.51c.23-.05.52.39.56.39.21,0,.16-.8.66-.58-.28.96-1.07,1.74-2.08,1.57.23-.23.67-1.33.85-1.37ZM49,16.71c.62,0,2.41-.13,2.83,0,.65.21-.24,2.56-.31,3.11-1.73-.04-3.11-.32-4.79.31-.3.11-.65.78-1.03.4.38-.53,3.05-3.82,3.3-3.82ZM47.77,17.1c-.08.33-.55.31-.86.59-.5.45-2.51,3-2.77,3.59-.24.53-.23,1.17-.44,1.71-.12.32.02.48-.46.39.1-.82.59-1.79.55-2.63-.04-.84-.76-1.1-.74-1.88,1.67-.31,2.97-1.92,4.72-1.77ZM39.42,17.3c2.13-1.76,5.03-3.11,7.78-2.55.07.54-.06.3-.28.39-1.35.56-3.16,1.15-4.38,1.92-1.32.83-1.69,2.05-3.55,1.82-1.29-.16-.1-1.13.44-1.58ZM37.48,20.04c.54-.23,1.9-.71,2.18,0-.25,0-.52-.02-.75.1-1.67.91-2.69,2.93-4.17,3.9l-1.12,1.29c-.06-.34.04-.61.15-.92.36-1.07,2.75-3.96,3.71-4.38ZM33.81,23.38s-.28.89-.57.59c-.18-.19.33-.78.57-.59ZM33.34,29.85l.09.59h-.38c-.06-.29.08-.41.28-.59ZM33.34,39.85c.3-.09.46.1.66.29.12.11,1.65,2.24,1.68,2.39.18,1.04-1.68.98-2.33-.14-.27-.48-.57-2.36,0-2.53ZM35.5,45.73c-.15.31-.76.61-1.06.76-1.82.92-3.93,1.28-5.92.81-.17-.19.89-2.27,1.23-2.35.34-.08.59.72.96.96,1.37.86,3.38.27,4.79-.17ZM32.87,44.85c-1.02.68-2.08-.81-1.23-1.67.13.42,1.88,1.24,1.23,1.67ZM31.92,38.28s.73.16.75.2c.33.49-.77.82-.75-.2ZM31.45,22.79c.17.01.11.53.08.57-.04.05-.92.32-1.12.41l1.04-.98ZM29.74,25.92c.87-.99.77-.73,1.53-1.94.17-.27,1.12-.84,1.4-1.19-.03.6-.6,1.48-.71,1.91-.12.48.08,1.33-.13,1.63-.08.12-1.56.54-1.93.74-.29.15-1.43,1.15-1.57,1.01-.12-.12,1.21-1.94,1.41-2.16ZM30.31,28.47c.52-.38,1.15-.62,1.79-.58l-.39.67-3.76,2.85c-.27-.29,2.03-2.71,2.36-2.94ZM27.62,38.22c.32-1.01,2.23-1.66,3.17-1.71-.56,1.26-.65,2.77-1.11,4.04-.05.14.02.42-.3.27-.44-.21-.9-.93-1.22-1.29-.36-.41-.88-.21-.54-1.32ZM22.88,42.89c.17-.28-.25-1.07.63.02.06.08.3.07.31.21.02.27-.21.54-.21.75,0,.13.4.02.4.39,0,.22-.34,1.8-.42,1.85-.39.26-2.78-.07-3.37.81-.1-2,1.7-2.5,2.66-4.02ZM21.92,48.87c-.29.71-1.11.86-1.13,0h1.13ZM19.35,54.3c.3-1.42.63-.65,1.66-.95.9-.26,1.42-.99,2.22-1.33.29,1.21-2.41,3.62-3.29,3.53-.63-.06-.7-.72-.59-1.25ZM18.9,53.18l-.16,1.15c-.03-.5-.5-1.29.16-1.15ZM12.67,50.63c0-.48-.05-.94.05-1.42.27-1.28,2.69-5.34,3.78-5.98.19-.11.45,0,.65-.11.27-.16.33-.79,1.19-.33-.35.35-.38,1.01-.62,1.32-.22.29-1.06.32-1.07.54-.01.24.89,1.37,0,1.28v.19c.73-.16.47.3.68.57.12.16.37.2.41.26.69,1.17-2.37,1.62-2.93,1.87-.64.29-1.57,1.32-2.12,1.81ZM17.39,53.18c-.21,1.15.31,1.91.57,2.94-1.85.06-2.17-2.33-.57-2.94ZM15.4,51.8l-1.5,2.55c-.42-.29-.16-.37-.1-.68.38-1.74,1.99-3.53,3.77-3.64.5.46-2.09,1.45-2.18,1.76ZM13.24,62.4c-.06-.29.08-.41.28-.59l.09.59h-.38ZM15.12,56.22c.96,1.07,2.81,1.44,4.15,1.28.08.44-.02.31-.24.44-2.84,1.6-5-.5-5.42-3.38.96-.12.96,1.05,1.51,1.66ZM18.2,64.33c-3.28,1.64-4.8-2.73-4.4-5.46,1.43.67,2.83,1.21,4.45.99.75-.1.51-.45.68-.58.11-.08.41.16.6.13.09-.02,1.22-.79,1.54-.94.26-.13.16-.3.47.11-.7,2.48-.86,4.51-3.34,5.75ZM17.13,88.54c-.18,5.62-1.63,11.11-2.02,16.7-.12,1.71.36,3.77-.24,5.44-.23.66-2.11,2.57-2.66,3.31-.75,1.01-3.56,5.42-4.27,5.77-.45.22-.64.1-1.05-.08-2.3-1.05-2.33-5.65-2.81-7.86-1.38-6.35-2.66-10.14-1.56-16.9.46-2.8.97-5.66,1.48-8.47.54-2.99,1.76-5.57,2.67-8.4.9-2.79,1.68-7.21,3.34-9.47.24-.33.68-.75,1.08-.84.97-.23,2.78.74,3.44,1.44.91.97,1.63,2.08,2.47,3.12.23.28.84.46.9.81-.32,2.01-.8,4.22-.91,6.25-.17,3.04.22,6.17.13,9.19ZM22.3,121.23c-.11-.44.59-2.74.85-2.74.86-.02-.25,2.59-.85,2.74ZM23.8,132.41c-.31.39-.65-1.02-.68-1.17-.14-.77.71-.77.85-.27.03.12-.13,1.38-.17,1.44ZM26.64,135.15c.2-.82-.6-2.5.56-2.74-.02.53-.21,1.02-.27,1.54-.05.42.41,1.36-.3,1.21ZM27.39,138.88l.09-.78c.41.3.37.6-.09.78ZM28.9,137.9c.05-.6-.07-1.29,0-1.87.04-.29.14-.61.38-.29-.1.66.31,1.77-.37,2.16ZM29.69,144.08l-.27-.96.42-.13.27.96-.42.13ZM29.94,140.45l.09,2.16c-.53.09-.32-.11-.41-.46-.15-.64-.18-1.18.31-1.7ZM31.21,146.77c-.33-1.37.08-3-.03-4.28-.04-.46-.56-1.86-.2-2.24.05-.06,1.21,0,1.51-.2-.15.97.16,1.93.2,2.83.08,1.7-.33,3.85.32,5.24.03.06-.17.85.05,1.14-.39.44-1.79-2.27-1.84-2.5ZM32.11,135.93c.23,0,.6.75.56.78-.27.22-.73-.4-.56-.78ZM33.71,125.93c-.72-.16.47-2.76.85-2.35-.2.38-.27,2.48-.85,2.35ZM38.9,157.41c-.04.36.06.32-.38.29l-.09-3.36c.25-1.31.76-2.77.46-4.09h.56c-.12,1.46-.44,2.96-.56,4.41-.07.88.1,1.9,0,2.75ZM39.01,145.95c-.91,1.35-1.93,3.66-2.17,5.2-.19,1.24-.05,2.57-.3,3.81-.4-.24-.33-.84-.53-1.12-.14-.21-.53-.21-.74-.7-1.24-2.81-.82-11.15.04-14.17.27-.93,1.63-3.2,1.66-3.56.05-.56-1.19-1.34-.04-1.62.3-.07,2.04-.31,2.16-.21-1.19,3.38-2.4,6.77-2.97,10.34-.29,1.81-.84,5.74-.63,7.42.03.25.73.67.39,1.46.27.05.24-.37.28-.58.1-.5.22-1.21.27-1.7.06-.62-.52-2.36.76-1.84.72-4.71,1.83-9.25,3.41-13.72.4-.03.57.34.94.5.3.13.88.02,1.06.27.08.11-.07,2.37-.12,2.65-.13.77-1.55,4.94-1.92,5.65-.36.68-1.13,1.31-1.55,1.92ZM41.17,163.87c-.03-.17.24-.44.19-.68,1.26.66-.07,1.36-.19.68ZM42.4,162.8c-.32-.32-1.68-1.67-1.61-2.05.56-.44,1.33-.93,1.79-1.48.1-.12.36-1.18.66-.78.12.15-.5,3.25-.57,3.82-.04.28.18.58-.27.49ZM40.89,159.66c-.33-.08-.56-1.22-.58-1.56-.09-1.28.19-1.91.39-2.95.69-3.5.68-10.02,3.48-12.26.19-.15.24-.38.57-.29l-1.4,13.34c.04.71-1.92,3.84-2.46,3.72ZM43.8,135.24c.16-.28.72-.56.85-.88.2-.47.15-1.27.31-1.84.5-1.72.99-3.62,2.05-5.02-1,3.95-2.24,7.93-2.46,12.05-.04.73.37,1.91-.18,2.26.39-.89-1.14-2.52-1.13-2.84,0-.22.26-.4.28-.59.09-.91-.16-2.35.28-3.15ZM48.94,148.04c.13-.47,1.18-1.3,1.26-1.85.09-.69-.7-1.03-.73-1.17-.25-1.16.66-4.27,1.15-5.43.12-.28,1.1-2.19,1.2-2.28.51-.47,1.09.2,1.65-.38.35-.36.42-1.99.89-1.58.05.05.73,1.16.73,1.24-.03.35-.86,1.52-1.08,2.03-2.05,4.73-3.65,10.48-4.18,15.64-.1,1-1.15-1.18-1.27-1.27-.48-.32-.52.24-.99.2.03-.61-.06-1.24,0-1.85.04-.42.31-.6.37-.8.04-.14-.48.08-.35-.54.18-.82.35-.64.78-.5.8.26.39-.9.55-1.47ZM50.41,129.95c0-.65,2.43-7.22,2.86-7.81.16-.22.2-.4.53-.33.01.43.23.78.16,1.22-.14.95-1.16,3.25-1.53,4.31-.51,1.46-.58,2.95-1.83,4.07.1-.5-.19-1.02-.19-1.47ZM53.05,157.11l-.35-1.69-.02-1.25c.96.72.45,1.97.37,2.94ZM51.08,151.02c-.26-.31-.99-.23.18-.97,1.03.67-.42,2.42-.66,2.16-.46-.51.87-.72.47-1.19ZM51.74,163.78c.46,0,.33.85.18.98-.49.43-.37-.62-.18-.98ZM46.55,138.48c-.39.02-.13-.55-.11-.69.12-.69.51-2.84.77-3.29.15-.26.34-.11.57-.13-.07.53-1,4.1-1.23,4.11ZM45.7,138.88c-.06.28-.3.45-.57.39v-.39s.57,0,.57,0ZM44.26,163.57c-.82.9-.97-.23-.83-.37.02-.03.41.04.66-.2.68-.65.36-1.99.52-2.8.23-1.16.68-3.37,1.02-4.47.66-2.14.95-.62,1.49-.63.18,0,.32-.46.66-.33.12.13-.57,2.66-.72,3.08-.31.89-2.3,5.19-2.79,5.73ZM50.51,170.84c-2.04-1.74-4.31-3.25-5.76-5.6-.05-.27.88-1.48,1.11-1.97.32-.68,1.28-4.17,1.63-4.19.27-.02.28.67.29.87.11,1.46-.2,7.68.65,8.54.32.33,1.08.12,1.38.43.27.28.33,1.54.99,1.82l-.28.09ZM51.14,157.16c-.05.3-.81,1.67-1.1,1.32.06-.7-.11-1.54.04-2.21.09-.41,1.64-2.13.06-1.51-.41-.53.38-.3.66-.69.12-.53-.47-.19-.57-.29-.05-.05.27-1.37.47-1.37.14,0,.27.66.85,0,.12.52-.57,1.34-.57,1.67,0,.12.38.08.4.22.07.44-.46,1.38-.49,1.83-.02.31.36.47.26,1.04ZM55.91,172.92c-.05.34.08,1.64-.31,1.64-.27,0-3.94-2.85-4.44-3.33.59,0,1.88,1.14,2.37.4.57-.85-.41-.77-.49-.92-.06-.1-.39-2.02-.37-2.12.1-.56.65.03.89.06.48.06,1.64-.04,1.96-.44.61-.77-1.21-4.44,1.3-4.23.05.7-.16,1.6.19,2.22.07.12.36.11.38.27.05.33-1.33,5.34-1.49,6.46ZM53.81,156.13v-.59h.38v.59h-.38ZM56.08,154.56c.31,1.04-.35,1.73-.52,2.5-.24,1.13-.3,2.37-.61,3.49-.07.27-.02.61-.38.68,0-2.04.48-4.28,1.11-6.21.1-.3-.17-.56.4-.46ZM57.4,150.45l.28-1.18c.56.19-.17,1.33-.28,1.18ZM54.05,153.74c-.1.24-.1.58-.43.63l.39-5.57c.64-2.18.56-4.35,1.69-6.39.49.13.2,1.2.68,1.36.31.1.71-.2,1.07-.15.27.04.51.31.98.36.2.02,1.36-.25,1.42-.2.34.34-.15.34-.27.41-3.21,1.95-4.18,6.28-5.53,9.54ZM57.59,128.48c-.46,1.77-.58,3.92-1.08,5.65-.1.34.07.51-.43.42.06-1.99-.97-5.3,1.51-6.08ZM60.03,138.99c.11-.17.31-.18.39-.11.06.05.71,1.25.73,1.32.13.64-1.32,2.29-2.04,2.4-.14-.16.72-3.28.93-3.61ZM59.66,175.35h-.38v-.59h.38v.59ZM62.21,149.47c.37.92-.11,1.94-.1,2.83,0,.43.49,2.75.39,2.85-.03.03-.5-.09-.85.2-.86.73-.95,2.42-1.79,3.14.63-3.04,1.19-6.15,2.36-9.02ZM60.6,170.45h-.18v-.98h.18v.98ZM60.04,167.11c-.14-1.2.51-2.37.71-3.48.18-1.03.17-3.44.67-4.31.06-.11.36-.18.48-.37.17-.28.93-1.61,1.08-1.64.81.5,1.13,1.06,2.16.59l-.77,1.56c-.71.25-.47-.49-1.02-.58-.75.16-2.32,5.88-2.65,6.85-.13.38-.34,1.16-.65,1.38ZM64,138.49c-.2-.3,1.5-4.23,1.81-4.88,1.02-2.08,2.48-4.44,4.03-6.1-1.22,2.69-2.54,5.34-3.3,8.24-.21.8-.56,2.09-.64,2.86-.14,1.36.29,2.79-.42,3.99-.79-.1-1.44-1.1-2.15-.19-1.11-1.51,1.02-2.63,1.04-4.12l-.37.2ZM67.21,136.33v-.59s.37,0,.37,0c.06.27-.1.52-.37.59ZM66.27,157.11v-.39h.56v.39h-.56ZM66.83,162.22v.28c-1.91,2.06-1.75,4.84-2.13,7.41-.2,1.34-.76.61-.88-.15-.43-2.79.88-5.87,1.5-8.52l1.51.98ZM65.54,154.1c-.03.17-.15,2.98-.78,2.23-.12-.14-.4-3.37-.39-3.82,0-1.41.64-6.94,1.13-8.06.47-1.05.57-.16.98.2.13.11.45.07.51.14.11.13.03.61,0,.83-.27,2.62-1.04,5.79-1.46,8.48ZM62.87,138.88c-.07-.56.2-1.03.56-.49l-.56.49ZM69.09,180.54c-.33,1.03-1.41-.27-2.26-.09-.13-.14.68-2.11.86-2.15,1.3.64,1.93.57,1.4,2.24ZM69.1,177.51c-.22-1.51.54-3.04,1.7-3.92-.05,1.01-.63,2.55-1.12,3.44-.15.27-.16.57-.57.48ZM70.99,178.29v.59h-.38v-.59h.38ZM71.83,179.06c-.23.77-.89,2.16-1.79,2.17,0-.85,1.03-.82.57-1.57.66.42.23-.08.41-.45.14-.28.51-.34.62-.72.29.13.27.3.18.58ZM71.74,178.09v-1.18s.56,0,.56,0c-.18.33.04,1.32-.56,1.17ZM72.5,181.43l.56.59c-.61.07-.63.05-.56-.59ZM73.96,178.55c.08-.12.14-.6.42-.26.03.04,0,.63.14.93.34.71,1.04.69.24,1.72-1.2,1.52-1.86-.85-.8-2.39ZM75.7,183l-1.7-.49c.36-.79,2.09.12,1.7.49ZM75.93,161.87s-.55,1.02-.56,1.08c-.16.76.85,1.59-.79,1.62l.76.39c-.4.61-.98.11-.75,1.17l.57-.59c.91.42-.43,1.97-.53,2.5-.07.32.19.98.16,1.52-.04.67-.7,2.86-.56,3.32.16.52,1.42.05,1.02,1.09-.39,1.03-1.54,2.1-1.83,3.29-.32.19-.47.34-.7-.04l.94-6.97.37.2c.5-1.12,0-.95-.24-1.42-.44-.85.18-.3.34-.52.06-.08.68-1.78.66-1.88-.05-.34-.53-.26-.75-.1-.09-.12.47-1.02-.09-.78-.93.4-.95,1.14-1.23,1.29-.26.14-.68-.19-.75-.12-.05.06-.15,1.31-.19,1.57l.56-.78c.2.27.07,1.89,0,1.96-.08.09-.53-.24-.86-.02-.7.47-1.08,2.13-1.59,2.63-.2.2-.53.17-.68.33-1.63,1.77-2.92,4.69-4.07,6.85-.32.24-4.33-1.74-4.32-2.05,0-.07.37-.31.45-.5.65-1.6.6-4.51.68-6.26.79.6,1.24,1.04,2.26.59-.15.87-1.43,5.15-1.11,5.66.04.06,1.06.39,1.23.41,1.84.18.89-1.78,1.3-2.74.23-.53,1.42-.13,1.71-.57.22-.34.17-2.78.28-3.43.06-.35.41-.59.38-.98-.05-.63-1-.75-1.07-1.18-.13-.82.68-3.56,1.34-4.23l-.66,3.53c.28.09,1.63.14,1.7.2.41.34-.73.4-.38.78.05.05.53-.3.75-.19-.21.8-1.28.13-1.32.19-.32.45.37.63.37.67-.03.51-1.38,1.59,0,1.09l-.19,2.35c1.63-.7.66-1.65.75-2.63.01-.14.39-.18.54-.44.05-.1.54-1.97.57-2.18.07-.44-.17-.75-.15-1.12.02-.48.52-.92.57-1.4.04-.37-.39-.25-.39-.39-.02-.36.37-1.41.48-1.85,1.13-4.32,2.96-9.68,5.04-13.78.34-.67,1.4-1.9,1.57-2.5.24-.82-.56-1.66-.22-2.17.25-.37,1.4.05,1.85-.03,1.17-.2,1.5-1.97,2.03-2.9-1.14.3-1.48,2.08-2.83,1.76-.02-.22,0-.43.04-.64.15-.69,2.22-3.49,2.78-3.08.03.02.1.52.3.77.23.29.93.54.99.64.36.64-1.52,4.36-1.79,5.41-1.14,4.35-2.04,8.79-3.44,13.09-.12.36-.85,2.44-.95,2.52-.08.06-.3-.07-.34-.04ZM77.08,137.07c-.21.66-.5,2.01-.6,2.71-.13.9.24,2.56-.48,3.22-.08.07-1.4.95-1.48.94-.74-.06-1.18-1.3-1.06-2.02.21-1.27,2.28-4.33,3.08-5.53.51-.77,1.07-1.79,1.72-2.43.08-.08.23-.27.28-.19-.21,1.2-1.07,2.07-1.45,3.29ZM82.12,132.01c-.29,1.92-1.11,3.73-1.22,5.69l-2.37,1.36c-.28-.31,2.58-6.63,3.58-7.06ZM74.95,145.15c-.43,1.32-1.23,2.53-1.69,3.83-.18.5.76-.11.37.39-.22.28-.56.31-.8.74-.33.57-.46,1.65-.71,2.3-.47-.1-.04-.99-.65-.98-.72.01-1.57,1.74-1.4,2.4.06.22.83.96.72,1.12-.02.03-.34.03-.54.32-.59.85-.65,2.26-1.53,2.82-.26-.83.91-2.61.9-3.01,0-.32-.33-.74-.34-1.22-.03-.94.35-1.99.19-3.12-.1-.69-.93-1.5-.91-1.74.02-.26.4-.57.49-.88.21-.73.99-3.68,1.69-3.93,1.41-.5,2.6,1.49,4.21.95ZM81.55,161.82c-.49.24-.44-.56-.66-.58-.11-.01-.19,1.05-.85.78.62-2.58.26-4.65,2.16-6.68.42-.45.94-.28,1.15-1.16.39-.08.32.16.24.45-.13.49-.55,1.65-.91,1.9-.03.41.01.74-.08,1.19-.26,1.25-1.33,2.83-1.05,4.11ZM78.81,165.73l1.23-.58c.17.55-1.6,2.64-1.89,2.35.5-.58.71-.98.65-1.77ZM80.61,149.46c-.06-.29.08-.41.28-.59l.09.59h-.38ZM77.97,167.31c.16.2-.75,1.58-.89,1.92-.19.47-.02,1.35-.62,1.61l.57-3.33c.07-.08.35.17.48.18.06,0,.15-.76.46-.37ZM77.59,166.72l.09-.78c.41.3.37.6-.09.78ZM77.58,183.57c-.22.19-1.32-.08-1.46-.51-.33-.98.3-1.05.34-1.19.12-.47-.03-.9.24-1.48.19-.41,1.55-1.63,1.84-1.32-.11.59-.79,4.34-.96,4.49ZM78.01,177.45c-.92,1.46-.31-.52-.23-1.12-.34.04-.11.43-.49.76-.19.17-.78.44-.64-.07.6-.93.64-2.01,1.06-3.02.66-1.58,1.95-3.77,2.83-5.29.43-.74,2.18-2.99,2.3-3.5.28-1.26-.77-2-1.85-1.63-.24-.48.37-.35.39-.49.05-.44-.44-.81-.39-.88.91.09.69-.72.76-.78.07-.07,1.33.21,1.95-.18.34-.21.27-1.08.69-1.19-.21,1.34-.33,2.85-.62,4.16-.15.69-1.59,4.84-1.42,5.03.03.04.63.02.34.42-.02.03-.36.01-.61.44-.46.78-1.75,4.77-2.03,5.05-.5.5-.41-1.26-.39-1.48.04-.36.54-1.31.3-1.66-.6-.85-1.12,1.69-.48,1.96-.15.02-.45-.06-.54.02-.13.12-.46,2.69-.93,3.45ZM85.31,154.84c0-.1-.38-.08-.36-.18.11-.59.61-.38.77-.61.13-.18.31-.97.36-1.25-.43.03-.31.71-.38.78-.07.08-.47.1-.37-.28.13-.48.74-.83.83-1.09.07-.19-.14-.52-.08-.58.06-.05.4,0,.56-.11.27-.2.32-1.09.38-1.47l-.37.11.37-1.09.37.39,2.47-5.28c.12-.09,1.88.48,2.44.09.37-.26.62-2.27.84-2.67.12-.22.72.09,1.04-.27.35-.39.4-1.89,1.23-2.26l-.66,1.96.56-.59c.22,1.46-.49.9-1.32,1.47,1.24.6.65,1.49.09,2.45.02-.13,0-3.02-.66-2.35-.27.27-.52,4.84-.39,5.38.07.3.63-.16.58.4-.03.37-1.5,2.93-1.79,3.63-.34.82-.63,1.87-.85,2.74-.44.12-.7-.34-1.05-.4-.55-.08-.9.34-1.12.33-.18-.01-.47-.42-.8-.49-1.74-.38-2.71,3.48-3.16,4.68-.5-.79-.59-2.53.09-3.14l.19.78c-.14-.38.17-.86.17-1.09ZM84.77,150.25v-.59s.37,0,.37,0c.06.27-.1.52-.37.59ZM93.5,139.82c.04-.09.28-1.6.69-1.13.12.14-.43,2.34-1.13,1.76-.32-.27.36-.44.44-.63ZM95.59,157.49c.2-.48.23-1.08.5-1.55l.56.39c-1.26-.22-.3,1.42-.39,1.55-.03.04-.41.08-.57.29-.18.24-.15.68-.18.7-.37.42-.31-.5-.56-.39-.05.61-.4,1.23-.68,1.76-.13.26.06.5-.46.4.26-1.32.53-2.78.89-4.07.21-.75.42-1.94,1-2.4.23,1.42-.56,2.55-.75,3.92.41.12.51-.31.63-.61ZM98.16,151.04c.91.27.86.61,1.48-.33.96-1.46.52-2.21.94-3.54.3-.94.9-.79,1.43-1.26.91-.81.22-1.74.47-2.04.38-.45,1.71-.43,2.28-.28l-3.78,12.43c-.36.7-3.02-.44-3.16-.8-.56-1.54.7-2.81.34-4.18ZM104.06,136.59c.15-.17,1.26-.83,1.08-.17-.07.26-.93,1.62-1.12,1.48-.25-.72-.71-.56-.77-1.47-.13-2.19,1.18-5.89,2.57-7.53.19-.22.29-.48.64-.41l-2.83,8.53c.5.43.31-.28.43-.42ZM100.62,132.8c.66-1.42,1.13-3.25,1.92-4.57.45-.75.92-1.31,1.85-1.31l-3.77,5.88ZM101.37,133.58l-.56.59c-.06-.36.21-.65.56-.59ZM101,136.52c.49-.51.38,1.2.42,1.42.12.58.69,1.91.69,2.21,0,.41-1.17,1.85-1.45,2.4-.33.67-.25,1.65-.99,1.42.09-1.02-.13-2.25,0-3.24.16-1.25,1.17-2.87,1.32-4.22ZM103.34,164.55c-.21.67-.53,1.75-.91.36-.19-.73.83-2.09,1.2-1.72.1.1-.22,1.13-.29,1.36ZM97.69,156.51c.19,0,2.45.31,2.54.41.04.04.04.78-.04.93-.05.09-.38.14-.5.35-.85,1.59-1.69,3.41-2.47,4.93-.81,1.57-1.45,3.56-2.65,4.76.09-.92.41-2.03.69-2.9.36-1.1,1.24-2.6,1.37-3.68.09-.79-.22-1.33-.19-1.94.02-.46.36-.8.35-1.14-.02-.51-.51-.82-.52-1.31.52.03.91-.38,1.42-.41ZM96.76,143.39c.13-.29-.03-.49.46-.39,0,2.16-1.77,3.29-.46.39ZM93.26,153.78c.13-.28-.23-.95-.19-.98.37-.29.96.77.19.98ZM93.44,163.19l-.38,1.96c-.36-.04-.19-1.01-.15-1.23.06-.27.23-.65.52-.73ZM94.2,174.37c.11.61-.09.58-.56.78-.07-.47.09-.83.56-.78ZM94.77,138.48c.11-.45.59-.41.94-.39-.11.45-.59.41-.94.39ZM90.5,166.22c-.12.32,0,1.69-.07,2.17-.17,1.22-.52,1.76-1.51,2.45-.14-.37.1-.59.15-.77.41-1.41.74-3.41,1.23-4.95.06-.19.26-.75.5-.75-.15.33.24,1.45.17,1.54-.08.1-.37.05-.47.31ZM89.48,182.21c-.08-.85-.16-2.23.95-1.48.59.4-.58,1.86-.95,1.48ZM88.77,161.76c-.56,1.61-2.15,3.46-2.78,5.15-.4-.27-.25-.45-.23-.82.18-3.68,2.02-7.29,4.39-9.96-.05.81-.23,2.71-.51,3.4-.11.27-.41.27-.47.38-.19.33-.21,1.32-.4,1.85ZM90.9,164.17c-.2-.18-.34-.3-.28-.59h.38s-.09.59-.09.59ZM85.12,169.09c.49.59-1.81,4.82-2.33,5.49-.08.1-.18.7-.49.37-.11-.12,1.18-2.5,1.28-3.08.12-.77-.44-2.69.55-2.97.12-.03.96.15.99.19ZM84.2,176.43c-.14-.41.49-.36.56-.29.2.19-.35.9-.56.29ZM79.35,182.77c.04-.13.2-2.09.69-1.54.08.09-.27,1.84-.2,2.46.05.47.43.12.39.47-1.95.25-1.15-.4-.88-1.4ZM80.8,182.02c-.32.29-.85-.25-.56-.59.18-.21.77.4.56.59ZM81.22,181.38c.12-1.87.82-3.79,1.95-5.24.18-.23.31-.47.65-.4.31.33-1.85,5.74-2.36,6.47-.39-.27-.26-.45-.24-.82ZM83.69,182.17c-.07.22-.35.18-.42.39-.44,1.24.39,3.75-1.71,1.91.95-.84,1.18-2.01,1.32-3.24l.56.2c.15-.11-.03-1.2.57-.98-.09.54-.14,1.21-.32,1.72ZM83.82,180.05c-.08-.97.8-1.68,1.01-2.38.11-.36.1-1.28.14-1.33.12-.14.75.31.54-.6l-.38-.19c.14-.01.45.06.53-.02.12-.13.65-3.08.8-3.59l.74-1.48c-.45,1.94-.37,4.59-1.42,6.27-.42.68-.9,1.29-1.3,2.17-.19.43.04,1.22-.67,1.16ZM89.96,186.14c-.55-.02-4.62-.55-4.83-.69-.34-.22.21-2.11.01-2.65.66.16,0,1.57.19,1.76.81.29,1.09-.45,1.51-.19.19-1.25.06-2.56.2-3.82.11-.98.6-1.99.45-3.04l2.08-3.34c-.07.88.56.86.65.99.14.19-.34.59-.37.88-.03.35.22.85.2,1.36,0,.21-.53,2.33-.61,2.42-.08.09-.53.09-.71.24.24-1.05.46-1.99.48-3.08,0-.32.12-.94-.29-1.04.08.52-.33,1.32-.35,1.66-.02.27.22,1.62.16,1.67-.04.04-.38-.07-.52.04-.37.27-.17,2.93.13,3.4,1.38,2.16,2.99-1.56,3.4-1.09l-1.03,4.32c-.19.26-.49.21-.75.2ZM96.47,186.14c.04-.51-.11-.99-.19-1.48-.05-.27.17-.8-.28-.68-.2.06.33,1.85.28,2.16-1.54.25-3.16.01-4.72-.2-.07-.08.6-.79.66-.99.02-.07.26-1.34.28-1.47.1-.72-.11-1.5.2-2.24l-.76.49c.59-.55.56-3.22,1.07-3.4.39-.14,1.37-.02,1.72-.47.09-.12.55-1.81.57-2.06.07-.72-.13-1.08-.16-1.71-.02-.3.21-.82.19-.86-.05-.08-.47-.09-.53-.33-.03-.13.47-2.08.54-2.56.03-.24-.17-.53-.14-.63,0-.02.26-.05.34-.17,1.12-1.93,1.86-4.15,2.95-6.11.27-.49.98-.82.83-1.59l-.37-.09c1.1-.62.77-1.13,1.08-2.06.26-.78.6-1.56.81-2.36l.18,1.86c.09.86-.63,2.08-.66,2.74-.02.63.69,1.64-.28,1.67v-.59c-.26-.34-.6,2.36-.94,2.55,1.16.58.49-1.19,1.23-1.57.47-.08.21.18.23.43.1,1.32-.07.8-.48,1.38-.05.07.23,1.2-.51,1.52-.6.27.32-1.32-.47-1.37,0,1.05-.52,2.12-.72,3.09-.93,4.62-.73,9.52-1.16,14.26-.09.95.45,3.01-.76,2.84ZM98.54,175.15v-.39s.57,0,.57,0c-.06.28-.3.45-.57.39ZM98.54,173.59l-.37.39c-.07-.87-.07-.84.75-.78-.34-.78.25-1.35.19-2.16.94.39-.45,1.38.37,1.76l1.89-8.43c1.45.34-.14,1.57-.19,2.06-.05.46.35.99.38,1.46l.46-1.38.77-.77c.82.88-.25.38-.49.7-.32.42.36,1.21.19,1.72-.09.28-.48.27-.53.34-.04.05.23.67.13,1.2-.03.14-1,2.45-1.08,2.56-.11.17-1.73,1.01-1.8,1.1-.31.38-.53,2.16-.67.21ZM102.51,179.47c-.02-.35.21-.84.56-.98.07.44-.17.82-.56.98ZM99.86,185.55v-.29c.2-.31.41-.34.75-.3v.59s-.75,0-.75,0ZM103.96,179.12c-.2.86-.74,2.83-1.55,3.1-.38.12-.19-.25-.37-.39-.09.32-1.45.92-1.6.78-.39-.83.09-1.15.17-1.68.33-2.16.95-4.01,1.47-6.12l.81-1.61-1.88,8.43c.31-.56,1.09-.15,1.13-.19.16-.17-.43-.89.75-.39-.04-.62.63-3.33,1.04-3.53.55-.27.08,1.42.04,1.61ZM104.2,154.96c-.32-1.04.14-2.78.71-3.67.75-1.18,3.53-2.49,2.86-4.24-.13-.35-.75-1.33-1.13-.79-.04.05-.39,1.26-.74.86-.11-.13.58-1.84.72-2.1.44-.83,1.29-.81,2.11-.84-.38,1-.51,2.06-.56,3.14,1.22.09.3-1.21,1.32-.98.1.1-.62,1.94-.82,2.1-.12.09-.43.01-.48.07-.12.14.12.81-.2,1.27-.19.27-.97.63-1.27.94-.37.38-.43.9-.58,1.1-.15.2-.99.83-1.01.89-.16.61.52.37.38.77l-1.32,1.48ZM109.49,132.89c-.24-2-1.34.92-1.52,1.08-.14.13-.44.07-.38-.29.08-.45.56-.78.71-1.23.21-.67.31-2.61.66-3.14.13-.2.9-.22,1.23-.98.26-.6.26-1.81-.52-1.22-.25-.31,1.34-3.72,1.61-4.31.06-.13.15-.74.46-.39.13.15-.78,3.3-.88,3.88-.16.89-.19,3.42-.63,3.86-.37.37-1,.13-.95,1.18.04,1.02.98,1.15,1.11,1.6.28.98.14,2.56.5,3.79.1.36.55.58.45,1.03-.05.22-1.78,3.77-1.96,4.06-.32.5-.93.86-1.4,1.19.16-.91.73-1.75-.09-2.56-.34-.34-1.14-.26-1.04-.66.15-.57,1.41-2.12,1.79-2.85.79-1.53,1.07-2.27.85-4.03ZM113.65,132.5c-.1-1.22-1.24.38-1.33.29,0-.43-.23-.78-.16-1.23.17-1.07,2.87-5.42,3.53-6.94.25-.58.35-1.24.57-1.75.07-.16.11-.66.39-.28.09.12.27,2.13.85,2.94.55.76,1.72.72,1.79.79.12.12-.19,1.67-.28,1.96-.22.7-2.39,4.74-2.84,5.28-.68.82-1.55.57-1.91.85-.11.08-1.74,2.17-1.94,1.91.05-.57-.36-1.3-.17-1.84.09-.26,1.61-.7,1.5-1.99ZM117.32,120.84c.26.13.15,1.11.09,1.18-.43.49-.56-1-.09-1.18ZM110.62,159.86c.76.27.12,1.04.17,1.44,0,.06,1.15.76.49.91-.5.11-.09-.45-.47-.39-.32.72.35,1.04.37,1.11.11.46-.06,1.13,0,1.63-1.3-.76-.46.8-.09,1.18.29.3.79-.02.66.58-1.08-.57-.89,1.69-1.18,2.4l-2.69,5.05c-.24-.27-.48-.6-.6-.94-.94-2.71.43-8.76,1.56-11.4.53-1.22,1.48-2.66,2.14-4.05.1-.22,1.06-1.76,1.33-1.46.12.14-.8,3.24-.98,3.58-.51.94-.61-.22-.81-.25l-.29,1.27.38-.68ZM110.05,153.98c.22-.73.6-.71,1.32-.78.14.14-.66,1.29-.85,1.37-.45.18-.09-.4-.47-.59-.53,1.76-1.57,4.28-2.5,5.93-.12.22-.26.49-.52.54l.51-3.08c.47-.78,1.12-1.76,1.52-2.56.36-.72-.08-1.37.99-.84ZM109.3,145.54v-.59h.38v.59h-.38ZM111.46,151.81c-.39.23-.75.44-1.22.4-.25-.27.82-2.85,1.06-3.31.22-.43,1.52-2.17,1.55-2.3.09-.54-.26-.83-.72-.46-.26-.9.38-1.08.64-1.59.74-1.47,2.33-4.92,3.79-7.47-.41,0-.77,0-.84,0-.02,0-2.21,0-2.21-.02s2.05-.02,2.21-.02c0,0,.41,0,.86,0,.73-1.28,1.43-2.33,1.96-2.76.17-.13.29-.47.47-.1.28.55.17,2.83.67,3.64l-1.53,3.42c-.52.44-.96-1.47-1.88-.29-2.47,3.17-.88,8.59-4.82,10.88ZM119.59,136.87l.45-.95.47.24-.45.95-.47-.24ZM119.68,134.56c-.9-.59-.47-2.15.19-2.75-.17.95-.35,1.78-.19,2.75ZM113.07,139.07c.08.38-.05.57-.18.88-.16.37-1.4,2.92-1.54,3.01-.08.05-.52.11-.54-.07.92-1.03,1.07-2.98,2.26-3.82ZM105.33,168.68h-.38c-.06-.29.08-.41.28-.59l.09.59ZM105.71,172.8c-.29.9,1.32,1.95,1.3,2.22-.05.63-1.99,2.55-2.4,1.17-.18-.62.51-3.97,1.09-3.39ZM109.58,182.81c-.19.46-.43,1.77-.57,1.96-.24.33-3.74.71-4.07.49-.81-.55,1.05-1.04,1.16-1.21.31-.5.41-2.43.64-3.2.31-1.03,1.35-2.18,1.22-3.22-.08-.62-.74-1.16-.55-1.87,1.16-.22,2.16-1.11,3.39-.99-.39,1.02-.04,1.91,0,2.94.33.05.18-.45.19-.68.01-.39-.15-2.09,0-2.26.28-.3.33.07.4.28.05.16.17,2.1.15,2.34-.09,1.45-1.4,4.03-1.97,5.43ZM115.27,181.18c-.12.22-.48.01-.13,1.03l-.37-.2c-.06.45.17,1.39-.19,1.67-.24.19-3.17.85-3.4.68.31-.32.69-1.84.88-1.98.43-.32,1.29-.04,1.77-.27.61-.3.52-1.61,1.42-1.67.19.1.12.56.03.73ZM113.64,179.27l-.75,1.57c-.22-.61,0-1.53.75-1.57ZM114.97,176.24l-.58.48c-.32-.4.81-3.48,1.06-4.1.38-.96,1.07-2.31,1.54-3.31.12-.27-.12-.54.43-.43l-2.44,7.36ZM116.93,164.77c-.35,1.49-1.43,3.05-2.13,4.42-.83,1.62-1.36,2.64-1.9,4.5-.25.85-.12,2.49-1.14,2.64.21-.77-.07-1.9.03-2.59.08-.56.63-2.83,1.28-2.11v-2.16s-1.13,1.08-1.13,1.08c-.49.66-1.32,2.43-1.78,2.85-.19.17-1.88.93-1.61.29.11-.26.74-.86.98-1.34.19-.4.48-1.09.63-1.51.08-.24.23-1.34.28-1.37.05-.03.32.21.45.2.14-.01.1-.3.16-.35.1-.07.64.25.71-.15.09-.5-.56-.73-.57-.79-.02-.1.37-.99.42-1.03.17-.16.59.13.53-.24l-.57-.5.94-.29c-.19.53.11,2.45.36,2.82.04.06,1.29.77,1.34.71,0-.47-.04-1.04-.17-1.48-.12-.4-.5-.19-.41-.97.05-.38.37-.27.4-.42.11-.54-.31-1.25-.19-1.92.08-.44.51-.64.66-1.08.12-.35,0-1.16.09-1.57-.67-.09-.44,1.26-.85,1.57-.44-.37-.76-2.57-.67-3.03.04-.2.41-.03.53-.14.1-.09.11-.57.26-.82,1.05-1.73,2.25-3.36,3.1-5.22.42-.93,2.09-5.02,2.16-5.79.03-.29.11-.57-.28-.49-.79,1.25-1.64,2.51-2.4,3.78-.21.36-1,2.22-1.1,2.29-.14.11-.5-.11-.54-.31-.02-.11.5-1.82.6-2.08.89-2.41,2.32-5.58,3.4-7.85.72-1.51,1.36-3.11,2.33-4.45.65.69,1.91-.01,2.3.22,1.23.74-.63,3.56-1,4.47-2.43,6.08-4.36,12.65-5.57,19.11l.76.2c-1.1.49-.54.32-.67.9ZM123.83,130.05c.05,1.04.05,2.37.24,3.38.12.66.72,1.64.7,1.99-.02.55-1.16,2.87-1.56,3.2-.27.22-1.37.54-1.27-.04.25-1.39,3.2-3.21.85-4.99-.6.73-1.2,1.35-1.7,2.15-.44.09-.23-.21-.29-.49-.31-1.52.1-.94.67-1.47,1.01-.94,1.42-2.73,2.36-3.73ZM122.32,122.4c.03-.38-.05-1.31.56-1.18.08.52-.08.98-.56,1.18ZM130.83,129.34s.01.05.02.07c0,0-.01,0-.02,0,0,.25,0,.49-.02.74-.03.47-.33,2.77-.47,3.05-.23.47-.55-.42-.78-.57-.58-.4-1.53.01-1.96.47-.63.68-.75,2.63-1.51,3.23-.04-.63.43-1.13.53-1.72.08-.49-.08-.86-.05-1.26.02-.29.39-1.22.27-1.34-.39-.39-.65.68-.94.39-.29-.28-.46-4.26-.19-4.9.23.43,1.42.91,1.94,1.19.46,0,.97,0,1.44,0,.14-.04.31-.06.37-.12.28-.24.63-.88.91-1.21.11-.13-.01-.38.43-.25-.03.74.02,1.48.02,2.23ZM135.18,129.69s2.21,0,2.21.02-2.05.02-2.21.02c0,0-.44,0-.92,0l-2.12,5.02c.51-2.61.6-5.34,1.51-7.84.89.86,1.07.08,1.88-.2l-1.26,2.97c.44,0,.84,0,.91,0ZM139.73,133.92c.44-.92,1.89-1.98,2.12-2.7.28-.89-.15-2.04,1.23-2.34.14.16-.4,1.47-.39,1.87.02.6.55.86.56,1.36,0,.59-.62,1.43-.52,2.22.05.39.35.75.33.89-.03.21-2.66,2.38-3.1,2.87-.87.97-1.5,2.17-2.35,3.14.82-2.18,1.14-5.27,2.12-7.31ZM138.64,122.6l.38-.4.48.49-.38.4-.48-.49ZM138.23,145.11c.55-1.35,1.28-2.92,2.12-4.08.14-.03.12.19.09.29-.52,1.71-1.63,3.59-2.26,5.3-.89,2.37-1.66,4.81-2.51,7.2-.09.25-.1.87-.15.92-.1.09-.57-.07-.83.21-.07.07-.16,1.59-.24,1.89-.07.27-.34.29-.35.32-.07.23-.11,1.26-.29,1.48-.04.05-.87.27-.9.24-.38-.36.78-.44.38-.78-.02-.02-.53-.02-.56,0-.1.07-.23,2.18-.2,2.46.04.45.37.86.34,1.14-.03.38-.62,1.1-.72,1.56l-.94.93c-.07-.32.5-1.6.38-1.76-.34-.43-1.41,2.25-1.53,2.33-.68.46-.49-.53-.65-.95-.12-.31-.59-.71-.65-.9-.15-.5.46-.19.55-.3.09-.11-.04-.6.03-.86.39-1.42,1.35-2.78,1.69-3.94.07-.25.29-.53-.1-.68-.08-.03-.69,1.27-.84,1.43-.12.14-.78.31-.89.58-.46,1.12-.91,2.01-1.76,2.99-2.15,2.48-3.66-.87-2.69-2.79,1.24-2.45,3.06-5.84,5.11-7.63.21-.18.29-.48.49-.66.63-.07-.02.76-.04,1.1-.04.67.44.92-.27,1.54l.21,2.07c.39-1.45.57-3.14.99-4.56.12-.41.51-1.5.66-1.86.3-.7,1.73-1.68,1.9-2.55.14-.71-.27-1.19-.29-1.75-.04-1.43,2.84-5.42,3.15-7.12.33-.04.2.67.18.88-.07.69-.65,2.4-.54,2.91.13.56.88.49.92.53.19.2-1.76,4.65-1.98,5.3-.41,1.21-1.18,3.28-1.37,4.46-.03.21-.2.68.14.63-.08-.66.32-.16.67-.37.63-.37.23-.94.28-1,1.29.68-.41,1.04-.31,1.87.02.19.38.53.59.48.42-.1,2.51-7.32,2.98-8.47ZM134.67,163.17c.35-.44.95-.15,1.58-1.09.65-.97.47-1.65.73-2.57.09-.32.88-2.11.81-2.2-.3-.33-.41.27-.49.37-.52.69-.91,1.66-1.4,2.28-.29.37-1.01.63-1.23,1.27-.31-1-.73-3.17.85-2.74.12.12-.47,1.06.19,1.18l4.25-11.76c.51.55-.25,1.53-.38,2.15-.8,3.55-1.21,7.21-1.25,10.86-.83.62-1.42,1.46-2.15,2.18-.71.71-1.7,2.04-2.73,1.97.73-.43.78-1.34,1.22-1.89ZM133.26,160.25c-.53.46-.56-1.14.38-1.17.09.12-.33,1.13-.38,1.17ZM136.47,155.74s-.54.02-.56,0c-.45-.4.31-2.64.75-2.16.17.19-.29.52-.33.71-.05.26.31,1.28.14,1.45ZM135.91,156.13c.27.33-.66,1.32-.47,1.77-1.54,1,0-2.33.47-1.77ZM137.42,151.82c.13.14-.35.97-.47.98-.46,0-.07-1.12.47-.98ZM129.87,168.19l-.56.49v-.78c.15.02.52-.04.56,0,.03.03-.02.18,0,.29ZM128.92,167.8c-.5.31-.06-.34-.82.61-1.34,1.69-4.51,6.69-6.1,7.48-.37.18-.77.27-1.18.24.24-.8.74-1.13.77-2.06.03-1.06-.76-2.26-.74-2.89.02-.4,1.77-6.7,1.96-7,.04-.06.86-.98.93-.99.03,0,.31.21.4.28,1.69,1.27,2.56.43,4.32-.28.08.02.6,1.37.63,1.52.16.85-.75.7.94,1.08.09.02.35-.22.23.24-.03.11-1.23,1.71-1.33,1.77ZM119.11,155.55c1.01.5.55-.25,1.32-.39.29.33-1.16,1.7-1.41,1.96-.83-.79.7-.46.1-1.56ZM118.93,158.29v.39s-.76,0-.76,0v-.39s.76,0,.76,0ZM121.19,155.35c-.06-.04.51-1.07.75-.78.27.31-.37,1.08-.75.78ZM121.38,156.72c-.11-.11.16-.58.28-.58.52,0,0,.88-.28.58ZM121.19,150.44h-.38v-.59h.38v.59ZM121,157.11c.09.11-.42.99-.47.98-.54-.17.24-1.26.47-.98ZM120.6,159.44c-.71.62-1.36-1.01.21-.95.03.03-.18.92-.21.95ZM119.87,153.39c.2-.2.76.39.56.59-.2.2-.76-.39-.56-.59ZM119.68,157.31v.59h-.38v-.59h.38ZM120.62,159.86c-.44.08-.75,2.3-.19,1.57.02-.02-.06-.3.14-.59.34-.5.52-.55.75-1.33.24-.8.05-2.13,1-2.2-.2,2.05-.63,5.61-3.21,5.49-.1-.6.58-3.62,1.51-2.94ZM122.75,155.08l1.26-2.28-.91,3.27-.6,1.04c-.16-.78.46-1.3.24-2.03ZM122.51,149.86c.15-.72.3-1.73.94-2.16.05.74-.44,1.64-.94,2.16ZM124.79,152.44c.06-.1.63-.15.7-.54.1-.5-.65-1.02-.5-1.69.04-.16.48-1.04.72-.74-.13.66.19.48.76.78-.01-.15.04-.31,0-.46-.03-.11-.74-.22-.38-.52.35-.29,1.12.59.75,1.18-.13-.02-.25-.13-.38-.2.03.38-.08.92.53.55.18-.11.72-1.58,1.06-1.93.37-.39.97-.43,1.25-.86.61-.94.85-3.58,1.68-4.87.18-.28,1.24-1.07,1.52-1.51,0,.4-.11.84-.24,1.21-1.25,3.47-2.39,5.58-4.93,8.21-.45.46-.82.82-1.24,1.26-.23.24-.73.26-.94.6l.75.19c-.46.22-.98,2.04-1.22,2.06-.55.04.19-1.91.23-2.09.04-.19-.19-.51-.12-.63ZM127.13,146.93c-.09.19-.04.52-.37.38-1.53-.63.12-4.23.41-5.26.56-2,.99-4.05,1.8-5.97.07-.17.74-1.91,1.09-1.52-.89,3.5-1.42,7.32-2.36,10.79-.14.52-.33,1.1-.57,1.58ZM127.4,148.09c0,.21-.16.38-.37.38s-.37-.17-.37-.38.16-.38.37-.38.37.17.37.38ZM130.62,140.45c.11.11-.16.58-.28.58-.52,0,0-.88.28-.58ZM133.08,142.8h-.18c-.18-.41.24-1.25.56-.98.04.03-.5.68-.38.98ZM132.7,141.03c-.13-.16.51-1.11.75-1.18.08.54-.33.95-.75,1.18ZM132.7,144.56c.01.66-.6.86-1.13.78.05-1.02.4-.65,1.13-.78ZM134.78,150.25c.09-.54.89-.68,1.13-.39.41.49-.96.55-1.13.39ZM132.14,120.25c-.46-.36,1.03-.68,1.13-.59.18.6-.94.74-1.13.59ZM132.13,121.62c.12.13-.04.69-.28.78-.66.26-.07-1.18.28-.78ZM131.57,125.35v.78s-.37,0-.37,0c-.1-.11.27-1.02.37-.78ZM132.02,136.32c.16-.21-.03-.63.3-.58.32.63-1.23,4.05-1.51,4.31-.81.73.12-1.21.15-1.32.41-1.29.26-1.35,1.07-2.42ZM125.53,117.5v-.59c.19.17.73-.03.75,0,.22.39-.39.58-.75.59ZM125.9,116.32c-.26.13-.45-.89-.37-.98h.38s0,.98,0,.98ZM126.28,136.92c.15.49-.69,2.69-1.32,1.96-.11-.13.31-.85.41-1.04.13-.25.54-1.01.91-.92ZM124.58,119.86c-.44.15-1.3-.31-1.24-.79.02-.16,1.27-2.63,1.41-2.81.14-.18.53-.17.58-.12.22.2-.98,3.12-.75,3.73ZM117.86,160.32c.02-.06.27-.08.3-.21.08-.36-.24-1.12.29-1.04.51.78.44,2.08-.56,2.35-.42-.06-.09-.92-.02-1.11ZM118.54,161.62c0,.12.03.33,0,.39-.02.03-.51.1-.47.4-.68-.66-.1-.53.47-.78ZM127.1,177.67c-2.09,1.51-5,2.85-7.31,3.98-.33.16-1.85,1.49-1.96.67-.07-.45.72-2.89.86-3.58.07-.34.14-2.12.23-2.21.59-.13.92.48,1.42.58.71.14,1.66-.24,2.03-.15.22.05.73.65,1.1.83,1.45.72,2.99-.24,4.32-.86-.12.31-.43.56-.69.75ZM139.36,167.25l-6.85,5.94c.22-.54.16-1.57-.63-1.35-.44.12-2.83,4.01-3.62,4.49-.4-.29,1.1-1.75.38-1.76-.17,0-2.2,1.6-3.03,1.75-.27.05-.54.12-.46-.28l7-9.7c2.13.79,2.79.26,4.26-1.26.43-.45,2.28-3.14,2.61-3.07.68,1.06-.23,2.53-.1,3.83.06.65.6,1.04.44,1.41ZM138.93,156.52c.06-.67-.32-1.38.56-1.17l-.56,1.17ZM139.87,164.76c-.63.62-.18-1.57.19-1.56-.89,0-.04-.68.38-.79.07.09-.44,2.23-.57,2.35ZM142.8,158.87c.15-.17.99-.14.84-.98l-.57.29c.16-.54.27-1.49.6-1.92.29-.38.59-.28.68-.37.26-.3.14-1.86,1.36-1.53-.67-.87-.2-2.14.56-2.74-.2.94.1,3.54-.41,4.27-.15.21-.68.19-.9.05l-1.8,4.9c-1.69.8-1.03-1.23-.37-1.97ZM143.65,163.39h-.38v-.59h.38v.59ZM144.32,160.45c.13-.28-.05-.49.46-.39.1,1.29-1.29,2.14-.46.39ZM144.59,158.48l.38-.78c.3-.04.42.74.37.78-.06.05-.57-.03-.75,0ZM147.39,157.75c-.05.23-1.2,1.78-1.44,2.05-.19.21-.2.55-.61.45.1-.48.97-3.53,1.23-3.52.3.39.96.43.82,1.03ZM147.22,144.85l-4.34,8.44c.66.26.51.65-.09.89l-.28-.39c-.02.19.03.4,0,.59.12-.03.39-.07.38.1,0,.14-.16.85-.19.88-.49.43-.24-.61-.19-.98-.34.07-1.55,3.14-1.7,3.63-.07.23.04.4.28.29.4-.2-.01-1.13.57-.98.12.03.5.74.47.78-.02.03-.4.04-.58.28-.18.24-.14,1.05-.55.7-.04-.03-.02-.38-.18-.49-.14-.1-.59.21-.76-.2.49-1.55.5-3.24.8-4.85.66-3.63,2.34-10,4.21-13.08.28-.46.74-.79,1.28-.59.44.16.23,1.52,1.44.77,0,1.41-.41,2.8-.58,4.2ZM142.14,156.53l-.09.78c-.29-.21-.33-.42-.28-.78h.38ZM144.59,134.37c.32-2.13,1.29-4.5,2.13-6.51.13-.31.27-1.06.7-.94.18.97-.62,1.58-.89,2.31-.53,1.43-.88,3.01-1.51,4.5-.1.24-.09.58-.43.63ZM147.23,123.78c-.2-.19.39-.8.56-.59.28.34-.25.88-.56.59ZM148.18,131.61l-.17-1.22c1.83-3.78,3.3-8.04,6.38-10.93-.55,3.15-2.4,6.64-2.78,9.76-.14,1.19.07,2.4-.13,3.59-.14.8-.74,2.67-1.61,2.93-.14-1.12,1.1-3.48.13-4.25-.69-.54-1.11.24-1.82.13ZM154.83,134.81c.09.48.46,1.31.47,1.65.03.82-.83.91-1.21,1.31-.36.38-.95,1.09-1.27,1.52-.28.36-1.11,1.96-1.24,2.04-.31.19-.93.04-1.26.46-.73-.13-.22-.41-.15-.75.06-.31.37-1.89.47-1.97.05-.04.86.52,1.23,0,.53-.73.88-5.91,1.79-6.58,1.44.27.99,1.31,1.18,2.31ZM159.97,132.03c-.86,2.21-1.81,4.37-2.75,6.54-1.78,4.11-3.83,9.23-6.15,13.02-.14.23-1.14,1.69-1.23,1.75-.16.1-.36.03-.53.04.41-.2.49-1.46,0-.98-.27.26-.02,1.02-.06,1.24-.05.25-.77,1.72-.89.82-.25-1.99,1-5.38,2.14-7,.71-1.01,3.33-2.95,3.49-4.03.06-.41-.28-.84-.13-1.3.05-.16,1.69-1.73,1.96-2.09,1.1-1.43.37-1.28.46-2.42,0-.06.68-.42.69-.82,0-.27-.53-.96-.31-1.47h.76c-.07-.94-.23-1.62-.14-2.59.06-.61,1.25-5.24,1.46-5.45.02-.02.4-.08.38.1-.02.18-.19.34-.19.39,0,.73-.14,2.6,0,3.14.13.49,1.2.31,1.04,1.1ZM160.65,119.93c-.16.22-.54.08-.76.23-.34.23-.49.73-.96.68-.21-.23.92-1.77,1.17-2.02.16-.17.16-.43.53-.33-.04.4.28,1.1.02,1.45ZM166.68,109.26l-.85,4.11c-.2.28-1.17.64-1.22.91-.04.19.32.48.37.78.18,1.01-2.47,9.6-3.01,11.17-.17.51-.26,1.08-.67,1.47l.91-4.75c.22-.91,1.59-4.89,1.31-5.39-.62-1.13-1.4-.57-2.21-.63-1.09-.08-1.38-1.02-2.65.17l-1.6,1.97c-.26-.95.44-1.13.73-1.69.29-.56.57-1.14.79-1.75-.18-.04-.36-.08-.54-.13-.23.46-.66.79-1.29.83-.03.03-.05.06-.08.09-.14.15-.38.52-.56.2.05-.1.1-.2.15-.31-1.11-.11-2.21-.23-3.32-.37-.18.83-.26,1.7-.22,2.54-.87.04-.83-.91-1.85-.46-.18.08-.33.79-.6.45-.36-.42,1.69-1.39,2.26-2.59-.89-.11-1.78-.22-2.67-.35-.19.21-.4.39-.45.46-.66.84-3.94,6.4-4.32,6.39-.07,0-.47-.42-.44-.64.01-.1.71-1.74.81-1.91.56-.99,2.96-1.52.86-3.03.54-.8,1.47-.97,2.24-1.39.03-.01.06-.04.08-.06-1.33-.2-2.66-.41-3.98-.66-.33.06-.66.11-.99.16-.92,2.51-1.29,4.92-4.16,6.26-.36.17-.76.05-1.12.21-.31.14-3.04,3.44-3.4,3.03.29-.97.79-2.43,1.28-3.28.38-.66,1.09-1.25,1.52-1.95.85-1.39,1.22-2.93,2.22-4.36.1-.14.2-.27.3-.4-.12-.2-.21-.42-.25-.66-.54-.12-1.09-.26-1.62-.43-1.18-.32-2.35-.68-3.51-1.07-.37,1.49-.86,3.23-1.15,4.12-.37,1.12-1.22,2.35-1.76,3.46-.16.34-.69,1.94-.78,2.03-.54.55-.26-1.6-.61-1.91-.05-.04-1.06-.41-1.17-.42-2.52-.09-.09,3.9.4,4.98-.34.87-1.19,3.55-2.29,3.45-.86-.08-.2-.72-.11-1.11.09-.4.65-2.51.57-2.61-.02-.02-.51-.21-.53-.2-.31.21-.28,1.66-.97,1.55-.29-.76.34-1.56.38-2.07.04-.66-.61-.89-.19-1.95.32-.81,1.15-.48,1.15-1.37,0-.81-.59-.69-.79-1.02-.5-.85.31-4.11.39-5.27.05-.75.08-1.5.1-2.26-.64-.07-1.27-.18-1.91-.3-.02.71-.05,1.28-.11,1.56-.04.13-1.62,1.29-1.93,1.72-.76,1.04-1.03,2.81-2.57,2.73.3-1.77.16-3.68,1.05-5.28.04-.07.1-.16.18-.26-.72.16-1.46-.16-1.93-.72-.79,1.43-1.04,2.84-1.19,5.18-.11,1.72-.27,3.57,1.89,3.63-.32.8-1.13,4.84-1.51,5.2-.36.34-.59-.35-.7-.65-1.11-3.04-.26-9.1,1.01-14.28-.6-.02-1.19-.28-1.56-.81-.21.96-.43,1.81-.68,2.36-.29.62-1.03.85-1.18,1.13-.16.29-.05.67-.2.96-1.19,2.28-2.49,3.44-3.58,6.29-.09.25-.06.76-.09.78-.02.02-.55.03-.56,0-.23-.4.41-.61-.85-1.18-.25.38-.47,1.01-1.04.98.35-1.32.63-2.71.9-4.06.21-1.05.04-2.39.98-3.19-.22,1.68.26,2.15,1.87,1.94.59-1.4-.28-4.69.58-5.77.41-.52,1.33-.44,1.43-1.44.11-1.18-1.37-1.11-1.41-1.87-.02-.38.33-1.06.36-1.58.16-2.29.03-4.6,0-6.87,0-.45.25-.88.17-1.32-.12-.66-1.33-2.15-1.96-2.1-.38.03,0,1.18-.85.58-.4,1.08.16,1.62.29,2.54.12.84.5,6.25.27,6.48-.1.1-1.12-.24-1.53.28-.16.21-1.09,3.48-1.22,4.03-1.35,5.55-1.8,11.37-3.1,16.93-1.02,1.05-.78-.04-1.05-.06-.09,0-.72.71-.66.98-.84-1.04-.85-1.15-2.16-.77-3.68,1.08-4.25,8.59-5.3,11.75-.45,1.34-1.44,3.02-2.07,4.32-.07-1.15.38-2.33.65-3.44.69-2.76,1.42-6.18,2.67-8.79.54-1.12,1.76-1.85.74-3.18-2.24.44-2.95,2.9-3.6,4.91-.34,1.06-.92,4.23-1.35,4.87-.1.15-1.4.99-1.61,1.07-.23.09-.47.19-.4-.22.32-1.87,2.37-7.29,3.56-8.66.62-.72,1.88-.97,1.67-2.11-.39-2.12-2.8.25-3.46,1.03-.36.43-.99,1.86-1.08,1.92-.42.3-1.64.34-2.33,1.01-1.67,1.64-2.81,9.58-3.43,12.32-.67,2.93-2.14,4.9-3.16,7.7-.19.5-.37,1.03-.47,1.56l.57-.98c.07-.05.37.24.37.29,0,.09-.62,1.56-.85,1.67.04-.59-.55-.66-.63-.91-.14-.42.07-1.06-.2-1.51-.24-.39-1.1-.28-1.15-.33-.17-.17.95-4.44,1.23-4.71.42-.41,1.49.47,2.61-.61.99-.95,1.08-2.51,1.22-3.8.07-.71.13-1.43.21-2.17.04-.38.19-2.32-.35-2.14-.15.05-.87.31-.91.33-.09.06-.99,1.64-1.18,1.92-.51.12-.41-.23-.37-.68.38-4.54,1.45-6.36,3.55-10.04.41-.73,1.53-2.93,1.32-3.64-.37-1.3-1.44.07-1.86.34-.99.64-1.98,1.03-2.72,2.07-.25,0-.37-1.39-1.71-.6-1.18,1.43-2.72,2.36-3.95,3.73-2.12,2.35-3.78,5.42-5.85,7.85-.28-.16,0-.5.09-.69.98-1.88,3.76-7.13,5.37-8.14.47-.29,2.49-.64,1.22-1.65-1.74-1.38-4.52,2.53-5.35,3.82-1.37,2.14-2.1,4.72-3.96,6.47l-2.56,4.11c-.1-2,1.56-3.94,1.97-5.67.05-.19-.14-.56-.08-.6.04-.04.35.09.58-.13.53-.52,1.7-3.1,2.36-3.97,1.05-1.38,2.5-2.38,3.67-3.63.5-1.18,0-2.3-1.33-1.68.53-.31.11-1.19-.32-1.35-.69-.24-2.13.65-2.79.58-.23-.02-.1-1.89-1.79-.69-2.76,1.98-5.38,6.29-6.78,9.43l-1.53,3.8c.03-.74-.07-1.5.02-2.23.24-2.02,2.98-6.24,4.24-7.95.47-.63,2.46-2.54,2.59-2.81.37-.75.42-1.88-.58-2.08-1.02-.2-1,.62-1.38.85-.43.26-1.63.49-2.32.92-3.02,1.89-3.12,6.34-4.37,9.38-.36.88-1.04,1.87-1.45,2.81-.28.63-.31,1.53-.91,1.9.49-3.27,1.24-6.48,2.03-9.68-.32-.9-.88-1.56-1.9-1.31-.26.06-.21.74-.7.59.03-.36-.22-.74-.19-1.07.05-.56,2.87-3.84,3.26-4.66.51-.96-.06-2.34-1.17-1.82-.43.21-1.51,1.88-1.86,2.39-.42.62-.91,1.78-1.27,2.21-.23.28-.46.05-.46-.09,0-.06.3-.38.33-.63.09-.71-.07-1.44.22-2.12,1.38-2.94,2.81-5.85,4.63-8.52.09,1.9.63,3.1,2.68,2.4,1.71-.58,1.09-2.08,1.77-2.87.35-.4.7-.26,1.03-.5.57-.42,1.16-1.22,1.22-1.97.35-.04.24.65.4.76.12.07,1.15.07,1.27,0,.32-.46-.02-.96.04-1.41.16-1.21.66-2.41.55-3.66.58-.1.3.16.38.48.36,1.36,1.37,4.82,2.36,5.6,1.67,1.32,2.89.68,4.45-.27.21-.13.52-.09.72-.23.76-.51.8-2.33,1.13-2.75.39-.5,2-.29,1.53-2.04-1.83.7-.64-1.97-.38-2.94-.9-.22-.3.39-.75.59-.49-1.97-.12-3.81.79-5.55.92-1.78,2.66-2.86,3.84-4.45l-.99,2.31c-.69,3.08-1.3,6.58-1,9.75.1,1,.41,1.68,1.43,1.85,2.12.36,1.54-2.93,2.06-2.93.22.49,1.28.74,1.4,1.11.14.47-.29,1.06-.34,1.55-.19,1.82.3,4.49,2.53,4.41.2,0,2.54-.52,2.67-.58.63-.29,1-2.53,1.02-3.26,0-.3-.34-1.32-.19-1.47.06-.06,1.28.04,1.53-.32.36-.53.6-2.48.88-3.16.34-.84.47.28.67.58.25.37.73.6.84,1.09.17.78-.11,1.78.09,2.46.1.36.61.54.69.86.14.59-.66,1.61-.25,2.61.2.48.52.63.89.64.38-.63,1.06-1.02,1.94-.79.12-.02.25-.04.39-.04.46,0,.83.13,1.13.35.27.03.54.04.82.05,0-.23,0-.46.03-.69.25-2.07.38-4.33.8-6.42.46-2.29,2.49-6.17,1.94-8.21-.33-1.22-1.91-.09-1.99-.18.19-1.04.42-2.69-.21-3.6-.22-.31-.7-.36-.74-.81-.03-.27.1-.67.31-1.14-.62-.08-1.25-.13-1.87-.15-.27.82-.5,1.59-.69,2.17-.3.3-.86-1.43-1.71-.5-.94,1.03-.37,2.74-.36,3.92.02,2.42.11,4.83-.58,7.17-.35-.06-.31-.41-.4-.66-.17-.48-.68-1.81-.72-2.2-.09-.7.28-1.29.14-1.89-.13-.57-.85-.9-.9-1.08-.17-.58-.27-2.47-.18-3.08.2-1.29,1.65-2.09.45-3.65-1.11-.3-2.05,2.4-2.15,3.27-.19,1.67.75,3.86.72,5.45,0,.27-.61,3.15-.74,3.26-.41.35-.56-.5-.84-.39l-.85.78c.09-1.02-.26-2.22-.17-3.22.05-.61.4-.99.36-1.77-.06-1.41-1.06-1.87-.94-3.13.1-.97,1.02-2.52,1.61-3.23.29-.36,1.41-.96,1.37-1.46-.1-1.14-1.35-.77-1.68-1-.38-.26-.03-2.76-2.16-1.09-.68.54-.98,1.43-1.48,1.89-.38.35-.84.59-1.35,1.04-.87.77-1.83,1.24-2.46,2.35-.3,0-.22-1.23-1.29-1.11-.95.1-.84.75-1.25,1.22-.6.68-1.32,1.25-1.8,2.05-1.52-1.39,1.77-3.43.16-4.52-1.03-.7-1.6.61-2.05,1.38-1.98,3.39-4.5,10.48-4.03,14.39.17,1.4,1.08,1.64,1.2,2.25.06.31-.14.81-.08,1.28.12.98,1.5,2.27-.85,1.87-2.43-.41-3.2-6.69-2.94-8.72.16-1.26.7-.6,1.2-.71,1.24-.28-.14-2.14-.19-2.64-.09-.83.85-2.12,1.04-2.96.48-2.21.74-2.86,1.96-4.83.66-1.06,2.44-2.27,1.2-3.66-1.02-1.14-2.75,2.53-3.21,3.14-.01-.8.51-.93.05-1.82-1.16-2.26-3.59,3.13-4.39,3.78-1.01-3.81-3.01.24-3.96,1.77-.07.03-.1-.83-1.32-.58-.54.11-4.4,4.19-4.9,4.91-.77,1.1-1.5,2.71-2.03,3.97-.34.8-1.56,4.81-1.75,5.04-.32.38-.97-.09-1.38.72-.13.27-.44,1.45-.42,1.72.04.38.47.67.55,1.19.16.97-.26,2.2-.18,3.33.06.89.65.88-.28,1.86-.23-.1-.47-2.39-1.86-1.94-.45.15-1.29,3.06-1.26,3.7-.51.15-.56-.69-.87-.77-.71-.18-2.39,2.93-2.75,3.58-2.04,3.69-3.07,7.41-4.14,11.49-2.82-.38.41-2.07.4-2.83,0-.33-.42-.52-.53-.83-.25-.74,0-2.1-.95-1.57-.09.05-1.04,1.52-1.21,1.78-.27.41-.65,1.91-.71.25,1.33-2.94,3.73-5.36,5.43-8.1.2-.7-.61-1.83-.68-2.34-.04-.34.37-.6.3-1.09-.08-.56-.53-1.28-1.16-1.1-1.38.4-5,9.52-6.74,10.75-.19-2.37.56-4.69,1.81-6.65.56-.87,3.2-2.88,2.04-3.73-1.09-.8-1.78.51-2.23.37-.25-.08-.3-.56-.49-.68-.34-.21-.8.02-1.13-.19-.18-.12-.22-.57-.5-.67-.53-.19-1.05.47-1.46.39-.04,0-.07-.05-.1-.12-.57.17-1.14.33-1.72.45-.22.33-.43.7-.63.95-.15.19-.48.28-.69.55-1.6,2.11-.09,5.23-2.07,6.97-.04-2.02.19-4.29.96-6.16.23-.55.79-1.36,1.18-2.09-1.78.26-3.53.23-5.27-.02-.03.04-.07.08-.1.12-.43.6-.8,3.21-.75,4.03-.78.13-.19-1.36-.18-1.85.01-.61.08-1.53-.09-2.08,0-.03-.14-.24-.29-.48-1.05-.23-2.1-.54-3.14-.93-.23-.09-.44-.2-.61-.33-.29.64-.54,1.3-.79,1.94-.91-.92-1.14-1.13-2.45-.78.08-1.28-.51-2.4-.7-3.68-.52-3.44,1.04-8.4,2.26-11.67.42-1.11,1.57-1.99.06-2.9-1.1-.66-1.38.49-2.18.99l.19-2.16.37.39c-.03-2.94.98-5.82,1.13-8.73.2-3.65-.37-7.78-.2-11.58.18-3.94,2.07-13.76,3.69-17.14.23-.48.92-.55,1.18-1.53.18-.66-.18-.35-.33-.44-.2-.12.53-.37.68-.56.61-.78.46-1.78.81-2.49.19-.38,1.34-2.39,1.34-2.54,0-1.3.03-.55.39-1.54.19-.51.9-3.35,1.05-3.46.34-.26,1.08-.15,1.44.03.16.08.13.39.24.39.24-.01.45-.32.77-.38.98-.2,2.22.04,2.82-.8,0,.56.91.32,1.29.15.27-.12.26-.43.36-.5.44-.28,1.56-.49,2.4-1.13.58-.44-.53-.11,0-.59.83.06,2-.89,2.79-1.03.42-.07,1.14.12,1.74-.18.43-.22.95-.86,1.12-.93.24-.09.51.18.77,0,.13-.09.14-.41.22-.48.18-.13.52.21.73.08.09-.06.12-.37.22-.43.62-.36,2.22-.98,2.68-1.43.15-.15-.11-.43.21-.6l.66.19c-.38-.94-.02-.39.32-.64.41-.3.22-.63,1.2-.44,2.27.45,3.16.52,5.55.28.36-.04.94-.41,1.13-.36.49.12.34,1.92,1.43,1.16-.16.85-1.04.36-.09,1.37,2.25,2.42,6.32,1.52,9.17-.04.11-1.12.96-2.13,2.24-1.78.14-.17.32-.31.57-.34.03.04-.03.21-.15.47.76.25,1.54.42,2.32.55.06-.13.1-.25.1-.34,0-.33-.53-.82-.81-.93-.49-.2-1.06.31-1.26-.14.74.02,1.55-1.25,2.13-1.16.07.01,1.22.62,1.28.67.09.08.58.76,1.13,1.14,2.48,1.71,5.74,1.53,8.39-.07.45-.27,2.06-1.75,2.27-1.75.24,0,.46.17.66.3.57.4,1.6,1.39,2.16,1.67.98.5,1.95.1,2.8.21.88.12,1.6.62,2.68.56,1.78-.1,4.17-1.38,5.67-2.35.39-.25,1.51-1.29,1.73-1.35.45-.11,1.5.45,2.05.54,2.88.45,5.84-.35,8.52-1.31.33-.12.75-.57.93-.6.08-.01,1.47.55,1.52.61.1.11.1.49.32.74.86,1.01,1.7,1.2,2.99.93.6-.13,1.42-.98,1.91-.94.3.03,1.01.56,1.4.72.38.16,1.13.18,1.36.35.42.32-.02,1.06-.01,1.57.04,1.92,2.33,3.56,3.84,4.26.43.2.94.11,1.34.37.37.24.65.97,1.3,1.39,3.24,2.11,4.7.04,7.29.06.56,0,1.05.75,1.24-.1.06.72.11.8.47.86,1.24-.04,2.48-.04,3.71,0,1.1-.23,2.16-.58,3.21-.8.36-.07.98.46,1.2-.26l-.38-.39c.55-.09.87.61,1.25.72,2.11.63,4.2-.63,6.06-1.26,1.62-.55,3.26-.61,4.82-1.07.9-.26,1.07-1.96,1.65,1.11l-.57.1.57.39c.06.31-.35.18-.48.38-.21.33.04,2.86.19,3.34.48,1.5,2.13,2.62,3.64,2.21,2.25-.62,6.11-5.48,7.48-7.52.36-.53.33-1.36,1.04-1.15.17,2.1.68,4.26.58,6.36-.04.89-.59,2.93-.28,3.63.08.18.46.41.47.49,0,.16-1.03.43-.86,1.58.04.31.6.43.49.87-.07.06-.54-.13-.58.11-.35,1.9.27,4.56,1.18,6.24.17.32.6.55.69.86.56,1.92-.6,4.53-.71,6.24-.06,1,.51,1.84-.38,2.15.77.22.13.46.01,1-.19.91-.48,3.04-.4,3.92.06.74.49,1.08.51,1.71.06,1.8-.97,6.3-1.26,8.46-.11.77-.57,2.01-.57,2.96,0,.37.41.27.39.37-.41,3.13-.73,6.35-1.38,9.56-.49,2.45-1.82,6.2-2.01,8.52-.04.49.12.8.18,1.25l-.37-.2ZM83.07,139.46v-.39s.75,0,.75,0c-.1.39-.4.44-.75.39ZM84.39,143.39c.04-.44.22-.85.42-1.24.15-.29.3-.84.71-.72-.17.5-.42,1.11-.66,1.58-.14.28.01.48-.47.38ZM70.04,132.01c.06-.64.41-1.36.68-1.94.86-1.81,2.3-4.12,4.41-4.14l-5.09,6.08ZM58.91,111.62c.05.37,0,.68-.37.78-.05-.37,0-.68.37-.78ZM62.3,105.24c.08-.26,0-.61.38-.68l-1.51,7.65c-.34-.07-.35-.39-.38-.68-.13-1.27,1.07-4.88,1.51-6.29ZM63.75,110.8c.09.73.82,1.62.82,1.89,0,.26-1.38,2.62-1.7,2.25-.26-.3.36-4.71.56-5.4.07-.27.02-.61.38-.68.1.63-.14,1.33-.06,1.93ZM68.82,99.26c.12-.22-.01-.48.37-.39.23.25.58.52.71.84.52,1.26-1.54,5.62-1.8,7.15-.19.09-.45.06-.61.24-.37.44-1.04,2.89-1.42,3.24-.14.12-.21.11-.38.09.43-3.7,1.37-7.89,3.12-11.18ZM69.29,94.36l-1.13,1.37c-.13-.41.86-1.62,1.13-1.37ZM70.99,95.93c.1.13-.44,1.32-.75,1.37-.18-.26.44-1.77.75-1.37ZM86.84,104.36c-.25.05-.29-.35-.33-.54-.53-2.82.25-4.71,1.03-7.26.36-1.19.38-2.7,1.37-3.57l-2.08,11.37ZM89.29,111.42c-.58.13-1.17-.29-1.37-.84-.07-.18-.02-2.02.05-2.1.78-.83.94,2.61,1.32,2.94ZM90.99,107.5c0,.43.11,1.02-.37,1.18,0-.43-.11-1.02.37-1.18ZM100.81,99.76c-.1.53-.92,1.35-.76,2.06-.54.12-.38-.27-.38-.69,0-.82.45-2.56.66-3.43.07-.28.21-1.07.48-1.17-.12.97.17,2.32,0,3.24ZM100.43,105.93c-.21,1.29-.05,2.79-.18,4.03-.03.29-.04.6-.38.68-.22-1.51-.49-3.48.56-4.71ZM169.13,100.83c-.11-.11.16-.58.28-.58.52,0,0,.88-.28.58ZM187.55,104.69c-.11,3.7-3.12,8.22-4.55,11.64-1.06,2.53-2.32,7.3-4.64,8.91-1.07.74-4.07.66-5.28.22-1.11-.41-1.6-3.28-2.29-4.48-.49-.85-1.01-1.05-1.41-1.57-1.06-1.37-2.1-3.74-1.96-5.52.06-.72,1.3-4.35,1.1-4.58-.05-.06-.24-.03-.34-.03v-.19c.56,0,.74-.99.89-1.53,1.26-4.61,1.81-9.47,3.03-14.1.07-.14.21-.29.39-.45.25-.94.51-1.88.77-2.81-.36.29-.69.52-.74.46.29-1.93.55-3.9,1.01-5.79-.35-.85-.22-1.92.74-2.55.02-.01.04-.03.06-.04.15-.4.32-.79.51-1.17.39-.06.78-.08,1.17-.09,1.34-1.1,2.85-2.17,4.44-2.96.07-.11.15-.22.28-.33.46-.39,1.21-.6,1.8-.58-.01.03-.03.06-.04.09.7-.22,1.41-.37,2.12-.43,0-.16-.03-.32.03-.41.07-.11,2.04-.76,2.35-.8,1.42-.17,2.12-.03,2.99,1.17,4.83,6.71-.79,13.52-2.29,20.34-.67,3.06-.04,4.8-.12,7.63Z"/>
    <path d="M100.6,115.8c.1.21.22.39.4.52-1.18-.34-2.08.65-2.98.93-2.41.74-6.28.71-8.83.83-3.65.18-10.87.61-14.26-.27-.53-.14-.77-.57-1.06-.66-2.18-.68-3.52,2.26-.72,2.86,2.9.62,7.35-.26,10.38.44,4,.37,7.82-.42,11.71-.79,1.04-.1,2.35.27,3.16.16.55-.08,3.4-1.29,3.63-1.73.43-.8-.42-1.64-.28-1.76.69.15,1.11-.04,1.4-.41-.85,0-1.71-.01-2.56-.11Z"/>
    <path d="M93.39,56.08c-.36-.18-.51-.52-.8-.75-.2-.16-.52-.12-.67-.32-.09-.12-.07-.27-.02-.45-.78-.46-1.56-.93-2.33-1.4-.05,0-.09,0-.13-.01-.09-.02-1.16-.69-1.2-.75-.01-.02-.01-.04-.02-.06-.75-.46-1.49-.91-2.24-1.37-.07.17-.18.29-.37.25-.25-.06-.51-.66-.65-.87-.08-.05-.16-.1-.24-.14-.55-.18-1.41-.06-1.25-.75-.55-.33-1.09-.65-1.64-.97-.11.15-.28.23-.47.18v-.39s.11,0,.11,0c-.26-.15-.53-.31-.79-.46-.26-.15-.47-.37-.62-.63-.19-.04-.37-.07-.56-.1-.47.36-.95.6-1.39.56-.92-.08-2.14-.79-3.17-.75.07-.08.09-.21.1-.37-.49-.1-.98-.22-1.46-.4-.05.17-.1.3-.17.34-.59.37-1.3-.33-1.45-.97-1.15-.15-2.28-.36-3.38-.75-.26-.09-.48-.22-.66-.38-.21.36-.36.63-.42.76-.43.06-.27-.43-.7-.64-1.29-.63-1.71.41-2.54,1-1.15.81-1.94.45-3.18.62-1.13.16-2.69.61-3.78.6-.7,0-1.19-.52-1.7-.52-.62,0-1.1.65-1.52.69-.49.05-1.48-.34-2.07-.39-3.1-.22-6.11.87-9.06.98-1,.04-1.99-.47-2.91.11-.56.36-.47.84-.78,1.15-.26.27-.77.31-1.07.56-.43.36-.99,1.44-1.46,1.91-1.26,1.24-2.97,2.19-4.26,3.61-1.08,1.19-1.85,2.69-2.83,3.93-.75.94-2.17,1.22-1.03,2.84.03.05.08.08.14.11,5.03-1.6,10.21-3.11,15.51-2.99,2.31.05,4.56.59,6.81,1.15.96.02,2.91.12,3.21.15.29.03.47.02.65.3-.02.02-.04.04-.06.07.14-.03.3-.05.46-.05.51,0,.92.17,1.22.43.09-.15.19-.3.27-.45.5-.25,4.7.09,4.73.41v.03c7.08.1,14.16.62,21.24.46.41-.05.97-.05,1.57-.05.15,0,.31,0,.46-.02.17,0,.33,0,.47.03.77.02,1.47.04,1.82.01,1.37-.11,1.77-.73,3.11.05.91-.28,1.82-.54,2.73-.84.08-.03.17-.05.25-.06.12-.22-.04-.59.16-.74.55-.41,2.58-.25,2.55-1.84-.03-1.46-1.69-1.29-2.52-1.71ZM34.56,56.91c-.82.1-.24-1.12.19-1.18l-.19,1.18ZM37.01,56.51c-.7.64-.07-1.33.29-1.37.61-.06-.23,1.31-.29,1.37ZM61.73,48.38l-1.03,1.08-.66-1.18c.58.08,1.26-.52,1.69.1ZM58.81,50.05c1.82,2.09-.18,2.34-1.79,2.94.1-1.19,1-2.16,1.79-2.94ZM46.75,53.4c-.48.66-1.82,3.62-2.19,3.81-2.02.24-4.03-.12-6.04.29.15-1.23,1.89-1.25,2.28-1.65.27-.29.31-.84.55-1.19.37-.53,1.12-.9,1.41-1.28.27-.35,1.1-3.18,1.69-1.35.27.83-.12.42-.43.89-.82,1.24-1.65,2.47-2.48,3.7.82.59,1.67.69,2.52.07,1.23-1.53,2.27-3.49,3.52-4.97.2-.24,1.17-1.4,1.5-1.08.25.24-2.1,2.43-2.34,2.76ZM47.96,55.54c-.37-.48,1.32-1.8,1.69-1.96.21.57-1.58,2.11-1.69,1.96ZM50.23,57.89c-.2-.22.72-1.19.94-.98-.07.17-.7,1.25-.94.98ZM50.23,50.54c0-.22,2.35-1.17,2.45-1.08l-1.41,2.35-1.04-1.27ZM52.49,55.44c.35-.07,1.66-1.71,1.89-1.47.15.16-.2.58-.39.67l-2.44,1.88.94-1.08ZM56.08,58.18c-.62.32-2.62-.22-3.4-.3-.1-.13,1.15-1.16,1.33-1.26.28-.15.64-.08.92-.23,1.13-.6,1.83-1.81,3.22-2.04.17.18-1.79,3.68-2.07,3.82ZM61.91,58.46l-3.76-.18c-.04-.22,0-.38.1-.58.2-.45,2.3-3.49,2.64-3.73.72-.51,1.86-.51,2.74-.78l-1.72,5.27ZM62.49,51.42c-.24-.33,1.73-1.93,1.97-2.36.61-1.11-.19-1.35,1.81-1.16-.3.94-.91,2.29-.88,3.28.02.67.63,1.01.7,1.62-.69-.38-1.55-.26-2.13-.43-.4-.12-.81-1.03-1.45-.94ZM66.43,59.43l-1.68-.17c-.12-.45.3-.79.35-1.12.09-.61-.56-.49.5-.83,1.27-2.16,2.4-4.59,3.79-6.66.3-.44,1.9-2.89,2.54-2.36-.16.32-.28.67-.48.97-1.91,2.8-2.11,2.47-3.39,5.89-.54,1.43-1.19,2.82-1.62,4.3ZM71.99,56.67c-.06.47-.68,3.83-.83,3.94-.25.18-1.92-.02-1.87-.84.01-.22.99-2.51,1.16-2.73.32-.42,1.68-1.48,1.54-.37ZM71.18,53.97c-.09-.45.42-.56.53-.92.1-.34-.13-1.01.22-1.04l.38,1.65-1.13.3ZM76.65,50.05c.05.17-.45,1.55-.75,1.17-.14-.17.22-1.31.75-1.17ZM75.14,52.6c-.15.36-.44,1.45-.94,1.37-.05-.74.13-1.38.94-1.37ZM72.78,51.42c-.34-.07-.28-.38-.1-.68.44-.71.91-1.48,1.51-2.06.02.47-1.02,2.82-1.41,2.74ZM77.75,56.76c-.03.23-1.43,3.54-1.56,3.69-.37.39-1.8.13-2.36.38-.41-.47,2.37-5.56,2.87-6.33.64-1,1.92-2.84,2.7-3.67.12-.13.49-.57.66-.39.26.29-2.94,4.23-2.84,5.17.01.12.67.14.54,1.15ZM80.9,58.29c-.13.34-.2,1.16-.33,1.32-.1.12-1.16.4-1.39.42-1.01.08-.02-.69.23-1.13,1.08-1.87,2.22-4.39,4.04-5.61.53-.36,1.41-.57,1.28.34-.12.85-1.11.85-1.66,1.23-1.16.78-1.69,2.17-2.17,3.43ZM82.69,59.46c0-.39-.13-.68.28-.59l.47.58h-.75ZM87.96,58c-.09.63.36.75.38,1.26l-4.53.2c.24-.39.9-.33,1.21-.8.28-.42.53-1.81.83-2.47.26-.57.79-1.22,1.08-1.82.29-.07,2.07,1.19,2.12,1.49.15.81-1.04,1.65-1.11,2.15ZM91.75,58.08l-1.32.39c.23-.39.64-.64.57-1.17.31-.12.92.55.75.78Z"/>
    <path d="M79.43,147.55c1.09,1.19-.96,2.58-1.51,3.33-1.91,2.62-2.55,8.14-3.21,11.37l-.89,3.09v-1.18c-.3.31-.6.1-.38-.19.1-.13.82-.06.56-.98-.5-.17-.52.55-.57.59-.14.09-.58-.9-.75.19-.3.05-.2-.27-.18-.48.18-2.63,1.73-9.64,2.79-12,.48-1.06,2.85-5.14,4.14-3.74ZM74.76,157.51c-.26-.06-.5.11-.57.39h.57s0-.39,0-.39ZM74,160.84c-.27-.28-.81.74-.75.78.48.36.9-.63.75-.78ZM73,161.96l-.13,1.04.5.07.13-1.04-.5-.07Z"/>
    <path d="M73.44,165.35s-.4.07-.37-.09c.33-.37.13-.62-.31-.68-.48-.06-.08.43-.45.38v-.98c.38.24,1.75.77,1.13,1.37Z"/>
    <path d="M133.46,155.35h.38c.17.66-.47.29-.56.39-.34.36.38.41.39.49.02.49-.75.79,0,1.47-.26-.04-.86.34-.94-.11-.06-.32.7-3.59.85-4.2.05-.22-.01-.64.28-.59-.14,1.05.5,1.8-.38,2.55Z"/>
    <path d="M129.87,157.9c-.69.75-.06-1.02-.07-1.08-.02-.22-.41-.33-.3-.68.61.39.16-.12.56-.2.04.32-.06,1.83-.19,1.96Z"/>
    <path d="M128.55,165.35c-.09.2-.45-.53-.37-.78.36.1.42.43.37.78Z"/>
    <path d="M48.15,152.41c.23-.78-.25-1.85.56-2.35-.13.69.43,2.27-.56,2.35Z"/>
    <rect x="110.06" y="162.6" width=".18" height=".98"/>
    <path d="M79.86,171.43h-.38c-.06-.29.08-.41.28-.59l.09.59Z"/>
    <path class="cls-1" d="M128.17,131.82c-.32.3-.85-.26-.56-.59.18-.21.77.4.56.59Z"/>
    <path d="M81.93,158.68c-.5.49-.43-.83.19-.98-.04.18-.15.95-.19.98Z"/>
  </g>
  <g>
    <g>
      <g>
        <path d="M155.55,70.85c0-.74.4-1.7.16-2.42-.12-.37-.8-.46-.85-.81-.01-.09.19-1.17.35-1.89-.52-.84-1.09-1.65-1.7-2.44-.23-.16-.46-.49-.66-.83-.53-.64-1.08-1.27-1.64-1.88-.07-.07-.14-.13-.18-.2-.59-.64-1.18-1.26-1.77-1.86-.04,0-.08,0-.11-.02l-.04-.14c-1-1.02-1.99-2.01-2.91-2.96-.37-.38-.54-.81-.57-1.22-1.03-.28-2.09-.46-3.17-.57.24.35.41.69.27.97h-2.64c.29-.46.9-.59.95-1.07-.88-.04-1.78-.05-2.67-.03-.13.27-.49.61-.73.52-.08-.09.01-.31.18-.5-1.08.03-2.16.1-3.23.17-.68.54-1.41.84-2.23.53-.08-.07-.04-.21.05-.38-.82.05-1.63.1-2.41.13-.13.2-.26.35-.42.41-.1.04-1.21.37-1.3.38-.3.04-.65-.19-1.08-.13-.87.14-1.7.48-2.58.57.24-.66.34-1.19.32-1.61-.83.17-1.67.27-2.51.33-.13.31-.22.67-.27,1.08-1.06-.05-1.15-.37-.87-1.03-.67.02-1.33.02-2,.02-.36,0-.67-.08-.93-.23-.12.03-.25.06-.4.11-.55.17-1.45.85-1.78.9-.47.08-2.04-.2-2.8-.17-1.41.05-1.75.33-3.24.05-1.09-.2-1.65.66-2.64,1.09-1.35.59-2.9.98-4.31,1.4-.34.32-.36.95-.6,1.33-.58.92-2.14,1.82-1.45,2.96.77-.25,1.64-.04,2.15.91.58,1.1,1.29,2.02,2.09,2.81.05-.4.14-.72.28-.75.32-.07.4.24.46.5.04.2.19.77.29,1.15.83.65,1.74,1.19,2.7,1.65.17-.34.3-.71.33-1.14,2.54,1.62,5.3,2.82,8.21,3.53.01.02.02.04.02.08,1.55.32,3.08.64,4.52,1.04.18.05.35.12.49.21.83.19,1.65.37,2.43.43,1.71.15,3.44-.21,5.08-.2,2.92.01,8.02.4,10.72,1.43,1.14.43.45,1.52,1.47,2.01.91.43,1.52-.53,2.07-.41,1.67,1.09,3.16,2.48,5.08,3.07-.05.21-.14.52-.25.89.69.33,1.35.71,2.02,1.08.24-.29.52-.43.83-.27,1.02.49.72,1.2,2.52.75,1.8-.44.35-1.87.18-2.77-.31-1.68.41-2.51,1.32-3.71.17-.23.74-.83,1.35-1.52-.18-.95-.42-1.89-.71-2.81-.37.36-.71.88-1.21,1.48ZM108.98,61.96c-.09.13-.12.56-.42.26-.1-.11-.59-2.68-.52-2.99.04-.18.26-.53.39-.67.15-.16,2.57-1.69,2.75-1.75.61-.2,1.6-.1,2.28-.28-1.75,1.57-3.17,3.45-4.49,5.43ZM114.22,66.45c-.48.32-3.41-1.92-4.15-2.08-.15-.21,1.98-3.33,2.17-3.33,1.5,1.03-2.14,3.52.09,4.23,1.19.38,1.24-.88,1.67-1.62.84-1.47,3.51-5.31,4.74-6.25.26-.19.39-.37.76-.28-1.47,3.28-3.12,6.48-5.28,9.33ZM120.03,67.18c-.07.44-1.07,1.5-1.47,1.11-.13-.12.58-3.16,1.13-3.33.29.52,0,.99.04,1.43.02.26.35.5.31.79ZM122.9,67.81c-.14.3-.36,1.02-.4,1.06-.06.05-1.3.21-1.11-.27.25-.25,1.14-1.28,1.42-1.27.36,0,.2.26.1.49ZM124.03,69.47l1.14-1.47c.22-.1.79-2.11,1.13-1.67-.1,2.81,1.58,3.86-2.26,3.14ZM126.67,58.2c-1.02,1.6-2.7,4.17-3.88,5.58-.19.23-.29.48-.65.41l1.22-7.07c.12-.18,3.49-.49,4.06-.58.16.15-.61,1.44-.76,1.66ZM147.53,59.87c.77.61.42,1.73-.47,1.96l.47-1.96ZM131.96,56.14c.22.2-1.12,1.6-1.32,1.37-.16-.59.85-1.8,1.32-1.37ZM128.93,63.09c.39-.96,3.29-4.2,4.15-5.1.22-.23.4-.55.76-.48-1.11,2.44-2.9,4.34-4.43,6.47l-.85.78c.06-.53.18-1.19.37-1.67ZM132.24,68.3c-.59.52-1.07.14-.85,1.37-.47-.31-2.22.02-2.41-.24-.05-.07-.56-1.64-.52-1.73.08-.18,1.37-1.18,1.71-1.56.53-.59,2.44-3.45,2.74-3.63.44-.27,1.19.05,1.48-.13.25-.16.4-1.5.56-1.87.13-.32.83-1.38,1.07-1.63.58-.62,4.09-2.96,4.82-2.15l-7.18,9.9c-.56.48-.86,1.19-1.41,1.67ZM136.96,70.06c-.64-.45.11-.93.47-1.17l-.47,1.17ZM141,70.16c0,.26.12.46.2.69-.07.05-1.63-.24-1.71-.28-.33-.22.3-2.23.44-2.7.53-1.77,3.73-9.4,4.91-10.29.13-.1.84-.3.88-.26.02.02,0,.44.18.69.3.43,1.08.81.86,1.45-.09.26-1.13,1.88-1.33,1.97-.41.18-.35-.66-.53-.92-.03-.04-.77-.62-.82-.63-.72-.13-.43.91-.48,1.2-.2,1.01-.35,2.2-.58,3.14-.41,1.68-2.07,4.51-2.04,5.94ZM146.3,63.59c-.25,1.1-.93,2.33-1.69,3.14.13-1.17.83-2.4,1.69-3.14ZM151.06,72.37c-.1.56.13.94.09,1.3-.14,1.23-.52,2.63-1.83,1.69l.56-.68c-.6.16-.75-.07-.73-.79.03-.98,1.94-2.49,2.61-3.23,0,.61-.62,1.16-.72,1.71ZM152.32,65.8c-.15.99-1.14,1.22-1.59,1.7-1.49,1.59-3.21,3.87-3.48,6.09-.2.03-.38-.03-.57-.09-.17-.05-2.88-1.47-3.01-1.58-.22-.19-.23-.2,0-.39,2.65-2.64,4.33-5.89,5.86-9.31.03-.03.59.37.69.46.41.42.67,1.12,1.01,1.6.33.46,1.2.92,1.11,1.52ZM152.91,72.81c-.76,0-.55-.6-.37-1.18.48.15.38.75.37,1.18Z"/>
        <path d="M132.3,76.19c.3.45-.37,1.82-.53,2.31,2.65-2.81,3.72-.05,3.5,2.75-.17,2.09-1.98,7.81-3.15,9.67-.62.97-1.1,1.41-2.31,1.3-3.74-.33-3.05-5.84-2.52-8.47.37-1.84,1.11-3.34,1.74-5.06.49-1.35.32-3.51,2.26-3.13.13.03.97.57,1.01.63Z"/>
      </g>
      <path d="M47.73,70.33c.07.05.04.31.06.32.39.27.39-.37.67-.57.55-.39,1.78-.26,2.07.37.08.18.28,2.09.29,2.44.05,2.43-.35,5.76-.85,8.15-.31,1.45-.88,2.84-1.14,4.31-.73.65-1.87,1.24-2.82,1.18-2.81-.17-2.63-2.33-2.56-4.62.11-3.83,1.05-6.2,1.96-9.73.35-1.35-.25-2.39,1.72-2.11.28.04.39.11.62.25Z"/>
    </g>
    <g>
      <path d="M77.26,27.85c.28.18.75-.14.72.25h-1.13c.2-1.11.36-.28.42-.25Z"/>
      <path d="M79.11,27.12c-.12.72-1.16.1-.94,0h.94Z"/>
      <path d="M66.28,31.23c-.29.3-.6-.55-.57-.59.23-.2.74.4.57.59Z"/>
      <ellipse cx="14.28" cy="49.56" rx=".24" ry=".25"/>
      <path d="M111.95,33.79s-.3-.05-.36.02.24.49.17.57c-.34.37-.55-.34-.75-.39l-.38.59c-.39-1.02.25-1.9.85-.79.4-.54-.23-.94.85-.98-.18.18-.34.94-.38.98.26-.06.5.1.57.39h-.57s0-.39,0-.39Z"/>
      <path d="M133.66,9.28c-.01.32-1.02.68-1.13.58.18-.74.45-.63,1.13-.58Z"/>
      <path d="M132.15,9.47v.39c-.28.06-.39-.09-.56-.29l.56-.1Z"/>
      <path d="M69.11,11.24c.18.19-.33.78-.57.59-.04-.03.28-.89.57-.59Z"/>
    </g>
  </g>
</svg>