<?xml version="1.0" encoding="UTF-8"?>
<svg id="Layer_1" data-name="Layer 1" xmlns="http://www.w3.org/2000/svg" viewBox="0 0 168.34 283.31">
  <defs>
    <style>
      .cls-1 {
        stroke-width: 2.5px;
      }

      .cls-1, .cls-2 {
        stroke: #000;
        stroke-miterlimit: 10;
      }

      .cls-2 {
        fill: none;
        stroke-width: 3px;
      }
    </style>
  </defs>
  <g>
    <g>
      <path d="M71.76,134.33c-.37-.38-.5.74-.65,1.1.21.04.33-.06.49-.17.02-.32-.07-.65.16-.94Z"/>
      <path d="M113.24,96.52c-1.05,1.49-2.56,3.79-2.74,4.43-.13.44.58.19.81.25.15.14-.81,1.46.08,1.52.21-.49.7-.68.98-1.02.87-1.1,1.4-2.86,2.22-3.97.31-.42.67-.81,1.05-1.18-.23-.08-.46-.17-.7-.26-.57.12-1.13.19-1.7.23Z"/>
      <path d="M96.21,80.21c-.35.19-.94.82-1,.82-.15,0-.31-1.05-1.35-1.16-.2-.02-.94.42-1,.51-.1.18.16.72.15,1.06-.19,3.7-4.39,8.98-3.57,11.84.1.34.58.45.55.81-.03.29-.53,1.62-.89,2.55.11,0,.23,0,.34,0,.44,0,.79.14,1.05.37.24-.88.45-1.77.7-2.59.07-.08,1.11.36,1.37.3.93-.19,2.13-5.03,1.57-6.06-.06-.05-.73.74-.65.09.06-.54.7-1.99.95-2.57.7-1.64,1.82-4.14,3.4-4.95.46-.24,1.29-.17,1.38-.79.25-1.65-2.28-.63-3.01-.23Z"/>
      <path d="M168.14,69.64c-.71-3.11-3.43-7.29-6.98-6.4.65-.38.21-1.64.82-1.18-.05-.7.59-1.26.77-1.83.79-2.45-.42-4.72-2.25-6.2-.27-.22-1.6-.94-1.62-1.03-.19-.65.39-.27.5-.53.2-.47-.06-1.05.02-1.46.08-.46.54-.67.62-.89.05-.12-.79-.78-.16-1.43l.16.34c.42-.13.33-.64.32-1.02-1.04.38.18-.56.26-.83,1.04-3.77.81-11.55-.57-15.19-.82-2.16-2.81-4.08-4.91-4.82.71-1.29,2.97-2.94,1.64-4.49-1.84-2.14-8.47-1.02-10.95-.42.28-2.27,2.54-4.62,2.62-6.87.05-1.23-1.51-1.27-2.09-.54-.51.65-.65,3.31-1.52,4.02-.48-1.96-1.24-4.81-3.37-5.4-1.17-.32-1.91-.14-3.07-.89-.23-.15-.3-.49-.53-.64-.95-.62-2.01-.92-3.1-1.19-1.93-.49-3.74-.79-5.68-1.41-.52-.17-1.8-.36-2.23-.56-.31-.14-1.15-1.12-1.58-1.41-1.18-.77-3.01-1.04-3.97-1.81-.28-.23-.39-.77-.77-1.07-2.11-1.72-6.28-.1-8.34,1.13-.43.26-2.15,1.67-2.28,1.7-.16.03-1.78-.89-2.44-.97-.79-.09-1.32.15-1.94.15-1.04,0-2.08-.49-3.43-.34-1.5.17-3.02,1.13-4.4,1.69-.5-.04-1.28-.89-1.85-.99-.28-.05-.65.14-.67.12-.05-.04-.04-.37-.28-.46-.7-.26-2.33.2-2.99.59-.46.28-1.02,1.09-1.32,1.18-.58.17-1.49-.82-2.78-.18-.56.28-.81,1.43-1.23,1.44-.36,0-.47-.64-.73-.95-.14-.17-1.55-1.46-1.65-1.51-.78-.39-1.35-.1-2.02-.11-.41,0-.76-.23-1.31-.15-.45.07-1.87,1.26-2.05,1.64-.16.33-.16.71-.25,1.07-.04.18-.01.66-.32.51-.94-.46.28-3.05.4-3.82.16-1.07.02-1.8-1.09-2.07-.56-.13-1.27.17-1.59-.55-.3-.68-.13-.85-.74-1.6-2.16-2.64-7.15-2.42-9.77-.63-.61.42-2.74,2.68-2.93,2.73-.29.08-2.44-1.11-3.05-1.01-.05,0-.65,1.05-.76.4-.16-.98-.35-.06-.39-.06-.33,0-.72-.2-1.3-.14-1.48.17-2.97.86-4.37,1.73-.03.45-.21.88-.53,1.19l.06.02c-.03.09-.11.19-.22.3-.07.58-.38,1.12-.93,1.37,0,0,0,0,0,0-.05.19-.36.22-.48.4-.97,1.33-2.66,1.73-3.75,3.11-.08.29-.23.57-.44.78-.1.31-.19.68-.23.71-.26.17-1.01.13-1.01-.28-.12,0-.23-.02-.33-.05-.02,0-.04,0-.06-.02-.25-.08-.46-.21-.62-.37-.94.52-3.31-.26-4.4-.28-1.79-.04-3.63.22-5.12,1.31-.28.21-.55.67-.82.9-.58.49-1.36.78-1.83,1.61.77.02,1.43-1.08,2.04-1.61.12-.03.11.18.08.25-.11.25-1.56,1.77-1.81,1.86-.76.3-.76.26-1.58.73-2.6,1.49-7.56,4.73-8.18,7.95-.1.52.07,1.07-.13,1.56-.52,1.35-3.24,3.24-4.23,4.6-.66.91-1.01,2.66-1.49,3.2-.28.31-1.2.55-1.65.83-.63.38-1.2.86-1.85,1.22-.08.29.5.05.32.42-.14.31-.94.54-1.22.77-1.43,1.12-.25,1.09-.25,1.27-.46.89-1.25.9-1.66,1.83-.08.18-.43,1.3-.43,1.42,0,.31.37.39.3.73-.12.02-.42-.05-.47,0-.05.06-.18,1.42-.19,1.61,0,.76.28,1.61.33,2.37.1,1.55-.1,3.52.62,4.95.4.78,1.14.69.7,1.85-.07.17-.08.49-.34.23-.31-.31.14-1.64-.49-1.52.18,2.91,2,5.16,4.98,4.91.24-.02,1.15-.21,1.3-.32.28-.19-.18-.84.42-.7l-.67,3.13c0,.18.43-.02.34.26-.66.04-.45.82-.61,1.31-.19.58-1.01,1.6-1,.49,0-.61.28-1.01-.17-1.72-.13-.2-1.87-1.45-2.18-1.63-1.51-.87-3.71-1.42-5.3-.6l-2.42,4.52c-.26,3.25-1.78,6.19-2.77,9.16C1.01,74.72-.18,84.19.02,88.07c.18,3.54,1.27,6.93,1.92,10.38.42,2.26,0,4.32,2.02,5.87,1.6,1.24,3.55,1.85,5.02.16,1.48-1.69,2.47-4.21,3.99-5.95l.62-.04c.08.07-.25.27-.27.42-.02.13.43,2.27.5,2.64.35,1.69,1.8,4.91,1.88,6.2.02.28-.03.66-.09,1.05.65.31.96,1.03.92,1.72.92.35,1.22,1.49.9,2.35.07-.01.17.04.24.1.12.1,1.15,2.43,1.34,2.85.28.63,1.56,3.38,1.61,3.76.02.13.03.29.04.46,1.18,2.11,2.37,4.23,3.57,6.32.02.02.04.05.05.07,1.44,1.99,2.94,4.15,4.16,6.43.1.07.19.13.24.21.15.25.64,1.31.71,1.61.32.47.64.93.97,1.39.22,0,.22.14.24.33.64.88,1.3,1.75,1.97,2.6.01,0,.03-.01.04-.01,1.21,1.3,2.21,2.93,3.68,3.9.04.06-.32.35-.61.6.8.72,1.48,1.54,2.06,2.42-.04-.43-.05-.75.02-.82.51-.13.49.21.72.43,2.06,1.94,4.15,3.9,6.48,5.57.91.65,2.07,1.29,3.06,1.82.03.1.04.24.04.42.75.55,1.52,1.09,2.29,1.62.08-.22.18-.37.37-.35.16.02,2.41,1.38,2.89,1.59,3.43,1.56,7.11,2.44,10.66,3.65.15.13.24.23.3.32.37.04.74.1,1.1.18.07-.03.16-.03.28.01.04.02.07.05.1.08.28.07.56.15.83.24,4.54-.25,9.2,1.14,13.76,2.04.91-.03,2.12-.13,2.8,0,.07.01.13.05.2.1.2-.09.43-.15.7-.16,1.32-.03,2.63-.23,3.94-.34.12-.04.32-.08.64-.11,0,0,0,.03,0,.06.47-.03.94-.04,1.42-.02.01-.04.02-.09.04-.13,1.87-.25,3.74-.47,5.6-.79.25-.22.57-.37.96-.42,1.51-.2,2.94-.62,4.36-1.02.17-.08.4-.14.7-.19.37-.1.74-.19,1.1-.27.58-.76,5.05-2.54,5.84-3.31.13.09.18.17.18.25.73-.41,1.46-.83,2.17-1.25.84-1.48,2.19-1.94,3.53-3.07,2-1.68,3.89-3.57,5.88-5.25.03.12.05.24.06.36,1.03-1.49,2.02-2.99,3.57-4.02.15-.1.29-.16.43-.21,3.96-4.66,7.07-10.13,9.83-15.62,3.89-7.76,7.07-15.89,9.07-24.41.57-.14.49.27.81.6,1.23,1.26,1.98,1.69,2.45,3.56.28,1.11-.08,1.99,1.04,2.65.61.37,4.14.83,4.93.82.39,0,2.39-.31,2.69-.44.15-.07.38-.35.49-.5.94-1.23,1.71-2.86,2.67-4.1.79-1.01.84-.49,1.09-2.17.27-1.78.47-1.51,1.13-3.07,1.2-2.84,3.48-6.57,3.46-9.63,0-1.09-.3-2.04-.34-3.05-.23-5.59,5.37-12.19,4.05-17.92ZM159.85,46.3c.23-.05.43.09.49.34h-.49s0-.34,0-.34ZM159.59,63.57c-.65.59-1.55.78-2.36,1.03-.12-.7.18-1.03.65-1.44-1.01-.66.01-.69.12-.79.42-.39-.08-1.15-.12-1.42-.01-.08.3,0,.34-.32.19-1.51-.29-3.04.1-4.63.1-.41.36-.81.46-1.23,3.74,2.31,2.07,5.5.81,8.8ZM153,38.43c.22-.46.46-.05.73.14.14.1.78.56.81.6.43.7-1.01,2.56-1.23,3.31-.01.05.89.38-.08.59-.71.15.02-.46-.74-.51v-.16c.18-.02.35-.05.43-.25.23-.58.02-2.89.08-3.72ZM156.4,45.72c.35,2.57.16,4.11-1.25,6.29-.28.43-1.11,1.29-1.51.6-.21-.36-.6-3.15-.64-3.72-.03-.4.02-.99,0-1.48,0-.37.42-.53-.18-.69.79-.33.46-.68.62-1.05.3-.72.77-1.9,1.18-2.42,0-.23-.02-.46.08-.68l.74-1.53c.13,1.54.75,3.11.96,4.68ZM156.29,41.12c0-.12.09-.22.21-.22s.21.1.21.22-.09.22-.21.22-.21-.1-.21-.22ZM154.04,56.47c.21.13.45.14.68.23.05.02.07.19.19.25.7.35,1.42.05.88,1.5-.05.14-.86,1.4-.94,1.41-.41.07-1.63-1.59-1.65-1.96-.02-.44.55-.56.68-.77.11-.18-.16-.51.16-.66ZM153.31,44.6c.05-.25.26-.39.49-.34v.34s-.49,0-.49,0ZM153.65,60.78c0,.4-1.41,1.49-1.72,1.44-.44-.07.05-.7.07-.94.05-.53-.01-1.07,0-1.6.28-.28,1.64.79,1.64,1.1ZM152.27,53.69c-.08.16-.58.59-.75.4-.09-.09,0-2.28.25-2.54.13.74.9,1.4.51,2.14ZM151.67,38.5c-.4-.26-.3-1.11-.32-1.52.54.25.27,1.04.32,1.52ZM151.59,57.99c.47,0,.06,1.41.08,1.69-.85.14-.26-1.69-.08-1.69ZM152.98,63.75l-.17-.51c.68-.08,1.21-.59,1.72-1.02.15-.13.2-.43.27-.47.2-.12,1.1-.07,1.44-.21.04.29-.02.57-.07.85-.06.32-.85,2.72-.95,2.83-.22.24-2.63,1.01-3.23,1.31-.23.12-1.21.88-1.31.76.26-1.9-.24-3.78,2.29-3.56ZM156.17,55.11c-.05,0-.71-.65-.57-.84.21-.03.86-.29.98-.17.16.16-.19,1.02-.41,1.01ZM156.58,41.55c.1.01.29-.03.32,0,.03.02.2.64.17.68-.2.2-.65-.34-.49-.68ZM157.07,42.91c.15.17.07,1.46-.33,1.02-.04-.04.09-1,.33-1.02ZM157.31,45.31c.11,0,.21.1.21.22s-.09.22-.21.22-.21-.1-.21-.22.09-.22.21-.22ZM158.81,42.35s-.24.04-.27.16c-.17.74,0,2.71-1.15,2.42-.19-.46.31-.26.33-.42.06-.42-.27-.19-.32-.26-.27-.33.31-.35.31-.41.01-.82-.7-2.64-.81-3.57l.91-.24c.43-.79-.52-.94-.58-1.03-.17-.26,1.7-3.01,1.96-.42.06.63-.15,3.25-.38,3.77ZM157.01,29.92c1.39,1.54,1.93,3.83,2.18,5.87-.79-.24-1.77-.34-2.44.27-.27.24-.58,1.17-.91,1.09-.39-.73-.67-1.83-1.23-2.46-.35-.39-1.52-.82-1.72-1.26-.35-.75,0-3.63.43-4.31.87-1.36,2.91-.06,3.68.8ZM144.83,28.78c.08-.73.45-1.17.59-1.76.24-.99.26-2.58,1.1-3.26,1-.81,5.98-1.01,7.28-.77,1.54.29,1.29.83.55,1.94-.13.19-.52.8-.67.85-.45.15-1.22-.56-1.51-.3-.11.1-.65,2.32-.85,2.76-.11.23-.84,1.29-.97,1.37-.38.24-1.46.18-1.89.59-.34.32-.18.87-.41,1.27-.48.8-2.12.62-2.9.58-.41-.97-.45-2.21-.33-3.26ZM149.22,36.3c-.87,1.11-.97-.74-1.31-1.1-.26-.27-.89-.32-1.14-.68.76-.08,1.24-.73,1.96-.93l-.16,2.88.65-.17ZM145.71,35.96c.09.02.55.33.55.42.02.2-1.76,3.1-2.04,3.46-.55.72-1.67,1.87-2.35,2.47-.17.15-1.3,1.11-1.38,1.11-.24,0-.82-.17-.99-.35-.71-.78-.82-4.52-.29-5.37.55-.88.4,1.27.85,1.57.82.54,1.31-1.53,1.29-2.05-.02-.48-.56-.73-.47-1.26,1.39.21,3.53-.28,4.82,0ZM121.19,39.86c-.39,0-2.43-.26-1.87-.85.22-.24,1.91.11,2.34,0,.13-.03.11-.34.2-.34.22,0,.52.21.95.17.56-.05,1.77-.9,2.2-.64.06.04.8,1.21.68,1.32-.68-.32-1.14.66-1.23.68-.16.04-.41-.19-.4-.25,0-.15.64-.32.65-.59-1.08.04-2.48.51-3.52.51ZM104.77,31.21c.56-.79,1.34-1.39,1.96-2.12.72-.85,3.49-4.89,4.06-5.15.32-.15.97-.17,1.34-.36l-.32-.33.65-.17c-.08,1,.08,2.02-.32,2.97-1.68,1.3-3.77,4.29-5.73,4.9-.53.17-1.07.31-1.63.25ZM106.08,32.06h-.49c.05-.25.26-.39.49-.34v.34ZM105.8,22.18c.09.14.76.45.76.64,0,.46-2.44,2.3-3.1,2.12l.97-5.35c.52-.62,1.03-1.18,1.4-.07.14.44-.65,1.76-.03,2.65ZM103.79,17.66c-.24-.05-.94-1.05-.81-1.19.23-.24,1.07.78.81,1.19ZM104.62,27.92c.41-.41.73-.82.92-1.11.2-.31.46-.59.87-.51.04.31-.17.53-.33.76-.48.69-1.71,2.05-2.31,2.68-.42.44-.64.29-.61-.32.02-.39,1.13-1.18,1.47-1.51ZM107.64,19.03c.41-1.24,2.69-.84,2.86.08.27,1.47-.84,2.41-2.12,2.62.03-.9-1-1.91-.74-2.7ZM113.43,28c-.22.45-.01.93-.2,1.39-.5,1.18-3.48,2.47-4.7,2.67.55-.83,1.93-1.26,2.54-1.86.21-.2.98-1.02,1.13-1.2.31-.36.31-1.14,1.23-1.01ZM107.56,33.85c.06-.05,1.33-.54,1.41-.55.76-.1,1.83-.25,2.62-.78.17-.11.18-.53.67-.76.39-.18.78-.1,1.18-.04-1.69,1.53-3.58,3.01-3.6,5.59-1.39.35-3.59-2.48-2.28-3.47ZM111.5,37.1c.03-.2.56-1.52.68-1.76.11-.21.71-.75.84-1.07.37.6,1.29.49,1.71.77.09.06,1,1.24.98,1.33-.07.41-2.11,1.03-2.54,1.11-.5.08-1.78.34-1.67-.37ZM115.52,22.99c.03-.06-.07-.3.05-.48.43-.66.92.05.32.57.59.03,1.95-.25,1.55.68-.3.69-.87.3-1.06.42-.1.06-.09.33-.29.42-.13.06-1.12.22-1.18.17.24-.48.19-1.06.34-1.56.04-.13.22-.12.27-.22ZM114.9,10.7c-.32.23-.97-.4-.81-.84.75.45.38-.18.7-.47.08-.08.74-.25.77-.21-.07.23-.6,1.47-.66,1.52ZM121.63,24.63c.28-.22,1.61-.29,1.9.02.14.14.56,1.47.53,1.73-.03.19-.76,1.46-.91,1.61-.2.2-2.62,1.06-2.76,1.03-.28-.06-.28-1.35-.21-1.57.11-.35.86-1.19,1.08-1.59.22-.4.33-1.18.38-1.22ZM121.44,14.52c.03-.23.09-.5.32-.25.11.12.85,2.87.83,3.14-.02.27-.68,1.27-.75,1.27-.28,0-.36-.18-.41-.43-.12-.73-.09-2.98,0-3.73ZM121.76,33.32c-.83.17-1.47,1.02-2.17,1.31-.77.33-.25-1.07-.07-1.18.21-.14,1.02-.05,1.39-.26.39-.22,1.34-1.17,1.69-1.55.58-.64,1-1.82,1.96-1.78-.36,1.71-1.62,2.42-2.79,3.46ZM124.04,36.79c-.16.27-2.31.92-2.76.7.27-.55,1.02-.86,1.39-1.18.2-.17.29-.61.51-.67.46-.14,1.11.75.86,1.16ZM120.79,30.88c.06.05-.62.86-.82.67.11-.41.37-.71.82-.67ZM116.58,18.97c.21-.48.16-1.1.39-1.63.21-.5.9-1.3,1.29-1.71.25,1.61.96,2.94,1.88,4.23-1.19-.32-2.66.37-3.68.35-1.45-.02-.13-.67.12-1.24ZM115.56,25.45v.34h-.49v-.34h.49ZM115.49,26.48c.08-.11-.15-.47-.1-.52.06-.05,1.23-.17,1.47-.34l-.19.56-1.93,2.66c-.14-.51-.32-1.39-.09-1.87.16-.33.7-.31.83-.5ZM113.56,38.89c.35-.06.75,0,1.06-.08.34-.09,2.07-.99,2.24-.81.44.46-.88.89-1.11.97-.92.33-1.86.51-2.81.22-.03-.24.45-.26.62-.29ZM115.92,33.87c.07-.41.62-.71.85-.98.29-.35.31-1.13,1.08-1,.38.39-.55,3.73-.73,3.73-.31-.29-1.26-1.34-1.19-1.74ZM117.75,28.66c-.03.06-.67,1.06-.72,1.12-.1.12-1,.76-1.07.76-.25,0-.21-.19-.08-.42.21-.36.57-.8.82-1.19.09-.13.03-.37.09-.43.32-.34,1.08-.17.72-1.01l.32.17.33-.51c-.07.43-.24,1.14-.42,1.51ZM118.01,21.47c0-.26,1.36-.48,1.63-.42l-.49,1.19c-.54.1-.79-.44-1.14-.76ZM119.32,36.64c.23.23-.3.62-.65.34,0-.29.53-.45.65-.34ZM125.37,35.62c-.26-.47.29-1.46.28-1.61-.01-.18-.49-.32-.45-.83.02-.28.41-.66.53-.99.33-.88.63-1.77.97-2.64.51.16,2.61-.51,2.75.07.1.41-.64,1.08-.72,1.43-.07.3.15.62.05.92-.1.3-.47.19-.6.32-.05.05-.51.65-.7.87-.7.81-1.21,1.85-2.11,2.47ZM126.23,37.03c.31-.37,1.02-.84,1.43-1.32.27-.32.85-1.03.92-1.39.02-.12-.13-.37-.11-.39.04-.04.32.01.47-.11.37-.29.83-.86.85-1.35,0-.13-.26-1.19.15-.84.26.21-.03.73.49.6.02-.47.15-.95.49-1.27l-.32-.25c.62-.09.57-1.06,1.24-.52.25.2,1.1,2.61,1.56,3.29.5.73,1.06.32.13,1.54-1.3,1.73-3.46,3.52-5.66,3.64-.69.04-2.23-.93-1.65-1.64ZM135.77,35.3l2.34.67c-.41,1.28-.7.68-1.68.89-.19.04-1.37.43-1.49.5-.22.13-.25.48-.37.49-.03,0-.53-.16-.55-.18-.14-.18,1.55-2.04,1.74-2.36ZM137.56,34.25c-2.27-.29-1.49-1.12-2.25-2.75-.19-.4-.57-.81-.79-1.21l-1.3-1.44c2.27.05,4.55-.1,6.79-.48.44.06-.04,1.11-.08,1.44-.03.23.01,1.63-.04,1.72-.04.07-.34.1-.51.41-.67,1.28.29,2.58-1.82,2.31ZM137.79,26.39c.6-.18,1.41-.31,1.94-.53.26-.1,1.53-1.04,1.65-.92-.47,1.54-2.04,1.87-3.43,1.96-.24.02-.49.17-.65-.18-.15-.33.32-.27.49-.33ZM142.52,26.81l-.17-.51c.46-.02.66.33.17.51ZM142.2,30.12c-.08,1.49.44,2.99,1.3,4.15l-3.43.17,2.05-6.44c.68-.16.1,1.74.08,2.12ZM141.71,22.4c-.1-.07-.19-1.43-.49-1.69.95-.36,1.14,2.18.49,1.69ZM141.18,18.38c.03-.16-.03-1.34.36-.9.05.06.3,1.36.34,1.6-1.36.53-.87.08-.7-.7ZM138.61,22.84c1.11-.9,1.81.21,1.45.74-.08.11-2.24.63-2.6.69l1.15-1.43ZM138.25,20.69l-1.12.87.49-2.03c.28.13.79.89.63,1.16ZM137.29,13.59c-.8.39-1.24-.3-1.47-1.01l1.47,1.01ZM135.66,19.61c.02-.44.11-1.56.49-1.78l-.16,2.2c-.42.06-.34-.07-.33-.42ZM135.66,27.06c.01.42-1.95.21-2.29.25-.47-1.51,2.28-.59,2.29-.25ZM133.53,24.77c.1-.39.51-.35.82-.34-.1.39-.51.35-.82.34ZM133.78,17.66c-.48.04.13-1.54.74-1.18.05.04-.49,1.16-.74,1.18ZM134.1,14.1c-.47.11-.6-1.4-.9-1.69.43-.34,1.89,1.46.9,1.69ZM132.55,19.01c-.12.84-.61,1.58-.9,2.38-.08.21-.06.65-.08.68-.26.34-.28-.13-.34-.24-.7-1.36.39-2.05,1.32-2.81ZM131,13.59c1.02.25-.1,3.27-1.22,3.05-.41-.65.59-3.2,1.22-3.05ZM129.94,12.07l-1.3,1.56-.49.3c-.18-1.06.66-2.41,1.79-1.86ZM127.82,16.3c.51.21.29.92.32,1.36-.85.2-.44-.74-.32-1.36ZM126.67,19.52c.55.12.56.65,1.19.89.31.12.9.1.94.13.09.08-.04,2.03,0,2.45.06.59.44,1.78.75,2.27.22.35,1.66,1.48.48,1.71-.31.06-2.69.06-2.92-.02-.55-.19-.52-2.29-.33-2.86.08-.22.42-.39.52-.8.3-1.32-.34-2.54-.62-3.78ZM125.19,10.62c1.12-.42,1.29.71,1.32,1.62-.8.09-1.85-.77-1.32-1.62ZM125.53,13.59c.04,1.08.02,2.07-.17,3.13-.03.17.12.58-.24.43-1.03-.44.07-2.67-.08-3.56h.49ZM124.06,8.51s.63.14.65.17c.03.03-.01.23,0,.34h-.65s0-.51,0-.51ZM125.53,21.73c.04,2.25-.5,2.5-1.96.93l1.96-.93ZM123.49,12.91l.08.68h-.16c-.05-.36-.27-.43.08-.68ZM123.24,9.19c0,.63-.4.88-.98.85.38-.49.26-1.2.98-.85ZM121.15,8.04c.13-.14.58-.23.78-.38.2.28-.67,1.95-1.06,1.86-.44-.09.17-1.36.28-1.48ZM121.11,21.73c.09.78-.49,1.07-1.14,1.18.67-.55.18-1.42,1.14-1.18ZM120.3,12.92c.05.05-.46,1.08-.45,1.31l-.2,1.57c-.2-1.01-.37-1.67.23-2.56.07-.1.17-.6.42-.32ZM119.48,6.64c.14.16-.79,2.45-.96,2.81-.09.18.08.32-.34.24-.06-1.33-.55-3.18,1.31-3.05ZM111.88,7.66c1.36-1.02,2.28-1.34,3.74-1.73.19-.05.43-.83.88-.6.04.02.04.29.12.3.27.04.65-.33,1.13-.36.3-.02,1.12-.03,1.23.35-.83.54-2.02-.26-2.61.51.09.05,1.42-.37.98.17-.03.03-.59.12-.8.27-.38.28-.61.72-1.04.95-1.17.62-3.13.22-4.36.98-.05-.33.51-.68.74-.85ZM112.87,11.9c1.06.03.62,1.88.2,2.33-1.13,1.21-1.78-2.37-.2-2.33ZM112.16,9.91l1.03-.66.26.43-1.03.66-.26-.43ZM111.58,15.43c.49.26,1.69.28,2.23.16.51-.12.69-.74,1.26-.64-.23.52-.4,1.32-.64,1.79-.29.55-.79.66-1,1-.17.27-.13.84-.41.94-.54.18-3.15-2.57-3.17-3.14-.02-.5.46-.63.5-1.08.26-.19.95.84,1.24.99ZM110.33,9.36c.23.23-.07,2.83-.21,3.26-.12.37-1.29,1.93-1.67,1.83-.55-.15.27-1.63.36-2,.28-1.19.04-2.56,1.52-3.09ZM106.41,7.32c1.04-.43,3.39.53,1.88,1.69-.08,0-.18.02-.23,0-.01,0,0-.25-.12-.33-.54-.32-1.61-.43-1.52-1.35ZM106,9.37c.98.46,1.01,1.2.74,2.19-.11.11-1.09-.86-1.12-.96-.12-.42.06-.95.38-1.23ZM104.69,11.9c.41-.1,1.3,1.55,1.06,2.03-.91-.81-1.17,1.4-1.31,1.53-.2.18-.89-.43-.96-.62-.18-.54.86-2.85,1.21-2.94ZM103.79,10.04l-.98,1.18c.09-.49.33-1.31.98-1.18ZM100.05,10.14c.12-.41,1.72-.85,2.11-1.13.1.11-1.03,1.64-1.18,1.92-.11.2-.11.6-.13.62-.27.3-.87-1.18-.8-1.41ZM100.34,17.89c.13-.19.2-1.16.67-.74.1.09-.31,2.3-1.07,2.17-.81-.14.27-1.25.39-1.44ZM100.69,19.86h-.65s0-.34,0-.34c.04-.04.62.14.65.17.02.02,0,.11,0,.17ZM98.89,11.39c-.03.27.65,1.89.08,1.86-.28-.02-1.37-1.87-.08-1.86ZM99.11,22.74c.22-.53.09-1.72,1.08-1.87-.07-.29-.67-.11-.09-.51.67-.46,1.5.66,2.38.35.17.16-1.12,4.41-1.34,4.54-.42.25-2.92-.23-3.16-.64-.22-.37.96-1.44,1.13-1.86ZM101.67,30.37s.6.22.81,0c-.03.53-.42,1.12-.98,1.02.02-.18.13-.98.16-1.02ZM100.85,28.67c.19-.18.57-1.41.98-1.01.21.2-.6,1.19-.98,1.01ZM98.24,26.98c.08-.33.36-.38.65-.34.17.08-.44.4-.65.34ZM98,27.15c.25.64.49.04.73-.08.49-.22,1.63-.22,1.13-.94.39-.07.38.07.32.41-.13.77-1.88,3.23-2.68,3.15-.46-.04-2.24-2.25-2.22-2.62,0-.1,1.34-1.24,1.43-1.26.27-.07.97.16,1.15.36.3.33.05.77.14.98ZM100.52,29.18v.51h-.33v-.51h.33ZM99.71,30.37c-.1.72-.5.69-.65,0h.65ZM95.62,16.47c2.36.29.9,1.58.98,1.69.02.03.26-.04.33.08-.35.86-.42.24-.83.01-.21-.12-.61-.08-.74-.26-.24-.31.33-1.1.26-1.54ZM96.11,11.9c.18.34-.46,1.06-.65.85-.16-.17.42-.77.65-.85ZM96.44,23.25c-.88-.21-.7-.94-.08-1.35l.08,1.35ZM95.45,20.12c-.1.15-.34.36-.49.25-.03-.02-.19-.7-.16-.85l.65.59ZM95.11,24.39c.11.46-.42.95-.71,1.23-.76-.7-.56-1.77-.73-2.71.17-.19,1.42,1.36,1.45,1.47ZM93.66,10.37v-.34c.23-.05.43.09.49.34h-.49ZM93.83,29.01c.05-.04-.28-.93.57-1.02.24.32-.66.57-.41.85.03.03.26-.15.48-.08.06.02.9.59.94.64.21.24.22.92.87,1.06-.16.21-.33.33-.56.44-.37.16-3.33,1.01-3.61,1.01h-2.86c-.1-.46.14-.29.33-.42,1.06-.73,2.11-1.19,3.13-1.84.3-.19.44-.54.5-.58.2-.12.56,0,.62-.04ZM96.77,14.44c.16-.01.3-.02.45.05.55.25.76,1.73-.13,1.81l.16-.68c-.25.12-1.02.17-1.14-.17.42.08.31-.46.48-.61.12-.1.43.16.5.1.36-.33-.42-.28-.32-.51ZM94.54,7.84c.33.02,2.4.71,2.07,1.17-.04.05-1.04.44-1.16.43-.68-.06-1.72-1.13-2.6-1.02.44-.43,1.09-.63,1.69-.58ZM91.7,27.49c.25-.98.52-1.85.49-2.88.25-.07.1.2.22.28.12.08.31.06.37.12,1.11,1.17.19,2.16-1.08,2.49ZM92.68,12.75c.17.16-.35,1.67-.98,1.36-.47-.69.56-1.77.98-1.36ZM90.88,10.54c.35-.25,1.06.55.82.84-.03.03-.66.11-.82.17.2-.26-.04-.99,0-1.01ZM90.39,22.4h.33v.51h-.33v-.51ZM89.41,10.37c.02.28.04.73-.25.85-.73.3-.39-.92.25-.85ZM88.1,14.44h.49c.09.09-.04,1.46-.24,1.69-.44-.43-.19-1.15-.25-1.69ZM86.19,21.76c.23.02.59.33.93.39,1.3.22,2.37-.06,2.97,1.49.07.18.19,1.03.12,1.12-.02.03-.41.05-.65.26-.47.41-1.09,1.52-1.17,1.59-.12.1-.46-.01-.63.11-.17.12-.1.48-.19.56-.08.08-.47.04-.71.19-.36.22-1,1.12-1.29.69-.13-.19-.34-1.46-.39-1.8-.06-.49-.17-1.76-.14-2.22.05-.62.59-1.51.28-2.25.37.25.66-.15.87-.14ZM86.3,29.18c-.28-.03-.44-.5-.32-.67.03-.04.86-.47.97-.09-.11.26-.53.18-.62.29-.08.1-.02.33-.03.47ZM85.65,11.05v.68s-.65-.59-.65-.59l.65-.08ZM83.12,16.31c-.13.19-.93.36-1.03.54-.1.18,0,.53-.12.81-.21.49-2.52,1.91-2.87,1.63l-.81-3.15c.8.11,1.25-.68,1.88-1.02.36-.2,2.5-1.16,2.7-1.01.15.55.59,1.7.26,2.21ZM83.85,20.03c.2.21-.27.67-.65.34-.11-.19.59-.4.65-.34ZM79.93,24.44c.1.6-.55.51-.32,1.18l.65-.42c-.39.63-.71.47-1.3.59-.19-.85-.05-1.56.98-1.35ZM79.28,22.82c-.15-.71,3.3-.88,3.59-.59.3.3-.16.3-.24.35-.35.24-.87.7-1.22.76-.3.05-2.08-.29-2.13-.52ZM83.7,27.49c.1,0,.23-.04.31.02.02.02,0,.21.07.26.17.11.41.03.44.06.03.03-.19.37-.17.58.03.26.33.44.31.66-.03.24-1.1,1.53-1.36,1.47-.76-.19.04-2.58.41-3.05ZM84.84,30.37c-.05.25-.26.39-.49.34v-.34s.49,0,.49,0ZM84.83,9.61c-1.42,1.05-2.61.55-4.17.58-.49.01-.9.18-1.38.18,1.14-2.62,3.95-3.56,5.55-.76ZM78.32,12.17c.57-.83,3.26-1.23,4.12-.75.43.24.36,1.36.07,1.62-.26.24-1.2.16-1.6.29-.31.1-1.9,1.11-2.27,1.37-.37.26-.23.69-.99.59-.24-.3.4-2.72.67-3.12ZM78.37,28.67c1.02-.67,2.16-1.22,3.12-2.02.18-.15.89-1.35,1.22-1.02.14.14-.91,2.3-1.03,2.74-.27,1.03-.45,2,.24,2.91.38.5,1.09.44.96,1.13-1-.06-3.99,1.24-4.74.76-.16-.1-.79-1.63-.81-1.88-.07-.69.47-2.23,1.05-2.62ZM76.83,22.74v-.34s.49,0,.49,0c-.05.25-.26.39-.49.34ZM75.68,19.01c.04.06-.03.37,0,.51l.49-.51c-.08.35.24.57.32.78.12.33-.64.22-.31.58.05.05,1.18-.28,1.31.34-.4-.04-1.21.44-1.53.19-.21-.16-.42-1.07-.49-1.17-.07-.11-.35-.13-.44-.29-.02-.03.56-.55.65-.42ZM75.6,31.55c.32-.08.36.4.48.61.09.16.43.18.25.75-.13.14-1.26-.39-1.31-.6-.04-.18.48-.74.57-.76ZM74.21,30.28c-.08-.35.66-.75.82-.59.16.17-.64,1.39-.82.59ZM75.11,25.45c-.34.94-.85.47-.89.52.41,1.07-.17.53-.33.68-.06.06.4.8-.08,1.02-.04.02-.19-.67-.46-.79-.41-.18-.98.08-1.1-.65-.05-.32.63-.28.65-.25.1.17-.2.64.33.5.01-.43-.13-.64.32-.34-.14-.92,2.02-1.96,1.56-.68ZM42.18,25.62c.18,0,1.1.12,1.14.17.54.53-1.18.18-1.14-.17ZM42.77,31.14c.04-.19.21-.91.56-.77.39,1.38-.95,2.78-.56.77ZM33.52,19.86l-.16,2.37c-.62-.02-1.22,0-1.84.04-.12,0-.39.33-.29-.13.13-.58,1.77-1.88,2.29-2.29ZM33.03,18.84c.05-.32.3-1.02.65-.68.15.14-.35.79-.65.68ZM33.03,23.42l-1.1.8c-.64.18-2.78,1.45-2.24-.12.41-1.19,2.4-.93,3.34-.68ZM30.3,28.64c-1.08.16-.17-.43-.04-.6.15-.21.31-.7.49-.8.27-.16.69-.04,1.03-.12.15-.04.47-.46.61-.3.43.48-1.72,1.78-2.08,1.83ZM31.38,29.59c.3-.14.81-.71.93-.73.21-.04.57.34.54.56-.01.08-.82.99-.91,1.28-.51-.07-.75-.17-1.21.11l-1.3-.52c0-.26,1.66-.56,1.95-.69ZM30.42,32.06c-.52.27-.74.9-1.32.1-.69-.96.97-.69,1.32-.1ZM30.09,32.91s.32.14.49.07c.3-.11.58-.68,1.18-.55.38.08,1.64,1.35,1.57,1.72-.02.15-1.33,1.49-1.51,1.45-.42-.38-2.16-2.15-1.74-2.7ZM33.85,35.62l-.65,1.02c-.03-.4.36-.8.65-1.02ZM35.69,29.86c.13-.08.55-.88.94-.51.19.18-.62,1.06.33.85-.23.85-.33.31-.71.38-.42.07-1.24,1.8-1.66,2.16-1.69-2.02-.18-2.07,1.1-2.88ZM39.12,24.1c-.4-.28-1.36-.38-1.84-.34.02-.73,1.23-1.76,1.75-1.14.16.19.41,1,.59,1.25.08.11.88.57.76.73-1.22.57-.93-.28-1.26-.51ZM39.73,27.15h-.49c.05-.25.26-.39.49-.34v.34ZM39.24,25.29c-.56.73-2.21,1.01-3,.64-.25-.12-.24-.41-.3-.45-.03-.02-.83.3-.13-.27.63-.5,2.69-.31,3.42.08ZM35.49,21.14c-.1.23-.47,1.12-.82.76-.23-.24.41-2.65.57-3.05.06-.16.68-1.28.9-1.01.09,1.09-.22,2.31-.65,3.31ZM34.83,26.88s.82-.21.87-.21c.28.04.66.38,1.21.41.43.02,1.76-.33,1.94-.11.02.03.1.66.08.68-.08.07-.49-.15-.66-.07l-3.59,1.76c-.06-.05-.17-.99-.13-1.11.02-.04.85-.4-.04-.33.09-.27.14-.86.33-1.03ZM37.93,30.54c.08.09-1.08,1.94-1.18,2-.17.1-.63.04-.86.04-.2,0-.61.13-.57-.17,1.55.29,1.53-1.16,2.61-1.87ZM35.65,32.06c-.04-.76.56-.75,1.14-.85l-1.14.85ZM37.15,30.11c0-.12.09-.22.21-.22s.21.1.21.22-.09.22-.21.22-.21-.1-.21-.22ZM36.13,36.04c.37-.51.99-.77,1.16-1.68.44-.18,2.87-1.76,3.08-1.61.04.03.09.36.25.51.38.36.96.43.59.93-.16.22-2.54,1.87-2.9,2.07-.8.44-2.11.83-2.98,1.23.38-.39.56-1.09.81-1.45ZM40.55,22.83c0-.36,1.12-.4.98.25-.24.05-.98,0-.98-.25ZM39.73,20.62c.19-.83,3.09-2.44,3.59-1.95-.03.56-.37,1.63-.83,1.94-.38.26-2.68.43-2.77,0ZM42.84,24.35l.9-.93.24.68c-.52-.47-.47,1.04-1.14.25ZM44.14,25.69c.14-.11.38.1.46.06.03-.01.04-.28.23-.35.64-.24,1.43-.22,2.01-.79.22.12-.03.5-.14.62-.3.36-.83.54-1.2.79-.12.08-.14.39-.31.43-.47.11-.43-.58-.56.28-.14.9-.71.38-.92-.09-.03-.08.35-.9.42-.95ZM44.55,22.23l.08.51h-.33c-.05-.25.07-.35.25-.51ZM44.8,29.52c1.37.36,2.77,1.84,2.78,3.39-.43.03-3.1.19-3.1-.25.86-.99.65-1.97.32-3.13ZM47.41,29.01c-.59-.16-1.12-.36-1.63-.68-.12-.23,2.78-2.85,1.63.68ZM47.49,22.9l-.57-.75c.4-.49,1.03-.34,1.53-.42.21-.03.06-.49.1-.68.3-.02.18.89.13.98-.05.09-1.02.71-1.19.87ZM51.01,22.57c.07-.05.42.08.62-.04.19-.11.41-1.12,1.18-.81-.12.6,0,.96-.5,1.43-.35.33-1.66.97-1.95.34-.19-.41.55-.14.75-.42.12-.17-.13-.49-.1-.51ZM51.82,25.28c.16-.02.44.22.49.17.31-.3-.33-.35-.33-.42.02-.54.41-.25.55-.31.38-.18.56-.45,1.09-.45-.11,1.27.11,2.47-1.37,1.42-.33-.24-.23.15-.42-.4-.2.02-.44.46-.87.46-.21,0-1.64-.5-1.26-.8.51.15,1.77-.4,2.1.03.07.09,0,.24.02.31ZM49.87,18.76l.57-.59.08,1.01-.65-.42ZM49.86,16.47l-1.14.34c-.59-1.82,1.45-.67,1.14-.34ZM49.54,20.2c-1.49.61-.88-.96-.19-.48.03.02.13.36.19.48ZM49.04,26.88c.15-.11,1.33-.13,1.46-.05.1.07.27.65.03.74l-1.8.93c.11-.34.1-1.46.31-1.62ZM51.33,28.58c.4-.57,1.57-.44,1.15-1.26.24.09,1.58.61,1.63.68.06.08-.48.46-.33.67.04.06,1.15.18.67.94-.12.19-2.99,2.11-3.36,2.29-.2.1-.34.22-.58.16.37-.87.32-2.78.81-3.48ZM54.85,31.31c.35-.1,1.45.45,1.54.69.15.45-.65,2.01-1.07,2.25-.95.55-3.47.27-4.31-.58,1.12-.55,2.72-2.04,3.84-2.37ZM55.42,16.64c.21-.26,1-1.42.82-1.7l-.32.17c-.49-1.38.89-1.15.65-.85-.09.11-.45-.27-.16.68l.41-.51c.15-.05.38.15.4.26.02.1-.24,1.93-.3,2.01-.14.19-.62.07-.88.13-.22.06-.31.39-.61.3-.02-.16.02-.35,0-.51-.1.12-.38.49-.41.51-.22.13-.4-.39-.4-.42,0-.21.67-.16.73-.42.15,0,.06.22.08.34ZM59.99,12.91c-1.63-.61-.02-2.11.65-2.88.31,1.22-.79,1.75-.65,2.88ZM60.32,19.44c.08-.22.54-.36.65-.26.33.32-.87.84-.65.26ZM60.98,15.03c.01-.3,3.07-1.78,2.77-.27-.69.37-1.39.37-2.15.4-.12,0-.63.21-.61-.14ZM59.67,16.98c.23-.51.84-.54,1.31-.51-.06,1.09-.53.43-1.31.51ZM59.35,21.64c.23.14.13.24.08.43-.29,1.21-.67,3.29-1.26,4.29-.17.28-1.08,1.49-1.33,1.45-.24-.04-1.15-.94-1.5-1.17-.21-.14-.56-.14-.58-.16-.32-.34.52-.41.7-.51.1-.05.09-.3.23-.33.42-.1,1.05,0,1.52-.17-.41-.77-.85-.23-1.23-.18-.22.03-.44-.12-.69-.04-.18.05-.28.71-.45.23-.3-.88-.03-1.99.49-2.72.19-.27,1.3-1.38,1.55-1.45.18-.05,2.32.26,2.46.35ZM58.03,15.79h-.65s0-.51,0-.51c.03-.04.63.14.65.17.03.03-.01.23,0,.34ZM57.63,20.37l.08.68h-.65s.57-.68.57-.68ZM52.58,36.28c.29.04,1.43-.2,1.54-.15-.06.2-.34.38.07.33,1.36-.15,2.38-1.23,3.68-1.35.09.45-.11.29-.32.42-1.32.81-3.42,1.56-4.95,1.23-.22-.05-1.18-.56-1.26-.73-.24-.52,1.03.21,1.24.24ZM57.71,33.76c.09-1.31.51-.72,1.47-.68-.05.37-1.36.79-1.47.68ZM58.27,31.55c-.13-.2.09-.78.07-1.08-.04-.55-.55-1.2.05-1.76.04-.03.23.11.37-.04.1-.11.74-1.16.91-1.02.05.92,1.13,2.14,1.11,3,0,.23-.42,1.12-.44,1.5-.2.15-1.9-.37-2.06-.61ZM60.96,24.03c.24-.36,2.4-.02,1.24-.95-.39.94-.42.04-1.23.17.22-1.27-.11-1.61,1.32-1.28,1.71.4,1.31,1.89.73,3.07-.11.23-.44.67-.56.89-.33.59-.68,1.44-1,2.07-.31.25-1.18-2.93-.51-3.96ZM63.26,29.52l-.16.51c1.95-.37,0,.64-.82.51-.16-1.04.15-.83.98-1.01ZM62.93,18.76l.91-.92c.19,0,.65.99.83,1.17.18.19.68.58.94.81.17.15.56-.14.43.39l-.65-.17c.34.49-.31.67-.33,1.35.82.23.94-1.22,1.34-1.5.09-.06.34.11.57.02.44-.18,1.07-.46,1.47-.68.45-.25.63-.81,1.19-.71-.31.9.6,1.94.15,2.61-.17.25-.46.25-.47.27-.04.05.32.34.32.73,0,.13-.16,1.21-.19,1.26-.06.11-.51.14-.6.49-.08.31.17.7.15.73-.03.04-.56.12-.88.37-.21.16-.73.93-.78.96-.08.04-.32-.16-.51-.11-.27.06-.73.98-1.06.19-.23-.55-.4-3.09.13-3.33.13-.06.32.08.33.06.48-.88-.81.02-.82-.76,0-.22.94.21.65-.59-1.24,1.02-1.52-.38-2.05-1.18-.35-.52-.77-.92-1.06-1.45ZM66.79,16.81c.23.39-.76,1.2-.17,1.36.51.14.56-.15.81-.43.22-.26.41-.09.09-.75l.98.17c-.09.86-1.99,1.67-2.62,1.28-.31-.19-.61-1.57-.3-1.94.22-.15,1.07.07,1.22.31ZM65.89,8.35c.67.02,1.2-.75,1.87-.69,1.51.15-.48,2.97-.81,2.88-.19-.39-1.31-1.88-1.06-2.19ZM65.55,12.24c-.38-.16-1.02.37-1.21.33-.93-.22-.58-3.66.23-3.04.11.09,1.1,2.59.98,2.71ZM70.69,9.69c.36-.22.99-.33.77.29-.22.63-.49,1.15-.67,1.85-.14.55-.4,2.85-.51,2.95-.18.18-.62.04-.74-.33-.36-1.19,0-4.07,1.14-4.76ZM71.25,6.66c.07.1.24.78-.06.83-.3.09-.3-.33-.39-.39-.25-.17-.48-.1-.5-.12-.47-.39.93-.37.96-.32ZM71.93,24.6s.78-.04.65.51c-.6.04-1.15-.69-.98-1.35.18.14.78-.03.81,0,.02.01.16.4.17.42,0,.38-1.1-.09-.65.42ZM72.04,22.94c-.37.24-.62.81-.77.05-.18-.92.27-.69.42-.93.11-.18-.09-.42-.06-.48.13-.25.85-.32,1.11-.2-.13-.18-.11-.54-.2-.64-.1-.11-.69.13-.45-.45.13-.32,1.25-.36,1.44-.23.06.04.05.33.19.4-.34.14-.38.17-.33.59.65-.18.89.45.98,1.02-.66-.31-1.72.48-2.34.88ZM73.23,14.27c.18.2-.76,1.08-.98,1.19.05-.56.53-.96.98-1.19ZM72.69,10.91c.1-.29.24-.6.54-.71l-.49,1.52c-.33.01-.11-.67-.05-.82ZM74.3,6.82c-.08.14-2.49,1.72-2.86,1.18l.73-.85c.9-.29,1.13-1.29,2.22-1.01,0,.23.04.47-.08.68ZM65.71,28v-.34s.82,0,.82,0v.34s-.82,0-.82,0ZM65.76,28.98c-.11.23.11.47-.37.37.05-.11.29-1.6.65-1.18.08.09-.21.65-.29.81ZM66.7,28.17l-.49.51c-.05-.32.19-.56.49-.51ZM65.54,30.79c.53-.26.86-1.26,1.08-.42.33-.19.05-.55.24-.76.05-.06,1.08-.99,1.15-1.02.15-.08.41.07.5,0,.1-.07.32-.69.48-.93-.63.09-.28.58-.82.51v-.85s.65.17.65.17c.08-.3-.27-.74-.13-.98.13-.23,1.5-1.33,1.77-1.05.2,1.15-.77,1.24-1.26,1.75-.12.13-.13.33-.21.45.64-.09.46.38.57.34.12-.05.38-1.01.61-1.15.9-.55,1.82,1.63,2.41,2.08-1.2,1.36-3.25,2.01-4.94,2.5-1,.29-2.24.8-3.23.46.35-.49,1.18-.51,1.13-1.1ZM70.37,31.88c.24-.09.5,0,.63-.04.46-.17.99-.82,1.74-.79.13.92.28,1.06-.32,1.78-.88,1.05-3.17,2.13-4.5,2.13-.86,0-2.92-.55-3.19-1.54,2.04-.02,3.78-.85,5.64-1.54ZM64.45,4.1c2.33-2.23,5.33-4.59,8.45-2.28.45.34,1.84,2.05,1.47,2.6-.06.08-1.61.69-1.82.75-.53.15-4.13.97-4.46.96-.41,0-1.1-.39-1.68-.46-.92-.12-1.97.34-2.81-.47.25-.2.23-.74.36-.89.1-.13.38-.1.49-.21ZM63.26,4.26s-.18-1.09.33-.66c.41.34-.18,1.7-.98,1.01-.03-.31.58-.25.65-.35ZM62.45,11.05c-.05.69.22,1.33.47,1.95-.27.1-1.7.99-1.77.93-.33-.28.18-.78.25-1.01.09-.25.02-.54.08-.72.02-.07.82-1,.97-1.15ZM61.95,9.69c-.14,1.32-.9,2.48-1.31,3.73-.75.1,0-1.1,0-1.27,0-.16-.39-.02-.33-.17.09-.22.48-.19.66-.37.38-.39.39-1.57.97-1.91ZM61.47,6.65c.22,1.72-1.33,1.61-2.05,2.36-.31.33-.96,1.43-1.05,1.88-.17.17-1.14-.62-1.13-.76,0-.22,2.36-2.72,2.72-2.77.23-.03.42.36.62.32.23-.05.33-1.16.9-1.02ZM53.8,6.41c1-.79,2.72-1.56,3.97-1.6.34-.01,2.3.39,2.38.49.02.02.02.48,0,.5-.05.07-1.21.42-1.58.65-.33.2-.84.6-1.12.88-.36.36-1.49,2.14-1.64,2.18-.26.07-1.32-.45-1.78-.48-.4-.03-1.6.23-1.7.16-.69-.51,1.01-2.4,1.47-2.76ZM51.99,7.66c.2.37-.64,1.22-.81,1.02-.31-.35.62-.86.81-1.02ZM49.54,13.09c.06-.63,1.06-2.91,1.51-3.11,1.06-.46,3.18,0,4.18.59-.23.93.71,2.31.52,3.07-.01.06-.63.6-.81.89-.61.96-1.45,2.22-1.32,3.39.03.32.33.63.27.76-.11.23-1.37,1.03-1.56.84.39-1.16.78-1.57.13-2.76-.76-1.41-2.36-2.02-3.62-2.81-.38-.68.74.11.22-1.03l.49.17ZM47.5,12.75c.16-.27,1.22-1.8,1.54-1.53-.34.3-.32,1.38-.37,1.49-.01.03-.24.03-.33.24-.15.33,0,.97-.51.98-.81.02-.65-.61-.33-1.18ZM47.74,16.47c.12.5.26,1.09.17,1.61-.07.38-.32.33-.43.48-.25.34-.54.81-.81,1.11-.23.26-.19.14-.39-.07l1.46-3.14ZM45.86,22.91c.2-.04.45.34.49.34.18,0,.13-.69.57-.5-.24.83-.93,1.5-1.8,1.35.2-.2.58-1.15.74-1.19ZM42.43,14.44c.54,0,2.09-.12,2.45,0,.57.18-.21,2.21-.27,2.69-1.5-.04-2.69-.28-4.15.27-.26.1-.56.67-.89.35.33-.46,2.64-3.31,2.86-3.31ZM41.36,14.78c-.07.29-.48.27-.74.51-.43.39-2.17,2.59-2.4,3.1-.2.46-.2,1.01-.38,1.48-.1.27.02.41-.4.34.09-.71.51-1.55.48-2.27-.03-.73-.66-.95-.64-1.62,1.44-.26,2.57-1.66,4.08-1.53ZM34.14,14.95c1.85-1.52,4.36-2.69,6.74-2.2.06.47-.05.26-.24.34-1.17.48-2.74.99-3.8,1.66-1.15.72-1.46,1.77-3.08,1.57-1.12-.14-.09-.98.38-1.36ZM32.45,17.31c.47-.2,1.64-.62,1.89,0-.22,0-.45-.02-.65.09-1.44.78-2.33,2.53-3.61,3.37l-.97,1.11c-.05-.3.04-.53.13-.8.31-.92,2.38-3.43,3.22-3.78ZM29.27,20.2s-.24.77-.49.51c-.15-.16.29-.67.49-.51ZM28.86,25.79l.08.51h-.33c-.05-.25.07-.35.25-.51ZM28.87,34.44c.26-.08.4.09.57.25.1.1,1.43,1.94,1.45,2.06.15.9-1.46.85-2.02-.12-.24-.41-.49-2.04,0-2.19ZM30.74,39.52c-.13.27-.66.52-.92.66-1.57.79-3.4,1.11-5.13.7-.15-.17.77-1.96,1.07-2.03.3-.07.51.62.83.83,1.19.75,2.92.24,4.15-.15ZM28.46,38.76c-.89.59-1.8-.7-1.07-1.44.11.36,1.62,1.08,1.07,1.44ZM27.64,33.08s.63.14.65.17c.29.42-.67.71-.65-.17ZM27.23,19.69c.15,0,.1.45.07.49-.03.04-.8.28-.97.35l.9-.85ZM25.75,22.4c.75-.85.67-.63,1.32-1.68.15-.24.97-.73,1.21-1.03-.02.52-.52,1.28-.61,1.65-.11.42.07,1.15-.11,1.41-.07.1-1.35.47-1.67.64-.25.13-1.24,1-1.36.87-.11-.1,1.05-1.68,1.22-1.87ZM26.25,24.61c.45-.33.99-.53,1.55-.51l-.34.58-3.26,2.47c-.23-.25,1.76-2.34,2.04-2.54ZM23.91,33.03c.27-.88,1.93-1.44,2.74-1.47-.48,1.09-.56,2.39-.96,3.49-.04.12.02.36-.26.23-.39-.18-.78-.8-1.06-1.11-.31-.35-.76-.18-.46-1.14ZM19.81,37.06c.15-.24-.21-.92.55.02.06.07.26.06.27.18.01.23-.18.47-.18.64,0,.11.34.02.35.34,0,.19-.29,1.56-.36,1.6-.34.23-2.41-.06-2.92.7-.08-1.73,1.48-2.16,2.3-3.47ZM18.98,42.23c-.25.62-.96.74-.98,0h.98ZM16.76,46.92c.26-1.23.54-.56,1.44-.82.78-.23,1.23-.86,1.92-1.15.25,1.05-2.09,3.13-2.85,3.05-.54-.05-.61-.63-.51-1.08ZM16.36,45.96l-.13.99c-.02-.43-.43-1.11.13-.99ZM10.97,43.75c0-.41-.04-.81.04-1.22.23-1.11,2.33-4.62,3.27-5.17.16-.1.39,0,.56-.09.24-.13.28-.68,1.03-.29-.3.3-.33.87-.54,1.14-.19.25-.92.28-.93.47-.01.2.77,1.19,0,1.11v.17c.63-.14.41.26.59.49.11.14.32.17.35.22.6,1.01-2.05,1.4-2.53,1.62-.55.25-1.36,1.14-1.84,1.56ZM15.05,45.96c-.18.99.27,1.65.49,2.54-1.6.05-1.88-2.02-.49-2.54ZM13.33,44.77l-1.3,2.21c-.36-.25-.14-.32-.08-.58.33-1.5,1.73-3.05,3.27-3.14.43.4-1.81,1.25-1.88,1.52ZM11.46,53.92c-.05-.25.07-.35.25-.51l.08.51h-.33ZM13.1,48.58c.83.92,2.43,1.24,3.59,1.1.07.38-.02.27-.21.38-2.46,1.38-4.33-.43-4.69-2.92.83-.11.83.91,1.31,1.44ZM15.76,55.59c-2.84,1.42-4.16-2.36-3.81-4.71,1.24.58,2.45,1.04,3.85.86.65-.09.44-.39.59-.5.1-.07.36.14.52.11.08-.01,1.06-.68,1.33-.81.23-.11.13-.26.41.09-.6,2.14-.74,3.89-2.89,4.97ZM14.83,76.52c-.16,4.86-1.41,9.6-1.75,14.43-.1,1.48.31,3.26-.2,4.7-.2.57-1.83,2.22-2.31,2.86-.65.87-3.08,4.69-3.69,4.98-.39.19-.56.09-.91-.07-1.99-.91-2.02-4.88-2.43-6.8-1.19-5.48-2.3-8.76-1.35-14.6.4-2.42.84-4.89,1.28-7.32.47-2.59,1.53-4.82,2.32-7.26.78-2.41,1.45-6.23,2.9-8.18.21-.28.59-.65.93-.73.84-.2,2.41.64,2.98,1.25.78.84,1.41,1.8,2.14,2.7.2.25.72.4.78.7-.28,1.74-.69,3.65-.79,5.4-.15,2.63.19,5.33.11,7.94ZM19.31,104.76c-.09-.38.51-2.36.73-2.37.74-.02-.22,2.24-.73,2.37ZM20.61,114.42c-.27.34-.56-.88-.59-1.01-.12-.67.62-.66.74-.23.03.1-.11,1.2-.15,1.24ZM23.06,116.79c.17-.71-.52-2.16.49-2.37-.01.45-.18.88-.23,1.33-.04.37.35,1.18-.26,1.04ZM23.72,120.01l.08-.68c.36.26.32.52-.08.68ZM25.03,119.16c.04-.52-.06-1.11,0-1.61.03-.25.12-.53.33-.25-.09.57.27,1.53-.32,1.86ZM25.71,124.51l-.23-.83.37-.11.23.83-.37.11ZM25.92,121.37l.08,1.86c-.46.08-.28-.1-.35-.4-.13-.56-.16-1.02.27-1.47ZM27.02,126.83c-.28-1.18.07-2.6-.03-3.7-.03-.4-.49-1.61-.17-1.93.05-.05,1.05,0,1.3-.17-.13.84.14,1.66.17,2.45.07,1.47-.28,3.32.28,4.53.03.05-.15.74.04.98-.34.38-1.55-1.96-1.59-2.16ZM27.8,117.47c.2,0,.52.65.49.68-.24.19-.63-.34-.49-.68ZM29.19,108.83c-.62-.13.41-2.39.73-2.03-.18.32-.23,2.14-.73,2.03ZM33.69,136.03c-.04.31.06.27-.33.25l-.07-2.91c.22-1.13.66-2.4.4-3.53h.49c-.1,1.26-.38,2.56-.49,3.81-.06.76.09,1.64,0,2.37ZM33.78,126.12c-.79,1.17-1.67,3.16-1.88,4.49-.17,1.07-.04,2.22-.26,3.29-.35-.21-.29-.72-.46-.97-.13-.18-.46-.19-.64-.6-1.08-2.43-.71-9.64.04-12.24.23-.81,1.41-2.76,1.44-3.08.04-.49-1.03-1.16-.04-1.4.26-.06,1.77-.27,1.87-.18-1.03,2.92-2.08,5.85-2.57,8.94-.25,1.56-.73,4.96-.54,6.41.03.21.63.58.34,1.26.24.04.21-.32.25-.5.08-.43.19-1.04.23-1.47.05-.53-.45-2.04.66-1.59.63-4.07,1.59-8,2.95-11.86.35-.03.5.3.81.43.26.11.76.02.92.24.07.09-.06,2.05-.1,2.29-.11.67-1.34,4.27-1.67,4.88-.31.58-.98,1.13-1.34,1.66ZM35.65,141.61c-.03-.15.21-.38.16-.58,1.09.57-.06,1.18-.16.58ZM36.71,140.68c-.28-.28-1.46-1.44-1.39-1.77.48-.38,1.15-.8,1.55-1.28.09-.11.31-1.02.57-.68.1.13-.43,2.81-.5,3.3-.03.24.15.5-.24.43ZM35.41,137.97c-.28-.07-.48-1.05-.5-1.35-.08-1.1.16-1.65.34-2.55.59-3.02.59-8.66,3.02-10.59.16-.13.21-.33.49-.25l-1.22,11.53c.04.61-1.67,3.32-2.13,3.21ZM37.92,116.87c.14-.25.62-.48.74-.76.17-.4.13-1.1.27-1.59.43-1.49.86-3.12,1.78-4.34-.87,3.42-1.94,6.86-2.13,10.41-.03.63.32,1.65-.16,1.96.34-.77-.99-2.18-.98-2.46,0-.19.23-.35.24-.51.07-.79-.14-2.03.24-2.72ZM42.38,127.93c.11-.41,1.02-1.12,1.09-1.6.08-.6-.6-.89-.63-1.01-.21-1,.57-3.69,1-4.69.1-.25.96-1.89,1.04-1.97.44-.4.95.17,1.43-.33.3-.31.36-1.72.77-1.36.05.04.64,1.01.63,1.07-.03.3-.74,1.31-.93,1.75-1.78,4.09-3.16,9.06-3.62,13.52-.09.86-1-1.02-1.1-1.1-.41-.28-.45.21-.86.18.02-.53-.05-1.07,0-1.6.04-.36.27-.52.32-.69.03-.12-.42.07-.3-.47.15-.71.31-.55.68-.43.69.23.34-.78.47-1.27ZM43.65,112.3c0-.56,2.1-6.24,2.48-6.75.14-.19.17-.35.46-.28,0,.37.2.67.14,1.06-.12.82-1,2.81-1.32,3.73-.45,1.27-.5,2.55-1.59,3.52.09-.44-.17-.88-.17-1.27ZM45.94,135.77l-.31-1.46-.02-1.08c.83.62.39,1.7.32,2.54ZM44.23,130.51c-.23-.27-.86-.2.16-.84.89.58-.37,2.09-.57,1.86-.39-.44.75-.62.41-1.03ZM44.8,141.53c.4,0,.29.73.16.85-.43.37-.32-.54-.16-.85ZM40.3,119.67c-.34.02-.12-.48-.09-.6.11-.6.44-2.46.66-2.84.13-.23.29-.09.49-.11-.06.46-.87,3.55-1.06,3.55ZM39.57,120.01c-.05.25-.26.39-.49.34v-.34s.49,0,.49,0ZM38.33,141.35c-.71.78-.84-.2-.72-.32.02-.02.35.03.57-.17.59-.56.31-1.72.45-2.42.2-1,.59-2.91.88-3.86.57-1.85.82-.54,1.29-.55.16,0,.28-.39.57-.29.1.11-.5,2.3-.62,2.66-.27.77-1.99,4.48-2.42,4.95ZM43.74,147.63c-1.76-1.5-3.73-2.81-4.99-4.84-.04-.23.76-1.28.96-1.7.28-.59,1.11-3.6,1.41-3.62.23-.01.24.58.25.75.09,1.26-.17,6.64.56,7.38.28.29.93.1,1.19.37.23.24.29,1.33.85,1.57l-.24.08ZM44.28,135.81c-.04.26-.7,1.44-.96,1.14.05-.61-.1-1.33.03-1.91.08-.35,1.42-1.84.05-1.3-.36-.46.33-.26.57-.6.1-.46-.4-.17-.49-.25-.04-.05.24-1.19.41-1.18.12,0,.23.57.73,0,.1.45-.49,1.16-.49,1.44,0,.1.33.07.34.19.06.38-.4,1.19-.43,1.58-.02.26.31.41.23.9ZM48.41,149.43c-.04.29.07,1.42-.27,1.42-.24,0-3.41-2.46-3.84-2.88.51,0,1.63.98,2.05.35.49-.73-.36-.67-.43-.8-.05-.09-.34-1.74-.32-1.83.09-.48.57.02.77.05.42.05,1.42-.03,1.7-.38.53-.66-1.05-3.84,1.13-3.66.05.6-.14,1.38.16,1.92.06.1.31.1.33.23.05.28-1.15,4.62-1.29,5.58ZM46.6,134.92v-.51h.33v.51h-.33ZM48.56,133.57c.27.9-.3,1.49-.45,2.16-.21.97-.26,2.05-.52,3.01-.06.23-.02.53-.33.58,0-1.77.42-3.7.96-5.36.09-.26-.14-.49.34-.4ZM49.7,130.01l.24-1.02c.48.16-.14,1.15-.24,1.02ZM46.8,132.85c-.09.21-.09.5-.37.55l.34-4.82c.56-1.89.49-3.76,1.46-5.52.42.11.17,1.04.59,1.18.27.09.61-.17.92-.13.23.03.44.27.85.31.18.02,1.18-.22,1.23-.17.3.29-.13.29-.23.36-2.78,1.69-3.62,5.43-4.79,8.25ZM49.86,111.03c-.4,1.53-.5,3.39-.93,4.88-.08.29.06.44-.37.37.06-1.72-.84-4.58,1.31-5.25ZM51.98,120.11c.1-.15.27-.15.33-.1.05.04.62,1.08.63,1.14.11.56-1.15,1.98-1.77,2.08-.12-.14.62-2.83.81-3.12ZM51.66,151.53h-.33v-.51h.33v.51ZM53.87,129.16c.32.8-.1,1.68-.09,2.45,0,.37.42,2.38.33,2.46-.03.03-.44-.08-.73.17-.75.63-.82,2.09-1.55,2.71.54-2.63,1.03-5.31,2.04-7.79ZM52.48,147.29h-.16v-.85h.16v.85ZM51.99,144.41c-.13-1.03.44-2.05.61-3,.16-.89.15-2.97.58-3.72.06-.1.31-.16.41-.32.15-.24.81-1.39.93-1.42.7.43.97.92,1.87.51l-.66,1.35c-.62.21-.41-.42-.89-.5-.65.14-2.01,5.08-2.3,5.92-.11.33-.29,1-.56,1.19ZM55.42,119.67c-.17-.26,1.3-3.66,1.57-4.22.89-1.8,2.15-3.83,3.49-5.27-1.06,2.32-2.2,4.62-2.86,7.12-.18.69-.49,1.8-.56,2.47-.12,1.17.25,2.41-.36,3.44-.69-.09-1.25-.95-1.86-.16-.96-1.3.89-2.28.9-3.56l-.32.17ZM58.2,117.81v-.51s.32,0,.32,0c.05.23-.09.45-.32.51ZM57.38,135.77v-.34h.49v.34h-.49ZM57.87,140.18v.24c-1.65,1.78-1.52,4.18-1.84,6.4-.17,1.16-.66.53-.76-.13-.38-2.41.76-5.07,1.3-7.36l1.3.85ZM56.75,133.16c-.02.15-.13,2.57-.67,1.93-.11-.13-.34-2.91-.34-3.3,0-1.22.55-5.99.98-6.96.4-.91.5-.13.85.17.11.1.39.06.45.12.1.11.02.53,0,.72-.23,2.26-.9,5-1.27,7.33ZM54.44,120.01c-.06-.49.18-.89.49-.42l-.49.42ZM59.82,156.01c-.28.89-1.22-.24-1.95-.08-.12-.12.59-1.82.74-1.86,1.12.55,1.67.49,1.21,1.94ZM59.83,153.39c-.19-1.3.47-2.63,1.47-3.39-.04.87-.55,2.2-.97,2.97-.13.23-.13.49-.5.42ZM61.47,154.07v.51h-.33v-.51h.33ZM62.2,154.74c-.2.66-.77,1.87-1.55,1.87,0-.74.89-.71.49-1.36.57.36.2-.07.36-.39.12-.24.45-.3.54-.62.25.11.23.26.16.5ZM62.12,153.9v-1.02s.49,0,.49,0c-.15.28.03,1.14-.49,1.01ZM62.78,156.78l.49.51c-.53.06-.54.04-.49-.51ZM64.04,154.29c.07-.1.12-.52.36-.22.03.03,0,.54.12.8.3.62.9.6.2,1.48-1.04,1.32-1.61-.74-.69-2.07ZM65.55,158.14l-1.47-.42c.32-.68,1.81.1,1.47.42ZM65.74,139.88s-.48.88-.49.93c-.14.66.74,1.37-.69,1.4l.65.34c-.35.53-.85.09-.65,1.01l.49-.51c.79.36-.37,1.7-.46,2.16-.06.28.16.85.14,1.31-.03.58-.6,2.47-.48,2.87.13.45,1.23.04.88.94-.34.89-1.34,1.82-1.59,2.84-.28.17-.4.29-.61-.04l.81-6.02.32.17c.43-.97,0-.82-.21-1.23-.38-.73.16-.26.29-.45.05-.07.59-1.54.57-1.62-.04-.29-.46-.23-.65-.09-.07-.1.41-.88-.08-.68-.8.34-.82.98-1.06,1.11-.23.12-.59-.17-.65-.1-.05.05-.13,1.14-.16,1.36l.49-.68c.17.23.06,1.63,0,1.69-.07.08-.46-.2-.74-.02-.6.4-.94,1.84-1.37,2.27-.18.18-.46.15-.59.29-1.41,1.53-2.53,4.05-3.52,5.92-.28.21-3.75-1.5-3.74-1.77,0-.06.32-.26.39-.44.56-1.38.52-3.9.59-5.41.69.52,1.07.9,1.96.51-.13.75-1.24,4.45-.96,4.89.03.05.91.34,1.06.35,1.6.15.77-1.54,1.13-2.37.2-.46,1.23-.11,1.48-.5.19-.29.15-2.41.24-2.97.05-.31.35-.51.33-.85-.04-.55-.87-.65-.93-1.02-.12-.71.59-3.08,1.16-3.65l-.57,3.05c.25.08,1.41.12,1.47.17.36.3-.63.35-.32.68.04.04.45-.26.65-.17-.18.7-1.1.12-1.14.17-.28.39.32.54.32.58-.03.44-1.19,1.37,0,.94l-.16,2.03c1.41-.6.57-1.42.65-2.27.01-.12.34-.15.47-.38.05-.08.46-1.7.49-1.88.06-.38-.15-.65-.13-.97.02-.41.45-.79.49-1.21.03-.32-.33-.21-.34-.34-.01-.31.32-1.22.42-1.59.98-3.73,2.57-8.37,4.37-11.91.29-.58,1.21-1.64,1.36-2.16.2-.7-.49-1.43-.19-1.88.21-.32,1.21.04,1.6-.02,1.02-.18,1.3-1.7,1.76-2.51-.98.26-1.28,1.8-2.45,1.52-.02-.19,0-.37.04-.55.13-.6,1.92-3.02,2.41-2.66.03.02.09.45.26.66.2.25.81.46.86.55.31.55-1.31,3.77-1.55,4.68-.99,3.76-1.76,7.6-2.98,11.31-.1.31-.73,2.11-.83,2.18-.07.05-.26-.06-.3-.03ZM66.74,118.45c-.18.57-.43,1.74-.52,2.34-.11.78.21,2.21-.42,2.79-.07.06-1.21.82-1.29.82-.64-.06-1.02-1.13-.92-1.74.18-1.1,1.98-3.74,2.67-4.78.44-.66.93-1.54,1.49-2.1.07-.07.2-.23.25-.17-.19,1.04-.93,1.79-1.26,2.85ZM71.11,114.08c-.25,1.66-.96,3.22-1.05,4.92l-2.05,1.18c-.24-.27,2.23-5.73,3.1-6.1ZM64.9,125.43c-.37,1.14-1.07,2.19-1.47,3.31-.16.43.65-.1.32.33-.19.24-.48.27-.69.64-.28.49-.4,1.42-.62,1.99-.41-.09-.03-.85-.56-.84-.62.01-1.36,1.51-1.21,2.08.05.19.72.83.63.96-.02.02-.29.03-.47.28-.51.73-.57,1.95-1.33,2.44-.23-.72.79-2.25.78-2.6,0-.27-.28-.64-.3-1.05-.03-.81.31-1.72.16-2.69-.09-.6-.81-1.3-.79-1.51.02-.22.34-.49.42-.76.18-.63.85-3.18,1.46-3.39,1.22-.44,2.25,1.29,3.65.82ZM70.62,139.84c-.42.2-.38-.48-.57-.5-.1-.01-.16.91-.73.67.54-2.23.22-4.02,1.87-5.77.36-.38.81-.24.99-1,.34-.07.28.14.21.39-.11.43-.48,1.43-.78,1.64-.03.36,0,.64-.07,1.02-.23,1.08-1.15,2.44-.91,3.55ZM68.24,143.22l1.07-.5c.15.47-1.39,2.28-1.63,2.03.44-.5.61-.84.56-1.53ZM69.8,129.16c-.05-.25.07-.35.25-.51l.08.51h-.33ZM67.51,144.58c.14.17-.65,1.37-.77,1.66-.17.4-.02,1.17-.54,1.39l.49-2.88c.06-.07.31.14.42.16.05,0,.13-.66.4-.32ZM67.19,144.07l.08-.68c.36.26.32.52-.08.68ZM67.17,158.63c-.19.17-1.14-.07-1.27-.44-.29-.85.26-.91.29-1.03.1-.4-.02-.78.21-1.28.16-.35,1.34-1.41,1.6-1.14-.1.51-.68,3.75-.83,3.88ZM67.55,153.34c-.79,1.26-.26-.45-.2-.97-.3.04-.1.37-.42.66-.17.15-.68.38-.55-.06.52-.81.55-1.73.92-2.61.57-1.37,1.69-3.26,2.45-4.57.37-.64,1.89-2.59,1.99-3.02.24-1.09-.67-1.73-1.6-1.4-.21-.42.32-.3.33-.42.04-.38-.38-.7-.33-.76.79.08.6-.62.66-.68.06-.06,1.15.18,1.69-.16.29-.18.24-.93.6-1.03-.19,1.16-.28,2.46-.54,3.59-.13.59-1.38,4.18-1.23,4.35.03.03.55.01.29.36-.02.03-.31.01-.53.38-.4.68-1.52,4.12-1.76,4.36-.43.43-.36-1.09-.33-1.28.04-.31.47-1.13.26-1.43-.52-.74-.97,1.46-.41,1.69-.13.02-.39-.05-.47.02-.11.1-.39,2.32-.81,2.98ZM73.87,133.81c0-.08-.33-.07-.31-.15.1-.51.52-.33.67-.53.11-.16.27-.83.31-1.08-.37.03-.27.62-.33.68-.06.07-.4.09-.32-.24.11-.41.64-.72.72-.94.06-.16-.12-.45-.07-.5.05-.05.35,0,.48-.09.23-.18.28-.95.33-1.27l-.32.09.32-.94.32.34,2.14-4.56c.11-.08,1.63.42,2.12.08.32-.22.54-1.96.73-2.31.1-.19.62.08.9-.24.31-.34.35-1.63,1.06-1.95l-.57,1.69.49-.51c.19,1.27-.42.78-1.14,1.27,1.07.52.57,1.29.08,2.12.02-.11,0-2.61-.57-2.03-.23.24-.45,4.19-.34,4.65.06.26.54-.14.5.35-.03.32-1.3,2.53-1.55,3.14-.3.71-.54,1.61-.74,2.37-.38.1-.61-.3-.91-.34-.48-.07-.78.3-.97.28-.15,0-.41-.37-.69-.43-1.51-.33-2.35,3.01-2.74,4.04-.43-.68-.51-2.19.08-2.71l.16.68c-.12-.33.15-.74.15-.94ZM73.4,129.84v-.51s.32,0,.32,0c.05.23-.09.45-.32.51ZM80.96,120.82c.03-.08.24-1.39.6-.98.1.12-.38,2.02-.98,1.52-.28-.23.31-.38.38-.54ZM82.77,136.09c.17-.42.2-.93.43-1.34l.49.34c-1.09-.19-.26,1.23-.34,1.34-.02.04-.35.07-.49.25-.16.21-.13.58-.15.61-.32.37-.27-.43-.49-.34-.05.53-.35,1.06-.59,1.52-.12.22.05.44-.4.34.23-1.14.46-2.41.77-3.52.18-.65.36-1.67.86-2.07.2,1.23-.48,2.2-.65,3.39.35.11.44-.27.55-.52ZM85,130.52c.79.23.74.53,1.28-.28.83-1.26.45-1.91.81-3.06.26-.81.78-.69,1.24-1.09.79-.7.19-1.5.41-1.77.33-.39,1.48-.37,1.98-.24l-3.28,10.74c-.31.6-2.62-.38-2.73-.7-.49-1.33.61-2.42.3-3.61ZM90.11,118.03c.13-.14,1.09-.72.93-.14-.06.22-.81,1.4-.97,1.28-.22-.62-.61-.48-.66-1.27-.11-1.89,1.02-5.09,2.22-6.51.16-.19.25-.42.56-.35l-2.45,7.37c.43.37.26-.24.37-.37ZM87.13,114.76c.57-1.23.98-2.81,1.66-3.95.39-.65.79-1.13,1.6-1.13l-3.27,5.08ZM87.78,115.44l-.49.51c-.06-.31.18-.56.49-.51ZM87.45,117.98c.42-.44.33,1.04.37,1.23.1.5.6,1.65.6,1.91,0,.36-1.01,1.59-1.25,2.08-.28.58-.21,1.42-.86,1.23.08-.88-.11-1.94,0-2.8.14-1.08,1.01-2.48,1.15-3.64ZM89.48,142.2c-.18.58-.46,1.52-.79.31-.17-.63.72-1.8,1.04-1.49.09.08-.19.97-.25,1.17ZM84.59,135.25c.16,0,2.13.27,2.2.35.03.04.04.68-.04.81-.04.08-.33.12-.43.31-.73,1.38-1.46,2.95-2.14,4.26-.7,1.36-1.25,3.08-2.29,4.11.08-.8.35-1.75.6-2.51.31-.95,1.08-2.25,1.18-3.18.08-.68-.19-1.15-.16-1.68.02-.4.31-.69.3-.99-.02-.44-.45-.71-.45-1.13.45.02.79-.33,1.23-.35ZM83.78,123.91c.11-.25-.03-.42.4-.34,0,1.87-1.54,2.85-.4.34ZM80.75,132.89c.11-.24-.2-.82-.16-.85.32-.25.83.66.16.85ZM80.91,141.02l-.33,1.69c-.32-.03-.17-.87-.13-1.06.05-.24.2-.57.45-.63ZM81.57,150.68c.09.53-.08.5-.49.68-.06-.41.08-.72.49-.68ZM82.06,119.67c.1-.39.51-.35.82-.34-.1.39-.51.35-.82.34ZM78.36,143.64c-.11.27,0,1.46-.06,1.87-.14,1.05-.45,1.52-1.3,2.12-.12-.32.09-.51.13-.67.36-1.22.64-2.94,1.06-4.28.05-.17.22-.65.44-.65-.13.29.21,1.25.15,1.33-.07.09-.32.05-.41.27ZM77.48,157.46c-.07-.73-.14-1.93.82-1.27.51.35-.5,1.61-.82,1.27ZM76.86,139.79c-.48,1.39-1.86,2.99-2.4,4.45-.35-.23-.22-.39-.2-.71.15-3.18,1.75-6.3,3.8-8.61-.04.7-.2,2.34-.44,2.93-.09.23-.35.24-.41.33-.17.29-.18,1.14-.34,1.6ZM78.71,141.87c-.17-.15-.3-.26-.25-.51h.33s-.08.51-.08.51ZM73.71,146.12c.42.51-1.57,4.17-2.01,4.75-.07.09-.16.6-.42.32-.1-.1,1.02-2.16,1.1-2.67.11-.67-.38-2.32.47-2.57.1-.03.83.13.86.17ZM72.91,152.46c-.12-.36.43-.31.49-.25.17.16-.31.77-.49.25ZM68.71,157.94c.03-.11.17-1.8.6-1.33.07.08-.23,1.59-.18,2.13.04.41.37.1.34.41-1.68.21-.99-.34-.76-1.21ZM69.96,157.29c-.28.25-.74-.22-.49-.51.15-.18.66.34.49.51ZM70.33,156.74c.11-1.62.71-3.27,1.69-4.53.15-.2.27-.41.56-.35.27.28-1.6,4.96-2.04,5.59-.34-.23-.23-.39-.2-.71ZM72.47,157.42c-.06.19-.3.16-.37.33-.38,1.07.34,3.24-1.48,1.65.83-.73,1.02-1.73,1.14-2.8l.49.17c.13-.1-.03-1.03.49-.85-.08.47-.12,1.05-.28,1.49ZM72.58,155.59c-.07-.84.69-1.45.87-2.06.09-.31.09-1.11.12-1.15.11-.12.65.26.47-.52l-.33-.17c.13,0,.39.05.46-.02.11-.11.57-2.66.69-3.11l.64-1.28c-.39,1.67-.32,3.97-1.23,5.42-.37.59-.78,1.11-1.13,1.88-.17.37.04,1.05-.58,1.01ZM77.9,160.85c-.47-.02-4-.48-4.18-.59-.3-.19.18-1.83,0-2.29.57.14,0,1.36.16,1.52.7.25.94-.39,1.31-.17.16-1.08.05-2.21.17-3.3.09-.85.52-1.72.39-2.63l1.8-2.89c-.06.76.48.74.56.86.12.16-.3.51-.32.76-.03.31.19.73.17,1.18,0,.18-.46,2.01-.53,2.09-.07.07-.46.07-.62.2.2-.91.4-1.72.42-2.66,0-.28.1-.81-.25-.9.07.45-.28,1.14-.3,1.43-.02.23.19,1.4.14,1.45-.04.03-.33-.06-.45.03-.32.23-.15,2.53.12,2.94,1.19,1.87,2.59-1.35,2.95-.94l-.89,3.73c-.16.22-.42.18-.65.17ZM83.53,160.85c.03-.44-.09-.85-.16-1.28-.04-.24.15-.7-.25-.59-.17.05.29,1.6.24,1.86-1.33.22-2.74,0-4.09-.17-.06-.07.52-.68.57-.85.02-.06.22-1.15.24-1.27.09-.62-.1-1.3.17-1.94l-.66.42c.51-.47.49-2.78.93-2.94.34-.12,1.19-.02,1.49-.41.08-.1.47-1.57.5-1.78.06-.62-.11-.93-.14-1.48-.02-.26.18-.71.16-.74-.05-.07-.41-.08-.46-.28-.03-.11.41-1.8.47-2.22.03-.21-.15-.46-.12-.54,0-.02.23-.04.29-.15.97-1.67,1.61-3.58,2.55-5.28.23-.42.84-.7.72-1.37l-.32-.08c.95-.53.67-.97.94-1.78.22-.67.52-1.34.7-2.04l.16,1.61c.08.74-.55,1.79-.57,2.37-.02.55.6,1.42-.24,1.45v-.51c-.23-.3-.52,2.04-.82,2.2,1,.5.42-1.03,1.06-1.35.41-.07.18.15.2.37.08,1.14-.06.69-.42,1.19-.04.06.2,1.04-.44,1.32-.52.23.28-1.14-.4-1.18,0,.91-.45,1.83-.63,2.67-.81,3.99-.63,8.23-1.01,12.33-.07.82.39,2.6-.66,2.46ZM85.33,151.36v-.34s.49,0,.49,0c-.05.25-.26.39-.49.34ZM85.32,150l-.32.34c-.06-.75-.06-.73.65-.68-.3-.67.22-1.17.16-1.86.82.33-.39,1.19.32,1.52l1.64-7.28c1.25.29-.12,1.36-.17,1.78-.04.4.3.86.33,1.27l.4-1.19.66-.66c.71.76-.22.33-.43.61-.27.36.32,1.05.17,1.49-.08.24-.41.23-.46.29-.03.04.2.58.11,1.04-.02.12-.87,2.11-.94,2.21-.1.14-1.5.87-1.56.95-.27.33-.46,1.86-.58.18ZM88.76,155.09c-.02-.3.18-.72.49-.85.06.38-.15.71-.49.85ZM86.47,160.34v-.25c.17-.27.35-.3.65-.26v.51s-.65,0-.65,0ZM90.02,154.78c-.17.74-.64,2.45-1.34,2.67-.33.11-.16-.21-.32-.34-.07.27-1.26.8-1.39.68-.34-.72.08-.99.15-1.45.28-1.87.82-3.47,1.27-5.29l.7-1.39-1.63,7.29c.27-.49.94-.13.98-.17.14-.15-.37-.77.65-.34-.03-.53.55-2.87.9-3.05.47-.23.07,1.22.03,1.39ZM90.23,133.91c-.28-.9.12-2.4.61-3.18.65-1.02,3.06-2.15,2.48-3.66-.11-.3-.65-1.15-.98-.68-.03.05-.34,1.09-.64.74-.09-.11.5-1.59.62-1.81.38-.72,1.11-.7,1.83-.73-.32.86-.44,1.78-.49,2.71,1.05.07.26-1.04,1.14-.85.09.09-.53,1.68-.71,1.82-.1.08-.37.01-.41.06-.11.12.1.7-.18,1.1-.16.24-.84.54-1.1.81-.32.33-.37.78-.5.95-.13.17-.86.72-.87.77-.14.53.45.32.33.67l-1.14,1.28ZM94.81,114.84c-.21-1.73-1.16.8-1.32.94-.12.11-.38.06-.33-.25.07-.39.49-.67.61-1.06.18-.58.26-2.26.57-2.71.12-.17.78-.19,1.07-.85.22-.52.22-1.56-.45-1.05-.22-.27,1.16-3.22,1.4-3.73.05-.12.13-.64.4-.34.11.13-.68,2.85-.77,3.36-.14.77-.16,2.96-.55,3.34-.32.32-.86.11-.82,1.02.04.88.85.99.96,1.38.24.84.12,2.21.43,3.28.09.31.48.5.39.89-.04.19-1.54,3.26-1.7,3.51-.28.43-.81.75-1.22,1.02.14-.79.63-1.51-.08-2.21-.3-.3-.99-.22-.9-.57.13-.49,1.22-1.83,1.55-2.46.68-1.32.92-1.96.74-3.48ZM98.41,114.5c-.09-1.06-1.08.33-1.15.25,0-.37-.2-.68-.14-1.06.15-.92,2.48-4.68,3.06-6,.22-.5.3-1.07.5-1.52.06-.14.1-.57.34-.24.08.11.23,1.84.74,2.54.48.66,1.49.62,1.55.68.1.1-.17,1.44-.24,1.69-.19.61-2.07,4.09-2.46,4.56-.59.71-1.34.49-1.66.74-.09.07-1.5,1.87-1.68,1.65.05-.49-.31-1.12-.15-1.59.08-.23,1.39-.6,1.3-1.72ZM101.59,104.42c.23.11.13.96.08,1.02-.38.42-.49-.86-.08-1.02ZM95.79,138.14c.66.23.1.9.15,1.25,0,.05.99.66.42.79-.43.1-.08-.39-.41-.34-.28.63.31.9.32.96.09.4-.05.98,0,1.41-1.13-.65-.4.69-.08,1.02.25.25.69-.01.57.51-.93-.49-.77,1.46-1.02,2.07l-2.33,4.36c-.2-.23-.42-.51-.52-.81-.82-2.34.37-7.57,1.35-9.85.46-1.06,1.29-2.29,1.86-3.5.09-.19.92-1.52,1.15-1.26.11.12-.69,2.8-.85,3.1-.44.81-.53-.19-.7-.21l-.25,1.1.33-.59ZM95.29,133.06c.19-.63.52-.62,1.14-.68.12.12-.57,1.12-.74,1.18-.39.16-.08-.34-.41-.51-.46,1.52-1.36,3.7-2.17,5.13-.11.19-.22.42-.45.47l.44-2.66c.41-.67.97-1.52,1.32-2.21.31-.62-.07-1.19.86-.72ZM94.64,125.77v-.51h.33v.51h-.33ZM96.52,131.19c-.34.2-.65.38-1.06.34-.21-.23.71-2.46.92-2.86.19-.37,1.32-1.87,1.34-1.99.08-.46-.23-.72-.62-.4-.22-.78.33-.94.55-1.37.64-1.27,2.02-4.26,3.28-6.46-.36,0-.67,0-.73,0-.02,0-1.91,0-1.91-.02s1.77-.02,1.91-.02c0,0,.35,0,.75,0,.64-1.11,1.24-2.01,1.7-2.38.14-.12.25-.4.41-.09.25.48.15,2.45.58,3.14l-1.33,2.95c-.45.38-.83-1.27-1.63-.25-2.14,2.74-.77,7.42-4.17,9.4ZM103.55,118.28l.39-.82.4.21-.39.82-.4-.21ZM103.63,116.28c-.78-.51-.4-1.86.16-2.37-.15.82-.3,1.53-.16,2.37ZM97.91,120.18c.07.33-.04.5-.16.76-.14.32-1.21,2.52-1.33,2.6-.07.05-.45.09-.47-.06.8-.89.93-2.58,1.96-3.31ZM91.21,145.77h-.33c-.05-.25.07-.35.25-.51l.08.51ZM91.53,149.33c-.25.78,1.15,1.68,1.13,1.92-.04.55-1.73,2.21-2.08,1.01-.16-.53.44-3.43.95-2.93ZM94.89,157.97c-.16.4-.37,1.53-.49,1.69-.21.28-3.24.61-3.52.43-.7-.47.91-.9,1-1.05.27-.44.35-2.1.56-2.77.27-.89,1.17-1.88,1.06-2.78-.07-.54-.64-1-.48-1.62,1-.19,1.87-.96,2.93-.86-.34.89-.03,1.65,0,2.54.28.04.16-.39.16-.59,0-.34-.13-1.81,0-1.95.24-.26.29.06.35.24.04.14.14,1.81.13,2.02-.08,1.25-1.21,3.48-1.7,4.69ZM99.82,156.57c-.1.19-.42.01-.11.89l-.32-.17c-.05.39.15,1.2-.16,1.45-.21.16-2.75.74-2.95.59.27-.28.6-1.59.76-1.71.37-.28,1.11-.03,1.53-.24.53-.26.45-1.4,1.23-1.44.17.09.1.49.03.63ZM98.4,154.92l-.65,1.35c-.19-.53,0-1.32.65-1.35ZM99.55,152.3l-.5.41c-.28-.35.7-3.01.91-3.54.33-.83.93-2,1.33-2.86.11-.23-.1-.47.37-.37l-2.11,6.36ZM101.25,142.39c-.3,1.28-1.24,2.63-1.85,3.82-.72,1.4-1.18,2.28-1.64,3.89-.21.73-.11,2.15-.99,2.28.18-.66-.06-1.64.03-2.24.07-.48.54-2.44,1.11-1.82v-1.87s-.98.93-.98.93c-.43.57-1.14,2.1-1.55,2.46-.17.15-1.63.8-1.39.25.1-.23.64-.74.84-1.16.17-.34.42-.94.54-1.3.07-.21.2-1.16.25-1.19.04-.03.28.18.39.17.12-.01.08-.26.14-.3.09-.06.55.21.61-.13.07-.43-.48-.63-.49-.68-.02-.09.32-.85.36-.89.15-.14.51.11.46-.21l-.49-.43.82-.25c-.16.46.1,2.12.31,2.43.04.06,1.11.67,1.16.62,0-.4-.03-.9-.15-1.28-.1-.35-.44-.17-.36-.84.04-.33.32-.23.34-.37.1-.47-.27-1.08-.17-1.66.07-.38.44-.56.58-.94.11-.3,0-1,.08-1.36-.58-.08-.38,1.09-.73,1.35-.39-.32-.66-2.22-.58-2.62.03-.17.36-.02.46-.12.09-.08.1-.49.23-.7.91-1.49,1.95-2.91,2.68-4.51.37-.81,1.81-4.34,1.87-5.01.02-.25.09-.5-.25-.42-.69,1.08-1.42,2.17-2.08,3.27-.18.31-.87,1.91-.95,1.98-.12.1-.43-.1-.47-.27-.02-.09.43-1.57.52-1.8.77-2.08,2.01-4.82,2.94-6.78.62-1.31,1.18-2.68,2.01-3.84.56.59,1.65,0,1.99.19,1.07.64-.55,3.08-.86,3.87-2.11,5.26-3.77,10.93-4.83,16.52l.65.17c-.95.42-.47.28-.58.78ZM107.22,112.38c.04.9.04,2.05.21,2.92.11.57.62,1.42.61,1.72-.02.47-1,2.48-1.35,2.76-.23.19-1.19.47-1.1-.04.21-1.2,2.77-2.77.74-4.32-.52.63-1.04,1.17-1.47,1.86-.38.07-.2-.18-.25-.42-.27-1.31.09-.81.58-1.27.88-.81,1.23-2.36,2.04-3.22ZM105.92,105.78c.02-.33-.04-1.13.49-1.02.07.45-.07.85-.49,1.02ZM113.29,111.77s.01.04.02.06c0,0,0,0-.02,0,0,.21,0,.43-.02.64-.03.41-.29,2.4-.4,2.63-.2.41-.48-.36-.67-.49-.51-.34-1.33.01-1.69.41-.55.59-.65,2.27-1.31,2.79-.03-.55.37-.97.46-1.48.07-.43-.07-.74-.04-1.08.02-.25.34-1.06.24-1.16-.34-.34-.56.59-.81.34-.25-.25-.4-3.68-.16-4.24.2.37,1.23.79,1.68,1.03.39,0,.84,0,1.25,0,.12-.03.26-.05.32-.1.25-.21.54-.76.79-1.05.1-.11-.01-.33.37-.22-.03.64.02,1.28.02,1.92ZM117.05,112.07s1.91,0,1.91.02-1.77.02-1.91.02c0,0-.38,0-.8,0l-1.84,4.34c.44-2.26.52-4.61,1.31-6.78.77.74.93.07,1.63-.17l-1.09,2.57c.38,0,.72,0,.78,0ZM120.99,115.73c.38-.79,1.63-1.71,1.83-2.34.25-.77-.13-1.76,1.07-2.03.12.14-.34,1.27-.33,1.62.01.52.48.74.48,1.17,0,.51-.54,1.23-.45,1.92.04.34.3.64.28.77-.03.18-2.3,2.06-2.68,2.48-.75.83-1.3,1.88-2.04,2.71.71-1.89.99-4.55,1.84-6.31ZM120.05,105.95l.33-.34.41.42-.33.34-.41-.42ZM119.69,125.4c.48-1.17,1.11-2.53,1.83-3.52.12-.03.1.16.08.25-.45,1.47-1.41,3.11-1.96,4.58-.77,2.05-1.43,4.16-2.18,6.22-.08.22-.08.75-.13.8-.08.08-.49-.06-.72.18-.06.06-.14,1.37-.21,1.64-.06.23-.3.25-.3.28-.06.2-.09,1.09-.25,1.28-.04.05-.75.23-.78.21-.33-.31.68-.38.32-.68-.02-.02-.46-.02-.49,0-.09.06-.2,1.89-.17,2.12.04.39.32.74.3.98-.03.32-.54.95-.62,1.34l-.81.8c-.06-.28.44-1.38.32-1.52-.3-.37-1.22,1.95-1.32,2.02-.59.4-.42-.45-.56-.82-.1-.26-.51-.61-.56-.77-.13-.43.39-.16.47-.26.08-.1-.04-.52.02-.74.34-1.23,1.17-2.4,1.47-3.4.06-.22.25-.46-.09-.59-.07-.03-.6,1.09-.73,1.24-.1.12-.67.27-.77.5-.4.97-.78,1.74-1.52,2.58-1.86,2.14-3.17-.75-2.33-2.41,1.07-2.12,2.65-5.05,4.43-6.59.18-.16.25-.41.43-.57.55-.06-.02.66-.03.95-.03.58.38.79-.23,1.33l.18,1.78c.33-1.25.49-2.71.86-3.94.11-.35.44-1.3.57-1.61.26-.61,1.5-1.45,1.65-2.2.12-.61-.24-1.03-.25-1.51-.03-1.24,2.46-4.68,2.73-6.16.29-.03.18.58.16.76-.06.6-.56,2.08-.46,2.51.11.48.76.42.79.46.16.18-1.52,4.02-1.71,4.58-.36,1.04-1.02,2.84-1.19,3.85-.03.18-.17.59.12.55-.07-.57.27-.14.58-.32.54-.32.2-.81.24-.86,1.12.58-.36.9-.27,1.62.02.16.33.46.51.42.37-.09,2.18-6.33,2.58-7.32ZM116.61,141c.31-.38.82-.13,1.37-.94.57-.84.41-1.42.64-2.22.08-.28.77-1.82.7-1.9-.26-.29-.35.23-.42.32-.45.59-.79,1.43-1.21,1.97-.25.32-.87.55-1.07,1.1-.27-.86-.63-2.74.74-2.37.11.1-.41.91.16,1.02l3.68-10.17c.44.48-.21,1.32-.33,1.85-.69,3.07-1.05,6.23-1.08,9.39-.72.53-1.23,1.26-1.86,1.88-.62.61-1.48,1.77-2.36,1.71.63-.37.68-1.16,1.05-1.63ZM115.39,138.48c-.46.4-.48-.99.33-1.02.08.1-.29.98-.33,1.02ZM118.17,134.58s-.47.01-.49,0c-.39-.34.26-2.28.65-1.86.15.16-.25.45-.28.61-.04.23.27,1.1.12,1.25ZM117.68,134.92c.23.29-.57,1.14-.4,1.53-1.34.86,0-2.01.4-1.53ZM118.99,131.19c.11.12-.3.84-.41.84-.4,0-.06-.97.41-.84ZM112.45,145.34l-.49.43v-.68c.13.02.45-.04.49,0,.03.03-.02.16,0,.25ZM111.63,145.01c-.43.27-.05-.3-.71.53-1.16,1.46-3.91,5.78-5.29,6.47-.32.16-.67.23-1.02.21.21-.69.64-.97.67-1.78.03-.91-.66-1.95-.64-2.49.01-.34,1.53-5.79,1.7-6.05.03-.05.75-.85.8-.86.03,0,.27.18.35.24,1.46,1.1,2.22.37,3.74-.24.07.01.52,1.18.54,1.32.14.74-.65.61.81.93.08.02.3-.19.2.2-.02.09-1.07,1.48-1.15,1.53ZM103.14,134.41c.88.44.47-.21,1.14-.34.25.28-1,1.47-1.22,1.69-.72-.68.61-.39.08-1.35ZM102.98,136.79v.34s-.66,0-.66,0v-.34s.66,0,.66,0ZM104.94,134.24s.44-.92.65-.68c.23.27-.32.93-.65.68ZM105.1,135.43c-.09-.1.14-.5.24-.5.45,0,0,.76-.24.5ZM104.94,130.01h-.33v-.51h.33v.51ZM104.77,135.77c.08.1-.36.86-.41.85-.47-.15.21-1.09.41-.85ZM104.42,137.78c-.62.54-1.18-.87.19-.82.03.03-.15.79-.19.82ZM103.79,132.55c.17-.17.65.34.49.51-.17.17-.65-.34-.49-.51ZM103.63,135.94v.51h-.33v-.51h.33ZM104.45,138.14c-.38.07-.65,1.99-.16,1.35.02-.02-.05-.26.12-.51.29-.43.45-.47.65-1.15.21-.69.04-1.84.86-1.9-.17,1.77-.54,4.85-2.78,4.74-.09-.51.5-3.13,1.31-2.54ZM106.29,134.01l1.09-1.97-.79,2.83-.52.9c-.14-.67.4-1.13.21-1.75ZM106.08,129.5c.13-.62.26-1.49.81-1.86.04.64-.38,1.42-.81,1.86ZM108.06,131.73c.05-.09.54-.13.61-.47.09-.43-.56-.88-.43-1.46.03-.14.42-.9.62-.64-.11.57.17.42.65.68,0-.13.04-.27,0-.39-.03-.09-.64-.19-.33-.45.3-.25.97.51.65,1.02-.11-.01-.21-.11-.33-.17.02.33-.07.79.46.47.15-.09.62-1.36.92-1.67.32-.33.84-.37,1.08-.74.53-.81.74-3.1,1.45-4.21.16-.24,1.08-.93,1.31-1.31,0,.35-.09.73-.21,1.05-1.08,3-2.07,4.82-4.27,7.09-.39.4-.71.71-1.07,1.09-.2.21-.63.22-.82.51l.65.17c-.4.19-.85,1.76-1.06,1.78-.48.04.17-1.65.2-1.8.04-.17-.16-.44-.1-.54ZM110.08,126.97c-.08.16-.03.45-.32.33-1.33-.54.11-3.66.35-4.54.48-1.73.86-3.5,1.56-5.16.06-.15.64-1.65.94-1.31-.77,3.03-1.23,6.32-2.04,9.32-.12.45-.28.95-.49,1.36ZM110.32,127.97c0,.18-.14.33-.32.33s-.32-.15-.32-.33.14-.33.32-.33.32.15.32.33ZM113.11,121.37c.09.1-.14.5-.24.5-.45,0,0-.76.24-.5ZM115.23,123.4h-.16c-.16-.35.21-1.08.49-.84.03.03-.44.59-.33.84ZM114.91,121.87c-.11-.14.44-.96.65-1.02.07.47-.29.82-.65,1.02ZM114.9,124.92c0,.57-.52.75-.98.68.04-.88.35-.56.98-.68ZM116.7,129.84c.08-.46.77-.58.98-.33.36.42-.83.48-.98.33ZM114.42,103.91c-.39-.31.9-.59.98-.51.16.52-.81.64-.98.51ZM114.41,105.1c.1.11-.04.59-.25.68-.57.22-.06-1.02.25-.68ZM113.92,108.32v.68s-.32,0-.32,0c-.09-.09.24-.88.32-.68ZM114.32,117.8c.14-.18-.03-.55.26-.5.28.55-1.06,3.5-1.31,3.73-.7.63.1-1.05.13-1.14.35-1.12.23-1.17.92-2.09ZM108.7,101.54v-.51c.17.15.63-.03.65,0,.19.34-.34.5-.65.51ZM109.02,100.52c-.22.12-.39-.77-.32-.85h.33s0,.85,0,.85ZM109.35,118.32c.13.43-.6,2.33-1.14,1.69-.09-.11.27-.74.36-.9.12-.22.47-.87.79-.79ZM107.88,103.57c-.39.13-1.13-.27-1.07-.68.02-.14,1.1-2.27,1.22-2.43.12-.16.46-.14.5-.1.19.17-.85,2.7-.65,3.22ZM102.06,138.54c.02-.05.23-.07.26-.18.07-.31-.2-.96.25-.9.44.67.38,1.8-.49,2.03-.36-.06-.08-.79-.02-.96ZM102.65,139.67c0,.1.03.28,0,.34-.01.02-.44.09-.4.34-.59-.57-.09-.46.41-.68ZM110.06,153.53c-1.81,1.3-4.33,2.46-6.33,3.44-.29.14-1.6,1.29-1.7.58-.06-.39.63-2.5.74-3.1.06-.3.12-1.83.2-1.91.51-.11.8.41,1.23.5.61.12,1.44-.21,1.76-.13.19.05.63.56.95.72,1.26.62,2.59-.21,3.74-.74-.1.27-.37.49-.6.65ZM120.67,144.53l-5.93,5.14c.19-.46.14-1.35-.54-1.17-.38.1-2.45,3.47-3.13,3.88-.35-.25.95-1.51.33-1.52-.15,0-1.9,1.38-2.63,1.51-.24.04-.47.11-.4-.24l6.06-8.38c1.84.68,2.42.22,3.69-1.09.37-.39,1.97-2.71,2.26-2.65.59.92-.2,2.18-.09,3.31.06.56.52.9.38,1.22ZM120.3,135.26c.05-.57-.28-1.19.49-1.02l-.49,1.02ZM121.11,142.38c-.55.53-.16-1.36.16-1.35-.77,0-.04-.58.33-.68.06.08-.38,1.93-.49,2.03ZM123.65,137.29c.13-.15.86-.12.73-.84l-.49.25c.14-.47.24-1.28.52-1.66.25-.33.52-.24.59-.32.22-.26.12-1.61,1.18-1.32-.58-.75-.17-1.85.49-2.37-.17.81.09,3.06-.36,3.69-.13.18-.59.16-.78.04l-1.56,4.23c-1.46.69-.9-1.07-.32-1.7ZM124.38,141.19h-.33v-.51h.33v.51ZM124.97,138.65c.11-.24-.04-.43.4-.34.09,1.11-1.12,1.85-.4.34ZM125.2,136.95l.33-.68c.26-.03.36.64.32.68-.05.05-.49-.03-.65,0ZM127.63,136.32c-.05.2-1.04,1.54-1.25,1.77-.16.18-.17.47-.52.39.09-.41.84-3.05,1.06-3.05.26.33.84.37.71.89ZM127.48,125.17l-3.76,7.3c.57.23.44.56-.08.77l-.24-.34c-.02.16.02.35,0,.51.1-.02.34-.06.33.09,0,.13-.14.73-.17.76-.43.37-.21-.53-.16-.85-.29.06-1.34,2.71-1.47,3.14-.06.2.04.35.24.25.35-.17-.01-.98.49-.85.11.03.44.64.41.67-.02.02-.35.03-.5.24-.16.21-.12.91-.47.6-.03-.03-.02-.33-.15-.42-.12-.08-.51.18-.66-.17.43-1.34.44-2.8.69-4.19.57-3.13,2.03-8.64,3.65-11.3.24-.4.64-.68,1.11-.51.38.14.2,1.31,1.24.66,0,1.22-.36,2.42-.5,3.63ZM123.08,135.26l-.08.68c-.25-.18-.28-.36-.25-.68h.33ZM125.2,116.11c.28-1.84,1.12-3.89,1.85-5.63.11-.27.23-.92.6-.81.16.84-.53,1.37-.77,2-.46,1.24-.76,2.6-1.31,3.89-.09.21-.08.5-.37.55ZM127.49,106.96c-.18-.16.33-.69.49-.51.25.29-.21.76-.49.51ZM128.31,113.73l-.14-1.05c1.59-3.27,2.85-6.95,5.53-9.45-.48,2.72-2.08,5.74-2.41,8.43-.12,1.03.06,2.07-.12,3.1-.12.69-.64,2.31-1.4,2.53-.13-.97.96-3.01.11-3.67-.6-.47-.96.21-1.58.11ZM134.07,116.49c.08.41.4,1.13.41,1.43.02.7-.72.78-1.05,1.13-.31.33-.82.94-1.1,1.31-.24.31-.96,1.69-1.08,1.76-.27.16-.81.03-1.09.4-.63-.11-.19-.35-.13-.65.05-.27.32-1.63.41-1.7.04-.04.74.45,1.06,0,.46-.63.76-5.11,1.55-5.69,1.25.23.85,1.13,1.03,2ZM138.52,114.09c-.74,1.91-1.56,3.78-2.38,5.65-1.54,3.55-3.31,7.98-5.33,11.25-.12.2-.99,1.46-1.07,1.51-.14.08-.31.03-.46.04.35-.17.43-1.27,0-.84-.23.23-.01.88-.05,1.07-.04.21-.67,1.49-.77.71-.22-1.72.87-4.65,1.85-6.05.62-.87,2.88-2.55,3.02-3.48.05-.35-.24-.73-.11-1.13.04-.14,1.46-1.5,1.7-1.8.95-1.23.32-1.11.4-2.09,0-.05.59-.37.6-.71,0-.24-.46-.83-.27-1.27h.66c-.06-.81-.2-1.4-.12-2.24.05-.53,1.08-4.52,1.26-4.71.01-.01.35-.06.33.09-.02.16-.17.29-.17.34,0,.63-.12,2.25,0,2.71.11.42,1.04.27.9.95ZM139.11,103.64c-.14.19-.47.07-.66.19-.3.19-.42.63-.83.59-.18-.2.8-1.53,1.01-1.75.14-.14.14-.37.46-.29-.04.35.24.95.02,1.25ZM144.32,94.42l-.74,3.55c-.17.25-1.01.56-1.06.78-.03.16.27.42.32.67.16.87-2.14,8.3-2.61,9.66-.15.44-.23.94-.58,1.27l.78-4.1c.19-.79,1.37-4.23,1.14-4.66-.54-.98-1.21-.49-1.92-.54-.95-.07-1.19-.88-2.3.15l-1.38,1.7c-.23-.82.38-.98.63-1.46.25-.48.49-.99.69-1.51-.16-.03-.31-.07-.47-.11-.2.4-.57.68-1.11.71-.02.03-.04.05-.07.08-.12.13-.33.45-.49.17.04-.09.08-.18.13-.27-.96-.1-1.92-.2-2.88-.32-.16.72-.22,1.47-.19,2.19-.75.03-.72-.79-1.6-.39-.16.07-.28.68-.52.39-.31-.37,1.46-1.2,1.95-2.24-.77-.09-1.54-.19-2.31-.3-.17.18-.34.33-.39.4-.58.73-3.41,5.53-3.74,5.52-.06,0-.41-.37-.38-.56.01-.09.61-1.5.7-1.65.49-.86,2.57-1.31.75-2.62.47-.69,1.27-.84,1.94-1.2.02-.01.05-.03.07-.05-1.15-.17-2.3-.36-3.45-.57-.28.05-.57.1-.86.14-.8,2.17-1.11,4.25-3.6,5.41-.31.14-.66.04-.97.18-.27.12-2.63,2.97-2.94,2.62.25-.84.69-2.1,1.11-2.83.33-.57.94-1.08,1.31-1.69.73-1.2,1.06-2.53,1.92-3.77.08-.12.17-.24.26-.35-.1-.17-.18-.37-.22-.57-.47-.11-.94-.23-1.41-.37-1.02-.28-2.03-.59-3.04-.92-.32,1.29-.74,2.79-1,3.56-.32.97-1.06,2.03-1.53,2.99-.14.29-.6,1.67-.68,1.75-.47.48-.23-1.38-.53-1.65-.04-.04-.92-.36-1.02-.36-2.18-.08-.08,3.37.35,4.3-.29.75-1.03,3.06-1.98,2.98-.75-.07-.17-.62-.1-.96.08-.35.57-2.17.49-2.26-.02-.02-.44-.18-.46-.17-.27.18-.24,1.43-.84,1.34-.25-.66.3-1.34.33-1.79.04-.57-.52-.77-.16-1.68.28-.7,1-.41,1-1.19,0-.7-.51-.59-.68-.88-.43-.73.27-3.55.34-4.55.04-.64.07-1.3.09-1.95-.55-.06-1.1-.15-1.65-.26-.01.62-.04,1.11-.1,1.35-.03.11-1.4,1.12-1.67,1.48-.66.9-.89,2.43-2.23,2.36.26-1.53.14-3.18.91-4.56.03-.06.09-.14.15-.22-.62.14-1.27-.13-1.67-.62-.68,1.24-.9,2.45-1.03,4.47-.1,1.49-.23,3.08,1.63,3.13-.28.69-.98,4.18-1.3,4.49-.31.3-.51-.31-.61-.57-.96-2.63-.23-7.86.88-12.34-.52-.01-1.03-.25-1.35-.7-.18.83-.37,1.57-.59,2.04-.25.54-.89.74-1.02.97-.14.25-.04.58-.18.83-1.03,1.97-2.16,2.97-3.1,5.43-.08.21-.06.65-.08.68-.02.02-.48.02-.49,0-.2-.35.35-.53-.74-1.02-.22.33-.41.87-.9.84.3-1.14.55-2.34.78-3.51.18-.9.03-2.07.85-2.76-.19,1.45.22,1.86,1.62,1.67.51-1.21-.24-4.05.5-4.99.36-.45,1.15-.38,1.24-1.25.1-1.02-1.19-.96-1.22-1.62-.02-.33.28-.92.31-1.37.13-1.98.02-3.98,0-5.94,0-.39.21-.76.15-1.14-.1-.57-1.15-1.86-1.69-1.81-.33.02,0,1.02-.73.5-.34.93.14,1.4.25,2.19.11.72.44,5.4.24,5.6-.09.09-.97-.21-1.32.24-.14.18-.94,3.01-1.06,3.48-1.16,4.8-1.56,9.82-2.68,14.63-.88.9-.67-.04-.91-.05-.08,0-.62.61-.57.84-.72-.9-.74-1-1.87-.67-3.18.93-3.68,7.43-4.59,10.15-.39,1.16-1.25,2.61-1.79,3.73-.06-.99.33-2.01.57-2.97.6-2.38,1.23-5.34,2.31-7.6.47-.97,1.53-1.6.64-2.74-1.94.38-2.55,2.5-3.11,4.24-.3.92-.8,3.66-1.17,4.21-.09.13-1.22.86-1.39.93-.2.08-.41.16-.35-.19.28-1.61,2.06-6.3,3.08-7.48.54-.62,1.63-.84,1.44-1.82-.34-1.84-2.43.21-3,.89-.32.37-.86,1.6-.93,1.66-.36.26-1.42.29-2.01.88-1.45,1.42-2.43,8.28-2.97,10.65-.58,2.54-1.85,4.23-2.74,6.65-.16.44-.32.89-.41,1.35l.49-.85c.06-.05.32.21.32.25,0,.08-.54,1.35-.73,1.44.03-.51-.47-.57-.55-.78-.12-.36.06-.92-.18-1.31-.21-.34-.95-.24-.99-.28-.15-.15.82-3.84,1.06-4.07.37-.35,1.29.4,2.26-.53.85-.82.94-2.17,1.05-3.28.06-.61.11-1.24.18-1.88.04-.33.17-2-.3-1.85-.13.04-.75.26-.79.29-.08.06-.86,1.41-1.02,1.66-.44.1-.35-.2-.32-.59.33-3.93,1.26-5.5,3.07-8.68.36-.63,1.32-2.54,1.15-3.15-.32-1.12-1.25.06-1.61.29-.86.55-1.72.89-2.36,1.79-.22,0-.32-1.2-1.48-.51-1.03,1.23-2.35,2.04-3.42,3.23-1.83,2.04-3.27,4.69-5.06,6.78-.24-.14,0-.43.08-.59.85-1.63,3.26-6.16,4.65-7.04.4-.25,2.16-.55,1.06-1.42-1.5-1.19-3.91,2.18-4.64,3.3-1.19,1.85-1.82,4.07-3.43,5.59l-2.21,3.55c-.08-1.73,1.35-3.4,1.71-4.9.04-.17-.12-.48-.07-.52.04-.03.31.07.5-.11.46-.45,1.47-2.68,2.05-3.43.91-1.19,2.17-2.06,3.18-3.14.44-1.02,0-1.98-1.15-1.45.46-.27.1-1.03-.27-1.16-.6-.21-1.84.56-2.41.5-.2-.02-.09-1.64-1.55-.59-2.39,1.71-4.66,5.44-5.87,8.15l-1.33,3.28c.03-.64-.06-1.3.02-1.93.21-1.75,2.58-5.39,3.67-6.87.41-.55,2.13-2.2,2.24-2.43.32-.65.36-1.63-.5-1.79-.88-.17-.86.53-1.19.73-.37.23-1.41.42-2.01.79-2.62,1.63-2.7,5.48-3.78,8.11-.31.76-.9,1.61-1.26,2.43-.24.54-.27,1.33-.79,1.64.43-2.82,1.07-5.6,1.76-8.36-.27-.78-.76-1.35-1.64-1.13-.22.05-.18.64-.6.51.03-.31-.19-.64-.17-.93.04-.48,2.48-3.32,2.82-4.03.45-.83-.06-2.03-1.01-1.57-.38.18-1.31,1.62-1.61,2.07-.36.54-.79,1.54-1.1,1.91-.2.24-.4.04-.4-.08,0-.05.26-.32.29-.54.07-.61-.06-1.25.19-1.84,1.19-2.54,2.44-5.06,4.01-7.36.08,1.64.55,2.68,2.32,2.07,1.48-.5.94-1.79,1.53-2.48.3-.35.6-.22.89-.43.49-.36,1-1.06,1.06-1.7.3-.03.21.56.35.65.1.06,1,.06,1.1,0,.27-.4-.02-.83.03-1.22.14-1.05.58-2.08.48-3.16.5-.09.26.14.33.41.31,1.17,1.19,4.16,2.04,4.84,1.44,1.14,2.5.58,3.85-.24.18-.11.45-.08.63-.2.66-.44.69-2.01.97-2.38.33-.43,1.74-.25,1.32-1.76-1.59.6-.56-1.7-.33-2.54-.78-.19-.26.34-.65.51-.42-1.7-.1-3.29.68-4.8.8-1.54,2.3-2.47,3.32-3.84l-.85,1.99c-.59,2.67-1.13,5.68-.86,8.43.08.87.36,1.45,1.24,1.6,1.83.31,1.33-2.53,1.79-2.53.19.42,1.11.64,1.21.96.12.4-.25.92-.3,1.34-.17,1.57.26,3.88,2.19,3.81.17,0,2.2-.45,2.31-.5.54-.25.86-2.18.88-2.82,0-.26-.29-1.14-.16-1.27.05-.05,1.11.04,1.32-.28.31-.46.52-2.14.76-2.73.29-.72.41.24.58.5.22.32.63.52.72.94.15.68-.1,1.53.08,2.13.09.31.53.47.6.74.12.51-.57,1.39-.22,2.25.17.42.45.55.77.55.33-.54.92-.89,1.68-.69.11-.02.22-.03.34-.03.4,0,.72.12.98.31.23.02.47.04.71.04,0-.2,0-.4.02-.59.22-1.79.33-3.74.69-5.55.4-1.98,2.15-5.33,1.68-7.1-.28-1.05-1.66-.08-1.72-.15.17-.9.36-2.32-.18-3.11-.19-.27-.61-.32-.64-.7-.02-.23.09-.58.27-.98-.54-.07-1.08-.11-1.62-.13-.23.71-.43,1.37-.6,1.88-.26.26-.74-1.23-1.48-.43-.81.89-.32,2.37-.31,3.39.02,2.09.09,4.17-.5,6.19-.31-.05-.27-.36-.35-.57-.15-.42-.59-1.57-.63-1.9-.08-.61.24-1.12.12-1.63-.11-.49-.74-.78-.78-.94-.14-.5-.24-2.14-.16-2.66.17-1.11,1.43-1.81.39-3.16-.96-.26-1.77,2.07-1.86,2.82-.16,1.45.65,3.34.62,4.71,0,.23-.53,2.72-.64,2.81-.36.31-.49-.43-.73-.34l-.74.68c.08-.88-.23-1.92-.15-2.78.05-.53.34-.86.32-1.53-.05-1.21-.92-1.61-.81-2.7.09-.83.88-2.17,1.39-2.8.25-.31,1.22-.83,1.18-1.26-.08-.99-1.17-.66-1.46-.86-.33-.23-.03-2.39-1.87-.94-.59.46-.85,1.24-1.28,1.63-.33.3-.73.51-1.17.9-.75.67-1.59,1.07-2.13,2.03-.26,0-.19-1.06-1.12-.96-.82.09-.73.65-1.08,1.05-.52.59-1.14,1.08-1.55,1.77-1.32-1.2,1.53-2.97.14-3.91-.89-.6-1.38.53-1.77,1.19-1.72,2.93-3.89,9.05-3.49,12.44.14,1.21.94,1.42,1.04,1.95.05.27-.12.7-.07,1.11.1.85,1.3,1.96-.73,1.62-2.11-.36-2.77-5.78-2.55-7.54.14-1.09.61-.52,1.04-.61,1.07-.24-.12-1.85-.17-2.28-.07-.72.74-1.83.9-2.56.41-1.91.64-2.47,1.7-4.17.57-.92,2.12-1.96,1.04-3.17-.88-.99-2.38,2.18-2.78,2.72-.01-.69.44-.8.05-1.57-1-1.95-3.11,2.7-3.8,3.26-.87-3.3-2.61.21-3.43,1.53-.06.03-.09-.72-1.14-.5-.47.1-3.81,3.62-4.24,4.24-.67.95-1.3,2.34-1.76,3.43-.29.69-1.35,4.15-1.52,4.36-.28.33-.84-.08-1.19.63-.12.23-.38,1.25-.36,1.48.03.33.41.58.48,1.03.13.83-.22,1.9-.16,2.88.05.77.56.76-.24,1.6-.19-.09-.41-2.07-1.61-1.68-.39.13-1.12,2.64-1.09,3.2-.44.13-.48-.6-.75-.66-.62-.16-2.07,2.53-2.38,3.09-1.77,3.19-2.65,6.4-3.58,9.93-2.44-.33.35-1.79.35-2.44,0-.28-.36-.45-.45-.72-.22-.64,0-1.82-.82-1.36-.08.05-.9,1.31-1.05,1.54-.23.35-.56,1.65-.61.21,1.15-2.54,3.23-4.63,4.7-7,.18-.6-.53-1.58-.59-2.02-.04-.29.32-.51.26-.94-.07-.49-.46-1.11-1-.95-1.19.35-4.33,8.23-5.83,9.29-.16-2.04.49-4.06,1.57-5.75.48-.75,2.77-2.49,1.77-3.22-.95-.69-1.54.44-1.93.32-.22-.07-.26-.49-.43-.59-.29-.18-.69.01-.98-.17-.16-.1-.19-.49-.43-.58-.46-.16-.91.4-1.26.34-.03,0-.06-.05-.09-.1-.49.15-.99.28-1.49.39-.19.28-.37.6-.54.82-.13.16-.42.24-.6.48-1.39,1.82-.08,4.52-1.79,6.02-.03-1.75.16-3.71.83-5.32.2-.48.68-1.18,1.02-1.8-1.54.22-3.06.2-4.56-.02-.03.03-.06.07-.09.1-.37.52-.69,2.77-.65,3.48-.68.11-.17-1.18-.16-1.6.01-.52.07-1.32-.08-1.8,0-.03-.12-.2-.25-.41-.91-.2-1.82-.47-2.72-.8-.2-.07-.38-.17-.53-.28-.25.55-.47,1.12-.68,1.67-.79-.8-.99-.98-2.12-.68.07-1.11-.44-2.07-.61-3.18-.45-2.97.9-7.26,1.95-10.08.36-.96,1.36-1.72.05-2.51-.95-.57-1.19.42-1.89.86l.16-1.86.32.34c-.02-2.54.85-5.03.98-7.54.17-3.16-.32-6.73-.17-10,.16-3.4,1.79-11.89,3.2-14.81.2-.42.79-.47,1.02-1.32.15-.57-.15-.3-.29-.38-.17-.1.46-.32.59-.49.53-.67.4-1.54.7-2.16.16-.33,1.16-2.07,1.16-2.2,0-1.13.02-.48.34-1.33.16-.44.78-2.89.91-2.99.29-.23.93-.13,1.25.03.14.07.11.34.21.34.21-.01.39-.28.66-.33.85-.17,1.93.04,2.44-.69,0,.49.79.28,1.11.13.23-.1.23-.37.31-.43.38-.25,1.35-.43,2.08-.98.51-.38-.46-.09,0-.51.72.05,1.73-.77,2.41-.89.36-.06.99.1,1.51-.15.38-.19.82-.75.97-.8.2-.08.44.15.66,0,.11-.08.12-.36.19-.41.15-.12.45.18.64.07.08-.05.11-.32.19-.37.54-.31,1.92-.85,2.32-1.24.13-.13-.1-.37.18-.51l.57.17c-.33-.81-.02-.34.28-.56.35-.26.19-.54,1.04-.38,1.97.39,2.74.45,4.8.24.31-.03.81-.35.98-.31.43.1.29,1.66,1.24,1-.14.73-.9.31-.08,1.19,1.95,2.1,5.47,1.31,7.94-.03.09-.96.83-1.84,1.94-1.54.12-.14.28-.26.49-.29.03.03-.03.18-.13.41.66.21,1.33.36,2.01.48.05-.11.09-.22.08-.29,0-.28-.46-.71-.7-.81-.42-.17-.92.27-1.09-.12.64.02,1.34-1.08,1.84-1,.06,0,1.05.54,1.11.58.08.07.5.65.98.98,2.15,1.48,4.97,1.32,7.26-.06.39-.23,1.78-1.51,1.96-1.52.21,0,.4.15.57.26.5.34,1.39,1.2,1.87,1.45.85.43,1.69.08,2.43.18.76.1,1.39.54,2.32.48,1.55-.09,3.61-1.19,4.91-2.03.34-.22,1.31-1.12,1.5-1.16.39-.1,1.3.39,1.78.47,2.49.39,5.06-.3,7.38-1.13.28-.1.65-.49.81-.52.07-.01,1.27.47,1.32.53.08.09.09.42.28.64.74.87,1.47,1.04,2.59.8.52-.11,1.23-.85,1.66-.81.26.02.87.49,1.21.63.33.14.98.16,1.18.31.36.27-.02.91-.01,1.35.03,1.66,2.02,3.07,3.32,3.69.37.17.82.1,1.16.32.32.2.56.83,1.13,1.2,2.81,1.82,4.07.03,6.31.05.49,0,.91.64,1.08-.09.05.62.1.69.41.74,1.08-.03,2.15-.04,3.21,0,.95-.2,1.87-.5,2.78-.69.31-.06.85.4,1.03-.22l-.33-.34c.47-.08.75.52,1.09.62,1.83.55,3.64-.54,5.25-1.09,1.4-.48,2.82-.53,4.17-.93.78-.23.92-1.69,1.42.96l-.49.09.49.34c.05.27-.31.16-.42.33-.18.29.03,2.47.17,2.89.41,1.29,1.84,2.26,3.15,1.91,1.95-.53,5.29-4.73,6.48-6.5.31-.46.28-1.18.9-.99.15,1.82.59,3.68.5,5.5-.04.77-.51,2.54-.24,3.13.07.16.4.36.4.43,0,.14-.89.37-.75,1.36.04.27.52.37.42.75-.06.05-.46-.11-.5.09-.3,1.64.23,3.94,1.02,5.39.15.28.52.47.59.74.48,1.66-.52,3.91-.62,5.39-.05.87.44,1.59-.33,1.86.67.19.11.4.01.86-.17.79-.42,2.63-.35,3.39.06.64.42.93.44,1.48.06,1.56-.84,5.45-1.09,7.31-.09.66-.5,1.74-.5,2.56,0,.32.35.24.34.32-.35,2.71-.63,5.49-1.19,8.26-.43,2.11-1.58,5.36-1.74,7.36-.04.43.1.69.16,1.08l-.32-.17ZM71.93,120.52v-.34s.65,0,.65,0c-.09.34-.35.38-.65.34ZM73.07,123.91c.04-.38.19-.73.36-1.07.13-.25.26-.73.62-.62-.15.43-.36.96-.57,1.36-.12.24.01.42-.41.33ZM60.65,114.08c.05-.56.35-1.18.59-1.67.75-1.56,1.99-3.56,3.82-3.58l-4.41,5.25ZM51.01,96.46c.04.32,0,.59-.32.68-.04-.32,0-.59.32-.68ZM53.94,90.94c.07-.22,0-.53.33-.59l-1.31,6.61c-.29-.06-.31-.34-.33-.59-.11-1.1.93-4.21,1.31-5.43ZM55.2,95.75c.08.63.71,1.4.71,1.64,0,.23-1.2,2.27-1.47,1.95-.22-.26.32-4.07.48-4.67.06-.23.02-.53.33-.58.09.55-.12,1.15-.05,1.67ZM59.59,85.78c.1-.19-.01-.41.32-.33.2.21.5.45.62.72.45,1.09-1.34,4.86-1.56,6.18-.17.08-.39.06-.53.21-.32.38-.9,2.5-1.23,2.8-.12.11-.18.1-.33.08.37-3.2,1.19-6.82,2.7-9.66ZM60,81.55l-.98,1.18c-.11-.35.75-1.4.98-1.18ZM61.47,82.9c.09.11-.38,1.14-.65,1.19-.16-.22.38-1.53.65-1.19ZM75.19,90.19c-.22.04-.25-.31-.28-.46-.46-2.44.22-4.07.89-6.28.31-1.03.33-2.33,1.19-3.09l-1.8,9.83ZM77.32,96.28c-.5.11-1.01-.25-1.19-.73-.06-.15-.01-1.75.05-1.81.68-.72.82,2.26,1.14,2.54ZM78.79,92.9c0,.37.09.89-.32,1.02,0-.37-.09-.89.32-1.02ZM87.29,86.2c-.08.45-.8,1.17-.65,1.78-.47.1-.33-.24-.33-.6,0-.71.39-2.21.57-2.97.06-.24.19-.93.41-1.01-.1.84.14,2.01,0,2.8ZM86.96,91.54c-.19,1.11-.04,2.41-.16,3.48-.03.25-.03.52-.33.59-.19-1.31-.43-3.01.49-4.07ZM146.45,87.13c-.09-.1.14-.5.24-.5.45,0,0,.76-.24.5ZM162.4,90.47c-.1,3.19-2.7,7.1-3.94,10.06-.92,2.18-2.01,6.31-4.02,7.7-.93.64-3.53.57-4.57.19-.96-.35-1.38-2.84-1.98-3.87-.42-.73-.87-.91-1.22-1.36-.92-1.18-1.81-3.24-1.69-4.77.05-.62,1.12-3.76.95-3.96-.04-.05-.21-.02-.3-.02v-.16c.49,0,.64-.86.77-1.32,1.09-3.99,1.57-8.19,2.63-12.19.06-.12.18-.25.34-.39.22-.81.44-1.62.67-2.43-.31.25-.59.45-.64.39.25-1.67.47-3.37.87-5.01-.3-.74-.19-1.66.64-2.21.02-.01.04-.02.05-.04.13-.34.28-.68.44-1.01.33-.05.67-.07,1.01-.08,1.16-.95,2.47-1.87,3.84-2.56.06-.1.13-.19.24-.29.4-.34,1.05-.52,1.56-.5-.01.03-.03.05-.04.07.61-.19,1.22-.32,1.84-.37,0-.14-.02-.28.02-.35.06-.1,1.76-.66,2.04-.69,1.23-.15,1.84-.02,2.59,1.01,4.18,5.8-.68,11.69-1.99,17.57-.58,2.64-.04,4.15-.11,6.59Z"/>
      <path d="M87.11,100.07c.08.18.19.34.34.45-1.02-.3-1.8.56-2.58.8-2.09.64-5.44.61-7.64.72-3.16.15-9.41.53-12.34-.23-.46-.12-.67-.49-.92-.57-1.89-.59-3.04,1.95-.62,2.47,2.51.54,6.36-.22,8.99.38,3.46.32,6.77-.37,10.14-.68.9-.08,2.03.24,2.73.14.47-.07,2.94-1.12,3.15-1.49.37-.69-.37-1.42-.24-1.52.6.13.96-.04,1.21-.35-.74,0-1.48-.01-2.21-.1Z"/>
      <path d="M80.87,48.46c-.31-.15-.44-.45-.69-.65-.17-.14-.45-.11-.58-.28-.08-.1-.06-.23-.01-.39-.68-.4-1.35-.8-2.02-1.21-.04,0-.08,0-.11-.01-.08-.02-1-.59-1.04-.65,0-.02-.01-.03-.02-.05-.65-.39-1.29-.79-1.94-1.18-.06.15-.15.25-.32.21-.22-.05-.45-.57-.56-.75-.07-.04-.14-.08-.2-.12-.47-.15-1.22-.05-1.08-.65-.47-.28-.95-.56-1.42-.84-.09.13-.25.2-.41.16v-.34s.1,0,.1,0c-.23-.13-.46-.27-.69-.4-.23-.13-.41-.32-.54-.54-.16-.03-.32-.06-.48-.09-.41.31-.82.52-1.2.49-.79-.07-1.85-.69-2.75-.64.06-.07.08-.19.08-.32-.43-.08-.85-.19-1.26-.34-.04.14-.09.26-.15.29-.51.32-1.13-.29-1.26-.84-.99-.13-1.97-.31-2.93-.65-.23-.08-.42-.19-.57-.33-.18.31-.32.55-.37.66-.37.05-.23-.37-.6-.55-1.12-.54-1.48.36-2.2.86-.99.7-1.68.39-2.75.54-.98.14-2.33.52-3.27.52-.61,0-1.03-.45-1.47-.45-.54,0-.95.57-1.31.6-.42.04-1.28-.3-1.8-.33-2.68-.19-5.29.75-7.85.84-.87.03-1.72-.41-2.52.1-.48.31-.41.73-.67,1-.22.23-.67.27-.93.48-.37.31-.86,1.25-1.27,1.65-1.09,1.07-2.57,1.89-3.69,3.12-.93,1.03-1.6,2.33-2.45,3.39-.65.82-1.88,1.06-.89,2.45.03.04.07.07.12.09,4.36-1.38,8.84-2.69,13.43-2.58,2,.05,3.95.51,5.89,1,.83.01,2.52.1,2.78.13.25.03.41.02.56.26-.02.02-.04.04-.05.06.12-.03.26-.04.4-.04.44,0,.8.15,1.06.38.08-.13.16-.26.23-.39.44-.22,4.07.08,4.09.35v.03c6.13.09,12.26.54,18.39.39.36-.04.84-.05,1.36-.04.13,0,.27,0,.4-.01.15,0,.28,0,.41.03.67.02,1.27.04,1.58.01,1.19-.09,1.54-.63,2.69.04.79-.24,1.58-.46,2.36-.73.07-.02.14-.04.22-.05.1-.19-.04-.51.14-.64.47-.36,2.24-.22,2.21-1.59-.03-1.26-1.46-1.11-2.18-1.47ZM29.92,49.18c-.71.09-.21-.96.16-1.02l-.16,1.02ZM32.05,48.84c-.61.56-.06-1.15.25-1.18.52-.05-.2,1.14-.25,1.18ZM53.46,41.81l-.89.93-.57-1.02c.51.07,1.09-.45,1.47.08ZM50.93,43.25c1.58,1.8-.15,2.03-1.55,2.54.09-1.03.87-1.87,1.55-2.54ZM40.48,46.14c-.42.57-1.58,3.13-1.89,3.29-1.75.2-3.49-.1-5.23.25.13-1.06,1.64-1.08,1.97-1.43.24-.25.26-.73.48-1.03.32-.46.97-.78,1.22-1.11.23-.3.95-2.75,1.47-1.17.23.72-.11.37-.37.77-.71,1.07-1.42,2.14-2.15,3.2.71.51,1.45.6,2.18.06,1.06-1.32,1.97-3.01,3.05-4.29.17-.21,1.01-1.21,1.3-.93.21.2-1.82,2.1-2.03,2.39ZM41.53,47.99c-.32-.42,1.14-1.55,1.47-1.69.19.49-1.37,1.83-1.47,1.69ZM43.49,50.02c-.17-.19.62-1.03.82-.84-.06.15-.6,1.08-.82.84ZM43.49,43.67c0-.19,2.04-1.01,2.12-.93l-1.22,2.03-.9-1.1ZM45.45,47.9c.3-.06,1.44-1.48,1.64-1.27.13.14-.17.5-.34.58l-2.11,1.62.81-.93ZM48.56,50.28c-.54.27-2.26-.19-2.94-.26-.08-.12.99-1,1.15-1.09.24-.13.55-.07.79-.19.98-.52,1.59-1.57,2.79-1.76.15.15-1.55,3.18-1.8,3.3ZM53.61,50.52l-3.25-.15c-.03-.19,0-.33.08-.5.17-.39,2-3.02,2.28-3.22.63-.44,1.61-.44,2.37-.68l-1.49,4.56ZM54.11,44.43c-.21-.29,1.5-1.67,1.7-2.04.53-.96-.17-1.17,1.57-1-.26.82-.79,1.98-.77,2.83.02.58.55.87.6,1.4-.59-.33-1.34-.22-1.85-.37-.34-.1-.7-.89-1.26-.82ZM57.52,51.36l-1.45-.15c-.1-.39.26-.68.3-.97.08-.53-.49-.43.44-.72,1.1-1.87,2.08-3.97,3.28-5.75.26-.38,1.65-2.5,2.2-2.04-.14.27-.24.58-.42.84-1.65,2.42-1.83,2.13-2.94,5.09-.47,1.24-1.03,2.44-1.4,3.71ZM62.33,48.97c-.05.41-.59,3.31-.72,3.41-.21.16-1.66-.02-1.62-.73.01-.19.86-2.17,1.01-2.36.27-.36,1.45-1.28,1.33-.32ZM61.63,46.64c-.07-.39.37-.48.46-.8.08-.29-.12-.88.19-.9l.33,1.43-.98.26ZM66.37,43.25c.04.15-.39,1.34-.65,1.01-.12-.15.19-1.13.65-1.01ZM65.06,45.45c-.13.31-.38,1.25-.82,1.18-.05-.64.12-1.19.82-1.18ZM63.02,44.43c-.3-.06-.25-.33-.08-.59.38-.62.79-1.28,1.3-1.78.01.4-.88,2.44-1.22,2.37ZM67.32,49.05c-.02.2-1.24,3.06-1.35,3.19-.32.33-1.56.12-2.05.33-.36-.41,2.06-4.8,2.48-5.47.55-.87,1.66-2.45,2.34-3.17.11-.11.43-.49.57-.34.23.25-2.55,3.65-2.46,4.47.01.1.58.12.47,1ZM70.05,50.37c-.11.3-.18,1-.29,1.14-.09.11-1.01.35-1.21.36-.87.07-.02-.59.2-.98.94-1.61,1.92-3.79,3.5-4.84.46-.31,1.22-.49,1.11.29-.11.74-.96.74-1.44,1.06-1,.67-1.46,1.87-1.88,2.96ZM71.6,51.38c0-.34-.11-.59.24-.51l.41.51h-.65ZM76.17,50.12c-.08.54.31.64.33,1.09l-3.92.17c.21-.34.78-.28,1.05-.69.24-.36.46-1.56.72-2.14.22-.49.68-1.06.94-1.57.25-.06,1.79,1.03,1.84,1.29.13.7-.9,1.42-.96,1.85ZM79.44,50.19l-1.14.34c.2-.34.56-.56.49-1.02.27-.11.79.47.65.68Z"/>
      <path d="M68.78,127.51c.95,1.03-.83,2.23-1.31,2.88-1.66,2.26-2.2,7.04-2.78,9.83l-.77,2.67v-1.02c-.26.27-.52.09-.33-.16.09-.11.71-.06.49-.85-.43-.15-.45.48-.49.51-.12.08-.5-.78-.65.17-.26.05-.17-.24-.16-.42.16-2.27,1.5-8.33,2.42-10.37.41-.92,2.47-4.44,3.58-3.23ZM64.73,136.11c-.23-.05-.43.09-.49.34h.49s0-.34,0-.34ZM64.08,138.99c-.23-.24-.7.64-.65.68.41.31.78-.54.65-.68ZM63.21,139.96l-.11.89.43.06.11-.89-.43-.06Z"/>
      <path d="M63.59,142.89s-.35.06-.32-.08c.29-.32.12-.54-.27-.59-.41-.05-.07.37-.39.33v-.85c.33.21,1.52.67.98,1.19Z"/>
      <path d="M115.56,134.24h.33c.14.57-.41.25-.49.34-.29.31.33.36.34.42.02.42-.65.68,0,1.27-.22-.03-.74.29-.81-.09-.05-.28.6-3.1.74-3.63.05-.19,0-.55.24-.51-.12.9.44,1.55-.33,2.2Z"/>
      <path d="M112.45,136.45c-.6.65-.05-.88-.06-.94-.02-.19-.36-.29-.26-.59.53.34.14-.1.49-.17.03.28-.06,1.58-.16,1.69Z"/>
      <path d="M111.31,142.89c-.08.18-.39-.46-.32-.68.31.08.37.37.32.68Z"/>
      <path d="M41.69,131.7c.2-.67-.21-1.6.49-2.03-.12.6.37,1.96-.49,2.03Z"/>
      <rect x="95.3" y="140.52" width=".16" height=".85"/>
      <path d="M69.15,148.14h-.33c-.05-.25.07-.35.25-.51l.08.51Z"/>
      <path class="cls-1" d="M110.98,113.91c-.28.26-.73-.22-.49-.51.16-.18.66.35.49.51Z"/>
      <path d="M70.94,137.13c-.44.43-.37-.72.16-.85-.04.15-.13.82-.16.85Z"/>
    </g>
    <g>
      <g>
        <g>
          <path d="M134.69,61.22c0-.64.34-1.47.13-2.09-.11-.32-.7-.4-.73-.7,0-.08.17-1.01.3-1.63-.45-.72-.94-1.43-1.47-2.11-.2-.14-.39-.42-.57-.72-.46-.56-.93-1.1-1.42-1.63-.06-.06-.12-.11-.16-.17-.51-.55-1.02-1.09-1.54-1.61-.04,0-.07,0-.1-.01l-.03-.12c-.87-.88-1.72-1.73-2.52-2.56-.32-.33-.47-.7-.5-1.06-.89-.24-1.81-.39-2.75-.49.21.3.36.6.24.84h-2.29c.25-.4.78-.51.82-.93-.77-.04-1.54-.04-2.32-.03-.11.23-.42.52-.63.45-.07-.08.01-.27.15-.43-.94.03-1.87.08-2.8.14-.59.46-1.22.73-1.93.46-.07-.06-.03-.18.05-.33-.71.05-1.41.09-2.09.11-.11.17-.23.3-.36.36-.09.04-1.05.32-1.13.33-.26.03-.57-.17-.93-.11-.75.12-1.47.41-2.23.5.21-.57.29-1.03.28-1.39-.72.15-1.45.24-2.17.28-.11.27-.19.58-.24.94-.92-.04-.99-.32-.75-.89-.58.02-1.15.02-1.73.02-.31,0-.58-.07-.8-.19-.1.02-.22.05-.34.09-.48.15-1.26.73-1.54.78-.41.07-1.76-.17-2.43-.15-1.22.05-1.52.28-2.81.04-.94-.17-1.43.57-2.29.94-1.17.51-2.51.85-3.73,1.21-.3.28-.31.82-.52,1.15-.5.8-1.85,1.58-1.25,2.56.66-.21,1.42-.03,1.86.79.51.95,1.12,1.75,1.81,2.43.05-.35.12-.62.24-.65.28-.06.35.21.4.43.04.18.17.66.25.99.72.56,1.51,1.03,2.34,1.42.15-.3.26-.61.28-.98,2.2,1.4,4.59,2.44,7.11,3.05.01.01.02.04.01.07,1.34.28,2.67.55,3.91.9.16.04.3.11.43.18.72.16,1.43.32,2.11.37,1.48.13,2.98-.18,4.4-.17,2.53,0,6.94.35,9.28,1.24.98.38.39,1.31,1.27,1.73.79.37,1.32-.46,1.79-.35,1.44.94,2.73,2.14,4.4,2.66-.04.18-.12.45-.22.77.6.28,1.17.61,1.75.94.21-.25.45-.37.72-.24.88.43.62,1.04,2.18.65,1.55-.38.3-1.61.16-2.39-.27-1.45.36-2.17,1.14-3.21.15-.2.64-.72,1.17-1.32-.16-.82-.36-1.63-.61-2.43-.32.31-.62.76-1.05,1.28ZM94.36,53.55c-.07.11-.1.49-.36.22-.09-.09-.51-2.31-.45-2.58.03-.15.23-.46.34-.58.13-.14,2.23-1.46,2.38-1.51.53-.17,1.38-.09,1.97-.24-1.52,1.36-2.75,2.98-3.88,4.69ZM98.9,57.42c-.42.28-2.96-1.66-3.6-1.79-.13-.18,1.71-2.88,1.88-2.88,1.3.89-1.85,3.04.08,3.65,1.03.33,1.08-.76,1.45-1.4.72-1.27,3.04-4.59,4.11-5.4.22-.17.34-.32.66-.24-1.28,2.83-2.7,5.6-4.58,8.06ZM103.93,58.06c-.06.38-.93,1.3-1.27.96-.11-.11.51-2.73.98-2.88.25.45,0,.86.03,1.23.02.22.3.43.27.68ZM106.42,58.6c-.12.26-.31.88-.35.91-.05.04-1.13.18-.96-.23.22-.22.99-1.1,1.23-1.1.31,0,.17.23.08.42ZM107.4,60.04l.98-1.27c.19-.09.68-1.83.98-1.44-.09,2.43,1.37,3.33-1.96,2.71ZM109.68,50.29c-.89,1.39-2.34,3.6-3.36,4.82-.16.19-.25.42-.56.35l1.06-6.11c.1-.15,3.02-.42,3.52-.5.14.13-.53,1.25-.65,1.44ZM127.74,51.73c.67.53.37,1.49-.41,1.69l.41-1.69ZM114.26,48.51c.19.18-.97,1.38-1.14,1.18-.14-.51.74-1.55,1.14-1.18ZM111.64,54.52c.33-.83,2.85-3.63,3.6-4.4.19-.2.35-.47.66-.42-.96,2.1-2.51,3.75-3.84,5.59l-.74.68c.05-.45.15-1.03.32-1.45ZM114.51,59.02c-.51.45-.93.12-.74,1.18-.41-.26-1.93.01-2.09-.21-.05-.06-.48-1.42-.45-1.49.07-.16,1.19-1.02,1.48-1.35.46-.51,2.12-2.98,2.37-3.14.38-.24,1.03.04,1.28-.11.22-.14.35-1.3.48-1.62.12-.28.72-1.19.93-1.41.5-.53,3.55-2.56,4.17-1.86l-6.21,8.55c-.48.41-.74,1.03-1.22,1.45ZM118.59,60.54c-.55-.39.09-.81.41-1.01l-.41,1.01ZM122.09,60.63c0,.23.1.4.17.59-.06.05-1.41-.2-1.48-.25-.29-.19.26-1.92.38-2.33.46-1.53,3.23-8.12,4.25-8.89.12-.09.72-.26.76-.22.02.02,0,.38.16.6.26.37.93.7.75,1.26-.07.22-.97,1.63-1.15,1.7-.35.16-.3-.57-.46-.79-.03-.04-.67-.54-.71-.54-.63-.11-.37.79-.42,1.03-.17.87-.3,1.9-.5,2.71-.35,1.45-1.79,3.9-1.76,5.13ZM126.68,54.95c-.22.95-.81,2.01-1.47,2.71.11-1.01.72-2.07,1.47-2.71ZM130.8,62.53c-.09.48.12.81.08,1.12-.12,1.07-.45,2.27-1.58,1.46l.49-.59c-.52.14-.65-.06-.63-.68.03-.85,1.68-2.15,2.26-2.79,0,.53-.53,1-.62,1.48ZM131.89,56.86c-.13.86-.99,1.05-1.38,1.47-1.29,1.38-2.78,3.35-3.01,5.26-.18.03-.33-.02-.5-.08-.15-.05-2.49-1.27-2.61-1.37-.19-.16-.2-.17,0-.34,2.29-2.28,3.75-5.09,5.07-8.05.03-.02.51.32.59.4.36.36.58.97.87,1.38.29.4,1.04.79.96,1.32ZM132.4,62.92c-.66,0-.48-.51-.32-1.02.42.13.33.64.32,1.02Z"/>
          <path d="M114.56,65.84c.26.39-.32,1.57-.46,1.99,2.29-2.43,3.22-.05,3.03,2.38-.14,1.81-1.71,6.75-2.73,8.35-.53.84-.95,1.22-2,1.12-3.24-.29-2.64-5.04-2.18-7.32.32-1.59.96-2.88,1.5-4.37.43-1.17.28-3.04,1.96-2.71.11.02.84.5.88.55Z"/>
        </g>
        <path d="M41.33,60.77c.06.04.04.26.05.28.34.23.34-.32.58-.49.47-.33,1.54-.22,1.79.32.07.15.24,1.81.25,2.11.04,2.1-.3,4.98-.74,7.04-.27,1.26-.76,2.45-.99,3.72-.64.56-1.62,1.07-2.44,1.02-2.43-.14-2.27-2.01-2.22-3.99.09-3.31.91-5.36,1.7-8.41.3-1.16-.22-2.06,1.49-1.82.24.03.34.09.53.21Z"/>
      </g>
      <g>
        <path d="M66.9,24.06c.24.16.65-.12.62.21h-.98c.17-.96.31-.25.36-.21Z"/>
        <path d="M68.5,23.44c-.11.62-1,.09-.82,0h.82Z"/>
        <path d="M57.39,26.99c-.25.26-.52-.48-.49-.51.2-.17.64.34.49.51Z"/>
        <ellipse cx="12.37" cy="42.83" rx=".21" ry=".22"/>
        <path d="M96.94,29.2s-.26-.05-.31.01.21.42.14.49c-.3.32-.47-.3-.65-.34l-.33.51c-.33-.88.22-1.64.73-.68.35-.47-.2-.81.74-.84-.16.15-.29.81-.33.85.23-.05.44.09.49.34h-.49s0-.34,0-.34Z"/>
        <path d="M115.73,8.02c-.01.28-.88.59-.98.51.16-.64.39-.55.98-.51Z"/>
        <path d="M114.42,8.18v.34c-.24.05-.34-.07-.49-.25l.49-.08Z"/>
        <path d="M59.84,9.71c.15.16-.29.67-.49.51-.03-.03.24-.77.49-.51Z"/>
      </g>
    </g>
  </g>
  <g>
    <path class="cls-2" d="M56.98,155.37c2.07,4.88,4.14,9.76,6.21,14.64,2.08,4.89,5.19,10.55,11.19,11.31,1.65,1.96,7.02.19,8.86-1.64,2.68-2.68,5.37-5.36,8.05-8.03,3.58-3.57,7.38-8.38,4.92-12.59"/>
    <path class="cls-2" d="M53.1,193.34c2.47-6.24,8.69-11.28,16.08-13.06"/>
    <path class="cls-2" d="M91.45,200.97c-.1-3.35-.21-6.7-.31-10.05-.08-2.55-.21-5.25-1.84-7.39s-5.33-3.33-7.67-1.75"/>
    <path class="cls-2" d="M61.65,183.79c1.81,2.93,3.18,6.05,4.05,9.27,4.37-.54,9.9.65,14.29,1.09,1.98-3.18,5.78-7.32,7.76-10.5"/>
    <path class="cls-2" d="M63.61,193.44c-5.68,14.55-10.47,29.35-14.34,44.32-1.57,6.06-3.04,12.28-6.68,17.64,4.72,7.53,10.82,14.88,16.36,21.99"/>
    <path class="cls-2" d="M63.34,282.2c9.2-8.38,16.52-17.72,27.18-24.71.87-17.03-3.31-33.91-7.47-50.58-1.01-4.06-2.03-8.12-3.04-12.18"/>
    <path class="cls-2" d="M57.23,217.37c8.32-4.25,16.3-8.98,23.89-14.15"/>
    <path class="cls-2" d="M50.65,267.55c13.76-5.66,27.09-12.13,39.87-19.34"/>
    <path class="cls-2" d="M45.29,254.66c14.36-6.6,28.15-13.94,41.24-21.95"/>
    <path class="cls-2" d="M51.39,237.43c11.81-6.39,23.16-13.5,33.93-21.26"/>
  </g>
  <path class="cls-2" d="M37.74,151.53l-5.1,4.08c10.89,8.15,16.76,23.21,19.01,36.63"/>
  <path class="cls-2" d="M112.08,156.72c1.02,1.67,2.51,3.05,4.26,3.93-10.34,9.44-16.46,25.41-20.43,38.84"/>
</svg>